M48
; DRILL file {KiCad 5.1.6} date Thu Aug 13 18:56:33 2020
; FORMAT={-:-/ absolute / inch / decimal}
; #@! TF.CreationDate,2020-08-13T18:56:33+01:00
; #@! TF.GenerationSoftware,Kicad,Pcbnew,5.1.6
; #@! TF.FileFunction,NonPlated,1,2,NPTH
FMAT,2
INCH
T1C0.0197
T2C0.0256
T3C0.0315
T4C0.0390
T5C0.0670
T6C0.1350
%
G90
G05
T1
X5.2008Y-1.4862
X5.2008Y-1.5157
X5.2008Y-1.5453
X5.2598Y-1.4862
X5.2598Y-1.5157
X5.2598Y-1.5453
X4.0315Y-1.4862
X4.0315Y-1.5157
X4.0315Y-1.5453
X4.0906Y-1.4862
X4.0906Y-1.5157
X4.0906Y-1.5453
X4.6161Y-2.9638
X4.6161Y-2.9933
X4.6161Y-3.0228
X4.6752Y-2.9638
X4.6752Y-2.9933
X4.6752Y-3.0228
T2
X4.2815Y-2.3075
X4.5091Y-2.3075
T3
X4.2677Y-2.9921
X4.5433Y-2.9921
X4.748Y-2.9921
X5.0236Y-2.9921
T4
X3.626Y-3.11
X5.7961Y-1.685
X6.5047Y-1.5866
X2.489Y-1.3701
X6.5047Y-2.2559
X3.9063Y-1.0157
X7.2134Y-0.7008
X3.1976Y-2.2559
X7.922Y-1.6063
X7.922Y-0.937
X5.2713Y-3.2741
X7.922Y-2.2756
X5.7961Y-1.0157
X4.376Y-3.4796
X7.2134Y-1.3701
X1.0717Y-2.0787
X6.5047Y-0.9173
X1.0717Y-2.748
X5.7961Y-2.3543
X3.9063Y-1.685
X8.6307Y-2.0787
X2.489Y-0.7008
X8.6307Y-1.4094
X3.1976Y-0.9173
X6.0663Y-3.0036
X2.489Y-2.0394
X1.7803Y-1.6063
X7.2134Y-2.0394
X3.1976Y-1.5866
X1.7803Y-0.937
X1.7803Y-2.2756
X3.9063Y-2.3543
X1.0717Y-1.4094
X8.6307Y-2.748
T5
X3.4843Y-2.5197
X3.9173Y-2.5197
X0.6496Y-1.5748
X1.0827Y-1.5748
X8.2087Y-2.9134
X8.6417Y-2.9134
X3.1755Y-3.1605
X3.5938Y-3.2726
X5.374Y-1.8504
X5.8071Y-1.8504
X6.0827Y-1.752
X6.5157Y-1.752
X2.0669Y-1.5354
X2.5Y-1.5354
X6.0827Y-2.4213
X6.5157Y-2.4213
X3.4843Y-1.1811
X3.9173Y-1.1811
X6.7913Y-0.8661
X7.2244Y-0.8661
X2.7756Y-2.4213
X3.2087Y-2.4213
X7.5Y-1.7717
X7.9331Y-1.7717
X7.5Y-1.1024
X7.9331Y-1.1024
X4.9885Y-3.6283
X5.3635Y-3.4118
X7.5Y-2.4409
X7.9331Y-2.4409
X5.374Y-1.1811
X5.8071Y-1.1811
X3.9278Y-3.4118
X4.3029Y-3.6283
X6.7913Y-1.5354
X7.2244Y-1.5354
X0.6496Y-2.2441
X1.0827Y-2.2441
X6.0827Y-1.0827
X6.5157Y-1.0827
X0.6496Y-2.9134
X1.0827Y-2.9134
X5.374Y-2.5197
X5.8071Y-2.5197
X3.4843Y-1.8504
X3.9173Y-1.8504
X8.2087Y-2.2441
X8.6417Y-2.2441
X2.0669Y-0.8661
X2.5Y-0.8661
X8.2087Y-1.5748
X8.6417Y-1.5748
X2.7756Y-1.0827
X3.2087Y-1.0827
X5.7015Y-3.2726
X6.1198Y-3.1605
X2.0669Y-2.2047
X2.5Y-2.2047
X1.3583Y-1.7717
X1.7913Y-1.7717
X6.7913Y-2.2047
X7.2244Y-2.2047
X2.7756Y-1.752
X3.2087Y-1.752
X1.3583Y-1.1024
X1.7913Y-1.1024
X1.3583Y-2.4409
X1.7913Y-2.4409
T6
X3.7008Y-2.5197
X0.8661Y-1.5748
X8.4252Y-2.9134
X3.3846Y-3.2165
X5.5906Y-1.8504
X6.2992Y-1.752
X2.2835Y-1.5354
X6.2992Y-2.4213
X3.7008Y-1.1811
X7.0079Y-0.8661
X2.9921Y-2.4213
X7.7165Y-1.7717
X7.7165Y-1.1024
X5.176Y-3.5201
X7.7165Y-2.4409
X5.5906Y-1.1811
X4.1154Y-3.5201
X7.0079Y-1.5354
X0.8661Y-2.2441
X6.2992Y-1.0827
X0.8661Y-2.9134
X5.5906Y-2.5197
X3.7008Y-1.8504
X8.4252Y-2.2441
X2.2835Y-0.8661
X8.4252Y-1.5748
X2.9921Y-1.0827
X5.9106Y-3.2165
X2.2835Y-2.2047
X1.5748Y-1.7717
X7.0079Y-2.2047
X2.9921Y-1.752
X1.5748Y-1.1024
X1.5748Y-2.4409
T0
M30
