%TF.GenerationSoftware,KiCad,Pcbnew,5.1.6*%
%TF.CreationDate,2020-08-13T18:56:40+01:00*%
%TF.ProjectId,ferris,66657272-6973-42e6-9b69-6361645f7063,rev?*%
%TF.SameCoordinates,Original*%
%TF.FileFunction,Soldermask,Top*%
%TF.FilePolarity,Negative*%
%FSLAX46Y46*%
G04 Gerber Fmt 4.6, Leading zero omitted, Abs format (unit mm)*
G04 Created by KiCad (PCBNEW 5.1.6) date 2020-08-13 18:56:40*
%MOMM*%
%LPD*%
G01*
G04 APERTURE LIST*
%ADD10C,0.010000*%
%ADD11C,0.600000*%
%ADD12C,1.801800*%
%ADD13C,1.090600*%
%ADD14C,2.132000*%
%ADD15C,3.529000*%
%ADD16R,1.900000X2.200000*%
%ADD17R,0.700000X1.550000*%
%ADD18R,0.400000X1.550000*%
%ADD19O,1.100000X2.200000*%
%ADD20C,0.750000*%
%ADD21O,1.100000X1.700000*%
%ADD22R,1.600000X0.650000*%
%ADD23R,0.650000X1.600000*%
%ADD24O,2.100000X1.700000*%
%ADD25C,0.900000*%
%ADD26R,1.000000X1.300000*%
%ADD27C,0.100000*%
%ADD28R,1.800000X1.000000*%
G04 APERTURE END LIST*
D10*
%TO.C,G\u002A\u002A\u002A*%
G36*
X109946467Y-29065824D02*
G01*
X109946639Y-29065547D01*
X110012382Y-28963158D01*
X110062831Y-28895590D01*
X110106688Y-28852890D01*
X110152652Y-28825101D01*
X110159618Y-28821894D01*
X110216233Y-28808691D01*
X110320432Y-28797655D01*
X110469041Y-28788963D01*
X110658882Y-28782795D01*
X110886781Y-28779328D01*
X110923619Y-28779054D01*
X111141590Y-28776359D01*
X111322983Y-28771439D01*
X111464583Y-28764475D01*
X111563171Y-28755644D01*
X111615535Y-28745125D01*
X111622941Y-28740293D01*
X111627217Y-28722454D01*
X111624601Y-28689662D01*
X111613794Y-28637444D01*
X111593499Y-28561328D01*
X111562419Y-28456844D01*
X111519256Y-28319520D01*
X111462712Y-28144885D01*
X111391492Y-27928467D01*
X111358517Y-27828939D01*
X111306043Y-27669024D01*
X111269783Y-27547158D01*
X111249998Y-27453160D01*
X111246948Y-27376850D01*
X111260893Y-27308048D01*
X111292094Y-27236573D01*
X111340811Y-27152243D01*
X111377333Y-27093209D01*
X111442329Y-26990602D01*
X111489667Y-26922945D01*
X111527398Y-26881373D01*
X111563570Y-26857020D01*
X111606230Y-26841018D01*
X111606279Y-26841004D01*
X111646843Y-26829753D01*
X111687232Y-26822491D01*
X111733894Y-26819908D01*
X111793280Y-26822690D01*
X111871838Y-26831524D01*
X111976017Y-26847099D01*
X112112267Y-26870100D01*
X112287039Y-26901217D01*
X112451912Y-26931138D01*
X112622916Y-26961763D01*
X112778611Y-26988660D01*
X112911612Y-27010633D01*
X113014537Y-27026487D01*
X113080002Y-27035025D01*
X113099466Y-27036026D01*
X113145545Y-27010744D01*
X113163458Y-26988689D01*
X113167168Y-26952752D01*
X113164830Y-26873865D01*
X113157016Y-26759448D01*
X113144297Y-26616919D01*
X113127243Y-26453697D01*
X113112596Y-26327486D01*
X113037733Y-25707853D01*
X113158600Y-25481856D01*
X113215953Y-25376860D01*
X113258615Y-25307095D01*
X113294663Y-25262384D01*
X113332169Y-25232543D01*
X113374508Y-25209666D01*
X113459644Y-25179104D01*
X113545425Y-25163997D01*
X113557336Y-25163645D01*
X113611324Y-25173447D01*
X113708328Y-25201885D01*
X113844626Y-25247691D01*
X114016495Y-25309601D01*
X114220214Y-25386348D01*
X114279671Y-25409247D01*
X114459479Y-25477733D01*
X114619533Y-25536625D01*
X114754150Y-25583973D01*
X114857647Y-25617826D01*
X114924343Y-25636236D01*
X114947543Y-25638461D01*
X114985413Y-25619101D01*
X115014908Y-25598126D01*
X115037719Y-25568984D01*
X115055539Y-25525119D01*
X115070060Y-25459978D01*
X115082974Y-25367008D01*
X115095973Y-25239653D01*
X115110748Y-25071363D01*
X115118922Y-24974688D01*
X115169226Y-24378198D01*
X115276584Y-24192247D01*
X115359972Y-24062491D01*
X115439024Y-23975549D01*
X115522514Y-23925156D01*
X115619217Y-23905047D01*
X115679490Y-23904553D01*
X115717409Y-23906572D01*
X115752034Y-23911168D01*
X115789079Y-23921265D01*
X115834258Y-23939790D01*
X115893283Y-23969670D01*
X115971867Y-24013832D01*
X116075725Y-24075200D01*
X116210571Y-24156703D01*
X116382116Y-24261266D01*
X116414417Y-24280982D01*
X117022546Y-24652191D01*
X117121458Y-24610532D01*
X117220369Y-24568872D01*
X117359234Y-24077123D01*
X117412452Y-23892349D01*
X117457211Y-23746885D01*
X117497173Y-23630710D01*
X117536008Y-23533805D01*
X117577379Y-23446147D01*
X117617723Y-23370628D01*
X117676829Y-23267451D01*
X117721094Y-23199722D01*
X117758512Y-23157510D01*
X117797077Y-23130884D01*
X117819220Y-23120345D01*
X117911781Y-23088921D01*
X118003788Y-23078095D01*
X118099758Y-23090185D01*
X118204205Y-23127508D01*
X118321646Y-23192381D01*
X118456599Y-23287123D01*
X118613579Y-23414050D01*
X118797102Y-23575481D01*
X118912881Y-23681566D01*
X119322388Y-24060848D01*
X119429782Y-24045125D01*
X119537177Y-24029400D01*
X119872200Y-23416268D01*
X120207222Y-22803134D01*
X120302429Y-22758430D01*
X120403445Y-22723167D01*
X120502550Y-22717835D01*
X120611043Y-22744173D01*
X120740226Y-22803917D01*
X120794107Y-22834014D01*
X120990254Y-22947260D01*
X121348980Y-23436419D01*
X121462657Y-23590968D01*
X121550949Y-23709307D01*
X121618231Y-23796397D01*
X121668873Y-23857198D01*
X121707251Y-23896671D01*
X121737737Y-23919778D01*
X121764706Y-23931479D01*
X121789751Y-23936380D01*
X121853308Y-23940425D01*
X121893817Y-23935309D01*
X121894559Y-23934936D01*
X121916362Y-23912819D01*
X121965980Y-23856877D01*
X122038852Y-23772433D01*
X122130421Y-23664807D01*
X122236126Y-23539323D01*
X122338551Y-23416748D01*
X122479054Y-23248913D01*
X122592472Y-23116603D01*
X122683590Y-23015782D01*
X122757195Y-22942414D01*
X122818072Y-22892465D01*
X122871008Y-22861899D01*
X122920788Y-22846680D01*
X122972197Y-22842775D01*
X123016672Y-22845000D01*
X123095588Y-22864350D01*
X123197715Y-22906964D01*
X123308969Y-22964845D01*
X123415268Y-23030002D01*
X123502529Y-23094440D01*
X123556670Y-23150163D01*
X123558121Y-23152366D01*
X123581420Y-23194616D01*
X123622465Y-23275156D01*
X123677454Y-23386272D01*
X123742584Y-23520250D01*
X123814054Y-23669375D01*
X123843905Y-23732254D01*
X123915602Y-23881863D01*
X123981591Y-24016091D01*
X124038349Y-24128056D01*
X124082356Y-24210869D01*
X124110090Y-24257645D01*
X124116388Y-24265146D01*
X124144593Y-24259025D01*
X124214933Y-24234097D01*
X124323102Y-24192133D01*
X124464790Y-24134911D01*
X124635691Y-24064206D01*
X124831498Y-23981792D01*
X125047904Y-23889445D01*
X125280599Y-23788940D01*
X125432329Y-23722800D01*
X125689850Y-23610806D01*
X125931340Y-23507065D01*
X126152661Y-23413277D01*
X126349680Y-23331142D01*
X126518261Y-23262362D01*
X126654267Y-23208638D01*
X126753565Y-23171669D01*
X126812016Y-23153158D01*
X126821803Y-23151375D01*
X126868587Y-23149363D01*
X126911340Y-23155093D01*
X126960346Y-23172846D01*
X127025891Y-23206901D01*
X127118259Y-23261538D01*
X127185515Y-23302704D01*
X127295744Y-23371101D01*
X127373768Y-23423241D01*
X127430652Y-23469479D01*
X127477467Y-23520165D01*
X127525278Y-23585649D01*
X127585153Y-23676286D01*
X127585467Y-23676766D01*
X127650267Y-23782028D01*
X127727726Y-23918855D01*
X127818633Y-24088859D01*
X127923779Y-24293654D01*
X128043955Y-24534852D01*
X128179950Y-24814065D01*
X128332556Y-25132906D01*
X128502563Y-25492987D01*
X128690761Y-25895921D01*
X128897941Y-26343320D01*
X128979039Y-26519301D01*
X129076542Y-26731128D01*
X129176717Y-26948747D01*
X129275184Y-27162643D01*
X129367564Y-27363304D01*
X129449478Y-27541219D01*
X129516545Y-27686874D01*
X129541200Y-27740412D01*
X129623222Y-27914107D01*
X129718458Y-28108787D01*
X129816945Y-28304485D01*
X129908721Y-28481234D01*
X129939748Y-28539247D01*
X130011660Y-28674197D01*
X130077698Y-28801647D01*
X130132783Y-28911524D01*
X130171834Y-28993761D01*
X130186539Y-29028487D01*
X130206746Y-29091098D01*
X130208637Y-29140089D01*
X130189198Y-29194725D01*
X130149054Y-29267975D01*
X130071954Y-29401516D01*
X129798930Y-29226707D01*
X129649570Y-29125631D01*
X129508468Y-29020209D01*
X129391730Y-28922647D01*
X129365362Y-28898169D01*
X129112682Y-28639160D01*
X128855234Y-28343194D01*
X128602609Y-28022042D01*
X128364401Y-27687476D01*
X128301002Y-27592095D01*
X128175815Y-27409323D01*
X128023384Y-27200756D01*
X127850561Y-26974746D01*
X127664198Y-26739650D01*
X127471149Y-26503820D01*
X127278263Y-26275609D01*
X127092395Y-26063373D01*
X126920397Y-25875466D01*
X126769120Y-25720242D01*
X126751815Y-25703365D01*
X126646267Y-25601032D01*
X126570458Y-25529043D01*
X126517101Y-25482960D01*
X126478908Y-25458345D01*
X126448593Y-25450763D01*
X126418866Y-25455775D01*
X126382443Y-25468944D01*
X126372713Y-25472529D01*
X126313838Y-25500157D01*
X126284185Y-25526664D01*
X126283396Y-25533929D01*
X126297697Y-25564458D01*
X126331341Y-25631459D01*
X126380002Y-25726454D01*
X126439352Y-25840967D01*
X126472301Y-25904071D01*
X126535564Y-26027536D01*
X126617890Y-26192369D01*
X126716995Y-26393836D01*
X126830598Y-26627207D01*
X126956416Y-26887750D01*
X127092166Y-27170734D01*
X127235567Y-27471425D01*
X127384336Y-27785096D01*
X127536190Y-28107010D01*
X127584241Y-28209242D01*
X127663301Y-28374542D01*
X127752480Y-28556053D01*
X127842481Y-28735135D01*
X127924003Y-28893151D01*
X127948847Y-28940094D01*
X128009795Y-29056602D01*
X128059372Y-29155935D01*
X128093841Y-29230232D01*
X128109468Y-29271627D01*
X128109158Y-29277507D01*
X128082027Y-29262325D01*
X128028199Y-29214794D01*
X127953739Y-29141389D01*
X127864713Y-29048582D01*
X127767186Y-28942847D01*
X127667226Y-28830658D01*
X127570895Y-28718489D01*
X127484264Y-28612814D01*
X127472881Y-28598433D01*
X127378321Y-28474370D01*
X127269322Y-28325107D01*
X127158595Y-28168381D01*
X127058848Y-28021927D01*
X127047674Y-28005058D01*
X126811265Y-27657518D01*
X126555335Y-27300299D01*
X126297722Y-26958150D01*
X126238540Y-26882191D01*
X126150290Y-26771831D01*
X126053187Y-26653871D01*
X125953407Y-26535429D01*
X125857122Y-26423624D01*
X125770505Y-26325572D01*
X125699733Y-26248393D01*
X125650977Y-26199203D01*
X125634629Y-26185949D01*
X125620860Y-26198059D01*
X125619816Y-26253916D01*
X125629997Y-26337726D01*
X125646466Y-26470845D01*
X125660793Y-26644316D01*
X125672267Y-26847708D01*
X125680172Y-27070594D01*
X125680187Y-27071175D01*
X125697542Y-27142254D01*
X125742467Y-27236596D01*
X125788747Y-27311597D01*
X125942199Y-27570659D01*
X126082967Y-27875257D01*
X126211600Y-28226738D01*
X126328652Y-28626448D01*
X126329665Y-28630308D01*
X126450501Y-29186139D01*
X126528127Y-29765118D01*
X126562166Y-30363087D01*
X126552246Y-30975892D01*
X126547859Y-31053953D01*
X126537415Y-31230171D01*
X126530837Y-31366051D01*
X126528882Y-31471961D01*
X126532309Y-31558267D01*
X126541880Y-31635338D01*
X126558351Y-31713540D01*
X126582484Y-31803240D01*
X126609545Y-31896126D01*
X126751242Y-32427087D01*
X126854625Y-32927140D01*
X126919807Y-33398605D01*
X126946901Y-33843802D01*
X126936018Y-34265051D01*
X126887272Y-34664672D01*
X126800775Y-35044984D01*
X126767689Y-35155005D01*
X126737085Y-35233870D01*
X126686443Y-35345555D01*
X126621268Y-35479549D01*
X126547066Y-35625338D01*
X126469342Y-35772409D01*
X126393603Y-35910249D01*
X126325354Y-36028347D01*
X126270101Y-36116187D01*
X126248748Y-36145888D01*
X126016308Y-36417431D01*
X125776402Y-36647486D01*
X125544380Y-36824408D01*
X125388166Y-36919518D01*
X125211687Y-37012403D01*
X125031921Y-37095021D01*
X124865841Y-37159329D01*
X124784033Y-37184648D01*
X124688159Y-37208957D01*
X124623336Y-37217593D01*
X124571982Y-37209562D01*
X124516517Y-37183872D01*
X124488454Y-37167974D01*
X124374308Y-37102072D01*
X124535899Y-36762758D01*
X124600109Y-36623772D01*
X124661808Y-36482851D01*
X124714729Y-36354784D01*
X124752610Y-36254363D01*
X124757990Y-36238403D01*
X124848975Y-35907186D01*
X124915486Y-35552185D01*
X124955081Y-35191801D01*
X124965313Y-34844440D01*
X124960620Y-34712945D01*
X124949000Y-34574308D01*
X124929749Y-34418710D01*
X124904567Y-34254435D01*
X124875160Y-34089764D01*
X124843225Y-33932982D01*
X124810468Y-33792370D01*
X124778587Y-33676211D01*
X124749287Y-33592787D01*
X124724268Y-33550383D01*
X124721312Y-33548252D01*
X124697581Y-33561890D01*
X124646765Y-33608398D01*
X124574453Y-33681746D01*
X124486234Y-33775906D01*
X124387696Y-33884849D01*
X124284428Y-34002547D01*
X124182019Y-34122972D01*
X124128026Y-34188253D01*
X123847738Y-34552451D01*
X123615538Y-34900823D01*
X123431312Y-35233578D01*
X123294946Y-35550926D01*
X123206327Y-35853076D01*
X123197605Y-35894773D01*
X123170272Y-36006310D01*
X123135375Y-36113210D01*
X123100201Y-36193317D01*
X123098282Y-36196714D01*
X123038112Y-36301289D01*
X122916188Y-36230897D01*
X122845755Y-36185842D01*
X122797839Y-36139167D01*
X122758237Y-36073911D01*
X122725960Y-36003751D01*
X122688959Y-35923018D01*
X122658043Y-35863017D01*
X122640161Y-35837028D01*
X122623413Y-35855530D01*
X122584391Y-35912690D01*
X122526378Y-36003262D01*
X122452657Y-36122001D01*
X122366511Y-36263658D01*
X122271221Y-36422990D01*
X122232303Y-36488765D01*
X121706520Y-37354831D01*
X121178197Y-38174246D01*
X120644372Y-38951156D01*
X120102088Y-39689707D01*
X119548385Y-40394047D01*
X118980303Y-41068322D01*
X118890953Y-41170205D01*
X118729931Y-41349681D01*
X118554417Y-41539806D01*
X118371837Y-41732936D01*
X118189619Y-41921422D01*
X118015189Y-42097621D01*
X117855976Y-42253887D01*
X117719405Y-42382573D01*
X117670402Y-42426718D01*
X117438401Y-42624673D01*
X117187728Y-42825612D01*
X116928956Y-43021763D01*
X116672658Y-43205352D01*
X116429404Y-43368606D01*
X116209768Y-43503750D01*
X116190386Y-43514920D01*
X116101705Y-43569970D01*
X116059790Y-43606796D01*
X116060849Y-43623441D01*
X116096960Y-43631146D01*
X116176906Y-43640285D01*
X116293753Y-43650480D01*
X116440569Y-43661346D01*
X116610420Y-43672506D01*
X116796373Y-43683576D01*
X116991495Y-43694176D01*
X117188853Y-43703925D01*
X117381515Y-43712443D01*
X117562547Y-43719349D01*
X117725016Y-43724260D01*
X117861989Y-43726798D01*
X117943942Y-43726911D01*
X118251470Y-43728941D01*
X118548015Y-43740735D01*
X118825172Y-43761547D01*
X119074534Y-43790635D01*
X119287694Y-43827255D01*
X119409320Y-43856540D01*
X119490129Y-43878832D01*
X119557581Y-43896879D01*
X119574212Y-43901139D01*
X119625488Y-43913926D01*
X119553006Y-43937868D01*
X119500405Y-43949509D01*
X119409621Y-43963853D01*
X119293076Y-43979138D01*
X119163190Y-43993598D01*
X119153657Y-43994561D01*
X119031184Y-44008636D01*
X118871132Y-44029719D01*
X118685960Y-44056019D01*
X118488118Y-44085745D01*
X118290065Y-44117105D01*
X118210078Y-44130288D01*
X117697416Y-44215207D01*
X117233553Y-44290617D01*
X116818623Y-44356495D01*
X116452761Y-44412822D01*
X116136100Y-44459579D01*
X115868774Y-44496746D01*
X115650917Y-44524303D01*
X115482665Y-44542231D01*
X115364487Y-44550496D01*
X115285253Y-44555847D01*
X115229873Y-44564124D01*
X115213433Y-44570829D01*
X115213877Y-44601889D01*
X115224062Y-44666491D01*
X115236718Y-44727607D01*
X115268692Y-44869336D01*
X115452190Y-44900498D01*
X115633181Y-44924620D01*
X115856689Y-44943654D01*
X116114687Y-44957624D01*
X116399150Y-44966548D01*
X116702052Y-44970446D01*
X117015367Y-44969341D01*
X117331068Y-44963254D01*
X117641130Y-44952203D01*
X117937528Y-44936211D01*
X118212234Y-44915298D01*
X118429736Y-44892830D01*
X118753908Y-44862134D01*
X119089346Y-44845040D01*
X119424478Y-44841391D01*
X119747725Y-44851029D01*
X120047516Y-44873795D01*
X120312274Y-44909534D01*
X120364932Y-44919173D01*
X120617176Y-44990556D01*
X120763451Y-45054417D01*
X120950892Y-45148859D01*
X120784784Y-45436567D01*
X120356543Y-45536457D01*
X120270858Y-45557305D01*
X120140194Y-45590288D01*
X119968628Y-45634336D01*
X119760236Y-45688376D01*
X119519093Y-45751341D01*
X119249275Y-45822156D01*
X118954858Y-45899752D01*
X118639917Y-45983060D01*
X118308528Y-46071008D01*
X117964767Y-46162524D01*
X117612710Y-46256539D01*
X117461029Y-46297134D01*
X117111526Y-46390438D01*
X116771901Y-46480522D01*
X116445872Y-46566433D01*
X116137161Y-46647215D01*
X115849486Y-46721913D01*
X115586570Y-46789573D01*
X115352132Y-46849240D01*
X115149892Y-46899958D01*
X114983571Y-46940774D01*
X114856889Y-46970732D01*
X114773567Y-46988877D01*
X114748396Y-46993358D01*
X114553179Y-47015947D01*
X114392791Y-47020112D01*
X114254198Y-47004458D01*
X114124368Y-46967593D01*
X114000734Y-46913382D01*
X113855857Y-46832774D01*
X113752055Y-46752883D01*
X113680513Y-46664849D01*
X113632419Y-46559809D01*
X113624636Y-46535308D01*
X113606445Y-46474565D01*
X113576109Y-46373360D01*
X113536086Y-46239885D01*
X113488831Y-46082330D01*
X113436803Y-45908890D01*
X113390867Y-45755785D01*
X113197134Y-45110119D01*
X112891932Y-45230075D01*
X112670131Y-45310433D01*
X117436899Y-37054148D01*
X117642185Y-37145800D01*
X117865659Y-37195249D01*
X118102316Y-37202520D01*
X118347151Y-37167640D01*
X118595158Y-37090633D01*
X118841331Y-36971528D01*
X118938967Y-36911580D01*
X119095153Y-36803444D01*
X119212228Y-36704780D01*
X119297660Y-36604793D01*
X119358917Y-36492684D01*
X119403470Y-36357656D01*
X119438769Y-36189009D01*
X119463916Y-35923129D01*
X119442267Y-35674000D01*
X119372973Y-35439074D01*
X119255185Y-35215801D01*
X119088053Y-35001632D01*
X119019658Y-34930255D01*
X118894503Y-34824307D01*
X118766665Y-34738553D01*
X119861531Y-32842190D01*
X119893021Y-32856916D01*
X120024854Y-32901729D01*
X120183393Y-32939161D01*
X120345888Y-32964915D01*
X120489594Y-32974694D01*
X120514596Y-32974338D01*
X120803364Y-32948799D01*
X121052936Y-32892631D01*
X121262877Y-32806085D01*
X121432754Y-32689416D01*
X121562133Y-32542876D01*
X121650578Y-32366717D01*
X121671147Y-32300503D01*
X121714257Y-32099161D01*
X121740621Y-31886992D01*
X121750074Y-31676241D01*
X121742447Y-31479154D01*
X121717573Y-31307977D01*
X121686214Y-31200644D01*
X121614173Y-31045936D01*
X121523032Y-30911423D01*
X121400766Y-30780390D01*
X121350738Y-30734348D01*
X121280371Y-30674112D01*
X121218160Y-30629853D01*
X121148489Y-30592766D01*
X121055737Y-30554039D01*
X120980802Y-30525718D01*
X120718897Y-30442532D01*
X120716431Y-30441958D01*
X120791686Y-30311612D01*
X120809035Y-30306963D01*
X120804386Y-30289615D01*
X120787038Y-30294263D01*
X120791686Y-30311612D01*
X120716431Y-30441958D01*
X120432468Y-30375915D01*
X120270465Y-30350794D01*
X120354236Y-30205697D01*
X120371585Y-30201049D01*
X120366936Y-30183700D01*
X120349588Y-30188349D01*
X120354236Y-30205697D01*
X120270465Y-30350794D01*
X120146619Y-30331591D01*
X120114980Y-30328189D01*
X119943336Y-30329742D01*
X119761672Y-30370133D01*
X119563197Y-30451174D01*
X119467791Y-30500726D01*
X119397528Y-30545129D01*
X119316408Y-30605059D01*
X119234154Y-30672097D01*
X119160493Y-30737821D01*
X119105147Y-30793818D01*
X119077842Y-30831665D01*
X119076755Y-30839247D01*
X119101596Y-30843598D01*
X119162062Y-30840856D01*
X119222708Y-30834348D01*
X119363092Y-30829243D01*
X119506164Y-30852356D01*
X119660390Y-30906390D01*
X119834236Y-30994051D01*
X119962191Y-31070611D01*
X120101393Y-31161473D01*
X120204782Y-31239296D01*
X120281992Y-31313745D01*
X120342652Y-31394486D01*
X120396395Y-31491187D01*
X120410723Y-31520770D01*
X120442800Y-31615808D01*
X120460682Y-31721758D01*
X120461951Y-31749539D01*
X120459180Y-31813636D01*
X120446589Y-31872342D01*
X120419153Y-31939443D01*
X120371847Y-32028723D01*
X120339532Y-32085367D01*
X120272587Y-32196440D01*
X120218560Y-32272662D01*
X120168681Y-32325123D01*
X120122967Y-32359336D01*
X119990810Y-32416827D01*
X119832140Y-32439644D01*
X119657521Y-32427841D01*
X119477517Y-32381471D01*
X119412270Y-32355823D01*
X119266533Y-32292855D01*
X119362371Y-32410949D01*
X119480601Y-32542777D01*
X119611265Y-32665366D01*
X119742271Y-32768558D01*
X119861531Y-32842190D01*
X118766665Y-34738553D01*
X118737433Y-34718944D01*
X118566380Y-34624515D01*
X118399281Y-34551374D01*
X118315670Y-34523998D01*
X118148321Y-34488317D01*
X117958830Y-34465235D01*
X117767760Y-34456184D01*
X117595671Y-34462597D01*
X117537205Y-34469744D01*
X117317489Y-34528409D01*
X117105835Y-34632227D01*
X116910919Y-34775558D01*
X116890907Y-34796478D01*
X118795702Y-31497277D01*
X118798641Y-31492416D01*
X118800870Y-31442743D01*
X118806589Y-31392970D01*
X118807908Y-31353689D01*
X118794610Y-31360978D01*
X118793952Y-31362008D01*
X118782035Y-31412566D01*
X118786004Y-31461455D01*
X118795702Y-31497277D01*
X116890907Y-34796478D01*
X116741412Y-34952759D01*
X116690522Y-35020555D01*
X116584755Y-35171093D01*
X116664933Y-35153588D01*
X116734731Y-35145295D01*
X116830481Y-35142303D01*
X116901852Y-35144002D01*
X116967434Y-35148791D01*
X117024438Y-35158436D01*
X117083484Y-35176984D01*
X117155197Y-35208484D01*
X117250200Y-35256983D01*
X117374906Y-35324234D01*
X117543650Y-35420024D01*
X117673659Y-35504268D01*
X117773364Y-35584288D01*
X117851197Y-35667406D01*
X117915592Y-35760943D01*
X117950920Y-35824412D01*
X118006933Y-35979050D01*
X118014340Y-36138000D01*
X117973044Y-36305165D01*
X117936894Y-36387460D01*
X117883116Y-36483851D01*
X117823035Y-36573496D01*
X117775198Y-36630952D01*
X117672274Y-36704178D01*
X117537068Y-36758651D01*
X117386280Y-36789104D01*
X117263189Y-36792484D01*
X117187627Y-36789619D01*
X117151777Y-36796901D01*
X117155229Y-36820558D01*
X117197575Y-36866816D01*
X117254807Y-36920266D01*
X117436899Y-37054148D01*
X112670131Y-45310433D01*
X112579869Y-45343135D01*
X112249808Y-45445348D01*
X111914514Y-45533597D01*
X111586747Y-45604764D01*
X111279268Y-45655733D01*
X111047553Y-45680544D01*
X110920279Y-45684693D01*
X110770869Y-45681466D01*
X110614476Y-45672004D01*
X110466247Y-45657447D01*
X110341335Y-45638939D01*
X110267526Y-45621794D01*
X110218173Y-45608279D01*
X110173639Y-45602767D01*
X110124469Y-45607424D01*
X110061204Y-45624424D01*
X109974389Y-45655934D01*
X109854567Y-45704125D01*
X109786550Y-45732167D01*
X109594143Y-45805922D01*
X109372013Y-45881462D01*
X109131887Y-45955564D01*
X108885492Y-46025007D01*
X108644555Y-46086568D01*
X108420803Y-46137022D01*
X108225963Y-46173148D01*
X108136640Y-46185594D01*
X107906206Y-46202680D01*
X107663470Y-46203195D01*
X107423865Y-46188105D01*
X107202823Y-46158374D01*
X107018444Y-46115767D01*
X106865012Y-46059229D01*
X106688726Y-45977446D01*
X106504560Y-45878830D01*
X106327496Y-45771786D01*
X106172509Y-45664726D01*
X106077706Y-45587630D01*
X105893562Y-45389888D01*
X105733513Y-45151211D01*
X105600480Y-44876843D01*
X105497384Y-44572026D01*
X105484291Y-44522464D01*
X105445586Y-44366397D01*
X105418339Y-44242601D01*
X105400066Y-44134497D01*
X105388285Y-44025508D01*
X105380512Y-43899054D01*
X105376562Y-43803107D01*
X105373537Y-43678384D01*
X105376801Y-43590270D01*
X105388447Y-43524748D01*
X105410569Y-43467799D01*
X105432807Y-43426571D01*
X105498768Y-43312324D01*
X105809021Y-43473449D01*
X106233208Y-43667506D01*
X106671580Y-43817641D01*
X107118157Y-43922523D01*
X107566954Y-43980820D01*
X108011988Y-43991202D01*
X108115782Y-43986522D01*
X108358622Y-43972310D01*
X107959495Y-43723819D01*
X107850681Y-43656210D01*
X107705605Y-43566276D01*
X107531249Y-43458339D01*
X107334602Y-43336717D01*
X107122651Y-43205731D01*
X106902383Y-43069702D01*
X106680783Y-42932951D01*
X106581652Y-42871810D01*
X105602938Y-42268294D01*
X105676307Y-42141217D01*
X105715933Y-42077096D01*
X105754617Y-42032142D01*
X105805711Y-41995988D01*
X105882564Y-41958271D01*
X105948865Y-41929614D01*
X106423132Y-41746901D01*
X106876410Y-41610242D01*
X107309055Y-41519595D01*
X107721424Y-41474917D01*
X108113872Y-41476166D01*
X108486760Y-41523297D01*
X108764968Y-41592099D01*
X108888231Y-41638012D01*
X109039987Y-41707503D01*
X109209394Y-41794338D01*
X109385609Y-41892282D01*
X109557790Y-41995098D01*
X109715097Y-42096552D01*
X109846686Y-42190408D01*
X109937676Y-42266545D01*
X110206949Y-42557418D01*
X110445051Y-42886154D01*
X110649672Y-43248810D01*
X110818503Y-43641443D01*
X110914950Y-43934759D01*
X110987633Y-44185809D01*
X111111263Y-44178935D01*
X111219630Y-44164796D01*
X111361637Y-44134523D01*
X111524145Y-44091791D01*
X111694019Y-44040279D01*
X111858118Y-43983661D01*
X111978716Y-43936189D01*
X112073321Y-43894961D01*
X112146750Y-43860563D01*
X112188894Y-43837858D01*
X112195070Y-43832088D01*
X112170155Y-43829628D01*
X112104348Y-43831153D01*
X112007365Y-43836253D01*
X111888925Y-43844519D01*
X111876416Y-43845493D01*
X111560816Y-43870296D01*
X111469058Y-43817277D01*
X119127140Y-30553091D01*
X119144488Y-30548442D01*
X119139840Y-30531094D01*
X119122491Y-30535742D01*
X119127140Y-30553091D01*
X111469058Y-43817277D01*
X111328000Y-43735771D01*
X111194113Y-43652944D01*
X111101046Y-43580234D01*
X111042049Y-43509931D01*
X111010375Y-43434322D01*
X110999938Y-43360930D01*
X111007515Y-43315753D01*
X111031445Y-43229472D01*
X111069699Y-43108341D01*
X111120255Y-42958614D01*
X111181087Y-42786546D01*
X111224274Y-42668134D01*
X111285793Y-42500316D01*
X111340983Y-42347743D01*
X111387512Y-42217019D01*
X111423055Y-42114750D01*
X111445280Y-42047539D01*
X111451971Y-42022488D01*
X111437124Y-41985154D01*
X111403555Y-41934146D01*
X111384914Y-41914059D01*
X111358794Y-41897385D01*
X111318753Y-41882839D01*
X111258351Y-41869141D01*
X111171146Y-41855008D01*
X111050697Y-41839160D01*
X110890562Y-41820312D01*
X110754714Y-41805017D01*
X110153501Y-41737961D01*
X109942223Y-41615870D01*
X109812470Y-41534274D01*
X109723766Y-41459918D01*
X109669014Y-41383823D01*
X109641124Y-41297011D01*
X109633803Y-41225543D01*
X109633466Y-41194912D01*
X109637200Y-41164465D01*
X109647900Y-41128582D01*
X109668463Y-41081649D01*
X109701787Y-41018047D01*
X109750767Y-40932159D01*
X109818300Y-40818370D01*
X109907282Y-40671061D01*
X109989529Y-40535712D01*
X110349484Y-39943912D01*
X110320097Y-39853074D01*
X110306336Y-39816526D01*
X110287207Y-39785673D01*
X110256820Y-39757771D01*
X110209286Y-39730079D01*
X110138714Y-39699853D01*
X110039216Y-39664349D01*
X109904900Y-39620825D01*
X109729878Y-39566538D01*
X109656673Y-39544108D01*
X109393282Y-39457929D01*
X109177481Y-39374403D01*
X109006275Y-39291538D01*
X108876668Y-39207341D01*
X108785662Y-39119821D01*
X108730263Y-39026986D01*
X108707474Y-38926842D01*
X108706727Y-38912475D01*
X108708676Y-38851980D01*
X108722320Y-38794167D01*
X108752817Y-38725026D01*
X108805328Y-38630549D01*
X108819346Y-38606669D01*
X108868700Y-38527581D01*
X108923604Y-38450356D01*
X108990511Y-38367317D01*
X109075879Y-38270788D01*
X109186163Y-38153090D01*
X109299941Y-38035168D01*
X109664351Y-37660550D01*
X109648743Y-37553670D01*
X109633134Y-37446791D01*
X108998342Y-37098483D01*
X108812791Y-36996475D01*
X108666642Y-36915396D01*
X108554659Y-36851927D01*
X108471603Y-36802751D01*
X108412239Y-36764546D01*
X108371326Y-36733996D01*
X108343631Y-36707782D01*
X108323915Y-36682583D01*
X108311888Y-36663491D01*
X108268849Y-36580614D01*
X108249265Y-36506523D01*
X108254613Y-36429822D01*
X108286371Y-36339117D01*
X108346018Y-36223014D01*
X108375802Y-36170731D01*
X108511646Y-35936019D01*
X108934669Y-35652323D01*
X109096124Y-35544067D01*
X109220397Y-35460176D01*
X109312331Y-35396476D01*
X109376770Y-35348791D01*
X109418555Y-35312947D01*
X109442531Y-35284771D01*
X109453541Y-35260087D01*
X109456429Y-35234722D01*
X109456036Y-35204500D01*
X109456019Y-35202970D01*
X109450492Y-35141828D01*
X109438155Y-35107429D01*
X109436578Y-35106214D01*
X109403468Y-35082378D01*
X109338326Y-35031668D01*
X109247686Y-34959444D01*
X109138088Y-34871067D01*
X109016066Y-34771897D01*
X108888159Y-34667294D01*
X108760903Y-34562620D01*
X108640835Y-34463234D01*
X108534491Y-34374498D01*
X108448408Y-34301772D01*
X108389125Y-34250416D01*
X108363537Y-34226253D01*
X108325418Y-34152537D01*
X108300567Y-34054044D01*
X108293931Y-33956111D01*
X108301151Y-33906726D01*
X108322274Y-33858211D01*
X108363674Y-33781173D01*
X108417719Y-33689533D01*
X108438611Y-33655952D01*
X108558900Y-33465420D01*
X109132968Y-33220404D01*
X109293162Y-33150798D01*
X109438102Y-33085469D01*
X109561077Y-33027634D01*
X109655376Y-32980507D01*
X109714291Y-32947303D01*
X109731037Y-32933818D01*
X109744101Y-32880255D01*
X109739607Y-32855475D01*
X109719377Y-32826661D01*
X109670649Y-32765068D01*
X109598110Y-32676383D01*
X109506446Y-32566290D01*
X109400344Y-32440475D01*
X109312711Y-32337580D01*
X109196877Y-32201234D01*
X109090262Y-32074030D01*
X108997951Y-31962176D01*
X108925036Y-31871881D01*
X108876606Y-31809353D01*
X108859784Y-31785064D01*
X108822901Y-31700662D01*
X108814459Y-31614819D01*
X108836055Y-31517351D01*
X108889288Y-31398078D01*
X108933018Y-31318828D01*
X108993820Y-31216741D01*
X109040194Y-31149275D01*
X109080972Y-31105888D01*
X109124987Y-31076041D01*
X109145159Y-31065686D01*
X109195656Y-31047930D01*
X109287721Y-31022200D01*
X109413115Y-30990533D01*
X109563602Y-30954962D01*
X109730945Y-30917522D01*
X109837845Y-30894622D01*
X110031158Y-30852460D01*
X110194506Y-30813867D01*
X110323204Y-30780095D01*
X110412568Y-30752399D01*
X110457914Y-30732027D01*
X110462079Y-30727816D01*
X110461515Y-30700047D01*
X110442005Y-30643888D01*
X110402079Y-30556307D01*
X110340269Y-30434276D01*
X110255104Y-30274764D01*
X110147457Y-30078958D01*
X110039286Y-29883853D01*
X109954114Y-29726884D01*
X109890655Y-29601566D01*
X109847623Y-29501413D01*
X109823736Y-29419941D01*
X109817705Y-29350666D01*
X109828250Y-29287101D01*
X109854080Y-29222763D01*
X109893915Y-29151165D01*
X109946467Y-29065824D01*
G37*
X109946467Y-29065824D02*
X109946639Y-29065547D01*
X110012382Y-28963158D01*
X110062831Y-28895590D01*
X110106688Y-28852890D01*
X110152652Y-28825101D01*
X110159618Y-28821894D01*
X110216233Y-28808691D01*
X110320432Y-28797655D01*
X110469041Y-28788963D01*
X110658882Y-28782795D01*
X110886781Y-28779328D01*
X110923619Y-28779054D01*
X111141590Y-28776359D01*
X111322983Y-28771439D01*
X111464583Y-28764475D01*
X111563171Y-28755644D01*
X111615535Y-28745125D01*
X111622941Y-28740293D01*
X111627217Y-28722454D01*
X111624601Y-28689662D01*
X111613794Y-28637444D01*
X111593499Y-28561328D01*
X111562419Y-28456844D01*
X111519256Y-28319520D01*
X111462712Y-28144885D01*
X111391492Y-27928467D01*
X111358517Y-27828939D01*
X111306043Y-27669024D01*
X111269783Y-27547158D01*
X111249998Y-27453160D01*
X111246948Y-27376850D01*
X111260893Y-27308048D01*
X111292094Y-27236573D01*
X111340811Y-27152243D01*
X111377333Y-27093209D01*
X111442329Y-26990602D01*
X111489667Y-26922945D01*
X111527398Y-26881373D01*
X111563570Y-26857020D01*
X111606230Y-26841018D01*
X111606279Y-26841004D01*
X111646843Y-26829753D01*
X111687232Y-26822491D01*
X111733894Y-26819908D01*
X111793280Y-26822690D01*
X111871838Y-26831524D01*
X111976017Y-26847099D01*
X112112267Y-26870100D01*
X112287039Y-26901217D01*
X112451912Y-26931138D01*
X112622916Y-26961763D01*
X112778611Y-26988660D01*
X112911612Y-27010633D01*
X113014537Y-27026487D01*
X113080002Y-27035025D01*
X113099466Y-27036026D01*
X113145545Y-27010744D01*
X113163458Y-26988689D01*
X113167168Y-26952752D01*
X113164830Y-26873865D01*
X113157016Y-26759448D01*
X113144297Y-26616919D01*
X113127243Y-26453697D01*
X113112596Y-26327486D01*
X113037733Y-25707853D01*
X113158600Y-25481856D01*
X113215953Y-25376860D01*
X113258615Y-25307095D01*
X113294663Y-25262384D01*
X113332169Y-25232543D01*
X113374508Y-25209666D01*
X113459644Y-25179104D01*
X113545425Y-25163997D01*
X113557336Y-25163645D01*
X113611324Y-25173447D01*
X113708328Y-25201885D01*
X113844626Y-25247691D01*
X114016495Y-25309601D01*
X114220214Y-25386348D01*
X114279671Y-25409247D01*
X114459479Y-25477733D01*
X114619533Y-25536625D01*
X114754150Y-25583973D01*
X114857647Y-25617826D01*
X114924343Y-25636236D01*
X114947543Y-25638461D01*
X114985413Y-25619101D01*
X115014908Y-25598126D01*
X115037719Y-25568984D01*
X115055539Y-25525119D01*
X115070060Y-25459978D01*
X115082974Y-25367008D01*
X115095973Y-25239653D01*
X115110748Y-25071363D01*
X115118922Y-24974688D01*
X115169226Y-24378198D01*
X115276584Y-24192247D01*
X115359972Y-24062491D01*
X115439024Y-23975549D01*
X115522514Y-23925156D01*
X115619217Y-23905047D01*
X115679490Y-23904553D01*
X115717409Y-23906572D01*
X115752034Y-23911168D01*
X115789079Y-23921265D01*
X115834258Y-23939790D01*
X115893283Y-23969670D01*
X115971867Y-24013832D01*
X116075725Y-24075200D01*
X116210571Y-24156703D01*
X116382116Y-24261266D01*
X116414417Y-24280982D01*
X117022546Y-24652191D01*
X117121458Y-24610532D01*
X117220369Y-24568872D01*
X117359234Y-24077123D01*
X117412452Y-23892349D01*
X117457211Y-23746885D01*
X117497173Y-23630710D01*
X117536008Y-23533805D01*
X117577379Y-23446147D01*
X117617723Y-23370628D01*
X117676829Y-23267451D01*
X117721094Y-23199722D01*
X117758512Y-23157510D01*
X117797077Y-23130884D01*
X117819220Y-23120345D01*
X117911781Y-23088921D01*
X118003788Y-23078095D01*
X118099758Y-23090185D01*
X118204205Y-23127508D01*
X118321646Y-23192381D01*
X118456599Y-23287123D01*
X118613579Y-23414050D01*
X118797102Y-23575481D01*
X118912881Y-23681566D01*
X119322388Y-24060848D01*
X119429782Y-24045125D01*
X119537177Y-24029400D01*
X119872200Y-23416268D01*
X120207222Y-22803134D01*
X120302429Y-22758430D01*
X120403445Y-22723167D01*
X120502550Y-22717835D01*
X120611043Y-22744173D01*
X120740226Y-22803917D01*
X120794107Y-22834014D01*
X120990254Y-22947260D01*
X121348980Y-23436419D01*
X121462657Y-23590968D01*
X121550949Y-23709307D01*
X121618231Y-23796397D01*
X121668873Y-23857198D01*
X121707251Y-23896671D01*
X121737737Y-23919778D01*
X121764706Y-23931479D01*
X121789751Y-23936380D01*
X121853308Y-23940425D01*
X121893817Y-23935309D01*
X121894559Y-23934936D01*
X121916362Y-23912819D01*
X121965980Y-23856877D01*
X122038852Y-23772433D01*
X122130421Y-23664807D01*
X122236126Y-23539323D01*
X122338551Y-23416748D01*
X122479054Y-23248913D01*
X122592472Y-23116603D01*
X122683590Y-23015782D01*
X122757195Y-22942414D01*
X122818072Y-22892465D01*
X122871008Y-22861899D01*
X122920788Y-22846680D01*
X122972197Y-22842775D01*
X123016672Y-22845000D01*
X123095588Y-22864350D01*
X123197715Y-22906964D01*
X123308969Y-22964845D01*
X123415268Y-23030002D01*
X123502529Y-23094440D01*
X123556670Y-23150163D01*
X123558121Y-23152366D01*
X123581420Y-23194616D01*
X123622465Y-23275156D01*
X123677454Y-23386272D01*
X123742584Y-23520250D01*
X123814054Y-23669375D01*
X123843905Y-23732254D01*
X123915602Y-23881863D01*
X123981591Y-24016091D01*
X124038349Y-24128056D01*
X124082356Y-24210869D01*
X124110090Y-24257645D01*
X124116388Y-24265146D01*
X124144593Y-24259025D01*
X124214933Y-24234097D01*
X124323102Y-24192133D01*
X124464790Y-24134911D01*
X124635691Y-24064206D01*
X124831498Y-23981792D01*
X125047904Y-23889445D01*
X125280599Y-23788940D01*
X125432329Y-23722800D01*
X125689850Y-23610806D01*
X125931340Y-23507065D01*
X126152661Y-23413277D01*
X126349680Y-23331142D01*
X126518261Y-23262362D01*
X126654267Y-23208638D01*
X126753565Y-23171669D01*
X126812016Y-23153158D01*
X126821803Y-23151375D01*
X126868587Y-23149363D01*
X126911340Y-23155093D01*
X126960346Y-23172846D01*
X127025891Y-23206901D01*
X127118259Y-23261538D01*
X127185515Y-23302704D01*
X127295744Y-23371101D01*
X127373768Y-23423241D01*
X127430652Y-23469479D01*
X127477467Y-23520165D01*
X127525278Y-23585649D01*
X127585153Y-23676286D01*
X127585467Y-23676766D01*
X127650267Y-23782028D01*
X127727726Y-23918855D01*
X127818633Y-24088859D01*
X127923779Y-24293654D01*
X128043955Y-24534852D01*
X128179950Y-24814065D01*
X128332556Y-25132906D01*
X128502563Y-25492987D01*
X128690761Y-25895921D01*
X128897941Y-26343320D01*
X128979039Y-26519301D01*
X129076542Y-26731128D01*
X129176717Y-26948747D01*
X129275184Y-27162643D01*
X129367564Y-27363304D01*
X129449478Y-27541219D01*
X129516545Y-27686874D01*
X129541200Y-27740412D01*
X129623222Y-27914107D01*
X129718458Y-28108787D01*
X129816945Y-28304485D01*
X129908721Y-28481234D01*
X129939748Y-28539247D01*
X130011660Y-28674197D01*
X130077698Y-28801647D01*
X130132783Y-28911524D01*
X130171834Y-28993761D01*
X130186539Y-29028487D01*
X130206746Y-29091098D01*
X130208637Y-29140089D01*
X130189198Y-29194725D01*
X130149054Y-29267975D01*
X130071954Y-29401516D01*
X129798930Y-29226707D01*
X129649570Y-29125631D01*
X129508468Y-29020209D01*
X129391730Y-28922647D01*
X129365362Y-28898169D01*
X129112682Y-28639160D01*
X128855234Y-28343194D01*
X128602609Y-28022042D01*
X128364401Y-27687476D01*
X128301002Y-27592095D01*
X128175815Y-27409323D01*
X128023384Y-27200756D01*
X127850561Y-26974746D01*
X127664198Y-26739650D01*
X127471149Y-26503820D01*
X127278263Y-26275609D01*
X127092395Y-26063373D01*
X126920397Y-25875466D01*
X126769120Y-25720242D01*
X126751815Y-25703365D01*
X126646267Y-25601032D01*
X126570458Y-25529043D01*
X126517101Y-25482960D01*
X126478908Y-25458345D01*
X126448593Y-25450763D01*
X126418866Y-25455775D01*
X126382443Y-25468944D01*
X126372713Y-25472529D01*
X126313838Y-25500157D01*
X126284185Y-25526664D01*
X126283396Y-25533929D01*
X126297697Y-25564458D01*
X126331341Y-25631459D01*
X126380002Y-25726454D01*
X126439352Y-25840967D01*
X126472301Y-25904071D01*
X126535564Y-26027536D01*
X126617890Y-26192369D01*
X126716995Y-26393836D01*
X126830598Y-26627207D01*
X126956416Y-26887750D01*
X127092166Y-27170734D01*
X127235567Y-27471425D01*
X127384336Y-27785096D01*
X127536190Y-28107010D01*
X127584241Y-28209242D01*
X127663301Y-28374542D01*
X127752480Y-28556053D01*
X127842481Y-28735135D01*
X127924003Y-28893151D01*
X127948847Y-28940094D01*
X128009795Y-29056602D01*
X128059372Y-29155935D01*
X128093841Y-29230232D01*
X128109468Y-29271627D01*
X128109158Y-29277507D01*
X128082027Y-29262325D01*
X128028199Y-29214794D01*
X127953739Y-29141389D01*
X127864713Y-29048582D01*
X127767186Y-28942847D01*
X127667226Y-28830658D01*
X127570895Y-28718489D01*
X127484264Y-28612814D01*
X127472881Y-28598433D01*
X127378321Y-28474370D01*
X127269322Y-28325107D01*
X127158595Y-28168381D01*
X127058848Y-28021927D01*
X127047674Y-28005058D01*
X126811265Y-27657518D01*
X126555335Y-27300299D01*
X126297722Y-26958150D01*
X126238540Y-26882191D01*
X126150290Y-26771831D01*
X126053187Y-26653871D01*
X125953407Y-26535429D01*
X125857122Y-26423624D01*
X125770505Y-26325572D01*
X125699733Y-26248393D01*
X125650977Y-26199203D01*
X125634629Y-26185949D01*
X125620860Y-26198059D01*
X125619816Y-26253916D01*
X125629997Y-26337726D01*
X125646466Y-26470845D01*
X125660793Y-26644316D01*
X125672267Y-26847708D01*
X125680172Y-27070594D01*
X125680187Y-27071175D01*
X125697542Y-27142254D01*
X125742467Y-27236596D01*
X125788747Y-27311597D01*
X125942199Y-27570659D01*
X126082967Y-27875257D01*
X126211600Y-28226738D01*
X126328652Y-28626448D01*
X126329665Y-28630308D01*
X126450501Y-29186139D01*
X126528127Y-29765118D01*
X126562166Y-30363087D01*
X126552246Y-30975892D01*
X126547859Y-31053953D01*
X126537415Y-31230171D01*
X126530837Y-31366051D01*
X126528882Y-31471961D01*
X126532309Y-31558267D01*
X126541880Y-31635338D01*
X126558351Y-31713540D01*
X126582484Y-31803240D01*
X126609545Y-31896126D01*
X126751242Y-32427087D01*
X126854625Y-32927140D01*
X126919807Y-33398605D01*
X126946901Y-33843802D01*
X126936018Y-34265051D01*
X126887272Y-34664672D01*
X126800775Y-35044984D01*
X126767689Y-35155005D01*
X126737085Y-35233870D01*
X126686443Y-35345555D01*
X126621268Y-35479549D01*
X126547066Y-35625338D01*
X126469342Y-35772409D01*
X126393603Y-35910249D01*
X126325354Y-36028347D01*
X126270101Y-36116187D01*
X126248748Y-36145888D01*
X126016308Y-36417431D01*
X125776402Y-36647486D01*
X125544380Y-36824408D01*
X125388166Y-36919518D01*
X125211687Y-37012403D01*
X125031921Y-37095021D01*
X124865841Y-37159329D01*
X124784033Y-37184648D01*
X124688159Y-37208957D01*
X124623336Y-37217593D01*
X124571982Y-37209562D01*
X124516517Y-37183872D01*
X124488454Y-37167974D01*
X124374308Y-37102072D01*
X124535899Y-36762758D01*
X124600109Y-36623772D01*
X124661808Y-36482851D01*
X124714729Y-36354784D01*
X124752610Y-36254363D01*
X124757990Y-36238403D01*
X124848975Y-35907186D01*
X124915486Y-35552185D01*
X124955081Y-35191801D01*
X124965313Y-34844440D01*
X124960620Y-34712945D01*
X124949000Y-34574308D01*
X124929749Y-34418710D01*
X124904567Y-34254435D01*
X124875160Y-34089764D01*
X124843225Y-33932982D01*
X124810468Y-33792370D01*
X124778587Y-33676211D01*
X124749287Y-33592787D01*
X124724268Y-33550383D01*
X124721312Y-33548252D01*
X124697581Y-33561890D01*
X124646765Y-33608398D01*
X124574453Y-33681746D01*
X124486234Y-33775906D01*
X124387696Y-33884849D01*
X124284428Y-34002547D01*
X124182019Y-34122972D01*
X124128026Y-34188253D01*
X123847738Y-34552451D01*
X123615538Y-34900823D01*
X123431312Y-35233578D01*
X123294946Y-35550926D01*
X123206327Y-35853076D01*
X123197605Y-35894773D01*
X123170272Y-36006310D01*
X123135375Y-36113210D01*
X123100201Y-36193317D01*
X123098282Y-36196714D01*
X123038112Y-36301289D01*
X122916188Y-36230897D01*
X122845755Y-36185842D01*
X122797839Y-36139167D01*
X122758237Y-36073911D01*
X122725960Y-36003751D01*
X122688959Y-35923018D01*
X122658043Y-35863017D01*
X122640161Y-35837028D01*
X122623413Y-35855530D01*
X122584391Y-35912690D01*
X122526378Y-36003262D01*
X122452657Y-36122001D01*
X122366511Y-36263658D01*
X122271221Y-36422990D01*
X122232303Y-36488765D01*
X121706520Y-37354831D01*
X121178197Y-38174246D01*
X120644372Y-38951156D01*
X120102088Y-39689707D01*
X119548385Y-40394047D01*
X118980303Y-41068322D01*
X118890953Y-41170205D01*
X118729931Y-41349681D01*
X118554417Y-41539806D01*
X118371837Y-41732936D01*
X118189619Y-41921422D01*
X118015189Y-42097621D01*
X117855976Y-42253887D01*
X117719405Y-42382573D01*
X117670402Y-42426718D01*
X117438401Y-42624673D01*
X117187728Y-42825612D01*
X116928956Y-43021763D01*
X116672658Y-43205352D01*
X116429404Y-43368606D01*
X116209768Y-43503750D01*
X116190386Y-43514920D01*
X116101705Y-43569970D01*
X116059790Y-43606796D01*
X116060849Y-43623441D01*
X116096960Y-43631146D01*
X116176906Y-43640285D01*
X116293753Y-43650480D01*
X116440569Y-43661346D01*
X116610420Y-43672506D01*
X116796373Y-43683576D01*
X116991495Y-43694176D01*
X117188853Y-43703925D01*
X117381515Y-43712443D01*
X117562547Y-43719349D01*
X117725016Y-43724260D01*
X117861989Y-43726798D01*
X117943942Y-43726911D01*
X118251470Y-43728941D01*
X118548015Y-43740735D01*
X118825172Y-43761547D01*
X119074534Y-43790635D01*
X119287694Y-43827255D01*
X119409320Y-43856540D01*
X119490129Y-43878832D01*
X119557581Y-43896879D01*
X119574212Y-43901139D01*
X119625488Y-43913926D01*
X119553006Y-43937868D01*
X119500405Y-43949509D01*
X119409621Y-43963853D01*
X119293076Y-43979138D01*
X119163190Y-43993598D01*
X119153657Y-43994561D01*
X119031184Y-44008636D01*
X118871132Y-44029719D01*
X118685960Y-44056019D01*
X118488118Y-44085745D01*
X118290065Y-44117105D01*
X118210078Y-44130288D01*
X117697416Y-44215207D01*
X117233553Y-44290617D01*
X116818623Y-44356495D01*
X116452761Y-44412822D01*
X116136100Y-44459579D01*
X115868774Y-44496746D01*
X115650917Y-44524303D01*
X115482665Y-44542231D01*
X115364487Y-44550496D01*
X115285253Y-44555847D01*
X115229873Y-44564124D01*
X115213433Y-44570829D01*
X115213877Y-44601889D01*
X115224062Y-44666491D01*
X115236718Y-44727607D01*
X115268692Y-44869336D01*
X115452190Y-44900498D01*
X115633181Y-44924620D01*
X115856689Y-44943654D01*
X116114687Y-44957624D01*
X116399150Y-44966548D01*
X116702052Y-44970446D01*
X117015367Y-44969341D01*
X117331068Y-44963254D01*
X117641130Y-44952203D01*
X117937528Y-44936211D01*
X118212234Y-44915298D01*
X118429736Y-44892830D01*
X118753908Y-44862134D01*
X119089346Y-44845040D01*
X119424478Y-44841391D01*
X119747725Y-44851029D01*
X120047516Y-44873795D01*
X120312274Y-44909534D01*
X120364932Y-44919173D01*
X120617176Y-44990556D01*
X120763451Y-45054417D01*
X120950892Y-45148859D01*
X120784784Y-45436567D01*
X120356543Y-45536457D01*
X120270858Y-45557305D01*
X120140194Y-45590288D01*
X119968628Y-45634336D01*
X119760236Y-45688376D01*
X119519093Y-45751341D01*
X119249275Y-45822156D01*
X118954858Y-45899752D01*
X118639917Y-45983060D01*
X118308528Y-46071008D01*
X117964767Y-46162524D01*
X117612710Y-46256539D01*
X117461029Y-46297134D01*
X117111526Y-46390438D01*
X116771901Y-46480522D01*
X116445872Y-46566433D01*
X116137161Y-46647215D01*
X115849486Y-46721913D01*
X115586570Y-46789573D01*
X115352132Y-46849240D01*
X115149892Y-46899958D01*
X114983571Y-46940774D01*
X114856889Y-46970732D01*
X114773567Y-46988877D01*
X114748396Y-46993358D01*
X114553179Y-47015947D01*
X114392791Y-47020112D01*
X114254198Y-47004458D01*
X114124368Y-46967593D01*
X114000734Y-46913382D01*
X113855857Y-46832774D01*
X113752055Y-46752883D01*
X113680513Y-46664849D01*
X113632419Y-46559809D01*
X113624636Y-46535308D01*
X113606445Y-46474565D01*
X113576109Y-46373360D01*
X113536086Y-46239885D01*
X113488831Y-46082330D01*
X113436803Y-45908890D01*
X113390867Y-45755785D01*
X113197134Y-45110119D01*
X112891932Y-45230075D01*
X112670131Y-45310433D01*
X117436899Y-37054148D01*
X117642185Y-37145800D01*
X117865659Y-37195249D01*
X118102316Y-37202520D01*
X118347151Y-37167640D01*
X118595158Y-37090633D01*
X118841331Y-36971528D01*
X118938967Y-36911580D01*
X119095153Y-36803444D01*
X119212228Y-36704780D01*
X119297660Y-36604793D01*
X119358917Y-36492684D01*
X119403470Y-36357656D01*
X119438769Y-36189009D01*
X119463916Y-35923129D01*
X119442267Y-35674000D01*
X119372973Y-35439074D01*
X119255185Y-35215801D01*
X119088053Y-35001632D01*
X119019658Y-34930255D01*
X118894503Y-34824307D01*
X118766665Y-34738553D01*
X119861531Y-32842190D01*
X119893021Y-32856916D01*
X120024854Y-32901729D01*
X120183393Y-32939161D01*
X120345888Y-32964915D01*
X120489594Y-32974694D01*
X120514596Y-32974338D01*
X120803364Y-32948799D01*
X121052936Y-32892631D01*
X121262877Y-32806085D01*
X121432754Y-32689416D01*
X121562133Y-32542876D01*
X121650578Y-32366717D01*
X121671147Y-32300503D01*
X121714257Y-32099161D01*
X121740621Y-31886992D01*
X121750074Y-31676241D01*
X121742447Y-31479154D01*
X121717573Y-31307977D01*
X121686214Y-31200644D01*
X121614173Y-31045936D01*
X121523032Y-30911423D01*
X121400766Y-30780390D01*
X121350738Y-30734348D01*
X121280371Y-30674112D01*
X121218160Y-30629853D01*
X121148489Y-30592766D01*
X121055737Y-30554039D01*
X120980802Y-30525718D01*
X120718897Y-30442532D01*
X120716431Y-30441958D01*
X120791686Y-30311612D01*
X120809035Y-30306963D01*
X120804386Y-30289615D01*
X120787038Y-30294263D01*
X120791686Y-30311612D01*
X120716431Y-30441958D01*
X120432468Y-30375915D01*
X120270465Y-30350794D01*
X120354236Y-30205697D01*
X120371585Y-30201049D01*
X120366936Y-30183700D01*
X120349588Y-30188349D01*
X120354236Y-30205697D01*
X120270465Y-30350794D01*
X120146619Y-30331591D01*
X120114980Y-30328189D01*
X119943336Y-30329742D01*
X119761672Y-30370133D01*
X119563197Y-30451174D01*
X119467791Y-30500726D01*
X119397528Y-30545129D01*
X119316408Y-30605059D01*
X119234154Y-30672097D01*
X119160493Y-30737821D01*
X119105147Y-30793818D01*
X119077842Y-30831665D01*
X119076755Y-30839247D01*
X119101596Y-30843598D01*
X119162062Y-30840856D01*
X119222708Y-30834348D01*
X119363092Y-30829243D01*
X119506164Y-30852356D01*
X119660390Y-30906390D01*
X119834236Y-30994051D01*
X119962191Y-31070611D01*
X120101393Y-31161473D01*
X120204782Y-31239296D01*
X120281992Y-31313745D01*
X120342652Y-31394486D01*
X120396395Y-31491187D01*
X120410723Y-31520770D01*
X120442800Y-31615808D01*
X120460682Y-31721758D01*
X120461951Y-31749539D01*
X120459180Y-31813636D01*
X120446589Y-31872342D01*
X120419153Y-31939443D01*
X120371847Y-32028723D01*
X120339532Y-32085367D01*
X120272587Y-32196440D01*
X120218560Y-32272662D01*
X120168681Y-32325123D01*
X120122967Y-32359336D01*
X119990810Y-32416827D01*
X119832140Y-32439644D01*
X119657521Y-32427841D01*
X119477517Y-32381471D01*
X119412270Y-32355823D01*
X119266533Y-32292855D01*
X119362371Y-32410949D01*
X119480601Y-32542777D01*
X119611265Y-32665366D01*
X119742271Y-32768558D01*
X119861531Y-32842190D01*
X118766665Y-34738553D01*
X118737433Y-34718944D01*
X118566380Y-34624515D01*
X118399281Y-34551374D01*
X118315670Y-34523998D01*
X118148321Y-34488317D01*
X117958830Y-34465235D01*
X117767760Y-34456184D01*
X117595671Y-34462597D01*
X117537205Y-34469744D01*
X117317489Y-34528409D01*
X117105835Y-34632227D01*
X116910919Y-34775558D01*
X116890907Y-34796478D01*
X118795702Y-31497277D01*
X118798641Y-31492416D01*
X118800870Y-31442743D01*
X118806589Y-31392970D01*
X118807908Y-31353689D01*
X118794610Y-31360978D01*
X118793952Y-31362008D01*
X118782035Y-31412566D01*
X118786004Y-31461455D01*
X118795702Y-31497277D01*
X116890907Y-34796478D01*
X116741412Y-34952759D01*
X116690522Y-35020555D01*
X116584755Y-35171093D01*
X116664933Y-35153588D01*
X116734731Y-35145295D01*
X116830481Y-35142303D01*
X116901852Y-35144002D01*
X116967434Y-35148791D01*
X117024438Y-35158436D01*
X117083484Y-35176984D01*
X117155197Y-35208484D01*
X117250200Y-35256983D01*
X117374906Y-35324234D01*
X117543650Y-35420024D01*
X117673659Y-35504268D01*
X117773364Y-35584288D01*
X117851197Y-35667406D01*
X117915592Y-35760943D01*
X117950920Y-35824412D01*
X118006933Y-35979050D01*
X118014340Y-36138000D01*
X117973044Y-36305165D01*
X117936894Y-36387460D01*
X117883116Y-36483851D01*
X117823035Y-36573496D01*
X117775198Y-36630952D01*
X117672274Y-36704178D01*
X117537068Y-36758651D01*
X117386280Y-36789104D01*
X117263189Y-36792484D01*
X117187627Y-36789619D01*
X117151777Y-36796901D01*
X117155229Y-36820558D01*
X117197575Y-36866816D01*
X117254807Y-36920266D01*
X117436899Y-37054148D01*
X112670131Y-45310433D01*
X112579869Y-45343135D01*
X112249808Y-45445348D01*
X111914514Y-45533597D01*
X111586747Y-45604764D01*
X111279268Y-45655733D01*
X111047553Y-45680544D01*
X110920279Y-45684693D01*
X110770869Y-45681466D01*
X110614476Y-45672004D01*
X110466247Y-45657447D01*
X110341335Y-45638939D01*
X110267526Y-45621794D01*
X110218173Y-45608279D01*
X110173639Y-45602767D01*
X110124469Y-45607424D01*
X110061204Y-45624424D01*
X109974389Y-45655934D01*
X109854567Y-45704125D01*
X109786550Y-45732167D01*
X109594143Y-45805922D01*
X109372013Y-45881462D01*
X109131887Y-45955564D01*
X108885492Y-46025007D01*
X108644555Y-46086568D01*
X108420803Y-46137022D01*
X108225963Y-46173148D01*
X108136640Y-46185594D01*
X107906206Y-46202680D01*
X107663470Y-46203195D01*
X107423865Y-46188105D01*
X107202823Y-46158374D01*
X107018444Y-46115767D01*
X106865012Y-46059229D01*
X106688726Y-45977446D01*
X106504560Y-45878830D01*
X106327496Y-45771786D01*
X106172509Y-45664726D01*
X106077706Y-45587630D01*
X105893562Y-45389888D01*
X105733513Y-45151211D01*
X105600480Y-44876843D01*
X105497384Y-44572026D01*
X105484291Y-44522464D01*
X105445586Y-44366397D01*
X105418339Y-44242601D01*
X105400066Y-44134497D01*
X105388285Y-44025508D01*
X105380512Y-43899054D01*
X105376562Y-43803107D01*
X105373537Y-43678384D01*
X105376801Y-43590270D01*
X105388447Y-43524748D01*
X105410569Y-43467799D01*
X105432807Y-43426571D01*
X105498768Y-43312324D01*
X105809021Y-43473449D01*
X106233208Y-43667506D01*
X106671580Y-43817641D01*
X107118157Y-43922523D01*
X107566954Y-43980820D01*
X108011988Y-43991202D01*
X108115782Y-43986522D01*
X108358622Y-43972310D01*
X107959495Y-43723819D01*
X107850681Y-43656210D01*
X107705605Y-43566276D01*
X107531249Y-43458339D01*
X107334602Y-43336717D01*
X107122651Y-43205731D01*
X106902383Y-43069702D01*
X106680783Y-42932951D01*
X106581652Y-42871810D01*
X105602938Y-42268294D01*
X105676307Y-42141217D01*
X105715933Y-42077096D01*
X105754617Y-42032142D01*
X105805711Y-41995988D01*
X105882564Y-41958271D01*
X105948865Y-41929614D01*
X106423132Y-41746901D01*
X106876410Y-41610242D01*
X107309055Y-41519595D01*
X107721424Y-41474917D01*
X108113872Y-41476166D01*
X108486760Y-41523297D01*
X108764968Y-41592099D01*
X108888231Y-41638012D01*
X109039987Y-41707503D01*
X109209394Y-41794338D01*
X109385609Y-41892282D01*
X109557790Y-41995098D01*
X109715097Y-42096552D01*
X109846686Y-42190408D01*
X109937676Y-42266545D01*
X110206949Y-42557418D01*
X110445051Y-42886154D01*
X110649672Y-43248810D01*
X110818503Y-43641443D01*
X110914950Y-43934759D01*
X110987633Y-44185809D01*
X111111263Y-44178935D01*
X111219630Y-44164796D01*
X111361637Y-44134523D01*
X111524145Y-44091791D01*
X111694019Y-44040279D01*
X111858118Y-43983661D01*
X111978716Y-43936189D01*
X112073321Y-43894961D01*
X112146750Y-43860563D01*
X112188894Y-43837858D01*
X112195070Y-43832088D01*
X112170155Y-43829628D01*
X112104348Y-43831153D01*
X112007365Y-43836253D01*
X111888925Y-43844519D01*
X111876416Y-43845493D01*
X111560816Y-43870296D01*
X111469058Y-43817277D01*
X119127140Y-30553091D01*
X119144488Y-30548442D01*
X119139840Y-30531094D01*
X119122491Y-30535742D01*
X119127140Y-30553091D01*
X111469058Y-43817277D01*
X111328000Y-43735771D01*
X111194113Y-43652944D01*
X111101046Y-43580234D01*
X111042049Y-43509931D01*
X111010375Y-43434322D01*
X110999938Y-43360930D01*
X111007515Y-43315753D01*
X111031445Y-43229472D01*
X111069699Y-43108341D01*
X111120255Y-42958614D01*
X111181087Y-42786546D01*
X111224274Y-42668134D01*
X111285793Y-42500316D01*
X111340983Y-42347743D01*
X111387512Y-42217019D01*
X111423055Y-42114750D01*
X111445280Y-42047539D01*
X111451971Y-42022488D01*
X111437124Y-41985154D01*
X111403555Y-41934146D01*
X111384914Y-41914059D01*
X111358794Y-41897385D01*
X111318753Y-41882839D01*
X111258351Y-41869141D01*
X111171146Y-41855008D01*
X111050697Y-41839160D01*
X110890562Y-41820312D01*
X110754714Y-41805017D01*
X110153501Y-41737961D01*
X109942223Y-41615870D01*
X109812470Y-41534274D01*
X109723766Y-41459918D01*
X109669014Y-41383823D01*
X109641124Y-41297011D01*
X109633803Y-41225543D01*
X109633466Y-41194912D01*
X109637200Y-41164465D01*
X109647900Y-41128582D01*
X109668463Y-41081649D01*
X109701787Y-41018047D01*
X109750767Y-40932159D01*
X109818300Y-40818370D01*
X109907282Y-40671061D01*
X109989529Y-40535712D01*
X110349484Y-39943912D01*
X110320097Y-39853074D01*
X110306336Y-39816526D01*
X110287207Y-39785673D01*
X110256820Y-39757771D01*
X110209286Y-39730079D01*
X110138714Y-39699853D01*
X110039216Y-39664349D01*
X109904900Y-39620825D01*
X109729878Y-39566538D01*
X109656673Y-39544108D01*
X109393282Y-39457929D01*
X109177481Y-39374403D01*
X109006275Y-39291538D01*
X108876668Y-39207341D01*
X108785662Y-39119821D01*
X108730263Y-39026986D01*
X108707474Y-38926842D01*
X108706727Y-38912475D01*
X108708676Y-38851980D01*
X108722320Y-38794167D01*
X108752817Y-38725026D01*
X108805328Y-38630549D01*
X108819346Y-38606669D01*
X108868700Y-38527581D01*
X108923604Y-38450356D01*
X108990511Y-38367317D01*
X109075879Y-38270788D01*
X109186163Y-38153090D01*
X109299941Y-38035168D01*
X109664351Y-37660550D01*
X109648743Y-37553670D01*
X109633134Y-37446791D01*
X108998342Y-37098483D01*
X108812791Y-36996475D01*
X108666642Y-36915396D01*
X108554659Y-36851927D01*
X108471603Y-36802751D01*
X108412239Y-36764546D01*
X108371326Y-36733996D01*
X108343631Y-36707782D01*
X108323915Y-36682583D01*
X108311888Y-36663491D01*
X108268849Y-36580614D01*
X108249265Y-36506523D01*
X108254613Y-36429822D01*
X108286371Y-36339117D01*
X108346018Y-36223014D01*
X108375802Y-36170731D01*
X108511646Y-35936019D01*
X108934669Y-35652323D01*
X109096124Y-35544067D01*
X109220397Y-35460176D01*
X109312331Y-35396476D01*
X109376770Y-35348791D01*
X109418555Y-35312947D01*
X109442531Y-35284771D01*
X109453541Y-35260087D01*
X109456429Y-35234722D01*
X109456036Y-35204500D01*
X109456019Y-35202970D01*
X109450492Y-35141828D01*
X109438155Y-35107429D01*
X109436578Y-35106214D01*
X109403468Y-35082378D01*
X109338326Y-35031668D01*
X109247686Y-34959444D01*
X109138088Y-34871067D01*
X109016066Y-34771897D01*
X108888159Y-34667294D01*
X108760903Y-34562620D01*
X108640835Y-34463234D01*
X108534491Y-34374498D01*
X108448408Y-34301772D01*
X108389125Y-34250416D01*
X108363537Y-34226253D01*
X108325418Y-34152537D01*
X108300567Y-34054044D01*
X108293931Y-33956111D01*
X108301151Y-33906726D01*
X108322274Y-33858211D01*
X108363674Y-33781173D01*
X108417719Y-33689533D01*
X108438611Y-33655952D01*
X108558900Y-33465420D01*
X109132968Y-33220404D01*
X109293162Y-33150798D01*
X109438102Y-33085469D01*
X109561077Y-33027634D01*
X109655376Y-32980507D01*
X109714291Y-32947303D01*
X109731037Y-32933818D01*
X109744101Y-32880255D01*
X109739607Y-32855475D01*
X109719377Y-32826661D01*
X109670649Y-32765068D01*
X109598110Y-32676383D01*
X109506446Y-32566290D01*
X109400344Y-32440475D01*
X109312711Y-32337580D01*
X109196877Y-32201234D01*
X109090262Y-32074030D01*
X108997951Y-31962176D01*
X108925036Y-31871881D01*
X108876606Y-31809353D01*
X108859784Y-31785064D01*
X108822901Y-31700662D01*
X108814459Y-31614819D01*
X108836055Y-31517351D01*
X108889288Y-31398078D01*
X108933018Y-31318828D01*
X108993820Y-31216741D01*
X109040194Y-31149275D01*
X109080972Y-31105888D01*
X109124987Y-31076041D01*
X109145159Y-31065686D01*
X109195656Y-31047930D01*
X109287721Y-31022200D01*
X109413115Y-30990533D01*
X109563602Y-30954962D01*
X109730945Y-30917522D01*
X109837845Y-30894622D01*
X110031158Y-30852460D01*
X110194506Y-30813867D01*
X110323204Y-30780095D01*
X110412568Y-30752399D01*
X110457914Y-30732027D01*
X110462079Y-30727816D01*
X110461515Y-30700047D01*
X110442005Y-30643888D01*
X110402079Y-30556307D01*
X110340269Y-30434276D01*
X110255104Y-30274764D01*
X110147457Y-30078958D01*
X110039286Y-29883853D01*
X109954114Y-29726884D01*
X109890655Y-29601566D01*
X109847623Y-29501413D01*
X109823736Y-29419941D01*
X109817705Y-29350666D01*
X109828250Y-29287101D01*
X109854080Y-29222763D01*
X109893915Y-29151165D01*
X109946467Y-29065824D01*
G36*
X178234481Y-67866112D02*
G01*
X178234806Y-67866083D01*
X178356142Y-67856968D01*
X178440465Y-67856595D01*
X178500961Y-67865923D01*
X178550816Y-67885908D01*
X178557570Y-67889541D01*
X178602186Y-67926810D01*
X178673708Y-68003385D01*
X178770085Y-68116839D01*
X178889260Y-68264741D01*
X179029182Y-68444663D01*
X179051570Y-68473918D01*
X179184901Y-68646375D01*
X179297995Y-68788281D01*
X179388774Y-68897177D01*
X179455159Y-68970599D01*
X179495073Y-69006087D01*
X179503389Y-69009094D01*
X179520209Y-69001774D01*
X179544824Y-68979949D01*
X179580023Y-68939893D01*
X179628598Y-68877877D01*
X179693338Y-68790175D01*
X179777034Y-68673060D01*
X179882475Y-68522804D01*
X180012453Y-68335681D01*
X180072094Y-68249450D01*
X180168229Y-68111302D01*
X180243734Y-68009003D01*
X180306897Y-67936633D01*
X180366005Y-67888272D01*
X180429345Y-67858003D01*
X180505205Y-67839906D01*
X180601872Y-67828062D01*
X180670998Y-67821704D01*
X180792059Y-67811861D01*
X180874581Y-67808950D01*
X180930490Y-67814065D01*
X180971707Y-67828297D01*
X181010160Y-67852736D01*
X181010201Y-67852767D01*
X181043599Y-67878391D01*
X181073705Y-67906277D01*
X181103850Y-67941989D01*
X181137368Y-67991091D01*
X181177589Y-68059147D01*
X181227848Y-68151721D01*
X181291475Y-68274378D01*
X181371805Y-68432683D01*
X181447132Y-68582364D01*
X181525586Y-68737364D01*
X181597805Y-68877894D01*
X181660298Y-68997337D01*
X181709579Y-69089078D01*
X181742157Y-69146499D01*
X181753073Y-69162646D01*
X181800994Y-69184231D01*
X181829388Y-69185264D01*
X181860322Y-69166599D01*
X181921917Y-69117257D01*
X182008592Y-69042159D01*
X182114766Y-68946225D01*
X182234858Y-68834375D01*
X182326839Y-68746722D01*
X182776647Y-68314029D01*
X183029875Y-68274550D01*
X183148245Y-68257166D01*
X183229636Y-68249252D01*
X183287038Y-68251132D01*
X183333442Y-68263128D01*
X183377193Y-68283173D01*
X183452836Y-68332773D01*
X183516526Y-68392189D01*
X183523975Y-68401491D01*
X183548637Y-68450506D01*
X183584304Y-68545091D01*
X183629748Y-68681510D01*
X183683738Y-68856030D01*
X183745046Y-69064914D01*
X183762541Y-69126180D01*
X183816056Y-69310996D01*
X183865346Y-69474263D01*
X183908547Y-69610268D01*
X183943797Y-69713298D01*
X183969233Y-69777643D01*
X183981418Y-69797510D01*
X184019670Y-69816103D01*
X184054171Y-69827036D01*
X184091174Y-69827715D01*
X184136930Y-69815549D01*
X184197693Y-69787943D01*
X184279714Y-69742306D01*
X184389247Y-69676043D01*
X184532542Y-69586564D01*
X184614668Y-69534911D01*
X185121321Y-69216109D01*
X185334437Y-69189941D01*
X185488249Y-69178448D01*
X185605259Y-69189259D01*
X185695750Y-69225610D01*
X185770007Y-69290739D01*
X185806675Y-69338578D01*
X185827882Y-69370076D01*
X185845050Y-69400494D01*
X185859280Y-69436157D01*
X185871675Y-69483386D01*
X185883334Y-69548508D01*
X185895358Y-69637846D01*
X185908851Y-69757723D01*
X185924912Y-69914465D01*
X185944642Y-70114394D01*
X185948335Y-70152057D01*
X186017856Y-70861129D01*
X186110653Y-70915053D01*
X186203450Y-70968976D01*
X186679750Y-70783936D01*
X186859344Y-70715238D01*
X187002454Y-70663441D01*
X187119284Y-70625441D01*
X187220048Y-70598136D01*
X187314952Y-70578423D01*
X187399544Y-70565195D01*
X187517516Y-70550306D01*
X187598246Y-70544897D01*
X187654477Y-70549376D01*
X187698950Y-70564153D01*
X187720693Y-70575493D01*
X187801494Y-70630505D01*
X187865511Y-70697470D01*
X187913612Y-70781390D01*
X187946662Y-70887266D01*
X187965530Y-71020101D01*
X187971082Y-71184897D01*
X187964187Y-71386653D01*
X187945709Y-71630373D01*
X187930663Y-71786681D01*
X187874203Y-72341986D01*
X187951391Y-72418292D01*
X188028581Y-72494598D01*
X188719873Y-72393167D01*
X189411164Y-72291734D01*
X189504164Y-72340867D01*
X189593119Y-72400320D01*
X189657019Y-72476259D01*
X189701279Y-72578757D01*
X189731308Y-72717882D01*
X189739699Y-72779026D01*
X189767301Y-73003829D01*
X189592527Y-73584703D01*
X189537512Y-73768500D01*
X189496137Y-73910232D01*
X189467076Y-74016377D01*
X189448995Y-74093412D01*
X189440567Y-74147818D01*
X189440460Y-74186071D01*
X189447345Y-74214651D01*
X189458503Y-74237603D01*
X189493523Y-74290796D01*
X189521988Y-74320069D01*
X189522732Y-74320437D01*
X189553516Y-74324539D01*
X189628054Y-74330500D01*
X189739350Y-74337878D01*
X189880411Y-74346237D01*
X190044242Y-74355139D01*
X190203777Y-74363171D01*
X190422371Y-74374377D01*
X190596296Y-74385330D01*
X190731652Y-74397425D01*
X190834543Y-74412055D01*
X190911071Y-74430612D01*
X190967339Y-74454494D01*
X191009451Y-74485091D01*
X191043509Y-74523798D01*
X191068497Y-74560656D01*
X191100537Y-74635327D01*
X191127966Y-74742535D01*
X191148694Y-74866220D01*
X191160630Y-74990327D01*
X191161683Y-75098796D01*
X191149763Y-75175570D01*
X191148876Y-75178055D01*
X191129156Y-75222089D01*
X191089535Y-75303338D01*
X191033887Y-75414126D01*
X190966084Y-75546771D01*
X190889999Y-75693595D01*
X190857746Y-75755277D01*
X190781412Y-75902574D01*
X190713925Y-76036055D01*
X190658664Y-76148766D01*
X190619011Y-76233750D01*
X190598345Y-76284050D01*
X190596144Y-76293594D01*
X190618007Y-76312436D01*
X190680247Y-76353609D01*
X190778859Y-76414742D01*
X190909829Y-76493463D01*
X191069147Y-76587399D01*
X191252805Y-76694180D01*
X191456792Y-76811433D01*
X191677099Y-76936787D01*
X191821234Y-77018159D01*
X192065657Y-77156425D01*
X192293840Y-77286854D01*
X192501937Y-77407166D01*
X192686102Y-77515083D01*
X192842487Y-77608324D01*
X192967243Y-77684612D01*
X193056526Y-77741666D01*
X193106487Y-77777208D01*
X193113802Y-77783950D01*
X193143563Y-77820103D01*
X193164716Y-77857695D01*
X193180030Y-77907517D01*
X193192279Y-77980358D01*
X193204233Y-78087008D01*
X193211831Y-78165496D01*
X193223545Y-78294691D01*
X193228860Y-78388383D01*
X193226167Y-78461639D01*
X193213861Y-78529530D01*
X193190335Y-78607123D01*
X193153984Y-78709488D01*
X193153789Y-78710028D01*
X193108721Y-78825127D01*
X193046062Y-78969333D01*
X192965001Y-79144246D01*
X192864722Y-79351469D01*
X192744416Y-79592602D01*
X192603271Y-79869247D01*
X192440474Y-80183007D01*
X192255213Y-80535482D01*
X192046676Y-80928276D01*
X191814051Y-81362989D01*
X191722313Y-81533664D01*
X191611819Y-81739014D01*
X191498308Y-81949984D01*
X191386741Y-82157349D01*
X191282082Y-82351888D01*
X191189289Y-82524379D01*
X191113327Y-82665599D01*
X191085407Y-82717509D01*
X190996050Y-82887547D01*
X190897886Y-83080767D01*
X190800865Y-83277196D01*
X190714940Y-83456862D01*
X190687281Y-83516554D01*
X190622783Y-83655201D01*
X190560740Y-83784642D01*
X190506139Y-83894761D01*
X190463963Y-83975440D01*
X190445079Y-84008083D01*
X190407237Y-84061901D01*
X190369249Y-84092894D01*
X190313916Y-84110251D01*
X190231257Y-84122273D01*
X190078206Y-84141065D01*
X190053505Y-83817816D01*
X190044341Y-83637702D01*
X190043617Y-83461569D01*
X190051279Y-83309624D01*
X190054959Y-83273834D01*
X190109747Y-82916159D01*
X190191179Y-82532435D01*
X190295629Y-82137406D01*
X190419468Y-81745817D01*
X190457489Y-81637783D01*
X190528117Y-81427810D01*
X190602951Y-81180554D01*
X190679443Y-80906515D01*
X190755043Y-80616195D01*
X190827206Y-80320092D01*
X190893382Y-80028707D01*
X190951022Y-79752539D01*
X190997580Y-79502090D01*
X191030507Y-79287858D01*
X191033571Y-79263882D01*
X191051777Y-79118002D01*
X191063648Y-79014134D01*
X191068341Y-78943788D01*
X191065013Y-78898471D01*
X191052825Y-78869697D01*
X191030932Y-78848973D01*
X190998495Y-78827809D01*
X190989776Y-78822196D01*
X190932279Y-78791803D01*
X190893264Y-78784074D01*
X190886988Y-78787816D01*
X190871212Y-78817610D01*
X190837951Y-78884801D01*
X190791369Y-78980833D01*
X190735633Y-79097149D01*
X190705065Y-79161439D01*
X190644533Y-79286267D01*
X190562437Y-79451214D01*
X190461182Y-79651609D01*
X190343171Y-79882783D01*
X190210811Y-80140064D01*
X190066507Y-80418783D01*
X189912665Y-80714268D01*
X189751688Y-81021852D01*
X189585984Y-81336861D01*
X189533255Y-81436761D01*
X189448820Y-81599381D01*
X189357529Y-81779839D01*
X189268671Y-81959491D01*
X189191536Y-82119693D01*
X189168997Y-82167786D01*
X189112628Y-82286577D01*
X189063133Y-82385951D01*
X189024542Y-82458193D01*
X189000886Y-82495585D01*
X188996004Y-82498876D01*
X188991801Y-82468072D01*
X188997366Y-82396478D01*
X189011179Y-82292835D01*
X189031721Y-82165883D01*
X189057471Y-82024362D01*
X189086912Y-81877013D01*
X189118521Y-81732575D01*
X189150781Y-81599791D01*
X189155416Y-81582046D01*
X189197589Y-81431864D01*
X189251199Y-81254985D01*
X189309728Y-81072234D01*
X189366662Y-80904434D01*
X189373410Y-80885358D01*
X189508693Y-80487399D01*
X189639959Y-80068024D01*
X189758175Y-79656375D01*
X189783222Y-79563397D01*
X189818249Y-79426500D01*
X189854019Y-79277961D01*
X189888562Y-79126993D01*
X189919907Y-78982810D01*
X189946087Y-78854626D01*
X189965134Y-78751658D01*
X189975077Y-78683116D01*
X189975823Y-78662083D01*
X189957865Y-78658375D01*
X189912628Y-78691156D01*
X189851821Y-78749726D01*
X189755418Y-78842991D01*
X189625501Y-78958831D01*
X189469970Y-79090399D01*
X189296723Y-79230848D01*
X189296268Y-79231209D01*
X189249946Y-79287847D01*
X189201637Y-79380502D01*
X189169591Y-79462599D01*
X189055045Y-79741059D01*
X188896499Y-80036793D01*
X188693207Y-80351050D01*
X188444427Y-80685084D01*
X188441954Y-80688215D01*
X188070769Y-81119227D01*
X187655092Y-81529660D01*
X187198018Y-81916712D01*
X186702640Y-82277584D01*
X186637658Y-82321059D01*
X186490639Y-82418769D01*
X186378161Y-82495290D01*
X186292401Y-82557467D01*
X186225536Y-82612144D01*
X186169745Y-82666170D01*
X186117202Y-82726387D01*
X186060088Y-82799644D01*
X186002192Y-82877157D01*
X185663424Y-83309860D01*
X185326281Y-83693365D01*
X184988980Y-84029157D01*
X184649735Y-84318721D01*
X184306761Y-84563544D01*
X183958273Y-84765111D01*
X183602487Y-84924909D01*
X183494709Y-84964698D01*
X183413307Y-84987718D01*
X183293634Y-85014488D01*
X183147398Y-85043076D01*
X182986310Y-85071554D01*
X182822079Y-85097991D01*
X182666413Y-85120457D01*
X182531023Y-85137023D01*
X182427619Y-85145760D01*
X182391049Y-85146581D01*
X182034298Y-85124366D01*
X181706189Y-85071218D01*
X181425259Y-84992392D01*
X181255288Y-84924872D01*
X181074900Y-84839830D01*
X180900732Y-84745983D01*
X180749424Y-84652047D01*
X180679971Y-84601950D01*
X180602857Y-84540011D01*
X180556949Y-84493437D01*
X180532458Y-84447591D01*
X180519595Y-84387834D01*
X180515403Y-84355855D01*
X180499340Y-84225033D01*
X180867576Y-84149881D01*
X181017217Y-84117518D01*
X181166893Y-84081984D01*
X181301021Y-84047176D01*
X181404018Y-84016994D01*
X181420002Y-84011687D01*
X181739280Y-83885018D01*
X182062824Y-83724492D01*
X182374467Y-83539229D01*
X182658040Y-83338354D01*
X182760232Y-83255470D01*
X182863960Y-83162756D01*
X182976640Y-83053740D01*
X183092682Y-82934766D01*
X183206496Y-82812179D01*
X183312489Y-82692321D01*
X183405073Y-82581537D01*
X183478655Y-82486170D01*
X183527647Y-82412564D01*
X183546456Y-82367063D01*
X183546378Y-82363421D01*
X183521205Y-82352675D01*
X183453481Y-82340081D01*
X183351384Y-82326472D01*
X183223092Y-82312684D01*
X183076785Y-82299552D01*
X182920639Y-82287911D01*
X182762833Y-82278597D01*
X182678203Y-82274764D01*
X182218659Y-82270095D01*
X181800696Y-82294308D01*
X181424076Y-82347435D01*
X181088564Y-82429514D01*
X180793924Y-82540577D01*
X180755374Y-82558705D01*
X180649848Y-82604001D01*
X180543471Y-82640465D01*
X180458327Y-82660583D01*
X180454459Y-82661096D01*
X180334730Y-82675976D01*
X180317573Y-82536240D01*
X180311167Y-82452875D01*
X180319607Y-82386518D01*
X180347890Y-82315618D01*
X180384497Y-82247618D01*
X180426705Y-82169481D01*
X180456018Y-82108681D01*
X180466013Y-82078759D01*
X180441157Y-82076518D01*
X180372023Y-82079754D01*
X180264776Y-82087930D01*
X180125581Y-82100512D01*
X179960604Y-82116965D01*
X179776010Y-82136751D01*
X179700058Y-82145254D01*
X178691962Y-82246557D01*
X177719595Y-82317755D01*
X176777864Y-82358980D01*
X175861676Y-82370364D01*
X174965938Y-82352039D01*
X174085558Y-82304138D01*
X173950419Y-82294094D01*
X173710177Y-82273508D01*
X173452710Y-82247756D01*
X173188590Y-82218170D01*
X172928397Y-82186078D01*
X172682703Y-82152812D01*
X172462087Y-82119701D01*
X172277123Y-82088076D01*
X172212377Y-82075508D01*
X171914662Y-82009355D01*
X171603326Y-81930088D01*
X171290939Y-81841469D01*
X170990074Y-81747267D01*
X170713300Y-81651245D01*
X170473189Y-81557168D01*
X170452604Y-81548410D01*
X170355269Y-81510716D01*
X170300635Y-81499404D01*
X170287978Y-81510268D01*
X170303557Y-81543744D01*
X170344371Y-81613092D01*
X170406549Y-81712545D01*
X170486227Y-81836337D01*
X170579533Y-81978702D01*
X170682602Y-82133873D01*
X170791564Y-82296084D01*
X170902551Y-82459568D01*
X171011695Y-82618561D01*
X171115128Y-82767295D01*
X171208981Y-82900005D01*
X171289387Y-83010923D01*
X171338617Y-83076442D01*
X171522071Y-83323267D01*
X171691117Y-83567195D01*
X171841293Y-83801068D01*
X171968132Y-84017723D01*
X172067168Y-84209999D01*
X172116977Y-84324758D01*
X172147806Y-84402711D01*
X172173987Y-84467441D01*
X172180593Y-84483287D01*
X172201240Y-84531933D01*
X172138498Y-84488455D01*
X172097545Y-84453451D01*
X172031455Y-84389581D01*
X171949109Y-84305702D01*
X171859393Y-84210673D01*
X171852887Y-84203639D01*
X171767940Y-84114298D01*
X171654781Y-83999163D01*
X171522337Y-83867106D01*
X171379533Y-83726992D01*
X171235297Y-83587693D01*
X171176630Y-83531746D01*
X170800283Y-83173422D01*
X170460899Y-82848347D01*
X170158575Y-82556615D01*
X169893409Y-82298324D01*
X169665496Y-82073566D01*
X169474932Y-81882437D01*
X169321815Y-81725033D01*
X169206240Y-81601450D01*
X169128518Y-81512044D01*
X169076560Y-81451984D01*
X169036622Y-81412737D01*
X169021373Y-81403643D01*
X168996834Y-81422690D01*
X168951371Y-81469703D01*
X168910178Y-81516591D01*
X168816230Y-81627421D01*
X168901775Y-81792723D01*
X168991433Y-81951786D01*
X169110743Y-82141742D01*
X169254853Y-82356196D01*
X169418920Y-82588748D01*
X169598098Y-82833003D01*
X169787537Y-83082562D01*
X169982393Y-83331029D01*
X170177819Y-83572005D01*
X170368967Y-83799094D01*
X170550991Y-84005899D01*
X170699830Y-84166082D01*
X170919437Y-84406503D01*
X171134961Y-84664109D01*
X171339562Y-84929561D01*
X171526400Y-85193518D01*
X171688637Y-85446643D01*
X171819430Y-85679596D01*
X171843423Y-85727451D01*
X171938217Y-85971862D01*
X171975246Y-86127115D01*
X172012627Y-86333649D01*
X171682886Y-86374136D01*
X171345389Y-86092242D01*
X171277172Y-86036358D01*
X171172195Y-85951855D01*
X171033767Y-85841345D01*
X170865194Y-85707438D01*
X170669785Y-85552745D01*
X170450849Y-85379877D01*
X170211693Y-85191444D01*
X169955624Y-84990056D01*
X169685952Y-84778326D01*
X169405983Y-84558862D01*
X169119026Y-84334276D01*
X168995321Y-84237569D01*
X168710469Y-84014596D01*
X168434133Y-83797573D01*
X168169313Y-83588897D01*
X167919011Y-83390965D01*
X167686227Y-83206173D01*
X167473965Y-83036917D01*
X167285224Y-82885595D01*
X167123008Y-82754602D01*
X166990317Y-82646336D01*
X166890151Y-82563192D01*
X166825516Y-82507568D01*
X166806789Y-82490162D01*
X166671264Y-82347850D01*
X166571414Y-82222264D01*
X166500508Y-82102158D01*
X166451816Y-81976286D01*
X166420706Y-81844922D01*
X166397893Y-81680707D01*
X166399228Y-81549727D01*
X166426480Y-81439611D01*
X166481425Y-81337987D01*
X166496308Y-81317026D01*
X166533872Y-81265942D01*
X166596441Y-81180808D01*
X166678953Y-81068517D01*
X166776343Y-80935959D01*
X166883547Y-80790028D01*
X166978177Y-80661201D01*
X167377238Y-80117907D01*
X167097762Y-79946354D01*
X166900101Y-79817576D01*
X176362577Y-78655730D01*
X176412924Y-78874837D01*
X176507923Y-79083070D01*
X176644539Y-79276448D01*
X176819741Y-79450991D01*
X177030496Y-79602714D01*
X177273768Y-79727638D01*
X177380403Y-79769536D01*
X177560760Y-79829193D01*
X177710014Y-79863316D01*
X177841281Y-79871372D01*
X177967681Y-79852825D01*
X178102332Y-79807145D01*
X178258263Y-79733841D01*
X178485738Y-79593914D01*
X178671672Y-79426695D01*
X178817590Y-79229972D01*
X178925017Y-79001533D01*
X178995478Y-78739165D01*
X179011320Y-78641587D01*
X179020615Y-78477873D01*
X179012166Y-78324169D01*
X181185575Y-78057308D01*
X181192766Y-78091319D01*
X181236316Y-78223575D01*
X181301832Y-78372717D01*
X181379056Y-78517990D01*
X181457731Y-78638645D01*
X181473063Y-78658398D01*
X181667243Y-78873648D01*
X181862297Y-79039162D01*
X182057761Y-79154744D01*
X182253172Y-79220201D01*
X182448066Y-79235337D01*
X182641981Y-79199958D01*
X182707240Y-79176536D01*
X182893983Y-79089795D01*
X183079295Y-78983164D01*
X183253297Y-78863880D01*
X183406108Y-78739179D01*
X183527847Y-78616297D01*
X183594695Y-78526658D01*
X183674894Y-78376018D01*
X183727471Y-78222278D01*
X183758537Y-78045774D01*
X183765201Y-77978110D01*
X183770959Y-77885662D01*
X183768866Y-77809343D01*
X183756556Y-77731381D01*
X183731665Y-77633999D01*
X183709186Y-77557110D01*
X183618003Y-77297881D01*
X183616978Y-77295566D01*
X183766367Y-77277223D01*
X183780520Y-77288281D01*
X183791577Y-77274128D01*
X183777424Y-77263070D01*
X183766367Y-77277223D01*
X183616978Y-77295566D01*
X183498829Y-77029037D01*
X183421396Y-76884537D01*
X183587690Y-76864119D01*
X183601843Y-76875177D01*
X183612901Y-76861024D01*
X183598748Y-76849966D01*
X183587690Y-76864119D01*
X183421396Y-76884537D01*
X183362199Y-76774073D01*
X183345876Y-76746758D01*
X183241338Y-76610611D01*
X183099751Y-76489836D01*
X182915584Y-76380098D01*
X182818594Y-76333725D01*
X182740846Y-76304333D01*
X182644164Y-76275614D01*
X182541124Y-76250268D01*
X182444304Y-76230994D01*
X182366275Y-76220492D01*
X182319617Y-76221462D01*
X182312907Y-76225157D01*
X182324382Y-76247614D01*
X182362961Y-76294254D01*
X182404656Y-76338772D01*
X182493218Y-76447816D01*
X182560863Y-76575987D01*
X182610525Y-76731676D01*
X182645138Y-76923271D01*
X182661000Y-77071535D01*
X182672208Y-77237389D01*
X182672277Y-77366795D01*
X182659286Y-77473262D01*
X182631309Y-77570298D01*
X182586423Y-77671415D01*
X182571421Y-77700662D01*
X182514824Y-77783475D01*
X182440970Y-77861519D01*
X182419547Y-77879251D01*
X182366690Y-77915612D01*
X182312227Y-77940887D01*
X182242126Y-77959358D01*
X182142355Y-77975308D01*
X182077670Y-77983589D01*
X181948674Y-77996970D01*
X181855286Y-77999693D01*
X181783371Y-77991430D01*
X181728536Y-77975511D01*
X181603088Y-77904565D01*
X181489375Y-77791577D01*
X181393713Y-77645017D01*
X181322417Y-77473353D01*
X181303633Y-77405809D01*
X181266215Y-77251523D01*
X181229578Y-77399134D01*
X181195448Y-77572892D01*
X181176179Y-77751021D01*
X181172609Y-77917750D01*
X181185575Y-78057308D01*
X179012166Y-78324169D01*
X179010234Y-78289022D01*
X178982706Y-78095585D01*
X178940557Y-77918115D01*
X178912101Y-77834866D01*
X178839885Y-77679741D01*
X178744280Y-77514516D01*
X178636520Y-77356474D01*
X178527833Y-77222897D01*
X178486939Y-77180506D01*
X178307859Y-77040337D01*
X178097569Y-76933783D01*
X177865797Y-76864374D01*
X177837045Y-76860982D01*
X181618239Y-76396710D01*
X181623890Y-76396132D01*
X181664902Y-76368018D01*
X181708094Y-76342631D01*
X181740259Y-76320045D01*
X181726435Y-76313811D01*
X181725216Y-76313906D01*
X181677667Y-76334815D01*
X181641012Y-76367407D01*
X181618239Y-76396710D01*
X177837045Y-76860982D01*
X177622266Y-76835642D01*
X177537495Y-76835800D01*
X177353618Y-76841927D01*
X177415850Y-76895425D01*
X177464479Y-76946177D01*
X177524492Y-77020846D01*
X177566087Y-77078869D01*
X177601731Y-77134127D01*
X177628334Y-77185456D01*
X177649056Y-77243775D01*
X177667057Y-77320005D01*
X177685498Y-77425065D01*
X177706839Y-77565133D01*
X177731890Y-77757545D01*
X177742851Y-77912074D01*
X177738948Y-78039859D01*
X177719409Y-78152042D01*
X177683461Y-78259761D01*
X177654033Y-78326172D01*
X177564243Y-78463970D01*
X177441758Y-78565544D01*
X177283401Y-78633166D01*
X177195922Y-78653821D01*
X177086576Y-78668882D01*
X176978825Y-78674849D01*
X176904150Y-78671223D01*
X176783727Y-78633092D01*
X176658854Y-78557895D01*
X176543787Y-78455797D01*
X176467009Y-78359526D01*
X176423823Y-78297456D01*
X176396432Y-78273207D01*
X176379617Y-78290201D01*
X176368158Y-78351859D01*
X176359914Y-78429733D01*
X176362577Y-78655730D01*
X166900101Y-79817576D01*
X166819663Y-79765170D01*
X166539397Y-79563086D01*
X166267133Y-79348418D01*
X166013041Y-79129481D01*
X165787290Y-78914591D01*
X165628026Y-78744466D01*
X165548116Y-78645318D01*
X165460777Y-78524052D01*
X165374214Y-78393456D01*
X165296633Y-78266315D01*
X165236241Y-78155417D01*
X165205514Y-78086153D01*
X165186606Y-78038605D01*
X165164207Y-77999720D01*
X165130896Y-77963254D01*
X165079246Y-77922959D01*
X165001834Y-77872589D01*
X164891236Y-77805897D01*
X164827907Y-77768452D01*
X164653210Y-77659176D01*
X164459201Y-77527236D01*
X164255508Y-77380059D01*
X164051764Y-77225071D01*
X163857601Y-77069698D01*
X163682649Y-76921366D01*
X163536540Y-76787502D01*
X163472844Y-76723655D01*
X163320520Y-76549905D01*
X163174026Y-76356357D01*
X163041880Y-76155919D01*
X162932598Y-75961494D01*
X162855663Y-75788601D01*
X162808479Y-75632039D01*
X162767701Y-75442032D01*
X162735627Y-75235603D01*
X162714555Y-75029772D01*
X162706783Y-74841564D01*
X162711302Y-74719453D01*
X162758405Y-74453385D01*
X162852701Y-74181925D01*
X162991760Y-73910561D01*
X163173153Y-73644782D01*
X163204855Y-73604498D01*
X163306203Y-73479663D01*
X163388673Y-73383400D01*
X163464011Y-73303749D01*
X163543964Y-73228748D01*
X163640277Y-73146439D01*
X163714526Y-73085542D01*
X163812314Y-73008066D01*
X163884649Y-72957644D01*
X163943986Y-72927512D01*
X164002781Y-72910907D01*
X164049091Y-72903856D01*
X164180028Y-72887779D01*
X164238063Y-73232526D01*
X164338364Y-73688083D01*
X164482281Y-74128536D01*
X164667275Y-74548308D01*
X164890809Y-74941817D01*
X165150346Y-75303485D01*
X165216548Y-75383562D01*
X165374043Y-75568950D01*
X165332296Y-75100647D01*
X165320806Y-74973057D01*
X165305320Y-74803070D01*
X165286593Y-74598865D01*
X165265380Y-74368622D01*
X165242435Y-74120521D01*
X165218511Y-73862743D01*
X165194363Y-73603466D01*
X165183534Y-73487502D01*
X165076518Y-72342660D01*
X165222162Y-72324778D01*
X165297218Y-72317837D01*
X165356401Y-72321677D01*
X165416024Y-72340724D01*
X165492397Y-72379403D01*
X165555184Y-72415107D01*
X165986527Y-72683915D01*
X166368457Y-72963674D01*
X166701223Y-73254647D01*
X166985074Y-73557092D01*
X167220259Y-73871267D01*
X167407028Y-74197433D01*
X167519509Y-74461025D01*
X167557023Y-74587099D01*
X167592854Y-74750118D01*
X167625456Y-74937671D01*
X167653284Y-75137346D01*
X167674792Y-75336733D01*
X167688437Y-75523419D01*
X167692673Y-75684995D01*
X167686626Y-75803483D01*
X167616377Y-76193586D01*
X167497130Y-76581581D01*
X167330645Y-76963250D01*
X167118679Y-77334378D01*
X166942469Y-77587925D01*
X166785713Y-77797058D01*
X166865606Y-77891657D01*
X166942114Y-77969693D01*
X167051753Y-78064886D01*
X167183681Y-78168955D01*
X167327053Y-78273620D01*
X167471027Y-78370602D01*
X167581518Y-78438348D01*
X167671379Y-78489091D01*
X167743041Y-78527032D01*
X167786536Y-78547026D01*
X167794861Y-78548486D01*
X167781832Y-78527107D01*
X167741011Y-78475469D01*
X167678572Y-78401084D01*
X167600691Y-78311468D01*
X167592385Y-78302065D01*
X167382644Y-78064942D01*
X167369765Y-77959754D01*
X182571764Y-76093183D01*
X182585917Y-76104240D01*
X182596975Y-76090087D01*
X182582822Y-76079030D01*
X182571764Y-76093183D01*
X167369765Y-77959754D01*
X167349968Y-77798048D01*
X167335541Y-77641275D01*
X167337601Y-77523189D01*
X167358242Y-77433763D01*
X167399564Y-77362965D01*
X167451897Y-77310461D01*
X167492537Y-77289324D01*
X167575845Y-77256510D01*
X167695607Y-77214163D01*
X167845609Y-77164431D01*
X168019639Y-77109460D01*
X168140197Y-77072689D01*
X168311245Y-77020824D01*
X168466310Y-76973080D01*
X168598713Y-76931569D01*
X168701778Y-76898407D01*
X168768831Y-76875708D01*
X168792864Y-76865977D01*
X168813745Y-76831650D01*
X168834280Y-76774144D01*
X168839104Y-76747168D01*
X168836700Y-76716272D01*
X168824220Y-76675541D01*
X168798810Y-76619058D01*
X168757615Y-76540907D01*
X168697784Y-76435175D01*
X168616465Y-76295942D01*
X168546924Y-76178245D01*
X168238659Y-75657739D01*
X168209015Y-75415529D01*
X168196092Y-75262798D01*
X168202092Y-75147207D01*
X168229915Y-75057685D01*
X168282461Y-74983166D01*
X168335132Y-74934309D01*
X168359392Y-74915606D01*
X168385955Y-74900264D01*
X168421052Y-74887215D01*
X168470910Y-74875392D01*
X168541760Y-74863729D01*
X168639830Y-74851158D01*
X168771348Y-74836612D01*
X168942545Y-74819023D01*
X169100137Y-74803253D01*
X169789395Y-74734573D01*
X169844257Y-74656436D01*
X169865164Y-74623450D01*
X169878292Y-74589606D01*
X169882288Y-74548546D01*
X169875797Y-74493917D01*
X169857466Y-74419366D01*
X169825941Y-74318536D01*
X169779867Y-74185073D01*
X169717892Y-74012624D01*
X169691749Y-73940661D01*
X169602062Y-73678444D01*
X169538897Y-73455830D01*
X169502041Y-73269230D01*
X169491284Y-73115050D01*
X169506412Y-72989699D01*
X169547214Y-72889585D01*
X169613478Y-72811117D01*
X169624501Y-72801874D01*
X169673988Y-72767024D01*
X169728371Y-72743128D01*
X169801943Y-72725874D01*
X169908998Y-72710953D01*
X169936506Y-72707777D01*
X170029370Y-72699597D01*
X170124087Y-72696969D01*
X170230670Y-72700430D01*
X170359137Y-72710515D01*
X170519505Y-72727759D01*
X170682156Y-72747660D01*
X171200646Y-72813239D01*
X171276611Y-72736452D01*
X171352575Y-72659665D01*
X171248719Y-71943081D01*
X171218518Y-71733503D01*
X171195316Y-71567989D01*
X171178612Y-71440358D01*
X171167901Y-71344432D01*
X171162686Y-71274029D01*
X171162463Y-71222970D01*
X171166732Y-71185075D01*
X171174990Y-71154164D01*
X171183000Y-71133069D01*
X171223287Y-71048820D01*
X171270673Y-70988591D01*
X171335148Y-70946702D01*
X171426701Y-70917477D01*
X171555320Y-70895241D01*
X171615000Y-70887563D01*
X171884202Y-70854800D01*
X172365354Y-71021908D01*
X172548977Y-71085702D01*
X172690765Y-71134464D01*
X172796965Y-71169550D01*
X172873829Y-71192316D01*
X172927601Y-71204115D01*
X172964533Y-71206307D01*
X172990872Y-71200245D01*
X173012868Y-71187285D01*
X173036767Y-71168784D01*
X173037979Y-71167849D01*
X173083483Y-71126640D01*
X173103531Y-71096085D01*
X173103553Y-71094094D01*
X173102662Y-71053307D01*
X173103958Y-70970763D01*
X173107090Y-70854910D01*
X173111713Y-70714194D01*
X173117480Y-70557061D01*
X173124043Y-70391958D01*
X173131054Y-70227333D01*
X173138169Y-70071630D01*
X173145038Y-69933298D01*
X173151313Y-69820781D01*
X173156650Y-69742529D01*
X173160549Y-69707552D01*
X173196480Y-69632745D01*
X173260184Y-69553624D01*
X173334403Y-69489386D01*
X173378189Y-69465432D01*
X173429647Y-69453104D01*
X173516088Y-69439805D01*
X173621800Y-69427818D01*
X173661192Y-69424293D01*
X173885749Y-69405694D01*
X174426910Y-69716712D01*
X174578908Y-69802758D01*
X174718308Y-69879196D01*
X174838505Y-69942603D01*
X174932893Y-69989551D01*
X174994867Y-70016620D01*
X175015715Y-70021879D01*
X175066354Y-70000077D01*
X175083440Y-69981575D01*
X175094277Y-69948078D01*
X175114142Y-69872094D01*
X175141314Y-69760790D01*
X175174073Y-69621328D01*
X175210700Y-69460875D01*
X175240137Y-69328964D01*
X175279317Y-69154400D01*
X175316744Y-68992699D01*
X175350521Y-68851662D01*
X175378752Y-68739088D01*
X175399543Y-68662780D01*
X175408817Y-68634727D01*
X175454027Y-68554477D01*
X175517504Y-68496073D01*
X175608341Y-68454663D01*
X175735635Y-68425397D01*
X175825243Y-68412627D01*
X175943365Y-68399749D01*
X176025154Y-68396183D01*
X176084345Y-68402638D01*
X176134671Y-68419828D01*
X176155081Y-68429706D01*
X176199652Y-68459349D01*
X176275607Y-68517391D01*
X176376361Y-68598477D01*
X176495334Y-68697254D01*
X176625945Y-68808368D01*
X176708568Y-68879960D01*
X176858579Y-69008973D01*
X176987705Y-69116203D01*
X177092129Y-69198662D01*
X177168029Y-69253362D01*
X177211589Y-69277317D01*
X177217458Y-69278110D01*
X177239297Y-69260948D01*
X177272406Y-69211569D01*
X177318323Y-69126975D01*
X177378583Y-69004171D01*
X177454721Y-68840159D01*
X177546316Y-68636349D01*
X177637034Y-68432543D01*
X177711137Y-68270055D01*
X177773030Y-68143956D01*
X177827118Y-68049316D01*
X177877809Y-67981208D01*
X177929505Y-67934701D01*
X177986616Y-67904867D01*
X178053545Y-67886777D01*
X178134698Y-67875502D01*
X178234481Y-67866112D01*
G37*
X178234481Y-67866112D02*
X178234806Y-67866083D01*
X178356142Y-67856968D01*
X178440465Y-67856595D01*
X178500961Y-67865923D01*
X178550816Y-67885908D01*
X178557570Y-67889541D01*
X178602186Y-67926810D01*
X178673708Y-68003385D01*
X178770085Y-68116839D01*
X178889260Y-68264741D01*
X179029182Y-68444663D01*
X179051570Y-68473918D01*
X179184901Y-68646375D01*
X179297995Y-68788281D01*
X179388774Y-68897177D01*
X179455159Y-68970599D01*
X179495073Y-69006087D01*
X179503389Y-69009094D01*
X179520209Y-69001774D01*
X179544824Y-68979949D01*
X179580023Y-68939893D01*
X179628598Y-68877877D01*
X179693338Y-68790175D01*
X179777034Y-68673060D01*
X179882475Y-68522804D01*
X180012453Y-68335681D01*
X180072094Y-68249450D01*
X180168229Y-68111302D01*
X180243734Y-68009003D01*
X180306897Y-67936633D01*
X180366005Y-67888272D01*
X180429345Y-67858003D01*
X180505205Y-67839906D01*
X180601872Y-67828062D01*
X180670998Y-67821704D01*
X180792059Y-67811861D01*
X180874581Y-67808950D01*
X180930490Y-67814065D01*
X180971707Y-67828297D01*
X181010160Y-67852736D01*
X181010201Y-67852767D01*
X181043599Y-67878391D01*
X181073705Y-67906277D01*
X181103850Y-67941989D01*
X181137368Y-67991091D01*
X181177589Y-68059147D01*
X181227848Y-68151721D01*
X181291475Y-68274378D01*
X181371805Y-68432683D01*
X181447132Y-68582364D01*
X181525586Y-68737364D01*
X181597805Y-68877894D01*
X181660298Y-68997337D01*
X181709579Y-69089078D01*
X181742157Y-69146499D01*
X181753073Y-69162646D01*
X181800994Y-69184231D01*
X181829388Y-69185264D01*
X181860322Y-69166599D01*
X181921917Y-69117257D01*
X182008592Y-69042159D01*
X182114766Y-68946225D01*
X182234858Y-68834375D01*
X182326839Y-68746722D01*
X182776647Y-68314029D01*
X183029875Y-68274550D01*
X183148245Y-68257166D01*
X183229636Y-68249252D01*
X183287038Y-68251132D01*
X183333442Y-68263128D01*
X183377193Y-68283173D01*
X183452836Y-68332773D01*
X183516526Y-68392189D01*
X183523975Y-68401491D01*
X183548637Y-68450506D01*
X183584304Y-68545091D01*
X183629748Y-68681510D01*
X183683738Y-68856030D01*
X183745046Y-69064914D01*
X183762541Y-69126180D01*
X183816056Y-69310996D01*
X183865346Y-69474263D01*
X183908547Y-69610268D01*
X183943797Y-69713298D01*
X183969233Y-69777643D01*
X183981418Y-69797510D01*
X184019670Y-69816103D01*
X184054171Y-69827036D01*
X184091174Y-69827715D01*
X184136930Y-69815549D01*
X184197693Y-69787943D01*
X184279714Y-69742306D01*
X184389247Y-69676043D01*
X184532542Y-69586564D01*
X184614668Y-69534911D01*
X185121321Y-69216109D01*
X185334437Y-69189941D01*
X185488249Y-69178448D01*
X185605259Y-69189259D01*
X185695750Y-69225610D01*
X185770007Y-69290739D01*
X185806675Y-69338578D01*
X185827882Y-69370076D01*
X185845050Y-69400494D01*
X185859280Y-69436157D01*
X185871675Y-69483386D01*
X185883334Y-69548508D01*
X185895358Y-69637846D01*
X185908851Y-69757723D01*
X185924912Y-69914465D01*
X185944642Y-70114394D01*
X185948335Y-70152057D01*
X186017856Y-70861129D01*
X186110653Y-70915053D01*
X186203450Y-70968976D01*
X186679750Y-70783936D01*
X186859344Y-70715238D01*
X187002454Y-70663441D01*
X187119284Y-70625441D01*
X187220048Y-70598136D01*
X187314952Y-70578423D01*
X187399544Y-70565195D01*
X187517516Y-70550306D01*
X187598246Y-70544897D01*
X187654477Y-70549376D01*
X187698950Y-70564153D01*
X187720693Y-70575493D01*
X187801494Y-70630505D01*
X187865511Y-70697470D01*
X187913612Y-70781390D01*
X187946662Y-70887266D01*
X187965530Y-71020101D01*
X187971082Y-71184897D01*
X187964187Y-71386653D01*
X187945709Y-71630373D01*
X187930663Y-71786681D01*
X187874203Y-72341986D01*
X187951391Y-72418292D01*
X188028581Y-72494598D01*
X188719873Y-72393167D01*
X189411164Y-72291734D01*
X189504164Y-72340867D01*
X189593119Y-72400320D01*
X189657019Y-72476259D01*
X189701279Y-72578757D01*
X189731308Y-72717882D01*
X189739699Y-72779026D01*
X189767301Y-73003829D01*
X189592527Y-73584703D01*
X189537512Y-73768500D01*
X189496137Y-73910232D01*
X189467076Y-74016377D01*
X189448995Y-74093412D01*
X189440567Y-74147818D01*
X189440460Y-74186071D01*
X189447345Y-74214651D01*
X189458503Y-74237603D01*
X189493523Y-74290796D01*
X189521988Y-74320069D01*
X189522732Y-74320437D01*
X189553516Y-74324539D01*
X189628054Y-74330500D01*
X189739350Y-74337878D01*
X189880411Y-74346237D01*
X190044242Y-74355139D01*
X190203777Y-74363171D01*
X190422371Y-74374377D01*
X190596296Y-74385330D01*
X190731652Y-74397425D01*
X190834543Y-74412055D01*
X190911071Y-74430612D01*
X190967339Y-74454494D01*
X191009451Y-74485091D01*
X191043509Y-74523798D01*
X191068497Y-74560656D01*
X191100537Y-74635327D01*
X191127966Y-74742535D01*
X191148694Y-74866220D01*
X191160630Y-74990327D01*
X191161683Y-75098796D01*
X191149763Y-75175570D01*
X191148876Y-75178055D01*
X191129156Y-75222089D01*
X191089535Y-75303338D01*
X191033887Y-75414126D01*
X190966084Y-75546771D01*
X190889999Y-75693595D01*
X190857746Y-75755277D01*
X190781412Y-75902574D01*
X190713925Y-76036055D01*
X190658664Y-76148766D01*
X190619011Y-76233750D01*
X190598345Y-76284050D01*
X190596144Y-76293594D01*
X190618007Y-76312436D01*
X190680247Y-76353609D01*
X190778859Y-76414742D01*
X190909829Y-76493463D01*
X191069147Y-76587399D01*
X191252805Y-76694180D01*
X191456792Y-76811433D01*
X191677099Y-76936787D01*
X191821234Y-77018159D01*
X192065657Y-77156425D01*
X192293840Y-77286854D01*
X192501937Y-77407166D01*
X192686102Y-77515083D01*
X192842487Y-77608324D01*
X192967243Y-77684612D01*
X193056526Y-77741666D01*
X193106487Y-77777208D01*
X193113802Y-77783950D01*
X193143563Y-77820103D01*
X193164716Y-77857695D01*
X193180030Y-77907517D01*
X193192279Y-77980358D01*
X193204233Y-78087008D01*
X193211831Y-78165496D01*
X193223545Y-78294691D01*
X193228860Y-78388383D01*
X193226167Y-78461639D01*
X193213861Y-78529530D01*
X193190335Y-78607123D01*
X193153984Y-78709488D01*
X193153789Y-78710028D01*
X193108721Y-78825127D01*
X193046062Y-78969333D01*
X192965001Y-79144246D01*
X192864722Y-79351469D01*
X192744416Y-79592602D01*
X192603271Y-79869247D01*
X192440474Y-80183007D01*
X192255213Y-80535482D01*
X192046676Y-80928276D01*
X191814051Y-81362989D01*
X191722313Y-81533664D01*
X191611819Y-81739014D01*
X191498308Y-81949984D01*
X191386741Y-82157349D01*
X191282082Y-82351888D01*
X191189289Y-82524379D01*
X191113327Y-82665599D01*
X191085407Y-82717509D01*
X190996050Y-82887547D01*
X190897886Y-83080767D01*
X190800865Y-83277196D01*
X190714940Y-83456862D01*
X190687281Y-83516554D01*
X190622783Y-83655201D01*
X190560740Y-83784642D01*
X190506139Y-83894761D01*
X190463963Y-83975440D01*
X190445079Y-84008083D01*
X190407237Y-84061901D01*
X190369249Y-84092894D01*
X190313916Y-84110251D01*
X190231257Y-84122273D01*
X190078206Y-84141065D01*
X190053505Y-83817816D01*
X190044341Y-83637702D01*
X190043617Y-83461569D01*
X190051279Y-83309624D01*
X190054959Y-83273834D01*
X190109747Y-82916159D01*
X190191179Y-82532435D01*
X190295629Y-82137406D01*
X190419468Y-81745817D01*
X190457489Y-81637783D01*
X190528117Y-81427810D01*
X190602951Y-81180554D01*
X190679443Y-80906515D01*
X190755043Y-80616195D01*
X190827206Y-80320092D01*
X190893382Y-80028707D01*
X190951022Y-79752539D01*
X190997580Y-79502090D01*
X191030507Y-79287858D01*
X191033571Y-79263882D01*
X191051777Y-79118002D01*
X191063648Y-79014134D01*
X191068341Y-78943788D01*
X191065013Y-78898471D01*
X191052825Y-78869697D01*
X191030932Y-78848973D01*
X190998495Y-78827809D01*
X190989776Y-78822196D01*
X190932279Y-78791803D01*
X190893264Y-78784074D01*
X190886988Y-78787816D01*
X190871212Y-78817610D01*
X190837951Y-78884801D01*
X190791369Y-78980833D01*
X190735633Y-79097149D01*
X190705065Y-79161439D01*
X190644533Y-79286267D01*
X190562437Y-79451214D01*
X190461182Y-79651609D01*
X190343171Y-79882783D01*
X190210811Y-80140064D01*
X190066507Y-80418783D01*
X189912665Y-80714268D01*
X189751688Y-81021852D01*
X189585984Y-81336861D01*
X189533255Y-81436761D01*
X189448820Y-81599381D01*
X189357529Y-81779839D01*
X189268671Y-81959491D01*
X189191536Y-82119693D01*
X189168997Y-82167786D01*
X189112628Y-82286577D01*
X189063133Y-82385951D01*
X189024542Y-82458193D01*
X189000886Y-82495585D01*
X188996004Y-82498876D01*
X188991801Y-82468072D01*
X188997366Y-82396478D01*
X189011179Y-82292835D01*
X189031721Y-82165883D01*
X189057471Y-82024362D01*
X189086912Y-81877013D01*
X189118521Y-81732575D01*
X189150781Y-81599791D01*
X189155416Y-81582046D01*
X189197589Y-81431864D01*
X189251199Y-81254985D01*
X189309728Y-81072234D01*
X189366662Y-80904434D01*
X189373410Y-80885358D01*
X189508693Y-80487399D01*
X189639959Y-80068024D01*
X189758175Y-79656375D01*
X189783222Y-79563397D01*
X189818249Y-79426500D01*
X189854019Y-79277961D01*
X189888562Y-79126993D01*
X189919907Y-78982810D01*
X189946087Y-78854626D01*
X189965134Y-78751658D01*
X189975077Y-78683116D01*
X189975823Y-78662083D01*
X189957865Y-78658375D01*
X189912628Y-78691156D01*
X189851821Y-78749726D01*
X189755418Y-78842991D01*
X189625501Y-78958831D01*
X189469970Y-79090399D01*
X189296723Y-79230848D01*
X189296268Y-79231209D01*
X189249946Y-79287847D01*
X189201637Y-79380502D01*
X189169591Y-79462599D01*
X189055045Y-79741059D01*
X188896499Y-80036793D01*
X188693207Y-80351050D01*
X188444427Y-80685084D01*
X188441954Y-80688215D01*
X188070769Y-81119227D01*
X187655092Y-81529660D01*
X187198018Y-81916712D01*
X186702640Y-82277584D01*
X186637658Y-82321059D01*
X186490639Y-82418769D01*
X186378161Y-82495290D01*
X186292401Y-82557467D01*
X186225536Y-82612144D01*
X186169745Y-82666170D01*
X186117202Y-82726387D01*
X186060088Y-82799644D01*
X186002192Y-82877157D01*
X185663424Y-83309860D01*
X185326281Y-83693365D01*
X184988980Y-84029157D01*
X184649735Y-84318721D01*
X184306761Y-84563544D01*
X183958273Y-84765111D01*
X183602487Y-84924909D01*
X183494709Y-84964698D01*
X183413307Y-84987718D01*
X183293634Y-85014488D01*
X183147398Y-85043076D01*
X182986310Y-85071554D01*
X182822079Y-85097991D01*
X182666413Y-85120457D01*
X182531023Y-85137023D01*
X182427619Y-85145760D01*
X182391049Y-85146581D01*
X182034298Y-85124366D01*
X181706189Y-85071218D01*
X181425259Y-84992392D01*
X181255288Y-84924872D01*
X181074900Y-84839830D01*
X180900732Y-84745983D01*
X180749424Y-84652047D01*
X180679971Y-84601950D01*
X180602857Y-84540011D01*
X180556949Y-84493437D01*
X180532458Y-84447591D01*
X180519595Y-84387834D01*
X180515403Y-84355855D01*
X180499340Y-84225033D01*
X180867576Y-84149881D01*
X181017217Y-84117518D01*
X181166893Y-84081984D01*
X181301021Y-84047176D01*
X181404018Y-84016994D01*
X181420002Y-84011687D01*
X181739280Y-83885018D01*
X182062824Y-83724492D01*
X182374467Y-83539229D01*
X182658040Y-83338354D01*
X182760232Y-83255470D01*
X182863960Y-83162756D01*
X182976640Y-83053740D01*
X183092682Y-82934766D01*
X183206496Y-82812179D01*
X183312489Y-82692321D01*
X183405073Y-82581537D01*
X183478655Y-82486170D01*
X183527647Y-82412564D01*
X183546456Y-82367063D01*
X183546378Y-82363421D01*
X183521205Y-82352675D01*
X183453481Y-82340081D01*
X183351384Y-82326472D01*
X183223092Y-82312684D01*
X183076785Y-82299552D01*
X182920639Y-82287911D01*
X182762833Y-82278597D01*
X182678203Y-82274764D01*
X182218659Y-82270095D01*
X181800696Y-82294308D01*
X181424076Y-82347435D01*
X181088564Y-82429514D01*
X180793924Y-82540577D01*
X180755374Y-82558705D01*
X180649848Y-82604001D01*
X180543471Y-82640465D01*
X180458327Y-82660583D01*
X180454459Y-82661096D01*
X180334730Y-82675976D01*
X180317573Y-82536240D01*
X180311167Y-82452875D01*
X180319607Y-82386518D01*
X180347890Y-82315618D01*
X180384497Y-82247618D01*
X180426705Y-82169481D01*
X180456018Y-82108681D01*
X180466013Y-82078759D01*
X180441157Y-82076518D01*
X180372023Y-82079754D01*
X180264776Y-82087930D01*
X180125581Y-82100512D01*
X179960604Y-82116965D01*
X179776010Y-82136751D01*
X179700058Y-82145254D01*
X178691962Y-82246557D01*
X177719595Y-82317755D01*
X176777864Y-82358980D01*
X175861676Y-82370364D01*
X174965938Y-82352039D01*
X174085558Y-82304138D01*
X173950419Y-82294094D01*
X173710177Y-82273508D01*
X173452710Y-82247756D01*
X173188590Y-82218170D01*
X172928397Y-82186078D01*
X172682703Y-82152812D01*
X172462087Y-82119701D01*
X172277123Y-82088076D01*
X172212377Y-82075508D01*
X171914662Y-82009355D01*
X171603326Y-81930088D01*
X171290939Y-81841469D01*
X170990074Y-81747267D01*
X170713300Y-81651245D01*
X170473189Y-81557168D01*
X170452604Y-81548410D01*
X170355269Y-81510716D01*
X170300635Y-81499404D01*
X170287978Y-81510268D01*
X170303557Y-81543744D01*
X170344371Y-81613092D01*
X170406549Y-81712545D01*
X170486227Y-81836337D01*
X170579533Y-81978702D01*
X170682602Y-82133873D01*
X170791564Y-82296084D01*
X170902551Y-82459568D01*
X171011695Y-82618561D01*
X171115128Y-82767295D01*
X171208981Y-82900005D01*
X171289387Y-83010923D01*
X171338617Y-83076442D01*
X171522071Y-83323267D01*
X171691117Y-83567195D01*
X171841293Y-83801068D01*
X171968132Y-84017723D01*
X172067168Y-84209999D01*
X172116977Y-84324758D01*
X172147806Y-84402711D01*
X172173987Y-84467441D01*
X172180593Y-84483287D01*
X172201240Y-84531933D01*
X172138498Y-84488455D01*
X172097545Y-84453451D01*
X172031455Y-84389581D01*
X171949109Y-84305702D01*
X171859393Y-84210673D01*
X171852887Y-84203639D01*
X171767940Y-84114298D01*
X171654781Y-83999163D01*
X171522337Y-83867106D01*
X171379533Y-83726992D01*
X171235297Y-83587693D01*
X171176630Y-83531746D01*
X170800283Y-83173422D01*
X170460899Y-82848347D01*
X170158575Y-82556615D01*
X169893409Y-82298324D01*
X169665496Y-82073566D01*
X169474932Y-81882437D01*
X169321815Y-81725033D01*
X169206240Y-81601450D01*
X169128518Y-81512044D01*
X169076560Y-81451984D01*
X169036622Y-81412737D01*
X169021373Y-81403643D01*
X168996834Y-81422690D01*
X168951371Y-81469703D01*
X168910178Y-81516591D01*
X168816230Y-81627421D01*
X168901775Y-81792723D01*
X168991433Y-81951786D01*
X169110743Y-82141742D01*
X169254853Y-82356196D01*
X169418920Y-82588748D01*
X169598098Y-82833003D01*
X169787537Y-83082562D01*
X169982393Y-83331029D01*
X170177819Y-83572005D01*
X170368967Y-83799094D01*
X170550991Y-84005899D01*
X170699830Y-84166082D01*
X170919437Y-84406503D01*
X171134961Y-84664109D01*
X171339562Y-84929561D01*
X171526400Y-85193518D01*
X171688637Y-85446643D01*
X171819430Y-85679596D01*
X171843423Y-85727451D01*
X171938217Y-85971862D01*
X171975246Y-86127115D01*
X172012627Y-86333649D01*
X171682886Y-86374136D01*
X171345389Y-86092242D01*
X171277172Y-86036358D01*
X171172195Y-85951855D01*
X171033767Y-85841345D01*
X170865194Y-85707438D01*
X170669785Y-85552745D01*
X170450849Y-85379877D01*
X170211693Y-85191444D01*
X169955624Y-84990056D01*
X169685952Y-84778326D01*
X169405983Y-84558862D01*
X169119026Y-84334276D01*
X168995321Y-84237569D01*
X168710469Y-84014596D01*
X168434133Y-83797573D01*
X168169313Y-83588897D01*
X167919011Y-83390965D01*
X167686227Y-83206173D01*
X167473965Y-83036917D01*
X167285224Y-82885595D01*
X167123008Y-82754602D01*
X166990317Y-82646336D01*
X166890151Y-82563192D01*
X166825516Y-82507568D01*
X166806789Y-82490162D01*
X166671264Y-82347850D01*
X166571414Y-82222264D01*
X166500508Y-82102158D01*
X166451816Y-81976286D01*
X166420706Y-81844922D01*
X166397893Y-81680707D01*
X166399228Y-81549727D01*
X166426480Y-81439611D01*
X166481425Y-81337987D01*
X166496308Y-81317026D01*
X166533872Y-81265942D01*
X166596441Y-81180808D01*
X166678953Y-81068517D01*
X166776343Y-80935959D01*
X166883547Y-80790028D01*
X166978177Y-80661201D01*
X167377238Y-80117907D01*
X167097762Y-79946354D01*
X166900101Y-79817576D01*
X176362577Y-78655730D01*
X176412924Y-78874837D01*
X176507923Y-79083070D01*
X176644539Y-79276448D01*
X176819741Y-79450991D01*
X177030496Y-79602714D01*
X177273768Y-79727638D01*
X177380403Y-79769536D01*
X177560760Y-79829193D01*
X177710014Y-79863316D01*
X177841281Y-79871372D01*
X177967681Y-79852825D01*
X178102332Y-79807145D01*
X178258263Y-79733841D01*
X178485738Y-79593914D01*
X178671672Y-79426695D01*
X178817590Y-79229972D01*
X178925017Y-79001533D01*
X178995478Y-78739165D01*
X179011320Y-78641587D01*
X179020615Y-78477873D01*
X179012166Y-78324169D01*
X181185575Y-78057308D01*
X181192766Y-78091319D01*
X181236316Y-78223575D01*
X181301832Y-78372717D01*
X181379056Y-78517990D01*
X181457731Y-78638645D01*
X181473063Y-78658398D01*
X181667243Y-78873648D01*
X181862297Y-79039162D01*
X182057761Y-79154744D01*
X182253172Y-79220201D01*
X182448066Y-79235337D01*
X182641981Y-79199958D01*
X182707240Y-79176536D01*
X182893983Y-79089795D01*
X183079295Y-78983164D01*
X183253297Y-78863880D01*
X183406108Y-78739179D01*
X183527847Y-78616297D01*
X183594695Y-78526658D01*
X183674894Y-78376018D01*
X183727471Y-78222278D01*
X183758537Y-78045774D01*
X183765201Y-77978110D01*
X183770959Y-77885662D01*
X183768866Y-77809343D01*
X183756556Y-77731381D01*
X183731665Y-77633999D01*
X183709186Y-77557110D01*
X183618003Y-77297881D01*
X183616978Y-77295566D01*
X183766367Y-77277223D01*
X183780520Y-77288281D01*
X183791577Y-77274128D01*
X183777424Y-77263070D01*
X183766367Y-77277223D01*
X183616978Y-77295566D01*
X183498829Y-77029037D01*
X183421396Y-76884537D01*
X183587690Y-76864119D01*
X183601843Y-76875177D01*
X183612901Y-76861024D01*
X183598748Y-76849966D01*
X183587690Y-76864119D01*
X183421396Y-76884537D01*
X183362199Y-76774073D01*
X183345876Y-76746758D01*
X183241338Y-76610611D01*
X183099751Y-76489836D01*
X182915584Y-76380098D01*
X182818594Y-76333725D01*
X182740846Y-76304333D01*
X182644164Y-76275614D01*
X182541124Y-76250268D01*
X182444304Y-76230994D01*
X182366275Y-76220492D01*
X182319617Y-76221462D01*
X182312907Y-76225157D01*
X182324382Y-76247614D01*
X182362961Y-76294254D01*
X182404656Y-76338772D01*
X182493218Y-76447816D01*
X182560863Y-76575987D01*
X182610525Y-76731676D01*
X182645138Y-76923271D01*
X182661000Y-77071535D01*
X182672208Y-77237389D01*
X182672277Y-77366795D01*
X182659286Y-77473262D01*
X182631309Y-77570298D01*
X182586423Y-77671415D01*
X182571421Y-77700662D01*
X182514824Y-77783475D01*
X182440970Y-77861519D01*
X182419547Y-77879251D01*
X182366690Y-77915612D01*
X182312227Y-77940887D01*
X182242126Y-77959358D01*
X182142355Y-77975308D01*
X182077670Y-77983589D01*
X181948674Y-77996970D01*
X181855286Y-77999693D01*
X181783371Y-77991430D01*
X181728536Y-77975511D01*
X181603088Y-77904565D01*
X181489375Y-77791577D01*
X181393713Y-77645017D01*
X181322417Y-77473353D01*
X181303633Y-77405809D01*
X181266215Y-77251523D01*
X181229578Y-77399134D01*
X181195448Y-77572892D01*
X181176179Y-77751021D01*
X181172609Y-77917750D01*
X181185575Y-78057308D01*
X179012166Y-78324169D01*
X179010234Y-78289022D01*
X178982706Y-78095585D01*
X178940557Y-77918115D01*
X178912101Y-77834866D01*
X178839885Y-77679741D01*
X178744280Y-77514516D01*
X178636520Y-77356474D01*
X178527833Y-77222897D01*
X178486939Y-77180506D01*
X178307859Y-77040337D01*
X178097569Y-76933783D01*
X177865797Y-76864374D01*
X177837045Y-76860982D01*
X181618239Y-76396710D01*
X181623890Y-76396132D01*
X181664902Y-76368018D01*
X181708094Y-76342631D01*
X181740259Y-76320045D01*
X181726435Y-76313811D01*
X181725216Y-76313906D01*
X181677667Y-76334815D01*
X181641012Y-76367407D01*
X181618239Y-76396710D01*
X177837045Y-76860982D01*
X177622266Y-76835642D01*
X177537495Y-76835800D01*
X177353618Y-76841927D01*
X177415850Y-76895425D01*
X177464479Y-76946177D01*
X177524492Y-77020846D01*
X177566087Y-77078869D01*
X177601731Y-77134127D01*
X177628334Y-77185456D01*
X177649056Y-77243775D01*
X177667057Y-77320005D01*
X177685498Y-77425065D01*
X177706839Y-77565133D01*
X177731890Y-77757545D01*
X177742851Y-77912074D01*
X177738948Y-78039859D01*
X177719409Y-78152042D01*
X177683461Y-78259761D01*
X177654033Y-78326172D01*
X177564243Y-78463970D01*
X177441758Y-78565544D01*
X177283401Y-78633166D01*
X177195922Y-78653821D01*
X177086576Y-78668882D01*
X176978825Y-78674849D01*
X176904150Y-78671223D01*
X176783727Y-78633092D01*
X176658854Y-78557895D01*
X176543787Y-78455797D01*
X176467009Y-78359526D01*
X176423823Y-78297456D01*
X176396432Y-78273207D01*
X176379617Y-78290201D01*
X176368158Y-78351859D01*
X176359914Y-78429733D01*
X176362577Y-78655730D01*
X166900101Y-79817576D01*
X166819663Y-79765170D01*
X166539397Y-79563086D01*
X166267133Y-79348418D01*
X166013041Y-79129481D01*
X165787290Y-78914591D01*
X165628026Y-78744466D01*
X165548116Y-78645318D01*
X165460777Y-78524052D01*
X165374214Y-78393456D01*
X165296633Y-78266315D01*
X165236241Y-78155417D01*
X165205514Y-78086153D01*
X165186606Y-78038605D01*
X165164207Y-77999720D01*
X165130896Y-77963254D01*
X165079246Y-77922959D01*
X165001834Y-77872589D01*
X164891236Y-77805897D01*
X164827907Y-77768452D01*
X164653210Y-77659176D01*
X164459201Y-77527236D01*
X164255508Y-77380059D01*
X164051764Y-77225071D01*
X163857601Y-77069698D01*
X163682649Y-76921366D01*
X163536540Y-76787502D01*
X163472844Y-76723655D01*
X163320520Y-76549905D01*
X163174026Y-76356357D01*
X163041880Y-76155919D01*
X162932598Y-75961494D01*
X162855663Y-75788601D01*
X162808479Y-75632039D01*
X162767701Y-75442032D01*
X162735627Y-75235603D01*
X162714555Y-75029772D01*
X162706783Y-74841564D01*
X162711302Y-74719453D01*
X162758405Y-74453385D01*
X162852701Y-74181925D01*
X162991760Y-73910561D01*
X163173153Y-73644782D01*
X163204855Y-73604498D01*
X163306203Y-73479663D01*
X163388673Y-73383400D01*
X163464011Y-73303749D01*
X163543964Y-73228748D01*
X163640277Y-73146439D01*
X163714526Y-73085542D01*
X163812314Y-73008066D01*
X163884649Y-72957644D01*
X163943986Y-72927512D01*
X164002781Y-72910907D01*
X164049091Y-72903856D01*
X164180028Y-72887779D01*
X164238063Y-73232526D01*
X164338364Y-73688083D01*
X164482281Y-74128536D01*
X164667275Y-74548308D01*
X164890809Y-74941817D01*
X165150346Y-75303485D01*
X165216548Y-75383562D01*
X165374043Y-75568950D01*
X165332296Y-75100647D01*
X165320806Y-74973057D01*
X165305320Y-74803070D01*
X165286593Y-74598865D01*
X165265380Y-74368622D01*
X165242435Y-74120521D01*
X165218511Y-73862743D01*
X165194363Y-73603466D01*
X165183534Y-73487502D01*
X165076518Y-72342660D01*
X165222162Y-72324778D01*
X165297218Y-72317837D01*
X165356401Y-72321677D01*
X165416024Y-72340724D01*
X165492397Y-72379403D01*
X165555184Y-72415107D01*
X165986527Y-72683915D01*
X166368457Y-72963674D01*
X166701223Y-73254647D01*
X166985074Y-73557092D01*
X167220259Y-73871267D01*
X167407028Y-74197433D01*
X167519509Y-74461025D01*
X167557023Y-74587099D01*
X167592854Y-74750118D01*
X167625456Y-74937671D01*
X167653284Y-75137346D01*
X167674792Y-75336733D01*
X167688437Y-75523419D01*
X167692673Y-75684995D01*
X167686626Y-75803483D01*
X167616377Y-76193586D01*
X167497130Y-76581581D01*
X167330645Y-76963250D01*
X167118679Y-77334378D01*
X166942469Y-77587925D01*
X166785713Y-77797058D01*
X166865606Y-77891657D01*
X166942114Y-77969693D01*
X167051753Y-78064886D01*
X167183681Y-78168955D01*
X167327053Y-78273620D01*
X167471027Y-78370602D01*
X167581518Y-78438348D01*
X167671379Y-78489091D01*
X167743041Y-78527032D01*
X167786536Y-78547026D01*
X167794861Y-78548486D01*
X167781832Y-78527107D01*
X167741011Y-78475469D01*
X167678572Y-78401084D01*
X167600691Y-78311468D01*
X167592385Y-78302065D01*
X167382644Y-78064942D01*
X167369765Y-77959754D01*
X182571764Y-76093183D01*
X182585917Y-76104240D01*
X182596975Y-76090087D01*
X182582822Y-76079030D01*
X182571764Y-76093183D01*
X167369765Y-77959754D01*
X167349968Y-77798048D01*
X167335541Y-77641275D01*
X167337601Y-77523189D01*
X167358242Y-77433763D01*
X167399564Y-77362965D01*
X167451897Y-77310461D01*
X167492537Y-77289324D01*
X167575845Y-77256510D01*
X167695607Y-77214163D01*
X167845609Y-77164431D01*
X168019639Y-77109460D01*
X168140197Y-77072689D01*
X168311245Y-77020824D01*
X168466310Y-76973080D01*
X168598713Y-76931569D01*
X168701778Y-76898407D01*
X168768831Y-76875708D01*
X168792864Y-76865977D01*
X168813745Y-76831650D01*
X168834280Y-76774144D01*
X168839104Y-76747168D01*
X168836700Y-76716272D01*
X168824220Y-76675541D01*
X168798810Y-76619058D01*
X168757615Y-76540907D01*
X168697784Y-76435175D01*
X168616465Y-76295942D01*
X168546924Y-76178245D01*
X168238659Y-75657739D01*
X168209015Y-75415529D01*
X168196092Y-75262798D01*
X168202092Y-75147207D01*
X168229915Y-75057685D01*
X168282461Y-74983166D01*
X168335132Y-74934309D01*
X168359392Y-74915606D01*
X168385955Y-74900264D01*
X168421052Y-74887215D01*
X168470910Y-74875392D01*
X168541760Y-74863729D01*
X168639830Y-74851158D01*
X168771348Y-74836612D01*
X168942545Y-74819023D01*
X169100137Y-74803253D01*
X169789395Y-74734573D01*
X169844257Y-74656436D01*
X169865164Y-74623450D01*
X169878292Y-74589606D01*
X169882288Y-74548546D01*
X169875797Y-74493917D01*
X169857466Y-74419366D01*
X169825941Y-74318536D01*
X169779867Y-74185073D01*
X169717892Y-74012624D01*
X169691749Y-73940661D01*
X169602062Y-73678444D01*
X169538897Y-73455830D01*
X169502041Y-73269230D01*
X169491284Y-73115050D01*
X169506412Y-72989699D01*
X169547214Y-72889585D01*
X169613478Y-72811117D01*
X169624501Y-72801874D01*
X169673988Y-72767024D01*
X169728371Y-72743128D01*
X169801943Y-72725874D01*
X169908998Y-72710953D01*
X169936506Y-72707777D01*
X170029370Y-72699597D01*
X170124087Y-72696969D01*
X170230670Y-72700430D01*
X170359137Y-72710515D01*
X170519505Y-72727759D01*
X170682156Y-72747660D01*
X171200646Y-72813239D01*
X171276611Y-72736452D01*
X171352575Y-72659665D01*
X171248719Y-71943081D01*
X171218518Y-71733503D01*
X171195316Y-71567989D01*
X171178612Y-71440358D01*
X171167901Y-71344432D01*
X171162686Y-71274029D01*
X171162463Y-71222970D01*
X171166732Y-71185075D01*
X171174990Y-71154164D01*
X171183000Y-71133069D01*
X171223287Y-71048820D01*
X171270673Y-70988591D01*
X171335148Y-70946702D01*
X171426701Y-70917477D01*
X171555320Y-70895241D01*
X171615000Y-70887563D01*
X171884202Y-70854800D01*
X172365354Y-71021908D01*
X172548977Y-71085702D01*
X172690765Y-71134464D01*
X172796965Y-71169550D01*
X172873829Y-71192316D01*
X172927601Y-71204115D01*
X172964533Y-71206307D01*
X172990872Y-71200245D01*
X173012868Y-71187285D01*
X173036767Y-71168784D01*
X173037979Y-71167849D01*
X173083483Y-71126640D01*
X173103531Y-71096085D01*
X173103553Y-71094094D01*
X173102662Y-71053307D01*
X173103958Y-70970763D01*
X173107090Y-70854910D01*
X173111713Y-70714194D01*
X173117480Y-70557061D01*
X173124043Y-70391958D01*
X173131054Y-70227333D01*
X173138169Y-70071630D01*
X173145038Y-69933298D01*
X173151313Y-69820781D01*
X173156650Y-69742529D01*
X173160549Y-69707552D01*
X173196480Y-69632745D01*
X173260184Y-69553624D01*
X173334403Y-69489386D01*
X173378189Y-69465432D01*
X173429647Y-69453104D01*
X173516088Y-69439805D01*
X173621800Y-69427818D01*
X173661192Y-69424293D01*
X173885749Y-69405694D01*
X174426910Y-69716712D01*
X174578908Y-69802758D01*
X174718308Y-69879196D01*
X174838505Y-69942603D01*
X174932893Y-69989551D01*
X174994867Y-70016620D01*
X175015715Y-70021879D01*
X175066354Y-70000077D01*
X175083440Y-69981575D01*
X175094277Y-69948078D01*
X175114142Y-69872094D01*
X175141314Y-69760790D01*
X175174073Y-69621328D01*
X175210700Y-69460875D01*
X175240137Y-69328964D01*
X175279317Y-69154400D01*
X175316744Y-68992699D01*
X175350521Y-68851662D01*
X175378752Y-68739088D01*
X175399543Y-68662780D01*
X175408817Y-68634727D01*
X175454027Y-68554477D01*
X175517504Y-68496073D01*
X175608341Y-68454663D01*
X175735635Y-68425397D01*
X175825243Y-68412627D01*
X175943365Y-68399749D01*
X176025154Y-68396183D01*
X176084345Y-68402638D01*
X176134671Y-68419828D01*
X176155081Y-68429706D01*
X176199652Y-68459349D01*
X176275607Y-68517391D01*
X176376361Y-68598477D01*
X176495334Y-68697254D01*
X176625945Y-68808368D01*
X176708568Y-68879960D01*
X176858579Y-69008973D01*
X176987705Y-69116203D01*
X177092129Y-69198662D01*
X177168029Y-69253362D01*
X177211589Y-69277317D01*
X177217458Y-69278110D01*
X177239297Y-69260948D01*
X177272406Y-69211569D01*
X177318323Y-69126975D01*
X177378583Y-69004171D01*
X177454721Y-68840159D01*
X177546316Y-68636349D01*
X177637034Y-68432543D01*
X177711137Y-68270055D01*
X177773030Y-68143956D01*
X177827118Y-68049316D01*
X177877809Y-67981208D01*
X177929505Y-67934701D01*
X177986616Y-67904867D01*
X178053545Y-67886777D01*
X178134698Y-67875502D01*
X178234481Y-67866112D01*
%TD*%
D11*
%TO.C,mouse-bite-2mm-slot*%
X102400000Y-38500000D03*
X103900000Y-38500000D03*
X102400000Y-37750000D03*
X102400000Y-39250000D03*
X103900000Y-39250000D03*
X103900000Y-37750000D03*
%TD*%
%TO.C,mouse-bite-2mm-slot*%
X132100000Y-38500000D03*
X133600000Y-38500000D03*
X132100000Y-37750000D03*
X132100000Y-39250000D03*
X133600000Y-39250000D03*
X133600000Y-37750000D03*
%TD*%
D12*
%TO.C,K0_0*%
X16500000Y-40000000D03*
X27500000Y-40000000D03*
D13*
X27220000Y-35800000D03*
D14*
X22000000Y-45900000D03*
X17000000Y-43800000D03*
D15*
X22000000Y-40000000D03*
%TD*%
D12*
%TO.C,K0_1*%
X34500000Y-28000000D03*
X45500000Y-28000000D03*
D13*
X45220000Y-23800000D03*
D14*
X40000000Y-33900000D03*
X35000000Y-31800000D03*
D15*
X40000000Y-28000000D03*
%TD*%
D12*
%TO.C,K0_2*%
X52500000Y-22000000D03*
X63500000Y-22000000D03*
D13*
X63220000Y-17800000D03*
D14*
X58000000Y-27900000D03*
X53000000Y-25800000D03*
D15*
X58000000Y-22000000D03*
%TD*%
D12*
%TO.C,K0_3*%
X70500000Y-27500000D03*
X81500000Y-27500000D03*
D13*
X81220000Y-23300000D03*
D14*
X76000000Y-33400000D03*
X71000000Y-31300000D03*
D15*
X76000000Y-27500000D03*
%TD*%
D12*
%TO.C,K0_4*%
X88500000Y-30000000D03*
X99500000Y-30000000D03*
D13*
X99220000Y-25800000D03*
D14*
X94000000Y-35900000D03*
X89000000Y-33800000D03*
D15*
X94000000Y-30000000D03*
%TD*%
D12*
%TO.C,K0_5*%
X136500000Y-30000000D03*
X147500000Y-30000000D03*
D13*
X147220000Y-25800000D03*
D14*
X142000000Y-35900000D03*
X137000000Y-33800000D03*
D15*
X142000000Y-30000000D03*
%TD*%
D12*
%TO.C,K0_6*%
X154500000Y-27500000D03*
X165500000Y-27500000D03*
D13*
X165220000Y-23300000D03*
D14*
X160000000Y-33400000D03*
X155000000Y-31300000D03*
D15*
X160000000Y-27500000D03*
%TD*%
D12*
%TO.C,K0_7*%
X172500000Y-22000000D03*
X183500000Y-22000000D03*
D13*
X183220000Y-17800000D03*
D14*
X178000000Y-27900000D03*
X173000000Y-25800000D03*
D15*
X178000000Y-22000000D03*
%TD*%
D12*
%TO.C,K0_8*%
X190500000Y-28000000D03*
X201500000Y-28000000D03*
D13*
X201220000Y-23800000D03*
D14*
X196000000Y-33900000D03*
X191000000Y-31800000D03*
D15*
X196000000Y-28000000D03*
%TD*%
D12*
%TO.C,K0_9*%
X208500000Y-40000000D03*
X219500000Y-40000000D03*
D13*
X219220000Y-35800000D03*
D14*
X214000000Y-45900000D03*
X209000000Y-43800000D03*
D15*
X214000000Y-40000000D03*
%TD*%
D12*
%TO.C,K1_0*%
X16500000Y-57000000D03*
X27500000Y-57000000D03*
D13*
X27220000Y-52800000D03*
D14*
X22000000Y-62900000D03*
X17000000Y-60800000D03*
D15*
X22000000Y-57000000D03*
%TD*%
D12*
%TO.C,K1_1*%
X34500000Y-45000000D03*
X45500000Y-45000000D03*
D13*
X45220000Y-40800000D03*
D14*
X40000000Y-50900000D03*
X35000000Y-48800000D03*
D15*
X40000000Y-45000000D03*
%TD*%
D12*
%TO.C,K1_2*%
X52500000Y-39000000D03*
X63500000Y-39000000D03*
D13*
X63220000Y-34800000D03*
D14*
X58000000Y-44900000D03*
X53000000Y-42800000D03*
D15*
X58000000Y-39000000D03*
%TD*%
D12*
%TO.C,K1_3*%
X70500000Y-44500000D03*
X81500000Y-44500000D03*
D13*
X81220000Y-40300000D03*
D14*
X76000000Y-50400000D03*
X71000000Y-48300000D03*
D15*
X76000000Y-44500000D03*
%TD*%
D12*
%TO.C,K1_4*%
X88500000Y-47000000D03*
X99500000Y-47000000D03*
D13*
X99220000Y-42800000D03*
D14*
X94000000Y-52900000D03*
X89000000Y-50800000D03*
D15*
X94000000Y-47000000D03*
%TD*%
D12*
%TO.C,K1_5*%
X136500000Y-47000000D03*
X147500000Y-47000000D03*
D13*
X147220000Y-42800000D03*
D14*
X142000000Y-52900000D03*
X137000000Y-50800000D03*
D15*
X142000000Y-47000000D03*
%TD*%
D12*
%TO.C,K1_6*%
X154500000Y-44500000D03*
X165500000Y-44500000D03*
D13*
X165220000Y-40300000D03*
D14*
X160000000Y-50400000D03*
X155000000Y-48300000D03*
D15*
X160000000Y-44500000D03*
%TD*%
D12*
%TO.C,K1_7*%
X172500000Y-39000000D03*
X183500000Y-39000000D03*
D13*
X183220000Y-34800000D03*
D14*
X178000000Y-44900000D03*
X173000000Y-42800000D03*
D15*
X178000000Y-39000000D03*
%TD*%
D12*
%TO.C,K1_8*%
X190500000Y-45000000D03*
X201500000Y-45000000D03*
D13*
X201220000Y-40800000D03*
D14*
X196000000Y-50900000D03*
X191000000Y-48800000D03*
D15*
X196000000Y-45000000D03*
%TD*%
D12*
%TO.C,K1_9*%
X208500000Y-57000000D03*
X219500000Y-57000000D03*
D13*
X219220000Y-52800000D03*
D14*
X214000000Y-62900000D03*
X209000000Y-60800000D03*
D15*
X214000000Y-57000000D03*
%TD*%
D12*
%TO.C,K2_0*%
X16500000Y-74000000D03*
X27500000Y-74000000D03*
D13*
X27220000Y-69800000D03*
D14*
X22000000Y-79900000D03*
X17000000Y-77800000D03*
D15*
X22000000Y-74000000D03*
%TD*%
D12*
%TO.C,K2_1*%
X34500000Y-62000000D03*
X45500000Y-62000000D03*
D13*
X45220000Y-57800000D03*
D14*
X40000000Y-67900000D03*
X35000000Y-65800000D03*
D15*
X40000000Y-62000000D03*
%TD*%
D12*
%TO.C,K2_2*%
X52500000Y-56000000D03*
X63500000Y-56000000D03*
D13*
X63220000Y-51800000D03*
D14*
X58000000Y-61900000D03*
X53000000Y-59800000D03*
D15*
X58000000Y-56000000D03*
%TD*%
D12*
%TO.C,K2_3*%
X70500000Y-61500000D03*
X81500000Y-61500000D03*
D13*
X81220000Y-57300000D03*
D14*
X76000000Y-67400000D03*
X71000000Y-65300000D03*
D15*
X76000000Y-61500000D03*
%TD*%
D12*
%TO.C,K2_4*%
X88500000Y-64000000D03*
X99500000Y-64000000D03*
D13*
X99220000Y-59800000D03*
D14*
X94000000Y-69900000D03*
X89000000Y-67800000D03*
D15*
X94000000Y-64000000D03*
%TD*%
D12*
%TO.C,K2_5*%
X136500000Y-64000000D03*
X147500000Y-64000000D03*
D13*
X147220000Y-59800000D03*
D14*
X142000000Y-69900000D03*
X137000000Y-67800000D03*
D15*
X142000000Y-64000000D03*
%TD*%
D12*
%TO.C,K2_6*%
X154500000Y-61500000D03*
X165500000Y-61500000D03*
D13*
X165220000Y-57300000D03*
D14*
X160000000Y-67400000D03*
X155000000Y-65300000D03*
D15*
X160000000Y-61500000D03*
%TD*%
D12*
%TO.C,K*%
X172500000Y-56000000D03*
X183500000Y-56000000D03*
D13*
X183220000Y-51800000D03*
D14*
X178000000Y-61900000D03*
X173000000Y-59800000D03*
D15*
X178000000Y-56000000D03*
%TD*%
D12*
%TO.C,K2_8*%
X190500000Y-62000000D03*
X201500000Y-62000000D03*
D13*
X201220000Y-57800000D03*
D14*
X196000000Y-67900000D03*
X191000000Y-65800000D03*
D15*
X196000000Y-62000000D03*
%TD*%
D12*
%TO.C,K2_9*%
X208500000Y-74000000D03*
X219500000Y-74000000D03*
D13*
X219220000Y-69800000D03*
D14*
X214000000Y-79900000D03*
X209000000Y-77800000D03*
D15*
X214000000Y-74000000D03*
%TD*%
D12*
%TO.C,K3_3*%
X80657408Y-80276495D03*
X91282592Y-83123505D03*
D13*
X92099173Y-78994147D03*
D14*
X84442968Y-87398962D03*
X80156858Y-84076423D03*
D15*
X85970000Y-81700000D03*
%TD*%
D12*
%TO.C,K3_4*%
X99766860Y-86660000D03*
X109293140Y-92160000D03*
D13*
X111150653Y-88382693D03*
D14*
X101580000Y-94519550D03*
X98299873Y-90200897D03*
D15*
X104530000Y-89410000D03*
%TD*%
D12*
%TO.C,K3_5*%
X126706860Y-92160000D03*
X136233140Y-86660000D03*
D13*
X133890653Y-83162693D03*
D14*
X134420000Y-94519550D03*
X129039873Y-95200897D03*
D15*
X131470000Y-89410000D03*
%TD*%
D12*
%TO.C,K3_6*%
X144817408Y-83123505D03*
X155442592Y-80276495D03*
D13*
X154085093Y-76292076D03*
D14*
X151657032Y-87398962D03*
X146283883Y-86664613D03*
D15*
X150130000Y-81700000D03*
%TD*%
D16*
%TO.C,Y1*%
X47350000Y-76450000D03*
X47350000Y-73550000D03*
X49650000Y-73550000D03*
X49650000Y-76450000D03*
%TD*%
D11*
%TO.C,mouse-bite-2mm-slot*%
X118750000Y-75280000D03*
X118750000Y-76780000D03*
X117250000Y-76780000D03*
X117250000Y-75280000D03*
X118750000Y-76030000D03*
X117250000Y-76030000D03*
%TD*%
D17*
%TO.C,J1*%
X108390000Y-60055000D03*
X109190000Y-60055000D03*
X114090000Y-60055000D03*
X114890000Y-60055000D03*
X114890000Y-60055000D03*
X114090000Y-60055000D03*
X109190000Y-60055000D03*
X108390000Y-60055000D03*
D18*
X113390000Y-60055000D03*
X112890000Y-60055000D03*
X112390000Y-60055000D03*
X111390000Y-60055000D03*
X110890000Y-60055000D03*
X110390000Y-60055000D03*
X109890000Y-60055000D03*
X111890000Y-60055000D03*
D19*
X107320000Y-59140000D03*
X115960000Y-59140000D03*
D20*
X114530000Y-58610000D03*
D21*
X115960000Y-54960000D03*
D20*
X108750000Y-58610000D03*
D21*
X107320000Y-54960000D03*
%TD*%
%TO.C,F1*%
G36*
G01*
X114725000Y-66655000D02*
X114725000Y-65345000D01*
G75*
G02*
X114995000Y-65075000I270000J0D01*
G01*
X115805000Y-65075000D01*
G75*
G02*
X116075000Y-65345000I0J-270000D01*
G01*
X116075000Y-66655000D01*
G75*
G02*
X115805000Y-66925000I-270000J0D01*
G01*
X114995000Y-66925000D01*
G75*
G02*
X114725000Y-66655000I0J270000D01*
G01*
G37*
G36*
G01*
X111925000Y-66655000D02*
X111925000Y-65345000D01*
G75*
G02*
X112195000Y-65075000I270000J0D01*
G01*
X113005000Y-65075000D01*
G75*
G02*
X113275000Y-65345000I0J-270000D01*
G01*
X113275000Y-66655000D01*
G75*
G02*
X113005000Y-66925000I-270000J0D01*
G01*
X112195000Y-66925000D01*
G75*
G02*
X111925000Y-66655000I0J270000D01*
G01*
G37*
%TD*%
%TO.C,R9*%
G36*
G01*
X126400000Y-71978262D02*
X126400000Y-71021738D01*
G75*
G02*
X126671738Y-70750000I271738J0D01*
G01*
X127378262Y-70750000D01*
G75*
G02*
X127650000Y-71021738I0J-271738D01*
G01*
X127650000Y-71978262D01*
G75*
G02*
X127378262Y-72250000I-271738J0D01*
G01*
X126671738Y-72250000D01*
G75*
G02*
X126400000Y-71978262I0J271738D01*
G01*
G37*
G36*
G01*
X124350000Y-71978262D02*
X124350000Y-71021738D01*
G75*
G02*
X124621738Y-70750000I271738J0D01*
G01*
X125328262Y-70750000D01*
G75*
G02*
X125600000Y-71021738I0J-271738D01*
G01*
X125600000Y-71978262D01*
G75*
G02*
X125328262Y-72250000I-271738J0D01*
G01*
X124621738Y-72250000D01*
G75*
G02*
X124350000Y-71978262I0J271738D01*
G01*
G37*
%TD*%
%TO.C,C10*%
G36*
G01*
X122400000Y-71978262D02*
X122400000Y-71021738D01*
G75*
G02*
X122671738Y-70750000I271738J0D01*
G01*
X123378262Y-70750000D01*
G75*
G02*
X123650000Y-71021738I0J-271738D01*
G01*
X123650000Y-71978262D01*
G75*
G02*
X123378262Y-72250000I-271738J0D01*
G01*
X122671738Y-72250000D01*
G75*
G02*
X122400000Y-71978262I0J271738D01*
G01*
G37*
G36*
G01*
X120350000Y-71978262D02*
X120350000Y-71021738D01*
G75*
G02*
X120621738Y-70750000I271738J0D01*
G01*
X121328262Y-70750000D01*
G75*
G02*
X121600000Y-71021738I0J-271738D01*
G01*
X121600000Y-71978262D01*
G75*
G02*
X121328262Y-72250000I-271738J0D01*
G01*
X120621738Y-72250000D01*
G75*
G02*
X120350000Y-71978262I0J271738D01*
G01*
G37*
%TD*%
D22*
%TO.C,U1*%
X65200000Y-71000000D03*
X65200000Y-71800000D03*
X65200000Y-72600000D03*
X65200000Y-73400000D03*
X65200000Y-74200000D03*
X65200000Y-75000000D03*
X65200000Y-75800000D03*
X65200000Y-76600000D03*
X65200000Y-77400000D03*
X65200000Y-78200000D03*
X65200000Y-79000000D03*
D23*
X63500000Y-80700000D03*
X62700000Y-80700000D03*
X61900000Y-80700000D03*
X61100000Y-80700000D03*
X60300000Y-80700000D03*
X59500000Y-80700000D03*
X58700000Y-80700000D03*
X57900000Y-80700000D03*
X57100000Y-80700000D03*
X56300000Y-80700000D03*
X55500000Y-80700000D03*
D22*
X53800000Y-79000000D03*
X53800000Y-78200000D03*
X53800000Y-77400000D03*
X53800000Y-76600000D03*
X53800000Y-75800000D03*
X53800000Y-75000000D03*
X53800000Y-74200000D03*
X53800000Y-73400000D03*
X53800000Y-72600000D03*
X53800000Y-71800000D03*
X53800000Y-71000000D03*
D23*
X55500000Y-69300000D03*
X56300000Y-69300000D03*
X57100000Y-69300000D03*
X57900000Y-69300000D03*
X58700000Y-69300000D03*
X59500000Y-69300000D03*
X60300000Y-69300000D03*
X61100000Y-69300000D03*
X61900000Y-69300000D03*
X62700000Y-69300000D03*
X63500000Y-69300000D03*
%TD*%
D24*
%TO.C,Jack1*%
X125200000Y-73700000D03*
D25*
X120600000Y-76000000D03*
X127600000Y-76000000D03*
D24*
X122200000Y-73700000D03*
X129200000Y-73700000D03*
X130300000Y-78300000D03*
%TD*%
D26*
%TO.C,D1_6*%
X158350000Y-39800000D03*
X161650000Y-39800000D03*
%TD*%
%TO.C,D0_7*%
X176350000Y-17300000D03*
X179650000Y-17300000D03*
%TD*%
%TO.C,D2_5*%
X140350000Y-59300000D03*
X143650000Y-59300000D03*
%TD*%
%TO.C,D0_5*%
X140350000Y-25300000D03*
X143650000Y-25300000D03*
%TD*%
D27*
%TO.C,D3_5*%
G36*
X127779071Y-85412083D02*
G01*
X128429071Y-86537917D01*
X127563045Y-87037917D01*
X126913045Y-85912083D01*
X127779071Y-85412083D01*
G37*
G36*
X130636955Y-83762083D02*
G01*
X131286955Y-84887917D01*
X130420929Y-85387917D01*
X129770929Y-84262083D01*
X130636955Y-83762083D01*
G37*
%TD*%
D26*
%TO.C,D1_9*%
X212350000Y-52300000D03*
X215650000Y-52300000D03*
%TD*%
%TO.C,C9*%
G36*
G01*
X129600000Y-71021738D02*
X129600000Y-71978262D01*
G75*
G02*
X129328262Y-72250000I-271738J0D01*
G01*
X128621738Y-72250000D01*
G75*
G02*
X128350000Y-71978262I0J271738D01*
G01*
X128350000Y-71021738D01*
G75*
G02*
X128621738Y-70750000I271738J0D01*
G01*
X129328262Y-70750000D01*
G75*
G02*
X129600000Y-71021738I0J-271738D01*
G01*
G37*
G36*
G01*
X131650000Y-71021738D02*
X131650000Y-71978262D01*
G75*
G02*
X131378262Y-72250000I-271738J0D01*
G01*
X130671738Y-72250000D01*
G75*
G02*
X130400000Y-71978262I0J271738D01*
G01*
X130400000Y-71021738D01*
G75*
G02*
X130671738Y-70750000I271738J0D01*
G01*
X131378262Y-70750000D01*
G75*
G02*
X131650000Y-71021738I0J-271738D01*
G01*
G37*
%TD*%
%TO.C,D0_6*%
X158350000Y-22800000D03*
X161650000Y-22800000D03*
%TD*%
D27*
%TO.C,D3_6*%
G36*
X147620953Y-76769790D02*
G01*
X147957417Y-78025493D01*
X146991491Y-78284312D01*
X146655027Y-77028609D01*
X147620953Y-76769790D01*
G37*
G36*
X150808509Y-75915688D02*
G01*
X151144973Y-77171391D01*
X150179047Y-77430210D01*
X149842583Y-76174507D01*
X150808509Y-75915688D01*
G37*
%TD*%
D26*
%TO.C,D2_8*%
X194350000Y-57300000D03*
X197650000Y-57300000D03*
%TD*%
%TO.C,D0_8*%
X194350000Y-23300000D03*
X197650000Y-23300000D03*
%TD*%
%TO.C,D0_9*%
X212350000Y-35200000D03*
X215650000Y-35200000D03*
%TD*%
%TO.C,D2_6*%
X158350000Y-56700000D03*
X161650000Y-56700000D03*
%TD*%
%TO.C,D1_7*%
X176350000Y-34300000D03*
X179650000Y-34300000D03*
%TD*%
%TO.C,U2*%
G36*
G01*
X129575000Y-52960000D02*
X129575000Y-52610000D01*
G75*
G02*
X129750000Y-52435000I175000J0D01*
G01*
X131550000Y-52435000D01*
G75*
G02*
X131725000Y-52610000I0J-175000D01*
G01*
X131725000Y-52960000D01*
G75*
G02*
X131550000Y-53135000I-175000J0D01*
G01*
X129750000Y-53135000D01*
G75*
G02*
X129575000Y-52960000I0J175000D01*
G01*
G37*
G36*
G01*
X129575000Y-54230000D02*
X129575000Y-53880000D01*
G75*
G02*
X129750000Y-53705000I175000J0D01*
G01*
X131550000Y-53705000D01*
G75*
G02*
X131725000Y-53880000I0J-175000D01*
G01*
X131725000Y-54230000D01*
G75*
G02*
X131550000Y-54405000I-175000J0D01*
G01*
X129750000Y-54405000D01*
G75*
G02*
X129575000Y-54230000I0J175000D01*
G01*
G37*
G36*
G01*
X129575000Y-55500000D02*
X129575000Y-55150000D01*
G75*
G02*
X129750000Y-54975000I175000J0D01*
G01*
X131550000Y-54975000D01*
G75*
G02*
X131725000Y-55150000I0J-175000D01*
G01*
X131725000Y-55500000D01*
G75*
G02*
X131550000Y-55675000I-175000J0D01*
G01*
X129750000Y-55675000D01*
G75*
G02*
X129575000Y-55500000I0J175000D01*
G01*
G37*
G36*
G01*
X129575000Y-56770000D02*
X129575000Y-56420000D01*
G75*
G02*
X129750000Y-56245000I175000J0D01*
G01*
X131550000Y-56245000D01*
G75*
G02*
X131725000Y-56420000I0J-175000D01*
G01*
X131725000Y-56770000D01*
G75*
G02*
X131550000Y-56945000I-175000J0D01*
G01*
X129750000Y-56945000D01*
G75*
G02*
X129575000Y-56770000I0J175000D01*
G01*
G37*
G36*
G01*
X129575000Y-58040000D02*
X129575000Y-57690000D01*
G75*
G02*
X129750000Y-57515000I175000J0D01*
G01*
X131550000Y-57515000D01*
G75*
G02*
X131725000Y-57690000I0J-175000D01*
G01*
X131725000Y-58040000D01*
G75*
G02*
X131550000Y-58215000I-175000J0D01*
G01*
X129750000Y-58215000D01*
G75*
G02*
X129575000Y-58040000I0J175000D01*
G01*
G37*
G36*
G01*
X129575000Y-59310000D02*
X129575000Y-58960000D01*
G75*
G02*
X129750000Y-58785000I175000J0D01*
G01*
X131550000Y-58785000D01*
G75*
G02*
X131725000Y-58960000I0J-175000D01*
G01*
X131725000Y-59310000D01*
G75*
G02*
X131550000Y-59485000I-175000J0D01*
G01*
X129750000Y-59485000D01*
G75*
G02*
X129575000Y-59310000I0J175000D01*
G01*
G37*
G36*
G01*
X129575000Y-60580000D02*
X129575000Y-60230000D01*
G75*
G02*
X129750000Y-60055000I175000J0D01*
G01*
X131550000Y-60055000D01*
G75*
G02*
X131725000Y-60230000I0J-175000D01*
G01*
X131725000Y-60580000D01*
G75*
G02*
X131550000Y-60755000I-175000J0D01*
G01*
X129750000Y-60755000D01*
G75*
G02*
X129575000Y-60580000I0J175000D01*
G01*
G37*
G36*
G01*
X129575000Y-61850000D02*
X129575000Y-61500000D01*
G75*
G02*
X129750000Y-61325000I175000J0D01*
G01*
X131550000Y-61325000D01*
G75*
G02*
X131725000Y-61500000I0J-175000D01*
G01*
X131725000Y-61850000D01*
G75*
G02*
X131550000Y-62025000I-175000J0D01*
G01*
X129750000Y-62025000D01*
G75*
G02*
X129575000Y-61850000I0J175000D01*
G01*
G37*
G36*
G01*
X129575000Y-63120000D02*
X129575000Y-62770000D01*
G75*
G02*
X129750000Y-62595000I175000J0D01*
G01*
X131550000Y-62595000D01*
G75*
G02*
X131725000Y-62770000I0J-175000D01*
G01*
X131725000Y-63120000D01*
G75*
G02*
X131550000Y-63295000I-175000J0D01*
G01*
X129750000Y-63295000D01*
G75*
G02*
X129575000Y-63120000I0J175000D01*
G01*
G37*
G36*
G01*
X129575000Y-64390000D02*
X129575000Y-64040000D01*
G75*
G02*
X129750000Y-63865000I175000J0D01*
G01*
X131550000Y-63865000D01*
G75*
G02*
X131725000Y-64040000I0J-175000D01*
G01*
X131725000Y-64390000D01*
G75*
G02*
X131550000Y-64565000I-175000J0D01*
G01*
X129750000Y-64565000D01*
G75*
G02*
X129575000Y-64390000I0J175000D01*
G01*
G37*
G36*
G01*
X129575000Y-65660000D02*
X129575000Y-65310000D01*
G75*
G02*
X129750000Y-65135000I175000J0D01*
G01*
X131550000Y-65135000D01*
G75*
G02*
X131725000Y-65310000I0J-175000D01*
G01*
X131725000Y-65660000D01*
G75*
G02*
X131550000Y-65835000I-175000J0D01*
G01*
X129750000Y-65835000D01*
G75*
G02*
X129575000Y-65660000I0J175000D01*
G01*
G37*
G36*
G01*
X129575000Y-66930000D02*
X129575000Y-66580000D01*
G75*
G02*
X129750000Y-66405000I175000J0D01*
G01*
X131550000Y-66405000D01*
G75*
G02*
X131725000Y-66580000I0J-175000D01*
G01*
X131725000Y-66930000D01*
G75*
G02*
X131550000Y-67105000I-175000J0D01*
G01*
X129750000Y-67105000D01*
G75*
G02*
X129575000Y-66930000I0J175000D01*
G01*
G37*
G36*
G01*
X129575000Y-68200000D02*
X129575000Y-67850000D01*
G75*
G02*
X129750000Y-67675000I175000J0D01*
G01*
X131550000Y-67675000D01*
G75*
G02*
X131725000Y-67850000I0J-175000D01*
G01*
X131725000Y-68200000D01*
G75*
G02*
X131550000Y-68375000I-175000J0D01*
G01*
X129750000Y-68375000D01*
G75*
G02*
X129575000Y-68200000I0J175000D01*
G01*
G37*
G36*
G01*
X129575000Y-69470000D02*
X129575000Y-69120000D01*
G75*
G02*
X129750000Y-68945000I175000J0D01*
G01*
X131550000Y-68945000D01*
G75*
G02*
X131725000Y-69120000I0J-175000D01*
G01*
X131725000Y-69470000D01*
G75*
G02*
X131550000Y-69645000I-175000J0D01*
G01*
X129750000Y-69645000D01*
G75*
G02*
X129575000Y-69470000I0J175000D01*
G01*
G37*
G36*
G01*
X120275000Y-69470000D02*
X120275000Y-69120000D01*
G75*
G02*
X120450000Y-68945000I175000J0D01*
G01*
X122250000Y-68945000D01*
G75*
G02*
X122425000Y-69120000I0J-175000D01*
G01*
X122425000Y-69470000D01*
G75*
G02*
X122250000Y-69645000I-175000J0D01*
G01*
X120450000Y-69645000D01*
G75*
G02*
X120275000Y-69470000I0J175000D01*
G01*
G37*
G36*
G01*
X120275000Y-68200000D02*
X120275000Y-67850000D01*
G75*
G02*
X120450000Y-67675000I175000J0D01*
G01*
X122250000Y-67675000D01*
G75*
G02*
X122425000Y-67850000I0J-175000D01*
G01*
X122425000Y-68200000D01*
G75*
G02*
X122250000Y-68375000I-175000J0D01*
G01*
X120450000Y-68375000D01*
G75*
G02*
X120275000Y-68200000I0J175000D01*
G01*
G37*
G36*
G01*
X120275000Y-66930000D02*
X120275000Y-66580000D01*
G75*
G02*
X120450000Y-66405000I175000J0D01*
G01*
X122250000Y-66405000D01*
G75*
G02*
X122425000Y-66580000I0J-175000D01*
G01*
X122425000Y-66930000D01*
G75*
G02*
X122250000Y-67105000I-175000J0D01*
G01*
X120450000Y-67105000D01*
G75*
G02*
X120275000Y-66930000I0J175000D01*
G01*
G37*
G36*
G01*
X120275000Y-65660000D02*
X120275000Y-65310000D01*
G75*
G02*
X120450000Y-65135000I175000J0D01*
G01*
X122250000Y-65135000D01*
G75*
G02*
X122425000Y-65310000I0J-175000D01*
G01*
X122425000Y-65660000D01*
G75*
G02*
X122250000Y-65835000I-175000J0D01*
G01*
X120450000Y-65835000D01*
G75*
G02*
X120275000Y-65660000I0J175000D01*
G01*
G37*
G36*
G01*
X120275000Y-64390000D02*
X120275000Y-64040000D01*
G75*
G02*
X120450000Y-63865000I175000J0D01*
G01*
X122250000Y-63865000D01*
G75*
G02*
X122425000Y-64040000I0J-175000D01*
G01*
X122425000Y-64390000D01*
G75*
G02*
X122250000Y-64565000I-175000J0D01*
G01*
X120450000Y-64565000D01*
G75*
G02*
X120275000Y-64390000I0J175000D01*
G01*
G37*
G36*
G01*
X120275000Y-63120000D02*
X120275000Y-62770000D01*
G75*
G02*
X120450000Y-62595000I175000J0D01*
G01*
X122250000Y-62595000D01*
G75*
G02*
X122425000Y-62770000I0J-175000D01*
G01*
X122425000Y-63120000D01*
G75*
G02*
X122250000Y-63295000I-175000J0D01*
G01*
X120450000Y-63295000D01*
G75*
G02*
X120275000Y-63120000I0J175000D01*
G01*
G37*
G36*
G01*
X120275000Y-61850000D02*
X120275000Y-61500000D01*
G75*
G02*
X120450000Y-61325000I175000J0D01*
G01*
X122250000Y-61325000D01*
G75*
G02*
X122425000Y-61500000I0J-175000D01*
G01*
X122425000Y-61850000D01*
G75*
G02*
X122250000Y-62025000I-175000J0D01*
G01*
X120450000Y-62025000D01*
G75*
G02*
X120275000Y-61850000I0J175000D01*
G01*
G37*
G36*
G01*
X120275000Y-60580000D02*
X120275000Y-60230000D01*
G75*
G02*
X120450000Y-60055000I175000J0D01*
G01*
X122250000Y-60055000D01*
G75*
G02*
X122425000Y-60230000I0J-175000D01*
G01*
X122425000Y-60580000D01*
G75*
G02*
X122250000Y-60755000I-175000J0D01*
G01*
X120450000Y-60755000D01*
G75*
G02*
X120275000Y-60580000I0J175000D01*
G01*
G37*
G36*
G01*
X120275000Y-59310000D02*
X120275000Y-58960000D01*
G75*
G02*
X120450000Y-58785000I175000J0D01*
G01*
X122250000Y-58785000D01*
G75*
G02*
X122425000Y-58960000I0J-175000D01*
G01*
X122425000Y-59310000D01*
G75*
G02*
X122250000Y-59485000I-175000J0D01*
G01*
X120450000Y-59485000D01*
G75*
G02*
X120275000Y-59310000I0J175000D01*
G01*
G37*
G36*
G01*
X120275000Y-58040000D02*
X120275000Y-57690000D01*
G75*
G02*
X120450000Y-57515000I175000J0D01*
G01*
X122250000Y-57515000D01*
G75*
G02*
X122425000Y-57690000I0J-175000D01*
G01*
X122425000Y-58040000D01*
G75*
G02*
X122250000Y-58215000I-175000J0D01*
G01*
X120450000Y-58215000D01*
G75*
G02*
X120275000Y-58040000I0J175000D01*
G01*
G37*
G36*
G01*
X120275000Y-56770000D02*
X120275000Y-56420000D01*
G75*
G02*
X120450000Y-56245000I175000J0D01*
G01*
X122250000Y-56245000D01*
G75*
G02*
X122425000Y-56420000I0J-175000D01*
G01*
X122425000Y-56770000D01*
G75*
G02*
X122250000Y-56945000I-175000J0D01*
G01*
X120450000Y-56945000D01*
G75*
G02*
X120275000Y-56770000I0J175000D01*
G01*
G37*
G36*
G01*
X120275000Y-55500000D02*
X120275000Y-55150000D01*
G75*
G02*
X120450000Y-54975000I175000J0D01*
G01*
X122250000Y-54975000D01*
G75*
G02*
X122425000Y-55150000I0J-175000D01*
G01*
X122425000Y-55500000D01*
G75*
G02*
X122250000Y-55675000I-175000J0D01*
G01*
X120450000Y-55675000D01*
G75*
G02*
X120275000Y-55500000I0J175000D01*
G01*
G37*
G36*
G01*
X120275000Y-54230000D02*
X120275000Y-53880000D01*
G75*
G02*
X120450000Y-53705000I175000J0D01*
G01*
X122250000Y-53705000D01*
G75*
G02*
X122425000Y-53880000I0J-175000D01*
G01*
X122425000Y-54230000D01*
G75*
G02*
X122250000Y-54405000I-175000J0D01*
G01*
X120450000Y-54405000D01*
G75*
G02*
X120275000Y-54230000I0J175000D01*
G01*
G37*
G36*
G01*
X120275000Y-52960000D02*
X120275000Y-52610000D01*
G75*
G02*
X120450000Y-52435000I175000J0D01*
G01*
X122250000Y-52435000D01*
G75*
G02*
X122425000Y-52610000I0J-175000D01*
G01*
X122425000Y-52960000D01*
G75*
G02*
X122250000Y-53135000I-175000J0D01*
G01*
X120450000Y-53135000D01*
G75*
G02*
X120275000Y-52960000I0J175000D01*
G01*
G37*
%TD*%
%TO.C,D1_8*%
X194350000Y-40200000D03*
X197650000Y-40200000D03*
%TD*%
%TO.C,D2_7*%
X176350000Y-51300000D03*
X179650000Y-51300000D03*
%TD*%
%TO.C,D2_9*%
X212350000Y-69200000D03*
X215650000Y-69200000D03*
%TD*%
%TO.C,D1_5*%
X140350000Y-42300000D03*
X143650000Y-42300000D03*
%TD*%
D28*
%TO.C,SW1*%
X40000000Y-78700000D03*
X40000000Y-75300000D03*
%TD*%
D27*
%TO.C,D3_4*%
G36*
X106169071Y-84142083D02*
G01*
X105519071Y-85267917D01*
X104653045Y-84767917D01*
X105303045Y-83642083D01*
X106169071Y-84142083D01*
G37*
G36*
X109026955Y-85792083D02*
G01*
X108376955Y-86917917D01*
X107510929Y-86417917D01*
X108160929Y-85292083D01*
X109026955Y-85792083D01*
G37*
%TD*%
%TO.C,D3_3*%
G36*
X86237417Y-76284507D02*
G01*
X85900953Y-77540210D01*
X84935027Y-77281391D01*
X85271491Y-76025688D01*
X86237417Y-76284507D01*
G37*
G36*
X89424973Y-77138609D02*
G01*
X89088509Y-78394312D01*
X88122583Y-78135493D01*
X88459047Y-76879790D01*
X89424973Y-77138609D01*
G37*
%TD*%
D26*
%TO.C,D2_4*%
X92350000Y-59250000D03*
X95650000Y-59250000D03*
%TD*%
%TO.C,D2_3*%
X74350000Y-56750000D03*
X77650000Y-56750000D03*
%TD*%
%TO.C,D2_2*%
X56350000Y-51000000D03*
X59650000Y-51000000D03*
%TD*%
%TO.C,D2_1*%
X38350000Y-57250000D03*
X41650000Y-57250000D03*
%TD*%
%TO.C,D2_0*%
X20350000Y-69250000D03*
X23650000Y-69250000D03*
%TD*%
%TO.C,D1_4*%
X92350000Y-42250000D03*
X95650000Y-42250000D03*
%TD*%
%TO.C,D1_3*%
X74350000Y-39500000D03*
X77650000Y-39500000D03*
%TD*%
%TO.C,D1_2*%
X56350000Y-34250000D03*
X59650000Y-34250000D03*
%TD*%
%TO.C,D1_1*%
X38350000Y-40250000D03*
X41650000Y-40250000D03*
%TD*%
%TO.C,D1_0*%
X20350000Y-52000000D03*
X23650000Y-52000000D03*
%TD*%
%TO.C,D0_4*%
X92350000Y-25250000D03*
X95650000Y-25250000D03*
%TD*%
%TO.C,D0_3*%
X74350000Y-22750000D03*
X77650000Y-22750000D03*
%TD*%
%TO.C,D0_2*%
X56350000Y-17250000D03*
X59650000Y-17250000D03*
%TD*%
%TO.C,D0_1*%
X38350000Y-23250000D03*
X41650000Y-23250000D03*
%TD*%
%TO.C,D0_0*%
X20350000Y-35000000D03*
X23650000Y-35000000D03*
%TD*%
%TO.C,C3*%
G36*
G01*
X49600000Y-81521738D02*
X49600000Y-82478262D01*
G75*
G02*
X49328262Y-82750000I-271738J0D01*
G01*
X48621738Y-82750000D01*
G75*
G02*
X48350000Y-82478262I0J271738D01*
G01*
X48350000Y-81521738D01*
G75*
G02*
X48621738Y-81250000I271738J0D01*
G01*
X49328262Y-81250000D01*
G75*
G02*
X49600000Y-81521738I0J-271738D01*
G01*
G37*
G36*
G01*
X51650000Y-81521738D02*
X51650000Y-82478262D01*
G75*
G02*
X51378262Y-82750000I-271738J0D01*
G01*
X50671738Y-82750000D01*
G75*
G02*
X50400000Y-82478262I0J271738D01*
G01*
X50400000Y-81521738D01*
G75*
G02*
X50671738Y-81250000I271738J0D01*
G01*
X51378262Y-81250000D01*
G75*
G02*
X51650000Y-81521738I0J-271738D01*
G01*
G37*
%TD*%
%TO.C,R8*%
G36*
G01*
X114921738Y-70400000D02*
X115878262Y-70400000D01*
G75*
G02*
X116150000Y-70671738I0J-271738D01*
G01*
X116150000Y-71378262D01*
G75*
G02*
X115878262Y-71650000I-271738J0D01*
G01*
X114921738Y-71650000D01*
G75*
G02*
X114650000Y-71378262I0J271738D01*
G01*
X114650000Y-70671738D01*
G75*
G02*
X114921738Y-70400000I271738J0D01*
G01*
G37*
G36*
G01*
X114921738Y-68350000D02*
X115878262Y-68350000D01*
G75*
G02*
X116150000Y-68621738I0J-271738D01*
G01*
X116150000Y-69328262D01*
G75*
G02*
X115878262Y-69600000I-271738J0D01*
G01*
X114921738Y-69600000D01*
G75*
G02*
X114650000Y-69328262I0J271738D01*
G01*
X114650000Y-68621738D01*
G75*
G02*
X114921738Y-68350000I271738J0D01*
G01*
G37*
%TD*%
%TO.C,R7*%
G36*
G01*
X113448262Y-69600000D02*
X112491738Y-69600000D01*
G75*
G02*
X112220000Y-69328262I0J271738D01*
G01*
X112220000Y-68621738D01*
G75*
G02*
X112491738Y-68350000I271738J0D01*
G01*
X113448262Y-68350000D01*
G75*
G02*
X113720000Y-68621738I0J-271738D01*
G01*
X113720000Y-69328262D01*
G75*
G02*
X113448262Y-69600000I-271738J0D01*
G01*
G37*
G36*
G01*
X113448262Y-71650000D02*
X112491738Y-71650000D01*
G75*
G02*
X112220000Y-71378262I0J271738D01*
G01*
X112220000Y-70671738D01*
G75*
G02*
X112491738Y-70400000I271738J0D01*
G01*
X113448262Y-70400000D01*
G75*
G02*
X113720000Y-70671738I0J-271738D01*
G01*
X113720000Y-71378262D01*
G75*
G02*
X113448262Y-71650000I-271738J0D01*
G01*
G37*
%TD*%
%TO.C,R6*%
G36*
G01*
X109400000Y-63478262D02*
X109400000Y-62521738D01*
G75*
G02*
X109671738Y-62250000I271738J0D01*
G01*
X110378262Y-62250000D01*
G75*
G02*
X110650000Y-62521738I0J-271738D01*
G01*
X110650000Y-63478262D01*
G75*
G02*
X110378262Y-63750000I-271738J0D01*
G01*
X109671738Y-63750000D01*
G75*
G02*
X109400000Y-63478262I0J271738D01*
G01*
G37*
G36*
G01*
X107350000Y-63478262D02*
X107350000Y-62521738D01*
G75*
G02*
X107621738Y-62250000I271738J0D01*
G01*
X108328262Y-62250000D01*
G75*
G02*
X108600000Y-62521738I0J-271738D01*
G01*
X108600000Y-63478262D01*
G75*
G02*
X108328262Y-63750000I-271738J0D01*
G01*
X107621738Y-63750000D01*
G75*
G02*
X107350000Y-63478262I0J271738D01*
G01*
G37*
%TD*%
%TO.C,R5*%
G36*
G01*
X114100000Y-62521738D02*
X114100000Y-63478262D01*
G75*
G02*
X113828262Y-63750000I-271738J0D01*
G01*
X113121738Y-63750000D01*
G75*
G02*
X112850000Y-63478262I0J271738D01*
G01*
X112850000Y-62521738D01*
G75*
G02*
X113121738Y-62250000I271738J0D01*
G01*
X113828262Y-62250000D01*
G75*
G02*
X114100000Y-62521738I0J-271738D01*
G01*
G37*
G36*
G01*
X116150000Y-62521738D02*
X116150000Y-63478262D01*
G75*
G02*
X115878262Y-63750000I-271738J0D01*
G01*
X115171738Y-63750000D01*
G75*
G02*
X114900000Y-63478262I0J271738D01*
G01*
X114900000Y-62521738D01*
G75*
G02*
X115171738Y-62250000I271738J0D01*
G01*
X115878262Y-62250000D01*
G75*
G02*
X116150000Y-62521738I0J-271738D01*
G01*
G37*
%TD*%
%TO.C,R4*%
G36*
G01*
X108478262Y-69600000D02*
X107521738Y-69600000D01*
G75*
G02*
X107250000Y-69328262I0J271738D01*
G01*
X107250000Y-68621738D01*
G75*
G02*
X107521738Y-68350000I271738J0D01*
G01*
X108478262Y-68350000D01*
G75*
G02*
X108750000Y-68621738I0J-271738D01*
G01*
X108750000Y-69328262D01*
G75*
G02*
X108478262Y-69600000I-271738J0D01*
G01*
G37*
G36*
G01*
X108478262Y-71650000D02*
X107521738Y-71650000D01*
G75*
G02*
X107250000Y-71378262I0J271738D01*
G01*
X107250000Y-70671738D01*
G75*
G02*
X107521738Y-70400000I271738J0D01*
G01*
X108478262Y-70400000D01*
G75*
G02*
X108750000Y-70671738I0J-271738D01*
G01*
X108750000Y-71378262D01*
G75*
G02*
X108478262Y-71650000I-271738J0D01*
G01*
G37*
%TD*%
%TO.C,R3*%
G36*
G01*
X111008262Y-69600000D02*
X110051738Y-69600000D01*
G75*
G02*
X109780000Y-69328262I0J271738D01*
G01*
X109780000Y-68621738D01*
G75*
G02*
X110051738Y-68350000I271738J0D01*
G01*
X111008262Y-68350000D01*
G75*
G02*
X111280000Y-68621738I0J-271738D01*
G01*
X111280000Y-69328262D01*
G75*
G02*
X111008262Y-69600000I-271738J0D01*
G01*
G37*
G36*
G01*
X111008262Y-71650000D02*
X110051738Y-71650000D01*
G75*
G02*
X109780000Y-71378262I0J271738D01*
G01*
X109780000Y-70671738D01*
G75*
G02*
X110051738Y-70400000I271738J0D01*
G01*
X111008262Y-70400000D01*
G75*
G02*
X111280000Y-70671738I0J-271738D01*
G01*
X111280000Y-71378262D01*
G75*
G02*
X111008262Y-71650000I-271738J0D01*
G01*
G37*
%TD*%
%TO.C,R2*%
G36*
G01*
X68760000Y-80521738D02*
X68760000Y-81478262D01*
G75*
G02*
X68488262Y-81750000I-271738J0D01*
G01*
X67781738Y-81750000D01*
G75*
G02*
X67510000Y-81478262I0J271738D01*
G01*
X67510000Y-80521738D01*
G75*
G02*
X67781738Y-80250000I271738J0D01*
G01*
X68488262Y-80250000D01*
G75*
G02*
X68760000Y-80521738I0J-271738D01*
G01*
G37*
G36*
G01*
X70810000Y-80521738D02*
X70810000Y-81478262D01*
G75*
G02*
X70538262Y-81750000I-271738J0D01*
G01*
X69831738Y-81750000D01*
G75*
G02*
X69560000Y-81478262I0J271738D01*
G01*
X69560000Y-80521738D01*
G75*
G02*
X69831738Y-80250000I271738J0D01*
G01*
X70538262Y-80250000D01*
G75*
G02*
X70810000Y-80521738I0J-271738D01*
G01*
G37*
%TD*%
%TO.C,R1*%
G36*
G01*
X40375000Y-72478262D02*
X40375000Y-71521738D01*
G75*
G02*
X40646738Y-71250000I271738J0D01*
G01*
X41353262Y-71250000D01*
G75*
G02*
X41625000Y-71521738I0J-271738D01*
G01*
X41625000Y-72478262D01*
G75*
G02*
X41353262Y-72750000I-271738J0D01*
G01*
X40646738Y-72750000D01*
G75*
G02*
X40375000Y-72478262I0J271738D01*
G01*
G37*
G36*
G01*
X38325000Y-72478262D02*
X38325000Y-71521738D01*
G75*
G02*
X38596738Y-71250000I271738J0D01*
G01*
X39303262Y-71250000D01*
G75*
G02*
X39575000Y-71521738I0J-271738D01*
G01*
X39575000Y-72478262D01*
G75*
G02*
X39303262Y-72750000I-271738J0D01*
G01*
X38596738Y-72750000D01*
G75*
G02*
X38325000Y-72478262I0J271738D01*
G01*
G37*
%TD*%
%TO.C,C8*%
G36*
G01*
X59978262Y-65600000D02*
X59021738Y-65600000D01*
G75*
G02*
X58750000Y-65328262I0J271738D01*
G01*
X58750000Y-64621738D01*
G75*
G02*
X59021738Y-64350000I271738J0D01*
G01*
X59978262Y-64350000D01*
G75*
G02*
X60250000Y-64621738I0J-271738D01*
G01*
X60250000Y-65328262D01*
G75*
G02*
X59978262Y-65600000I-271738J0D01*
G01*
G37*
G36*
G01*
X59978262Y-67650000D02*
X59021738Y-67650000D01*
G75*
G02*
X58750000Y-67378262I0J271738D01*
G01*
X58750000Y-66671738D01*
G75*
G02*
X59021738Y-66400000I271738J0D01*
G01*
X59978262Y-66400000D01*
G75*
G02*
X60250000Y-66671738I0J-271738D01*
G01*
X60250000Y-67378262D01*
G75*
G02*
X59978262Y-67650000I-271738J0D01*
G01*
G37*
%TD*%
%TO.C,C7*%
G36*
G01*
X68810000Y-73521738D02*
X68810000Y-74478262D01*
G75*
G02*
X68538262Y-74750000I-271738J0D01*
G01*
X67831738Y-74750000D01*
G75*
G02*
X67560000Y-74478262I0J271738D01*
G01*
X67560000Y-73521738D01*
G75*
G02*
X67831738Y-73250000I271738J0D01*
G01*
X68538262Y-73250000D01*
G75*
G02*
X68810000Y-73521738I0J-271738D01*
G01*
G37*
G36*
G01*
X70860000Y-73521738D02*
X70860000Y-74478262D01*
G75*
G02*
X70588262Y-74750000I-271738J0D01*
G01*
X69881738Y-74750000D01*
G75*
G02*
X69610000Y-74478262I0J271738D01*
G01*
X69610000Y-73521738D01*
G75*
G02*
X69881738Y-73250000I271738J0D01*
G01*
X70588262Y-73250000D01*
G75*
G02*
X70860000Y-73521738I0J-271738D01*
G01*
G37*
%TD*%
%TO.C,C6*%
G36*
G01*
X68780000Y-77021738D02*
X68780000Y-77978262D01*
G75*
G02*
X68508262Y-78250000I-271738J0D01*
G01*
X67801738Y-78250000D01*
G75*
G02*
X67530000Y-77978262I0J271738D01*
G01*
X67530000Y-77021738D01*
G75*
G02*
X67801738Y-76750000I271738J0D01*
G01*
X68508262Y-76750000D01*
G75*
G02*
X68780000Y-77021738I0J-271738D01*
G01*
G37*
G36*
G01*
X70830000Y-77021738D02*
X70830000Y-77978262D01*
G75*
G02*
X70558262Y-78250000I-271738J0D01*
G01*
X69851738Y-78250000D01*
G75*
G02*
X69580000Y-77978262I0J271738D01*
G01*
X69580000Y-77021738D01*
G75*
G02*
X69851738Y-76750000I271738J0D01*
G01*
X70558262Y-76750000D01*
G75*
G02*
X70830000Y-77021738I0J-271738D01*
G01*
G37*
%TD*%
%TO.C,C5*%
G36*
G01*
X49600000Y-67521738D02*
X49600000Y-68478262D01*
G75*
G02*
X49328262Y-68750000I-271738J0D01*
G01*
X48621738Y-68750000D01*
G75*
G02*
X48350000Y-68478262I0J271738D01*
G01*
X48350000Y-67521738D01*
G75*
G02*
X48621738Y-67250000I271738J0D01*
G01*
X49328262Y-67250000D01*
G75*
G02*
X49600000Y-67521738I0J-271738D01*
G01*
G37*
G36*
G01*
X51650000Y-67521738D02*
X51650000Y-68478262D01*
G75*
G02*
X51378262Y-68750000I-271738J0D01*
G01*
X50671738Y-68750000D01*
G75*
G02*
X50400000Y-68478262I0J271738D01*
G01*
X50400000Y-67521738D01*
G75*
G02*
X50671738Y-67250000I271738J0D01*
G01*
X51378262Y-67250000D01*
G75*
G02*
X51650000Y-67521738I0J-271738D01*
G01*
G37*
%TD*%
%TO.C,C4*%
G36*
G01*
X57478262Y-65625000D02*
X56521738Y-65625000D01*
G75*
G02*
X56250000Y-65353262I0J271738D01*
G01*
X56250000Y-64646738D01*
G75*
G02*
X56521738Y-64375000I271738J0D01*
G01*
X57478262Y-64375000D01*
G75*
G02*
X57750000Y-64646738I0J-271738D01*
G01*
X57750000Y-65353262D01*
G75*
G02*
X57478262Y-65625000I-271738J0D01*
G01*
G37*
G36*
G01*
X57478262Y-67675000D02*
X56521738Y-67675000D01*
G75*
G02*
X56250000Y-67403262I0J271738D01*
G01*
X56250000Y-66696738D01*
G75*
G02*
X56521738Y-66425000I271738J0D01*
G01*
X57478262Y-66425000D01*
G75*
G02*
X57750000Y-66696738I0J-271738D01*
G01*
X57750000Y-67403262D01*
G75*
G02*
X57478262Y-67675000I-271738J0D01*
G01*
G37*
%TD*%
%TO.C,C2*%
G36*
G01*
X48600000Y-70521738D02*
X48600000Y-71478262D01*
G75*
G02*
X48328262Y-71750000I-271738J0D01*
G01*
X47621738Y-71750000D01*
G75*
G02*
X47350000Y-71478262I0J271738D01*
G01*
X47350000Y-70521738D01*
G75*
G02*
X47621738Y-70250000I271738J0D01*
G01*
X48328262Y-70250000D01*
G75*
G02*
X48600000Y-70521738I0J-271738D01*
G01*
G37*
G36*
G01*
X50650000Y-70521738D02*
X50650000Y-71478262D01*
G75*
G02*
X50378262Y-71750000I-271738J0D01*
G01*
X49671738Y-71750000D01*
G75*
G02*
X49400000Y-71478262I0J271738D01*
G01*
X49400000Y-70521738D01*
G75*
G02*
X49671738Y-70250000I271738J0D01*
G01*
X50378262Y-70250000D01*
G75*
G02*
X50650000Y-70521738I0J-271738D01*
G01*
G37*
%TD*%
%TO.C,C1*%
G36*
G01*
X48600000Y-78521738D02*
X48600000Y-79478262D01*
G75*
G02*
X48328262Y-79750000I-271738J0D01*
G01*
X47621738Y-79750000D01*
G75*
G02*
X47350000Y-79478262I0J271738D01*
G01*
X47350000Y-78521738D01*
G75*
G02*
X47621738Y-78250000I271738J0D01*
G01*
X48328262Y-78250000D01*
G75*
G02*
X48600000Y-78521738I0J-271738D01*
G01*
G37*
G36*
G01*
X50650000Y-78521738D02*
X50650000Y-79478262D01*
G75*
G02*
X50378262Y-79750000I-271738J0D01*
G01*
X49671738Y-79750000D01*
G75*
G02*
X49400000Y-79478262I0J271738D01*
G01*
X49400000Y-78521738D01*
G75*
G02*
X49671738Y-78250000I271738J0D01*
G01*
X50378262Y-78250000D01*
G75*
G02*
X50650000Y-78521738I0J-271738D01*
G01*
G37*
%TD*%
D24*
%TO.C,Jack0*%
X110800000Y-78300000D03*
D25*
X115400000Y-76000000D03*
X108400000Y-76000000D03*
D24*
X113800000Y-78300000D03*
X106800000Y-78300000D03*
X105700000Y-73700000D03*
%TD*%
M02*
