<?xml version="1.0" encoding="UTF-8" standalone="no"?>
<svg
   xmlns:dc="http://purl.org/dc/elements/1.1/"
   xmlns:cc="http://creativecommons.org/ns#"
   xmlns:rdf="http://www.w3.org/1999/02/22-rdf-syntax-ns#"
   xmlns:svg="http://www.w3.org/2000/svg"
   xmlns="http://www.w3.org/2000/svg"
   xmlns:sodipodi="http://sodipodi.sourceforge.net/DTD/sodipodi-0.dtd"
   xmlns:inkscape="http://www.inkscape.org/namespaces/inkscape"
   inkscape:version="1.0 (4035a4fb49, 2020-05-01)"
   sodipodi:docname="ferris-switches.svg"
   id="svg5070"
   viewBox="0 0 88590 37480"
   height="9.519920cm"
   width="22.501860cm"
   version="1.1">
  <metadata
     id="metadata5076">
    <rdf:RDF>
      <cc:Work
         rdf:about="">
        <dc:format>image/svg+xml</dc:format>
        <dc:type
           rdf:resource="http://purl.org/dc/dcmitype/StillImage" />
        <dc:title>SVG Picture created as ferris-Edge_Cuts.svg date 2020/07/18 19:23:21 </dc:title>
      </cc:Work>
    </rdf:RDF>
  </metadata>
  <defs
     id="defs5074" />
  <sodipodi:namedview
     inkscape:current-layer="svg5070"
     inkscape:window-maximized="1"
     inkscape:window-y="0"
     inkscape:window-x="0"
     inkscape:cy="435.50576"
     inkscape:cx="408.71751"
     inkscape:zoom="0.64469555"
     showgrid="false"
     id="namedview5072"
     inkscape:window-height="795"
     inkscape:window-width="1280"
     inkscape:pageshadow="2"
     inkscape:pageopacity="0"
     guidetolerance="10"
     gridtolerance="10"
     objecttolerance="10"
     borderopacity="1"
     bordercolor="#666666"
     pagecolor="#ffffff" />
  <title
     id="title4790">SVG Picture created as ferris-Edge_Cuts.svg date 2020/07/18 19:23:21 </title>
  <desc
     id="desc4792">Picture generated by PCBNEW </desc>
  <g
     id="g4794"
     transform="translate(0 0) scale(1 1)"
     style="fill:#000000; fill-opacity:1;stroke:#000000; stroke-opacity:1; stroke-linecap:round; stroke-linejoin:round;" />
  <g
     id="g4796"
     style="fill:#000000; fill-opacity:0.0;  stroke:#000000; stroke-width:-0.000393701; stroke-opacity:1;  stroke-linecap:round; stroke-linejoin:round;" />
  <g
     id="g5068"
     style="fill:#000000; fill-opacity:0.0;  stroke:#000000; stroke-width:19.685; stroke-opacity:1;  stroke-linecap:round; stroke-linejoin:round;">
    <path
       id="path4798"
       d="M42738 17379 L42738 27999 " />
    <path
       id="path4800"
       d="M45856 17379 L45860 27476 " />
    <path
       id="path4802"
       d="M46151.6 17084.4 A295.276 295.276 0.0 0 0 45856.3 17379.7" />
    <path
       id="path4804"
       d="M50387 17082 L46151 17084 " />
    <path
       id="path4806"
       d="M87675 29541 L87783 29541 " />
    <path
       id="path4808"
       d="M68747.9 9.84307 A56703.4 56703.4 0.0 0 0 51352.3 3682.66" />
    <path
       id="path4810"
       d="M49115.4 37110.5 A774.241 774.241 0.0 0 0 50190.9 37346.3" />
    <path
       id="path4814"
       d="M48133 35456 L49115 37110 " />
    <path
       id="path4816"
       d="M50387.8 17082.5 A787.883 787.883 0.0 0 0 51189 16322.3" />
    <path
       id="path4818"
       d="M68747 10 L70312 11 " />
    <path
       id="path4820"
       d="M51352.3 3682.66 A295.276 295.276 0.0 0 0 51181.1 3950.59" />
    <path
       id="path4822"
       d="M88581.6 7401.11 A1599.61 1599.61 0.0 0 0 88019.7 6608.07" />
    <path
       id="path4824"
       d="M87675.2 29541.8 A110997 110997 0.0 0 0 60104.3 33048.8" />
    <path
       id="path4826"
       d="M60104.4 33049.5 A34227.2 34227.2 0.0 0 0 50190.9 37346.3" />
    <path
       id="path4828"
       d="M88581 7401 L88584 28781 " />
    <path
       id="path4830"
       d="M88019.1 6608.8 A27059.1 27059.1 0.0 0 0 70313 11.613" />
    <path
       id="path4832"
       d="M45860.2 27476.2 A15313.6 15313.6 0.0 0 0 48133.9 35456.5" />
    <path
       id="path4834"
       d="M51188 16322 L51181 3950 " />
    <path
       id="path4836"
       d="M40476.2 35428.9 A15313.6 15313.6 0.0 0 0 42738.2 27999.8" />
    <path
       id="path4838"
       d="M40476 35428 L39479 37110 " />
    <path
       id="path4840"
       d="M37405 16322 L37413 3950 " />
    <path
       id="path4842"
       d="M37405.5 16322.3 A787.883 787.883 0.0 0 0 38206.7 17082.5" />
    <path
       id="path4844"
       d="M574.803 6608.07 A1599.61 1599.61 0.0 0 0 12.9366 7401.11" />
    <path
       id="path4846"
       d="M37242.2 3682.66 A56703.4 56703.4 0.0 0 0 19846.5 9.84307" />
    <path
       id="path4848"
       d="M919 29541 L811 29541 " />
    <path
       id="path4850"
       d="M38403.5 37346.3 A34227.2 34227.2 0.0 0 0 28490 33049.5" />
    <path
       id="path4852"
       d="M28490.2 33048.8 A110997 110997 0.0 0 0 919.291 29541.8" />
    <path
       id="path4856"
       d="M38403.5 37346.3 A774.241 774.241 0.0 0 0 39479.1 37110.5" />
    <path
       id="path4858"
       d="M37413.4 3950.59 A295.276 295.276 0.0 0 0 37242.2 3682.66" />
    <path
       id="path4860"
       d="M42738.2 17379.7 A295.276 295.276 0.0 0 0 42442.9 17084.4" />
    <path
       id="path4862"
       d="M38206 17082 L42442 17084 " />
    <path
       id="path4864"
       d="M12 7401 L9 28781 " />
    <path
       id="path4866"
       d="M19846 10 L18281 11 " />
    <path
       id="path4868"
       d="M18281.5 11.613 A27059.1 27059.1 0.0 0 0 575.437 6608.8" />
    <g
       id="g4870" />
    <g
       id="g4872" />
    <g
       id="g4874" />
    <g
       id="g4876" />
    <g
       id="g4878" />
    <g
       id="g4880" />
    <g
       id="g4882" />
    <g
       id="g4884" />
    <g
       id="g4886" />
    <g
       id="g4888" />
    <g
       id="g4890" />
    <g
       id="g4892" />
    <g
       id="g4894" />
    <g
       id="g4896" />
    <g
       id="g4898" />
    <g
       id="g4900" />
    <g
       id="g4902" />
    <g
       id="g4904" />
    <g
       id="g4906" />
    <g
       id="g4908" />
    <g
       id="g4910" />
    <g
       id="g4912" />
    <g
       id="g4914" />
    <g
       id="g4916" />
    <g
       id="g4918" />
    <g
       id="g4920" />
    <g
       id="g4922" />
    <g
       id="g4924" />
    <g
       id="g4926" />
    <g
       id="g4928" />
    <g
       id="g4930" />
    <g
       id="g4932" />
    <g
       id="g4934" />
    <g
       id="g4936" />
    <g
       id="g4938" />
    <g
       id="g4940" />
    <g
       id="g4942" />
    <g
       id="g4944" />
    <g
       id="g4946" />
    <g
       id="g4948" />
    <g
       id="g4950" />
    <g
       id="g4952" />
    <g
       id="g4954" />
    <g
       id="g4956" />
    <g
       id="g4958" />
    <g
       id="g4960" />
    <g
       id="g4962" />
    <g
       id="g4964" />
    <g
       id="g4966" />
    <g
       id="g4968" />
    <g
       id="g4970" />
    <g
       id="g4972" />
    <g
       id="g4974" />
    <g
       id="g4976" />
    <g
       id="g4978" />
    <g
       id="g4980" />
    <g
       id="g4982" />
    <g
       id="g4984" />
    <g
       id="g4986" />
    <g
       id="g4988" />
    <g
       id="g4990" />
    <g
       id="g4992" />
    <g
       id="g4994" />
    <g
       id="g4996" />
    <g
       id="g4998" />
    <g
       id="g5000" />
    <g
       id="g5002" />
    <g
       id="g5004" />
    <g
       id="g5006" />
    <g
       id="g5008" />
    <g
       id="g5010" />
    <g
       id="g5012" />
    <g
       id="g5014" />
    <g
       id="g5016" />
    <g
       id="g5018" />
    <g
       id="g5020" />
    <g
       id="g5022" />
    <g
       id="g5024" />
    <g
       id="g5026" />
    <g
       id="g5028" />
    <g
       id="g5030" />
    <g
       id="g5032" />
    <g
       id="g5034" />
    <g
       id="g5036" />
    <g
       id="g5038" />
    <g
       id="g5040" />
    <g
       id="g5042" />
    <g
       id="g5044" />
    <g
       id="g5046" />
    <g
       id="g5048" />
    <g
       id="g5050" />
    <g
       id="g5052" />
    <g
       id="g5054" />
    <g
       id="g5056" />
    <g
       id="g5058" />
    <g
       id="g5060" />
    <g
       id="g5062" />
    <g
       id="g5064" />
    <g
       id="g5066" />
  </g>
  <g
     transform="translate(-0.84611089,-9.144558)"
     id="g9381">
    <g
       style="fill:#000000;fill-opacity:1;stroke:#000000;stroke-linecap:round;stroke-linejoin:round;stroke-opacity:1"
       id="g7432" />
    <g
       style="fill:#000000;fill-opacity:0;stroke:#000000;stroke-width:-0.000393701;stroke-linecap:round;stroke-linejoin:round;stroke-opacity:1"
       id="g7434" />
    <g
       style="fill:#000000;fill-opacity:0;stroke:#000000;stroke-width:59.0551;stroke-linecap:round;stroke-linejoin:round;stroke-opacity:1"
       id="g8450">
      <path
         d="M 73625,17344 V 9844"
         id="path7436" />
      <path
         d="M 81125,17344 H 73625"
         id="path7438" />
      <path
         d="m 81125,9844 v 7500"
         id="path7440" />
      <path
         d="m 73625,9844 h 7500"
         id="path7442" />
      <path
         d="M 3,22068 V 14568"
         id="path7460" />
      <path
         d="M 7503,22068 H 3"
         id="path7462" />
      <path
         d="m 7503,14568 v 7500"
         id="path7464" />
      <path
         d="M 51185,18131 V 10631"
         id="path7484" />
      <path
         d="M 58685,18131 H 51185"
         id="path7486" />
      <path
         d="m 58685,10631 v 7500"
         id="path7488" />
      <path
         d="m 51185,10631 h 7500"
         id="path7490" />
      <path
         d="M 56220,33935 54279,26690"
         id="path7508" />
      <path
         d="m 63464,31993 -7244,1942"
         id="path7510" />
      <path
         d="m 61523,24749 1941,7244"
         id="path7512" />
      <path
         d="m 54279,26690 7244,-1941"
         id="path7514" />
      <path
         d="M 49231,37220 45481,30725"
         id="path7532" />
      <path
         d="m 55726,33470 -6495,3750"
         id="path7534" />
      <path
         d="m 51976,26975 3750,6495"
         id="path7536" />
      <path
         d="m 45481,30725 6495,-3750"
         id="path7538" />
      <path
         d="m 32883,33470 3750,-6495"
         id="path7556" />
      <path
         d="M 39378,37220 32883,33470"
         id="path7558" />
      <path
         d="m 43128,30725 -3750,6495"
         id="path7560" />
      <path
         d="m 36633,26975 6495,3750"
         id="path7562" />
      <path
         d="m 25145,31993 1941,-7244"
         id="path7580" />
      <path
         d="M 32389,33935 25145,31993"
         id="path7582" />
      <path
         d="m 34330,26690 -1941,7245"
         id="path7584" />
      <path
         d="m 27086,24749 7244,1941"
         id="path7586" />
      <path
         d="M 81106,29549 V 22049"
         id="path7604" />
      <path
         d="M 88606,29549 H 81106"
         id="path7606" />
      <path
         d="m 88606,22049 v 7500"
         id="path7608" />
      <path
         d="m 81106,22049 h 7500"
         id="path7610" />
      <path
         d="M 73625,24824 V 17324"
         id="path7628" />
      <path
         d="M 81125,24824 H 73625"
         id="path7630" />
      <path
         d="m 81125,17324 v 7500"
         id="path7632" />
      <path
         d="m 73625,17324 h 7500"
         id="path7634" />
      <path
         d="M 66145,22462 V 14962"
         id="path7652" />
      <path
         d="M 73645,22462 H 66145"
         id="path7654" />
      <path
         d="m 73645,14962 v 7500"
         id="path7656" />
      <path
         d="m 66145,14962 h 7500"
         id="path7658" />
      <path
         d="M 58665,24627 V 17127"
         id="path7676" />
      <path
         d="M 66165,24627 H 58665"
         id="path7678" />
      <path
         d="m 66165,17127 v 7500"
         id="path7680" />
      <path
         d="m 58665,17127 h 7500"
         id="path7682" />
      <path
         d="M 51185,25612 V 18112"
         id="path7700" />
      <path
         d="M 58685,25612 H 51185"
         id="path7702" />
      <path
         d="m 58685,18112 v 7500"
         id="path7704" />
      <path
         d="m 51185,18112 h 7500"
         id="path7706" />
      <path
         d="M 29925,25612 V 18112"
         id="path7724" />
      <path
         d="M 37425,25612 H 29925"
         id="path7726" />
      <path
         d="m 37425,18112 v 7500"
         id="path7728" />
      <path
         d="m 29925,18112 h 7500"
         id="path7730" />
      <path
         d="M 22444,24627 V 17127"
         id="path7748" />
      <path
         d="M 29944,24627 H 22444"
         id="path7750" />
      <path
         d="m 29944,17127 v 7500"
         id="path7752" />
      <path
         d="m 22444,17127 h 7500"
         id="path7754" />
      <path
         d="M 14964,22462 V 14962"
         id="path7772" />
      <path
         d="M 22464,22462 H 14964"
         id="path7774" />
      <path
         d="m 22464,14962 v 7500"
         id="path7776" />
      <path
         d="m 14964,14962 h 7500"
         id="path7778" />
      <path
         d="M 7484,24824 V 17324"
         id="path7796" />
      <path
         d="M 14984,24824 H 7484"
         id="path7798" />
      <path
         d="m 14984,17324 v 7500"
         id="path7800" />
      <path
         d="m 7484,17324 h 7500"
         id="path7802" />
      <path
         d="M 3,29549 V 22049"
         id="path7820" />
      <path
         d="M 7503,29549 H 3"
         id="path7822" />
      <path
         d="m 7503,22049 v 7500"
         id="path7824" />
      <path
         d="M 3,22049 H 7503"
         id="path7826" />
      <path
         d="M 81106,22068 V 14568"
         id="path7844" />
      <path
         d="M 88606,22068 H 81106"
         id="path7846" />
      <path
         d="m 88606,14568 v 7500"
         id="path7848" />
      <path
         d="m 81106,14568 h 7500"
         id="path7850" />
      <path
         d="M 66145,14982 V 7482"
         id="path7868" />
      <path
         d="M 73645,14982 H 66145"
         id="path7870" />
      <path
         d="m 73645,7482 v 7500"
         id="path7872" />
      <path
         d="m 66145,7482 h 7500"
         id="path7874" />
      <path
         d="M 58665,17147 V 9647"
         id="path7892" />
      <path
         d="M 66165,17147 H 58665"
         id="path7894" />
      <path
         d="m 66165,9647 v 7500"
         id="path7896" />
      <path
         d="m 58665,9647 h 7500"
         id="path7898" />
      <path
         d="M 29925,18131 V 10631"
         id="path7916" />
      <path
         d="M 37425,18131 H 29925"
         id="path7918" />
      <path
         d="m 37425,10631 v 7500"
         id="path7920" />
      <path
         d="m 29925,10631 h 7500"
         id="path7922" />
      <path
         d="M 22444,17147 V 9647"
         id="path7940" />
      <path
         d="M 29944,17147 H 22444"
         id="path7942" />
      <path
         d="m 29944,9647 v 7500"
         id="path7944" />
      <path
         d="m 22444,9647 h 7500"
         id="path7946" />
      <path
         d="M 14964,14982 V 7482"
         id="path7964" />
      <path
         d="M 22464,14982 H 14964"
         id="path7966" />
      <path
         d="m 22464,7482 v 7500"
         id="path7968" />
      <path
         d="m 14964,7482 h 7500"
         id="path7970" />
      <path
         d="M 7484,17344 V 9844"
         id="path7988" />
      <path
         d="M 14984,17344 H 7484"
         id="path7990" />
      <path
         d="m 14984,9844 v 7500"
         id="path7992" />
      <path
         d="m 7484,9844 h 7500"
         id="path7994" />
      <path
         d="M 81106,14588 V 7088"
         id="path8012" />
      <path
         d="M 88606,14588 H 81106"
         id="path8014" />
      <path
         d="m 88606,7088 v 7500"
         id="path8016" />
      <path
         d="m 81106,7088 h 7500"
         id="path8018" />
      <path
         d="M 73625,9863 V 2363"
         id="path8036" />
      <path
         d="M 81125,9863 H 73625"
         id="path8038" />
      <path
         d="M 81125,2363 V 9863"
         id="path8040" />
      <path
         d="m 73625,2363 h 7500"
         id="path8042" />
      <path
         d="M 66145,7501 V 1"
         id="path8060" />
      <path
         d="M 73645,7501 H 66145"
         id="path8062" />
      <path
         d="M 73645,1 V 7501"
         id="path8064" />
      <path
         d="m 66145,1 h 7500"
         id="path8066" />
      <path
         d="M 58665,9667 V 2167"
         id="path8084" />
      <path
         d="M 66165,9667 H 58665"
         id="path8086" />
      <path
         d="M 66165,2167 V 9667"
         id="path8088" />
      <path
         d="m 58665,2167 h 7500"
         id="path8090" />
      <path
         d="M 51185,10651 V 3151"
         id="path8108" />
      <path
         d="M 58685,10651 H 51185"
         id="path8110" />
      <path
         d="m 58685,3151 v 7500"
         id="path8112" />
      <path
         d="m 51185,3151 h 7500"
         id="path8114" />
      <path
         d="M 29925,10651 V 3151"
         id="path8132" />
      <path
         d="M 37425,10651 H 29925"
         id="path8134" />
      <path
         d="m 37425,3151 v 7500"
         id="path8136" />
      <path
         d="m 29925,3151 h 7500"
         id="path8138" />
      <path
         d="M 22444,9667 V 2167"
         id="path8156" />
      <path
         d="M 29944,9667 H 22444"
         id="path8158" />
      <path
         d="M 29944,2167 V 9667"
         id="path8160" />
      <path
         d="m 22444,2167 h 7500"
         id="path8162" />
      <path
         d="M 14964,7501 V 1"
         id="path8180" />
      <path
         d="M 22464,7501 H 14964"
         id="path8182" />
      <path
         d="M 22464,1 V 7501"
         id="path8184" />
      <path
         d="m 14964,1 h 7500"
         id="path8186" />
      <path
         d="M 7484,9863 V 2363"
         id="path8204" />
      <path
         d="M 14984,9863 H 7484"
         id="path8206" />
      <path
         d="M 14984,2363 V 9863"
         id="path8208" />
      <path
         d="m 7484,2363 h 7500"
         id="path8210" />
      <path
         d="M 3,14588 V 7088"
         id="path8228" />
      <path
         d="M 7503,14588 H 3"
         id="path8230" />
      <path
         d="m 7503,7088 v 7500"
         id="path8232" />
      <path
         d="M 3,7088 H 7503"
         id="path8234" />
      <g
         id="g8252" />
      <g
         id="g8254" />
      <g
         id="g8256" />
      <g
         id="g8258" />
      <g
         id="g8260" />
      <g
         id="g8262" />
      <g
         id="g8264" />
      <g
         id="g8266" />
      <g
         id="g8268" />
      <g
         id="g8270" />
      <g
         id="g8272" />
      <g
         id="g8274" />
      <g
         id="g8276" />
      <g
         id="g8278" />
      <g
         id="g8280" />
      <g
         id="g8282" />
      <g
         id="g8284" />
      <g
         id="g8286" />
      <g
         id="g8288" />
      <g
         id="g8290" />
      <g
         id="g8292" />
      <g
         id="g8294" />
      <g
         id="g8296" />
      <g
         id="g8298" />
      <g
         id="g8300" />
      <g
         id="g8302" />
      <g
         id="g8304" />
      <g
         id="g8306" />
      <g
         id="g8308" />
      <g
         id="g8310" />
      <g
         id="g8312" />
      <g
         id="g8314" />
      <g
         id="g8316" />
      <g
         id="g8318" />
      <g
         id="g8320" />
      <g
         id="g8322" />
      <g
         id="g8324" />
      <g
         id="g8326" />
      <g
         id="g8328" />
      <g
         id="g8330" />
      <g
         id="g8332" />
      <g
         id="g8334" />
      <g
         id="g8336" />
      <g
         id="g8338" />
      <g
         id="g8340" />
      <g
         id="g8342" />
      <g
         id="g8344" />
      <g
         id="g8346" />
      <g
         id="g8348" />
      <g
         id="g8350" />
      <g
         id="g8352" />
      <g
         id="g8354" />
      <g
         id="g8356" />
      <g
         id="g8358" />
      <g
         id="g8360" />
      <g
         id="g8362" />
      <g
         id="g8364" />
      <g
         id="g8366" />
      <g
         id="g8368" />
      <g
         id="g8370" />
      <g
         id="g8372" />
      <g
         id="g8374" />
      <g
         id="g8376" />
      <g
         id="g8378" />
      <g
         id="g8380" />
      <g
         id="g8382" />
      <g
         id="g8384" />
      <g
         id="g8386" />
      <g
         id="g8388" />
      <g
         id="g8390" />
      <g
         id="g8392" />
      <g
         id="g8394" />
      <g
         id="g8396" />
      <g
         id="g8398" />
      <g
         id="g8400" />
      <g
         id="g8402" />
      <g
         id="g8404" />
      <g
         id="g8406" />
      <g
         id="g8408" />
      <g
         id="g8410" />
      <g
         id="g8412" />
      <g
         id="g8414" />
      <g
         id="g8416" />
      <g
         id="g8418" />
      <g
         id="g8420" />
      <g
         id="g8422" />
      <g
         id="g8424" />
      <g
         id="g8426" />
      <g
         id="g8428" />
      <g
         id="g8430" />
      <g
         id="g8432" />
      <g
         id="g8434" />
      <g
         id="g8436" />
      <g
         id="g8438" />
      <g
         id="g8440" />
      <g
         id="g8442" />
      <g
         id="g8444" />
      <g
         id="g8446" />
      <g
         id="g8448" />
    </g>
    <g
       style="fill:#000000;fill-opacity:0;stroke:#000000;stroke-width:59.0551;stroke-linecap:round;stroke-linejoin:round;stroke-opacity:1"
       id="g8452" />
    <g
       style="fill:#000000;fill-opacity:0;stroke:#000000;stroke-width:19.685;stroke-linecap:round;stroke-linejoin:round;stroke-opacity:1"
       id="g8724">
      <path
         d="M 42738,17379 V 27999"
         id="path8454" />
      <path
         d="m 45856,17379 4,10097"
         id="path8456" />
      <path
         d="m 46151.6,17084.4 a 295.276,295.276 0 0 0 -295.3,295.3"
         id="path8458" />
      <path
         d="m 50387,17082 -4236,2"
         id="path8460" />
      <path
         d="m 87675,29541 h 108"
         id="path8462" />
      <path
         d="M 68747.9,9.84307 A 56703.4,56703.4 0 0 0 51352.3,3682.66"
         id="path8464" />
      <path
         d="m 49115.4,37110.5 a 774.241,774.241 0 0 0 1075.5,235.8"
         id="path8466" />
      <path
         d="m 48133,35456 982,1654"
         id="path8470" />
      <path
         d="m 50387.8,17082.5 a 787.883,787.883 0 0 0 801.2,-760.2"
         id="path8472" />
      <path
         d="m 68747,10 1565,1"
         id="path8474" />
      <path
         d="m 51352.3,3682.66 a 295.276,295.276 0 0 0 -171.2,267.93"
         id="path8476" />
      <path
         d="m 88581.6,7401.11 a 1599.61,1599.61 0 0 0 -561.9,-793.04"
         id="path8478" />
      <path
         d="m 87675.2,29541.8 a 110997,110997 0 0 0 -27570.9,3507"
         id="path8480" />
      <path
         d="m 60104.4,33049.5 a 34227.2,34227.2 0 0 0 -9913.5,4296.8"
         id="path8482" />
      <path
         d="m 88581,7401 3,21380"
         id="path8484" />
      <path
         d="M 88019.1,6608.8 A 27059.1,27059.1 0 0 0 70313,11.613"
         id="path8486" />
      <path
         d="m 45860.2,27476.2 a 15313.6,15313.6 0 0 0 2273.7,7980.3"
         id="path8488" />
      <path
         d="m 51188,16322 -7,-12372"
         id="path8490" />
      <path
         d="m 40476.2,35428.9 a 15313.6,15313.6 0 0 0 2262,-7429.1"
         id="path8492" />
      <path
         d="m 40476,35428 -997,1682"
         id="path8494" />
      <path
         d="m 37405,16322 8,-12372"
         id="path8496" />
      <path
         d="m 37405.5,16322.3 a 787.883,787.883 0 0 0 801.2,760.2"
         id="path8498" />
      <path
         d="M 574.803,6608.07 A 1599.61,1599.61 0 0 0 12.9366,7401.11"
         id="path8500" />
      <path
         d="M 37242.2,3682.66 A 56703.4,56703.4 0 0 0 19846.5,9.84307"
         id="path8502" />
      <path
         d="M 919,29541 H 811"
         id="path8504" />
      <path
         d="M 38403.5,37346.3 A 34227.2,34227.2 0 0 0 28490,33049.5"
         id="path8506" />
      <path
         d="M 28490.2,33048.8 A 110997,110997 0 0 0 919.291,29541.8"
         id="path8508" />
      <path
         d="m 38403.5,37346.3 a 774.241,774.241 0 0 0 1075.6,-235.8"
         id="path8512" />
      <path
         d="m 37413.4,3950.59 a 295.276,295.276 0 0 0 -171.2,-267.93"
         id="path8514" />
      <path
         d="m 42738.2,17379.7 a 295.276,295.276 0 0 0 -295.3,-295.3"
         id="path8516" />
      <path
         d="m 38206,17082 4236,2"
         id="path8518" />
      <path
         d="M 12,7401 9,28781"
         id="path8520" />
      <path
         d="m 19846,10 -1565,1"
         id="path8522" />
      <path
         d="M 18281.5,11.613 A 27059.1,27059.1 0 0 0 575.437,6608.8"
         id="path8524" />
      <g
         id="g8526" />
      <g
         id="g8528" />
      <g
         id="g8530" />
      <g
         id="g8532" />
      <g
         id="g8534" />
      <g
         id="g8536" />
      <g
         id="g8538" />
      <g
         id="g8540" />
      <g
         id="g8542" />
      <g
         id="g8544" />
      <g
         id="g8546" />
      <g
         id="g8548" />
      <g
         id="g8550" />
      <g
         id="g8552" />
      <g
         id="g8554" />
      <g
         id="g8556" />
      <g
         id="g8558" />
      <g
         id="g8560" />
      <g
         id="g8562" />
      <g
         id="g8564" />
      <g
         id="g8566" />
      <g
         id="g8568" />
      <g
         id="g8570" />
      <g
         id="g8572" />
      <g
         id="g8574" />
      <g
         id="g8576" />
      <g
         id="g8578" />
      <g
         id="g8580" />
      <g
         id="g8582" />
      <g
         id="g8584" />
      <g
         id="g8586" />
      <g
         id="g8588" />
      <g
         id="g8590" />
      <g
         id="g8592" />
      <g
         id="g8594" />
      <g
         id="g8596" />
      <g
         id="g8598" />
      <g
         id="g8600" />
      <g
         id="g8602" />
      <g
         id="g8604" />
      <g
         id="g8606" />
      <g
         id="g8608" />
      <g
         id="g8610" />
      <g
         id="g8612" />
      <g
         id="g8614" />
      <g
         id="g8616" />
      <g
         id="g8618" />
      <g
         id="g8620" />
      <g
         id="g8622" />
      <g
         id="g8624" />
      <g
         id="g8626" />
      <g
         id="g8628" />
      <g
         id="g8630" />
      <g
         id="g8632" />
      <g
         id="g8634" />
      <g
         id="g8636" />
      <g
         id="g8638" />
      <g
         id="g8640" />
      <g
         id="g8642" />
      <g
         id="g8644" />
      <g
         id="g8646" />
      <g
         id="g8648" />
      <g
         id="g8650" />
      <g
         id="g8652" />
      <g
         id="g8654" />
      <g
         id="g8656" />
      <g
         id="g8658" />
      <g
         id="g8660" />
      <g
         id="g8662" />
      <g
         id="g8664" />
      <g
         id="g8666" />
      <g
         id="g8668" />
      <g
         id="g8670" />
      <g
         id="g8672" />
      <g
         id="g8674" />
      <g
         id="g8676" />
      <g
         id="g8678" />
      <g
         id="g8680" />
      <g
         id="g8682" />
      <g
         id="g8684" />
      <g
         id="g8686" />
      <g
         id="g8688" />
      <g
         id="g8690" />
      <g
         id="g8692" />
      <g
         id="g8694" />
      <g
         id="g8696" />
      <g
         id="g8698" />
      <g
         id="g8700" />
      <g
         id="g8702" />
      <g
         id="g8704" />
      <g
         id="g8706" />
      <g
         id="g8708" />
      <g
         id="g8710" />
      <g
         id="g8712" />
      <g
         id="g8714" />
      <g
         id="g8716" />
      <g
         id="g8718" />
      <g
         id="g8720" />
      <g
         id="g8722" />
    </g>
  </g>
</svg>
