%TF.GenerationSoftware,KiCad,Pcbnew,5.1.6*%
%TF.CreationDate,2020-08-13T18:56:40+01:00*%
%TF.ProjectId,ferris,66657272-6973-42e6-9b69-6361645f7063,rev?*%
%TF.SameCoordinates,Original*%
%TF.FileFunction,Soldermask,Bot*%
%TF.FilePolarity,Negative*%
%FSLAX46Y46*%
G04 Gerber Fmt 4.6, Leading zero omitted, Abs format (unit mm)*
G04 Created by KiCad (PCBNEW 5.1.6) date 2020-08-13 18:56:40*
%MOMM*%
%LPD*%
G01*
G04 APERTURE LIST*
%ADD10C,0.600000*%
%ADD11C,1.801800*%
%ADD12C,1.090600*%
%ADD13C,2.132000*%
%ADD14C,3.529000*%
%ADD15O,1.100000X2.200000*%
%ADD16C,0.750000*%
%ADD17O,1.100000X1.700000*%
%ADD18O,2.100000X1.700000*%
%ADD19C,0.900000*%
G04 APERTURE END LIST*
D10*
%TO.C,mouse-bite-2mm-slot*%
X102400000Y-38500000D03*
X103900000Y-38500000D03*
X102400000Y-37750000D03*
X102400000Y-39250000D03*
X103900000Y-39250000D03*
X103900000Y-37750000D03*
%TD*%
%TO.C,mouse-bite-2mm-slot*%
X132100000Y-38500000D03*
X133600000Y-38500000D03*
X132100000Y-37750000D03*
X132100000Y-39250000D03*
X133600000Y-39250000D03*
X133600000Y-37750000D03*
%TD*%
D11*
%TO.C,K0_0*%
X16500000Y-40000000D03*
X27500000Y-40000000D03*
D12*
X27220000Y-35800000D03*
D13*
X22000000Y-45900000D03*
X17000000Y-43800000D03*
D14*
X22000000Y-40000000D03*
%TD*%
D11*
%TO.C,K0_1*%
X34500000Y-28000000D03*
X45500000Y-28000000D03*
D12*
X45220000Y-23800000D03*
D13*
X40000000Y-33900000D03*
X35000000Y-31800000D03*
D14*
X40000000Y-28000000D03*
%TD*%
D11*
%TO.C,K0_2*%
X52500000Y-22000000D03*
X63500000Y-22000000D03*
D12*
X63220000Y-17800000D03*
D13*
X58000000Y-27900000D03*
X53000000Y-25800000D03*
D14*
X58000000Y-22000000D03*
%TD*%
D11*
%TO.C,K0_3*%
X70500000Y-27500000D03*
X81500000Y-27500000D03*
D12*
X81220000Y-23300000D03*
D13*
X76000000Y-33400000D03*
X71000000Y-31300000D03*
D14*
X76000000Y-27500000D03*
%TD*%
D11*
%TO.C,K0_4*%
X88500000Y-30000000D03*
X99500000Y-30000000D03*
D12*
X99220000Y-25800000D03*
D13*
X94000000Y-35900000D03*
X89000000Y-33800000D03*
D14*
X94000000Y-30000000D03*
%TD*%
D11*
%TO.C,K0_5*%
X136500000Y-30000000D03*
X147500000Y-30000000D03*
D12*
X147220000Y-25800000D03*
D13*
X142000000Y-35900000D03*
X137000000Y-33800000D03*
D14*
X142000000Y-30000000D03*
%TD*%
D11*
%TO.C,K0_6*%
X154500000Y-27500000D03*
X165500000Y-27500000D03*
D12*
X165220000Y-23300000D03*
D13*
X160000000Y-33400000D03*
X155000000Y-31300000D03*
D14*
X160000000Y-27500000D03*
%TD*%
D11*
%TO.C,K0_7*%
X172500000Y-22000000D03*
X183500000Y-22000000D03*
D12*
X183220000Y-17800000D03*
D13*
X178000000Y-27900000D03*
X173000000Y-25800000D03*
D14*
X178000000Y-22000000D03*
%TD*%
D11*
%TO.C,K0_8*%
X190500000Y-28000000D03*
X201500000Y-28000000D03*
D12*
X201220000Y-23800000D03*
D13*
X196000000Y-33900000D03*
X191000000Y-31800000D03*
D14*
X196000000Y-28000000D03*
%TD*%
D11*
%TO.C,K0_9*%
X208500000Y-40000000D03*
X219500000Y-40000000D03*
D12*
X219220000Y-35800000D03*
D13*
X214000000Y-45900000D03*
X209000000Y-43800000D03*
D14*
X214000000Y-40000000D03*
%TD*%
D11*
%TO.C,K1_0*%
X16500000Y-57000000D03*
X27500000Y-57000000D03*
D12*
X27220000Y-52800000D03*
D13*
X22000000Y-62900000D03*
X17000000Y-60800000D03*
D14*
X22000000Y-57000000D03*
%TD*%
D11*
%TO.C,K1_1*%
X34500000Y-45000000D03*
X45500000Y-45000000D03*
D12*
X45220000Y-40800000D03*
D13*
X40000000Y-50900000D03*
X35000000Y-48800000D03*
D14*
X40000000Y-45000000D03*
%TD*%
D11*
%TO.C,K1_2*%
X52500000Y-39000000D03*
X63500000Y-39000000D03*
D12*
X63220000Y-34800000D03*
D13*
X58000000Y-44900000D03*
X53000000Y-42800000D03*
D14*
X58000000Y-39000000D03*
%TD*%
D11*
%TO.C,K1_3*%
X70500000Y-44500000D03*
X81500000Y-44500000D03*
D12*
X81220000Y-40300000D03*
D13*
X76000000Y-50400000D03*
X71000000Y-48300000D03*
D14*
X76000000Y-44500000D03*
%TD*%
D11*
%TO.C,K1_4*%
X88500000Y-47000000D03*
X99500000Y-47000000D03*
D12*
X99220000Y-42800000D03*
D13*
X94000000Y-52900000D03*
X89000000Y-50800000D03*
D14*
X94000000Y-47000000D03*
%TD*%
D11*
%TO.C,K1_5*%
X136500000Y-47000000D03*
X147500000Y-47000000D03*
D12*
X147220000Y-42800000D03*
D13*
X142000000Y-52900000D03*
X137000000Y-50800000D03*
D14*
X142000000Y-47000000D03*
%TD*%
D11*
%TO.C,K1_6*%
X154500000Y-44500000D03*
X165500000Y-44500000D03*
D12*
X165220000Y-40300000D03*
D13*
X160000000Y-50400000D03*
X155000000Y-48300000D03*
D14*
X160000000Y-44500000D03*
%TD*%
D11*
%TO.C,K1_7*%
X172500000Y-39000000D03*
X183500000Y-39000000D03*
D12*
X183220000Y-34800000D03*
D13*
X178000000Y-44900000D03*
X173000000Y-42800000D03*
D14*
X178000000Y-39000000D03*
%TD*%
D11*
%TO.C,K1_8*%
X190500000Y-45000000D03*
X201500000Y-45000000D03*
D12*
X201220000Y-40800000D03*
D13*
X196000000Y-50900000D03*
X191000000Y-48800000D03*
D14*
X196000000Y-45000000D03*
%TD*%
D11*
%TO.C,K1_9*%
X208500000Y-57000000D03*
X219500000Y-57000000D03*
D12*
X219220000Y-52800000D03*
D13*
X214000000Y-62900000D03*
X209000000Y-60800000D03*
D14*
X214000000Y-57000000D03*
%TD*%
D11*
%TO.C,K2_0*%
X16500000Y-74000000D03*
X27500000Y-74000000D03*
D12*
X27220000Y-69800000D03*
D13*
X22000000Y-79900000D03*
X17000000Y-77800000D03*
D14*
X22000000Y-74000000D03*
%TD*%
D11*
%TO.C,K2_1*%
X34500000Y-62000000D03*
X45500000Y-62000000D03*
D12*
X45220000Y-57800000D03*
D13*
X40000000Y-67900000D03*
X35000000Y-65800000D03*
D14*
X40000000Y-62000000D03*
%TD*%
D11*
%TO.C,K2_2*%
X52500000Y-56000000D03*
X63500000Y-56000000D03*
D12*
X63220000Y-51800000D03*
D13*
X58000000Y-61900000D03*
X53000000Y-59800000D03*
D14*
X58000000Y-56000000D03*
%TD*%
D11*
%TO.C,K2_3*%
X70500000Y-61500000D03*
X81500000Y-61500000D03*
D12*
X81220000Y-57300000D03*
D13*
X76000000Y-67400000D03*
X71000000Y-65300000D03*
D14*
X76000000Y-61500000D03*
%TD*%
D11*
%TO.C,K2_4*%
X88500000Y-64000000D03*
X99500000Y-64000000D03*
D12*
X99220000Y-59800000D03*
D13*
X94000000Y-69900000D03*
X89000000Y-67800000D03*
D14*
X94000000Y-64000000D03*
%TD*%
D11*
%TO.C,K2_5*%
X136500000Y-64000000D03*
X147500000Y-64000000D03*
D12*
X147220000Y-59800000D03*
D13*
X142000000Y-69900000D03*
X137000000Y-67800000D03*
D14*
X142000000Y-64000000D03*
%TD*%
D11*
%TO.C,K2_6*%
X154500000Y-61500000D03*
X165500000Y-61500000D03*
D12*
X165220000Y-57300000D03*
D13*
X160000000Y-67400000D03*
X155000000Y-65300000D03*
D14*
X160000000Y-61500000D03*
%TD*%
D11*
%TO.C,K*%
X172500000Y-56000000D03*
X183500000Y-56000000D03*
D12*
X183220000Y-51800000D03*
D13*
X178000000Y-61900000D03*
X173000000Y-59800000D03*
D14*
X178000000Y-56000000D03*
%TD*%
D11*
%TO.C,K2_8*%
X190500000Y-62000000D03*
X201500000Y-62000000D03*
D12*
X201220000Y-57800000D03*
D13*
X196000000Y-67900000D03*
X191000000Y-65800000D03*
D14*
X196000000Y-62000000D03*
%TD*%
D11*
%TO.C,K2_9*%
X208500000Y-74000000D03*
X219500000Y-74000000D03*
D12*
X219220000Y-69800000D03*
D13*
X214000000Y-79900000D03*
X209000000Y-77800000D03*
D14*
X214000000Y-74000000D03*
%TD*%
D11*
%TO.C,K3_3*%
X80657408Y-80276495D03*
X91282592Y-83123505D03*
D12*
X92099173Y-78994147D03*
D13*
X84442968Y-87398962D03*
X80156858Y-84076423D03*
D14*
X85970000Y-81700000D03*
%TD*%
D11*
%TO.C,K3_4*%
X99766860Y-86660000D03*
X109293140Y-92160000D03*
D12*
X111150653Y-88382693D03*
D13*
X101580000Y-94519550D03*
X98299873Y-90200897D03*
D14*
X104530000Y-89410000D03*
%TD*%
D11*
%TO.C,K3_5*%
X126706860Y-92160000D03*
X136233140Y-86660000D03*
D12*
X133890653Y-83162693D03*
D13*
X134420000Y-94519550D03*
X129039873Y-95200897D03*
D14*
X131470000Y-89410000D03*
%TD*%
D11*
%TO.C,K3_6*%
X144817408Y-83123505D03*
X155442592Y-80276495D03*
D12*
X154085093Y-76292076D03*
D13*
X151657032Y-87398962D03*
X146283883Y-86664613D03*
D14*
X150130000Y-81700000D03*
%TD*%
D10*
%TO.C,mouse-bite-2mm-slot*%
X118750000Y-75280000D03*
X118750000Y-76780000D03*
X117250000Y-76780000D03*
X117250000Y-75280000D03*
X118750000Y-76030000D03*
X117250000Y-76030000D03*
%TD*%
D15*
%TO.C,J1*%
X107320000Y-59140000D03*
X115960000Y-59140000D03*
D16*
X114530000Y-58610000D03*
D17*
X115960000Y-54960000D03*
D16*
X108750000Y-58610000D03*
D17*
X107320000Y-54960000D03*
%TD*%
D18*
%TO.C,Jack1*%
X125200000Y-73700000D03*
D19*
X120600000Y-76000000D03*
X127600000Y-76000000D03*
D18*
X122200000Y-73700000D03*
X129200000Y-73700000D03*
X130300000Y-78300000D03*
%TD*%
%TO.C,Jack0*%
X110800000Y-78300000D03*
D19*
X115400000Y-76000000D03*
X108400000Y-76000000D03*
D18*
X113800000Y-78300000D03*
X106800000Y-78300000D03*
X105700000Y-73700000D03*
%TD*%
M02*
