M48
; DRILL file {KiCad 5.1.6} date Thu Jun 11 12:04:42 2020
; FORMAT={-:-/ absolute / inch / decimal}
; #@! TF.CreationDate,2020-06-11T12:04:42+01:00
; #@! TF.GenerationSoftware,Kicad,Pcbnew,5.1.6
; #@! TF.FileFunction,Plated,1,2,PTH
FMAT,2
INCH
T1C0.0157
T2C0.0236
T3C0.0354
T4C0.0500
%
G90
G05
T1
X2.0547Y-3.3083
X2.1874Y-3.052
X2.2305Y-3.2761
X2.2378Y-3.4157
X2.2389Y-3.115
X2.3823Y-2.9934
X2.4575Y-3.4764
X2.4718Y-3.3392
X2.4874Y-2.9933
X2.4875Y-3.4377
X2.5039Y-3.3697
X2.5362Y-3.4765
X2.5744Y-3.4343
X2.6148Y-3.4782
X2.7313Y-3.0728
X2.7868Y-3.0868
X3.0102Y-3.1807
X3.0102Y-3.4181
X4.6445Y-3.0406
X4.7394Y-3.0406
X5.2634Y-2.9055
X5.2646Y-2.8661
T4
X8.8189Y-2.5118
X9.0157Y-2.5945
X6.2659Y-3.66
X6.4774Y-3.6889
X8.0709Y-1.2913
X8.2677Y-1.374
X8.8189Y-3.2598
X9.0157Y-3.3425
X2.9528Y-2.0197
X3.1496Y-2.1024
X2.9528Y-1.2717
X3.1496Y-1.3543
X8.0709Y-2.0394
X8.2677Y-2.122
X5.4949Y-3.9681
X5.7067Y-3.9413
X2.2047Y-1.0551
X2.4016Y-1.1378
X8.8189Y-1.7638
X9.0157Y-1.8465
X2.2047Y-2.5512
X2.4016Y-2.6339
X3.7008Y-2.1181
X3.8976Y-2.2008
X7.3228Y-1.0551
X7.5197Y-1.1378
X6.5748Y-1.2717
X6.7717Y-1.3543
X7.3228Y-1.8031
X7.5197Y-1.8858
X2.9528Y-2.7677
X3.1496Y-2.8504
X3.7008Y-1.3701
X3.8976Y-1.4528
X6.5748Y-2.0197
X6.7717Y-2.1024
X0.7087Y-3.2598
X0.9055Y-3.3425
X8.0709Y-2.7874
X8.2677Y-2.8701
X1.4567Y-2.0394
X1.6535Y-2.122
X3.2751Y-3.5581
X3.4438Y-3.6889
X5.8268Y-1.3701
X6.0236Y-1.4528
X3.7008Y-2.8661
X3.8976Y-2.9488
X1.4567Y-1.2913
X1.6535Y-1.374
X0.7087Y-2.5118
X0.9055Y-2.5945
X5.8268Y-2.8661
X6.0236Y-2.9488
X1.4567Y-2.7874
X1.6535Y-2.8701
X5.8268Y-2.1181
X6.0236Y-2.2008
X4.0854Y-3.7713
X4.2146Y-3.9413
X2.2047Y-1.8031
X2.4016Y-1.8858
X7.3228Y-2.5512
X7.5197Y-2.6339
X0.7087Y-1.7638
X0.9055Y-1.8465
X6.5748Y-2.7677
X6.7717Y-2.8504
T2
G00X4.4242Y-2.3726
M15
G01X4.4242Y-2.349
M16
G05
G00X4.4242Y-2.547
M15
G01X4.4242Y-2.5037
M16
G05
G00X4.7644Y-2.3726
M15
G01X4.7644Y-2.349
M16
G05
G00X4.7644Y-2.547
M15
G01X4.7644Y-2.5037
M16
G05
T3
G00X5.2362Y-3.0866
M15
G01X5.252Y-3.0866
M16
G05
G00X5.3543Y-3.0866
M15
G01X5.3701Y-3.0866
M16
G05
G00X5.5118Y-3.0866
M15
G01X5.5276Y-3.0866
M16
G05
G00X5.5551Y-3.2677
M15
G01X5.5709Y-3.2677
M16
G05
G00X4.3661Y-3.0866
M15
G01X4.3504Y-3.0866
M16
G05
G00X4.4094Y-3.2677
M15
G01X4.3937Y-3.2677
M16
G05
G00X4.5669Y-3.2677
M15
G01X4.5512Y-3.2677
M16
G05
G00X4.685Y-3.2677
M15
G01X4.6693Y-3.2677
M16
G05
T0
M30
