M48
; DRILL file {KiCad 5.1.6} date Mon Jun  1 03:09:03 2020
; FORMAT={-:-/ absolute / inch / decimal}
; #@! TF.CreationDate,2020-06-01T03:09:03+01:00
; #@! TF.GenerationSoftware,Kicad,Pcbnew,5.1.6
; #@! TF.FileFunction,Plated,1,2,PTH
FMAT,2
INCH
T1C0.0157
T2C0.0236
T3C0.0354
T4C0.0500
%
G90
G05
T1
X2.0561Y-3.878
X2.1299Y-3.7382
X2.2081Y-4.052
X2.3106Y-3.9213
X2.3404Y-3.3425
X2.3564Y-3.6128
X2.3583Y-3.6551
X2.3583Y-3.7884
X2.3618Y-3.5738
X2.4037Y-4.0512
X2.4226Y-3.8652
X2.4276Y-3.8199
X2.4633Y-3.634
X2.4636Y-1.1122
X2.4638Y-3.5942
X2.4924Y-3.523
X2.4984Y-3.3425
X2.5281Y-1.8496
X2.5315Y-3.5276
X2.5567Y-2.5976
X2.561Y-3.8803
X2.5778Y-4.0512
X2.5906Y-3.8514
X2.6225Y-3.8744
X2.6511Y-3.7276
X2.6553Y-3.3425
X2.6555Y-3.5134
X2.673Y-4.0512
X2.6789Y-3.7581
X2.7215Y-3.4734
X2.7535Y-4.0512
X2.7539Y-3.5364
X2.7539Y-3.8573
X2.7843Y-3.4931
X2.8043Y-3.7283
X2.9262Y-4.0512
X4.3196Y-2.974
X4.3831Y-2.9004
X4.4587Y-3.0217
X4.4794Y-2.4695
X4.6348Y-2.4695
X4.7343Y-2.8953
X6.94Y-2.65
X7.3075Y-2.4933
X7.8445Y-3.2421
T4
X0.7087Y-3.6535
X0.9055Y-3.7362
X2.2047Y-1.4488
X2.4016Y-1.5315
X9.0945Y-2.9449
X9.2913Y-3.0276
X3.7008Y-2.5118
X3.8976Y-2.5945
X8.3465Y-1.6654
X8.5433Y-1.748
X9.8425Y-2.4331
X10.0394Y-2.5157
X8.0376Y-4.0537
X8.2491Y-4.0826
X2.9528Y-3.1614
X3.1496Y-3.2441
X9.8425Y-3.1811
X10.0394Y-3.2638
X3.7008Y-1.7638
X3.8976Y-1.8465
X7.5984Y-3.2598
X7.7953Y-3.3425
X0.7087Y-2.1575
X0.9055Y-2.2402
X4.0854Y-4.165
X4.2146Y-4.335
X2.9528Y-1.6654
X3.1496Y-1.748
X9.0945Y-2.1969
X9.2913Y-2.2795
X1.4567Y-3.1811
X1.6535Y-3.2638
X7.5984Y-1.7638
X7.7953Y-1.8465
X10.5906Y-2.9055
X10.7874Y-2.9882
X3.2751Y-3.9518
X3.4438Y-4.0826
X10.5906Y-3.6535
X10.7874Y-3.7362
X7.2665Y-4.3618
X7.4783Y-4.335
X2.2047Y-2.1969
X2.4016Y-2.2795
X7.5984Y-2.5118
X7.7953Y-2.5945
X1.4567Y-2.4331
X1.6535Y-2.5157
X8.3465Y-2.4134
X8.5433Y-2.4961
X10.5906Y-2.1575
X10.7874Y-2.2402
X9.0945Y-1.4488
X9.2913Y-1.5315
X3.7008Y-3.2598
X3.8976Y-3.3425
X2.2047Y-2.9449
X2.4016Y-3.0276
X9.8425Y-1.685
X10.0394Y-1.7677
X6.6595Y-4.8907
X6.8572Y-4.8099
X0.7087Y-2.9055
X0.9055Y-2.9882
X4.755Y-4.6123
X4.8358Y-4.8099
X2.9528Y-2.4134
X3.1496Y-2.4961
X8.3465Y-3.1614
X8.5433Y-3.2441
X1.4567Y-1.685
X1.6535Y-1.7677
T2
G00X4.387Y-2.3327
M15
G01X4.387Y-2.3091
M16
G05
G00X4.387Y-2.5071
M15
G01X4.387Y-2.4638
M16
G05
G00X4.7272Y-2.3327
M15
G01X4.7272Y-2.3091
M16
G05
G00X4.7272Y-2.5071
M15
G01X4.7272Y-2.4638
M16
G05
T3
G00X7.0079Y-3.0197
M15
G01X7.0236Y-3.0197
M16
G05
G00X7.126Y-3.0197
M15
G01X7.1417Y-3.0197
M16
G05
G00X7.2835Y-3.0197
M15
G01X7.2992Y-3.0197
M16
G05
G00X7.3268Y-3.2008
M15
G01X7.3425Y-3.2008
M16
G05
G00X4.3661Y-3.0197
M15
G01X4.3504Y-3.0197
M16
G05
G00X4.4094Y-3.2008
M15
G01X4.3937Y-3.2008
M16
G05
G00X4.5669Y-3.2008
M15
G01X4.5512Y-3.2008
M16
G05
G00X4.685Y-3.2008
M15
G01X4.6693Y-3.2008
M16
G05
T0
M30
