%TF.GenerationSoftware,KiCad,Pcbnew,5.1.6*%
%TF.CreationDate,2020-08-13T12:20:14+01:00*%
%TF.ProjectId,ferris,66657272-6973-42e6-9b69-6361645f7063,rev?*%
%TF.SameCoordinates,Original*%
%TF.FileFunction,Legend,Top*%
%TF.FilePolarity,Positive*%
%FSLAX46Y46*%
G04 Gerber Fmt 4.6, Leading zero omitted, Abs format (unit mm)*
G04 Created by KiCad (PCBNEW 5.1.6) date 2020-08-13 12:20:14*
%MOMM*%
%LPD*%
G01*
G04 APERTURE LIST*
%ADD10C,0.120000*%
%ADD11C,0.150000*%
G04 APERTURE END LIST*
D10*
%TO.C,Y1*%
X50750000Y-77700000D02*
X50750000Y-72300000D01*
X46250000Y-77700000D02*
X50750000Y-77700000D01*
%TO.C,J1*%
X116340000Y-52110000D02*
X106940000Y-52110000D01*
X106940000Y-57910000D02*
X106940000Y-55910000D01*
X106940000Y-54010000D02*
X106940000Y-52110000D01*
X116340000Y-57910000D02*
X116340000Y-55910000D01*
X116340000Y-54010000D02*
X116340000Y-52110000D01*
%TO.C,F1*%
X113397936Y-65090000D02*
X114602064Y-65090000D01*
X113397936Y-66910000D02*
X114602064Y-66910000D01*
%TO.C,R9*%
X125738748Y-72210000D02*
X126261252Y-72210000D01*
X125738748Y-70790000D02*
X126261252Y-70790000D01*
%TO.C,C10*%
X121738748Y-72210000D02*
X122261252Y-72210000D01*
X121738748Y-70790000D02*
X122261252Y-70790000D01*
D11*
%TO.C,U1*%
X64100000Y-69825000D02*
X64100000Y-68550000D01*
X64675000Y-80175000D02*
X64675000Y-79500000D01*
X54325000Y-80175000D02*
X54325000Y-79500000D01*
X54325000Y-69825000D02*
X54325000Y-70500000D01*
X64675000Y-69825000D02*
X64675000Y-70500000D01*
X54325000Y-69825000D02*
X55000000Y-69825000D01*
X54325000Y-80175000D02*
X55000000Y-80175000D01*
X64675000Y-80175000D02*
X64000000Y-80175000D01*
X64675000Y-69825000D02*
X64100000Y-69825000D01*
%TO.C,Jack1*%
X119000000Y-72950000D02*
X119000000Y-79050000D01*
X131100000Y-72950000D02*
X131100000Y-79050000D01*
X119000000Y-72950000D02*
X131100000Y-72950000D01*
X119000000Y-79050000D02*
X131100000Y-79050000D01*
X119000000Y-73200000D02*
X117000000Y-73200000D01*
X119000000Y-78800000D02*
X117000000Y-78800000D01*
X117000000Y-73200000D02*
X117000000Y-78800000D01*
D10*
%TO.C,D1_6*%
X162250000Y-40800000D02*
X162250000Y-38800000D01*
X162250000Y-38800000D02*
X158350000Y-38800000D01*
X162250000Y-40800000D02*
X158350000Y-40800000D01*
%TO.C,D0_7*%
X180250000Y-18300000D02*
X180250000Y-16300000D01*
X180250000Y-16300000D02*
X176350000Y-16300000D01*
X180250000Y-18300000D02*
X176350000Y-18300000D01*
%TO.C,D2_5*%
X144250000Y-60300000D02*
X144250000Y-58300000D01*
X144250000Y-58300000D02*
X140350000Y-58300000D01*
X144250000Y-60300000D02*
X140350000Y-60300000D01*
%TO.C,D0_5*%
X144250000Y-26300000D02*
X144250000Y-24300000D01*
X144250000Y-24300000D02*
X140350000Y-24300000D01*
X144250000Y-26300000D02*
X140350000Y-26300000D01*
%TO.C,D3_5*%
X131548557Y-85141025D02*
X130548557Y-83408975D01*
X130548557Y-83408975D02*
X127171058Y-85358975D01*
X131548557Y-85141025D02*
X128171058Y-87091025D01*
%TO.C,D1_9*%
X216250000Y-53300000D02*
X216250000Y-51300000D01*
X216250000Y-51300000D02*
X212350000Y-51300000D01*
X216250000Y-53300000D02*
X212350000Y-53300000D01*
%TO.C,C9*%
X130261252Y-72210000D02*
X129738748Y-72210000D01*
X130261252Y-70790000D02*
X129738748Y-70790000D01*
%TO.C,D0_6*%
X162250000Y-23800000D02*
X162250000Y-21800000D01*
X162250000Y-21800000D02*
X158350000Y-21800000D01*
X162250000Y-23800000D02*
X158350000Y-23800000D01*
%TO.C,D3_6*%
X151332152Y-77483583D02*
X150814514Y-75551731D01*
X150814514Y-75551731D02*
X147047403Y-76561126D01*
X151332152Y-77483583D02*
X147565041Y-78492977D01*
%TO.C,D2_8*%
X198250000Y-58300000D02*
X198250000Y-56300000D01*
X198250000Y-56300000D02*
X194350000Y-56300000D01*
X198250000Y-58300000D02*
X194350000Y-58300000D01*
%TO.C,D0_8*%
X198250000Y-24300000D02*
X198250000Y-22300000D01*
X198250000Y-22300000D02*
X194350000Y-22300000D01*
X198250000Y-24300000D02*
X194350000Y-24300000D01*
%TO.C,D0_9*%
X216250000Y-36200000D02*
X216250000Y-34200000D01*
X216250000Y-34200000D02*
X212350000Y-34200000D01*
X216250000Y-36200000D02*
X212350000Y-36200000D01*
%TO.C,D2_6*%
X162250000Y-57700000D02*
X162250000Y-55700000D01*
X162250000Y-55700000D02*
X158350000Y-55700000D01*
X162250000Y-57700000D02*
X158350000Y-57700000D01*
%TO.C,D1_7*%
X180250000Y-35300000D02*
X180250000Y-33300000D01*
X180250000Y-33300000D02*
X176350000Y-33300000D01*
X180250000Y-35300000D02*
X176350000Y-35300000D01*
%TO.C,U2*%
X126000000Y-70100000D02*
X129860000Y-70100000D01*
X129860000Y-70100000D02*
X129860000Y-69855000D01*
X126000000Y-70100000D02*
X122140000Y-70100000D01*
X122140000Y-70100000D02*
X122140000Y-69855000D01*
X126000000Y-51980000D02*
X129860000Y-51980000D01*
X129860000Y-51980000D02*
X129860000Y-52225000D01*
X126000000Y-51980000D02*
X122140000Y-51980000D01*
X122140000Y-51980000D02*
X122140000Y-52225000D01*
X122140000Y-52225000D02*
X120325000Y-52225000D01*
%TO.C,D1_8*%
X198250000Y-41200000D02*
X198250000Y-39200000D01*
X198250000Y-39200000D02*
X194350000Y-39200000D01*
X198250000Y-41200000D02*
X194350000Y-41200000D01*
%TO.C,D2_7*%
X180250000Y-52300000D02*
X180250000Y-50300000D01*
X180250000Y-50300000D02*
X176350000Y-50300000D01*
X180250000Y-52300000D02*
X176350000Y-52300000D01*
%TO.C,D2_9*%
X216250000Y-70200000D02*
X216250000Y-68200000D01*
X216250000Y-68200000D02*
X212350000Y-68200000D01*
X216250000Y-70200000D02*
X212350000Y-70200000D01*
%TO.C,D1_5*%
X144250000Y-43300000D02*
X144250000Y-41300000D01*
X144250000Y-41300000D02*
X140350000Y-41300000D01*
X144250000Y-43300000D02*
X140350000Y-43300000D01*
%TO.C,SW1*%
X41100000Y-78650000D02*
X41400000Y-78650000D01*
X41400000Y-78650000D02*
X41400000Y-75350000D01*
X41400000Y-75350000D02*
X41100000Y-75350000D01*
X38900000Y-78650000D02*
X38600000Y-78650000D01*
X38600000Y-78650000D02*
X38600000Y-75350000D01*
X38600000Y-75350000D02*
X38900000Y-75350000D01*
%TO.C,D3_4*%
X108288557Y-87271025D02*
X109288557Y-85538975D01*
X109288557Y-85538975D02*
X105911058Y-83588975D01*
X108288557Y-87271025D02*
X104911058Y-85321025D01*
%TO.C,D3_3*%
X89094514Y-78758269D02*
X89612152Y-76826417D01*
X89612152Y-76826417D02*
X85845041Y-75817023D01*
X89094514Y-78758269D02*
X85327403Y-77748874D01*
%TO.C,D2_4*%
X96250000Y-60250000D02*
X96250000Y-58250000D01*
X96250000Y-58250000D02*
X92350000Y-58250000D01*
X96250000Y-60250000D02*
X92350000Y-60250000D01*
%TO.C,D2_3*%
X78250000Y-57750000D02*
X78250000Y-55750000D01*
X78250000Y-55750000D02*
X74350000Y-55750000D01*
X78250000Y-57750000D02*
X74350000Y-57750000D01*
%TO.C,D2_2*%
X60250000Y-52000000D02*
X60250000Y-50000000D01*
X60250000Y-50000000D02*
X56350000Y-50000000D01*
X60250000Y-52000000D02*
X56350000Y-52000000D01*
%TO.C,D2_1*%
X42250000Y-58250000D02*
X42250000Y-56250000D01*
X42250000Y-56250000D02*
X38350000Y-56250000D01*
X42250000Y-58250000D02*
X38350000Y-58250000D01*
%TO.C,D2_0*%
X24250000Y-70250000D02*
X24250000Y-68250000D01*
X24250000Y-68250000D02*
X20350000Y-68250000D01*
X24250000Y-70250000D02*
X20350000Y-70250000D01*
%TO.C,D1_4*%
X96250000Y-43250000D02*
X96250000Y-41250000D01*
X96250000Y-41250000D02*
X92350000Y-41250000D01*
X96250000Y-43250000D02*
X92350000Y-43250000D01*
%TO.C,D1_3*%
X78250000Y-40500000D02*
X78250000Y-38500000D01*
X78250000Y-38500000D02*
X74350000Y-38500000D01*
X78250000Y-40500000D02*
X74350000Y-40500000D01*
%TO.C,D1_2*%
X60250000Y-35250000D02*
X60250000Y-33250000D01*
X60250000Y-33250000D02*
X56350000Y-33250000D01*
X60250000Y-35250000D02*
X56350000Y-35250000D01*
%TO.C,D1_1*%
X42250000Y-41250000D02*
X42250000Y-39250000D01*
X42250000Y-39250000D02*
X38350000Y-39250000D01*
X42250000Y-41250000D02*
X38350000Y-41250000D01*
%TO.C,D1_0*%
X24250000Y-53000000D02*
X24250000Y-51000000D01*
X24250000Y-51000000D02*
X20350000Y-51000000D01*
X24250000Y-53000000D02*
X20350000Y-53000000D01*
%TO.C,D0_4*%
X96250000Y-26250000D02*
X96250000Y-24250000D01*
X96250000Y-24250000D02*
X92350000Y-24250000D01*
X96250000Y-26250000D02*
X92350000Y-26250000D01*
%TO.C,D0_3*%
X78250000Y-23750000D02*
X78250000Y-21750000D01*
X78250000Y-21750000D02*
X74350000Y-21750000D01*
X78250000Y-23750000D02*
X74350000Y-23750000D01*
%TO.C,D0_2*%
X60250000Y-18250000D02*
X60250000Y-16250000D01*
X60250000Y-16250000D02*
X56350000Y-16250000D01*
X60250000Y-18250000D02*
X56350000Y-18250000D01*
%TO.C,D0_1*%
X42250000Y-24250000D02*
X42250000Y-22250000D01*
X42250000Y-22250000D02*
X38350000Y-22250000D01*
X42250000Y-24250000D02*
X38350000Y-24250000D01*
%TO.C,D0_0*%
X24250000Y-36000000D02*
X24250000Y-34000000D01*
X24250000Y-34000000D02*
X20350000Y-34000000D01*
X24250000Y-36000000D02*
X20350000Y-36000000D01*
%TO.C,C3*%
X50261252Y-81290000D02*
X49738748Y-81290000D01*
X50261252Y-82710000D02*
X49738748Y-82710000D01*
%TO.C,R8*%
X114690000Y-69738748D02*
X114690000Y-70261252D01*
X116110000Y-69738748D02*
X116110000Y-70261252D01*
%TO.C,R7*%
X113680000Y-70261252D02*
X113680000Y-69738748D01*
X112260000Y-70261252D02*
X112260000Y-69738748D01*
%TO.C,R6*%
X108738748Y-63710000D02*
X109261252Y-63710000D01*
X108738748Y-62290000D02*
X109261252Y-62290000D01*
%TO.C,R5*%
X114761252Y-62290000D02*
X114238748Y-62290000D01*
X114761252Y-63710000D02*
X114238748Y-63710000D01*
%TO.C,R4*%
X108710000Y-70261252D02*
X108710000Y-69738748D01*
X107290000Y-70261252D02*
X107290000Y-69738748D01*
%TO.C,R3*%
X111240000Y-70261252D02*
X111240000Y-69738748D01*
X109820000Y-70261252D02*
X109820000Y-69738748D01*
%TO.C,R2*%
X69421252Y-80290000D02*
X68898748Y-80290000D01*
X69421252Y-81710000D02*
X68898748Y-81710000D01*
%TO.C,R1*%
X39713748Y-72710000D02*
X40236252Y-72710000D01*
X39713748Y-71290000D02*
X40236252Y-71290000D01*
%TO.C,C8*%
X60210000Y-66261252D02*
X60210000Y-65738748D01*
X58790000Y-66261252D02*
X58790000Y-65738748D01*
%TO.C,C7*%
X69471252Y-73290000D02*
X68948748Y-73290000D01*
X69471252Y-74710000D02*
X68948748Y-74710000D01*
%TO.C,C6*%
X69441252Y-76790000D02*
X68918748Y-76790000D01*
X69441252Y-78210000D02*
X68918748Y-78210000D01*
%TO.C,C5*%
X50261252Y-67290000D02*
X49738748Y-67290000D01*
X50261252Y-68710000D02*
X49738748Y-68710000D01*
%TO.C,C4*%
X57710000Y-66286252D02*
X57710000Y-65763748D01*
X56290000Y-66286252D02*
X56290000Y-65763748D01*
%TO.C,C2*%
X49261252Y-70290000D02*
X48738748Y-70290000D01*
X49261252Y-71710000D02*
X48738748Y-71710000D01*
%TO.C,C1*%
X49261252Y-78290000D02*
X48738748Y-78290000D01*
X49261252Y-79710000D02*
X48738748Y-79710000D01*
D11*
%TO.C,Jack0*%
X117000000Y-79050000D02*
X117000000Y-72950000D01*
X104900000Y-79050000D02*
X104900000Y-72950000D01*
X117000000Y-79050000D02*
X104900000Y-79050000D01*
X117000000Y-72950000D02*
X104900000Y-72950000D01*
X117000000Y-78800000D02*
X119000000Y-78800000D01*
X117000000Y-73200000D02*
X119000000Y-73200000D01*
X119000000Y-78800000D02*
X119000000Y-73200000D01*
%TD*%
M02*
