%TF.GenerationSoftware,KiCad,Pcbnew,5.1.6*%
%TF.CreationDate,2020-08-13T18:56:40+01:00*%
%TF.ProjectId,ferris,66657272-6973-42e6-9b69-6361645f7063,rev?*%
%TF.SameCoordinates,Original*%
%TF.FileFunction,Copper,L2,Bot*%
%TF.FilePolarity,Positive*%
%FSLAX46Y46*%
G04 Gerber Fmt 4.6, Leading zero omitted, Abs format (unit mm)*
G04 Created by KiCad (PCBNEW 5.1.6) date 2020-08-13 18:56:40*
%MOMM*%
%LPD*%
G01*
G04 APERTURE LIST*
%TA.AperFunction,ComponentPad*%
%ADD10C,2.032000*%
%TD*%
%TA.AperFunction,ComponentPad*%
%ADD11O,1.000000X2.100000*%
%TD*%
%TA.AperFunction,ComponentPad*%
%ADD12O,1.000000X1.600000*%
%TD*%
%TA.AperFunction,ComponentPad*%
%ADD13O,2.000000X1.600000*%
%TD*%
%TA.AperFunction,ViaPad*%
%ADD14C,0.800000*%
%TD*%
%TA.AperFunction,Conductor*%
%ADD15C,0.381000*%
%TD*%
%TA.AperFunction,Conductor*%
%ADD16C,0.254000*%
%TD*%
G04 APERTURE END LIST*
D10*
%TO.P,K0_0,1*%
%TO.N,/col0*%
X22000000Y-45900000D03*
%TO.P,K0_0,2*%
%TO.N,Net-(D0_0-Pad2)*%
X17000000Y-43800000D03*
%TD*%
%TO.P,K0_1,1*%
%TO.N,/col1*%
X40000000Y-33900000D03*
%TO.P,K0_1,2*%
%TO.N,Net-(D0_1-Pad2)*%
X35000000Y-31800000D03*
%TD*%
%TO.P,K0_2,1*%
%TO.N,/col2*%
X58000000Y-27900000D03*
%TO.P,K0_2,2*%
%TO.N,Net-(D0_2-Pad2)*%
X53000000Y-25800000D03*
%TD*%
%TO.P,K0_3,1*%
%TO.N,/col3*%
X76000000Y-33400000D03*
%TO.P,K0_3,2*%
%TO.N,Net-(D0_3-Pad2)*%
X71000000Y-31300000D03*
%TD*%
%TO.P,K0_4,1*%
%TO.N,/col4*%
X94000000Y-35900000D03*
%TO.P,K0_4,2*%
%TO.N,Net-(D0_4-Pad2)*%
X89000000Y-33800000D03*
%TD*%
%TO.P,K0_5,1*%
%TO.N,/col5*%
X142000000Y-35900000D03*
%TO.P,K0_5,2*%
%TO.N,Net-(D0_5-Pad2)*%
X137000000Y-33800000D03*
%TD*%
%TO.P,K0_6,1*%
%TO.N,/col6*%
X160000000Y-33400000D03*
%TO.P,K0_6,2*%
%TO.N,Net-(D0_6-Pad2)*%
X155000000Y-31300000D03*
%TD*%
%TO.P,K0_7,1*%
%TO.N,/col7*%
X178000000Y-27900000D03*
%TO.P,K0_7,2*%
%TO.N,Net-(D0_7-Pad2)*%
X173000000Y-25800000D03*
%TD*%
%TO.P,K0_8,1*%
%TO.N,/col8*%
X196000000Y-33900000D03*
%TO.P,K0_8,2*%
%TO.N,Net-(D0_8-Pad2)*%
X191000000Y-31800000D03*
%TD*%
%TO.P,K0_9,1*%
%TO.N,/col9*%
X214000000Y-45900000D03*
%TO.P,K0_9,2*%
%TO.N,Net-(D0_9-Pad2)*%
X209000000Y-43800000D03*
%TD*%
%TO.P,K1_0,1*%
%TO.N,/col0*%
X22000000Y-62900000D03*
%TO.P,K1_0,2*%
%TO.N,Net-(D1_0-Pad2)*%
X17000000Y-60800000D03*
%TD*%
%TO.P,K1_1,1*%
%TO.N,/col1*%
X40000000Y-50900000D03*
%TO.P,K1_1,2*%
%TO.N,Net-(D1_1-Pad2)*%
X35000000Y-48800000D03*
%TD*%
%TO.P,K1_2,1*%
%TO.N,/col2*%
X58000000Y-44900000D03*
%TO.P,K1_2,2*%
%TO.N,Net-(D1_2-Pad2)*%
X53000000Y-42800000D03*
%TD*%
%TO.P,K1_3,1*%
%TO.N,/col3*%
X76000000Y-50400000D03*
%TO.P,K1_3,2*%
%TO.N,Net-(D1_3-Pad2)*%
X71000000Y-48300000D03*
%TD*%
%TO.P,K1_4,1*%
%TO.N,/col4*%
X94000000Y-52900000D03*
%TO.P,K1_4,2*%
%TO.N,Net-(D1_4-Pad2)*%
X89000000Y-50800000D03*
%TD*%
%TO.P,K1_5,1*%
%TO.N,/col5*%
X142000000Y-52900000D03*
%TO.P,K1_5,2*%
%TO.N,Net-(D1_5-Pad2)*%
X137000000Y-50800000D03*
%TD*%
%TO.P,K1_6,1*%
%TO.N,/col6*%
X160000000Y-50400000D03*
%TO.P,K1_6,2*%
%TO.N,Net-(D1_6-Pad2)*%
X155000000Y-48300000D03*
%TD*%
%TO.P,K1_7,1*%
%TO.N,/col7*%
X178000000Y-44900000D03*
%TO.P,K1_7,2*%
%TO.N,Net-(D1_7-Pad2)*%
X173000000Y-42800000D03*
%TD*%
%TO.P,K1_8,1*%
%TO.N,/col8*%
X196000000Y-50900000D03*
%TO.P,K1_8,2*%
%TO.N,Net-(D1_8-Pad2)*%
X191000000Y-48800000D03*
%TD*%
%TO.P,K1_9,1*%
%TO.N,/col9*%
X214000000Y-62900000D03*
%TO.P,K1_9,2*%
%TO.N,Net-(D1_9-Pad2)*%
X209000000Y-60800000D03*
%TD*%
%TO.P,K2_0,1*%
%TO.N,/col0*%
X22000000Y-79900000D03*
%TO.P,K2_0,2*%
%TO.N,Net-(D2_0-Pad2)*%
X17000000Y-77800000D03*
%TD*%
%TO.P,K2_1,1*%
%TO.N,/col1*%
X40000000Y-67900000D03*
%TO.P,K2_1,2*%
%TO.N,Net-(D2_1-Pad2)*%
X35000000Y-65800000D03*
%TD*%
%TO.P,K2_2,1*%
%TO.N,/col2*%
X58000000Y-61900000D03*
%TO.P,K2_2,2*%
%TO.N,Net-(D2_2-Pad2)*%
X53000000Y-59800000D03*
%TD*%
%TO.P,K2_3,1*%
%TO.N,/col3*%
X76000000Y-67400000D03*
%TO.P,K2_3,2*%
%TO.N,Net-(D2_3-Pad2)*%
X71000000Y-65300000D03*
%TD*%
%TO.P,K2_4,1*%
%TO.N,/col4*%
X94000000Y-69900000D03*
%TO.P,K2_4,2*%
%TO.N,Net-(D2_4-Pad2)*%
X89000000Y-67800000D03*
%TD*%
%TO.P,K2_5,1*%
%TO.N,/col5*%
X142000000Y-69900000D03*
%TO.P,K2_5,2*%
%TO.N,Net-(D2_5-Pad2)*%
X137000000Y-67800000D03*
%TD*%
%TO.P,K2_6,1*%
%TO.N,/col6*%
X160000000Y-67400000D03*
%TO.P,K2_6,2*%
%TO.N,Net-(D2_6-Pad2)*%
X155000000Y-65300000D03*
%TD*%
%TO.P,K,1*%
%TO.N,/col7*%
X178000000Y-61900000D03*
%TO.P,K,2*%
%TO.N,Net-(D2_7-Pad2)*%
X173000000Y-59800000D03*
%TD*%
%TO.P,K2_8,1*%
%TO.N,/col8*%
X196000000Y-67900000D03*
%TO.P,K2_8,2*%
%TO.N,Net-(D2_8-Pad2)*%
X191000000Y-65800000D03*
%TD*%
%TO.P,K2_9,1*%
%TO.N,/col9*%
X214000000Y-79900000D03*
%TO.P,K2_9,2*%
%TO.N,Net-(D2_9-Pad2)*%
X209000000Y-77800000D03*
%TD*%
%TO.P,K3_3,1*%
%TO.N,/col3*%
X84442968Y-87398962D03*
%TO.P,K3_3,2*%
%TO.N,Net-(D3_3-Pad2)*%
X80156858Y-84076423D03*
%TD*%
%TO.P,K3_4,1*%
%TO.N,/col4*%
X101580000Y-94519550D03*
%TO.P,K3_4,2*%
%TO.N,Net-(D3_4-Pad2)*%
X98299873Y-90200897D03*
%TD*%
%TO.P,K3_5,1*%
%TO.N,/col5*%
X134420000Y-94519550D03*
%TO.P,K3_5,2*%
%TO.N,Net-(D3_5-Pad2)*%
X129039873Y-95200897D03*
%TD*%
%TO.P,K3_6,1*%
%TO.N,/col6*%
X151657032Y-87398962D03*
%TO.P,K3_6,2*%
%TO.N,Net-(D3_6-Pad2)*%
X146283883Y-86664613D03*
%TD*%
D11*
%TO.P,J1,S1*%
%TO.N,GND*%
X107320000Y-59140000D03*
X115960000Y-59140000D03*
D12*
X115960000Y-54960000D03*
X107320000Y-54960000D03*
%TD*%
D13*
%TO.P,Jack1,R1*%
%TO.N,Net-(Jack1-PadR1)*%
X125200000Y-73700000D03*
%TO.P,Jack1,R2*%
%TO.N,VDD*%
X122200000Y-73700000D03*
%TO.P,Jack1,T*%
%TO.N,Net-(Jack1-PadT)*%
X129200000Y-73700000D03*
%TO.P,Jack1,S*%
%TO.N,VSS*%
X130300000Y-78300000D03*
%TD*%
%TO.P,Jack0,R1*%
%TO.N,Net-(Jack0-PadR1)*%
X110800000Y-78300000D03*
%TO.P,Jack0,R2*%
%TO.N,+5V*%
X113800000Y-78300000D03*
%TO.P,Jack0,T*%
%TO.N,Net-(Jack0-PadT)*%
X106800000Y-78300000D03*
%TO.P,Jack0,S*%
%TO.N,GND*%
X105700000Y-73700000D03*
%TD*%
D14*
%TO.N,+5V*%
X58250000Y-67830000D03*
X71750000Y-73890000D03*
X71790000Y-77440000D03*
X51140000Y-69260000D03*
X52910000Y-66910000D03*
%TO.N,/col4*%
X61100000Y-79240000D03*
%TO.N,Net-(Jack0-PadR1)*%
X61281760Y-72421702D03*
X65200000Y-69649468D03*
%TO.N,Net-(Jack0-PadT)*%
X60400000Y-71950000D03*
X64516489Y-68843967D03*
%TO.N,Net-(Jack1-PadR1)*%
X122880000Y-68070000D03*
%TO.N,Net-(Jack1-PadT)*%
X123040000Y-66840000D03*
%TO.N,/col0*%
X57955840Y-79263473D03*
%TO.N,/col2*%
X59550000Y-78440000D03*
%TO.N,/col1*%
X58366061Y-78284195D03*
%TO.N,/col3*%
X60830000Y-78080000D03*
%TO.N,/row0\u002C0*%
X53670000Y-69180000D03*
X47855000Y-17045000D03*
%TO.N,/row0\u002C1*%
X54540000Y-70027000D03*
X48577001Y-33322999D03*
%TO.N,/row0\u002C2*%
X55551724Y-71104001D03*
X49304001Y-50072999D03*
%TO.N,Net-(R9-Pad1)*%
X127815500Y-68888354D03*
X124978231Y-67171769D03*
%TO.N,GND*%
X112117000Y-64440000D03*
X110200010Y-64440000D03*
X51720000Y-74620000D03*
X51414989Y-71180000D03*
%TD*%
D15*
%TO.N,+5V*%
X71800000Y-73940000D02*
X71750000Y-73890000D01*
X65690000Y-67830000D02*
X71750000Y-73890000D01*
X58250000Y-67830000D02*
X65690000Y-67830000D01*
X71790000Y-76730000D02*
X71800000Y-76720000D01*
X71800000Y-76720000D02*
X71800000Y-73940000D01*
X71790000Y-77440000D02*
X71790000Y-76730000D01*
X71800000Y-76920000D02*
X71800000Y-76720000D01*
X71790000Y-73930000D02*
X71750000Y-73890000D01*
X71790000Y-77440000D02*
X71790000Y-73930000D01*
X51140000Y-68680000D02*
X52910000Y-66910000D01*
X51140000Y-69260000D02*
X51140000Y-68680000D01*
D16*
%TO.N,/col4*%
X91958499Y-50858499D02*
X94000000Y-52900000D01*
X91958499Y-37941501D02*
X91958499Y-50858499D01*
X94000000Y-35900000D02*
X91958499Y-37941501D01*
X91958499Y-67858499D02*
X94000000Y-69900000D01*
X91958499Y-54941501D02*
X91958499Y-67858499D01*
X94000000Y-52900000D02*
X91958499Y-54941501D01*
X101580000Y-91493382D02*
X101580000Y-94519550D01*
X94000000Y-83913382D02*
X101580000Y-91493382D01*
X94000000Y-69900000D02*
X94000000Y-83913382D01*
X61100000Y-79240000D02*
X73380000Y-79240000D01*
X100630884Y-94519550D02*
X101580000Y-94519550D01*
X94853297Y-88741963D02*
X100630884Y-94519550D01*
X82881963Y-88741963D02*
X94853297Y-88741963D01*
X73380000Y-79240000D02*
X82881963Y-88741963D01*
%TO.N,Net-(Jack0-PadR1)*%
X64053994Y-69649468D02*
X65200000Y-69649468D01*
X61281760Y-72421702D02*
X64053994Y-69649468D01*
%TO.N,Net-(Jack0-PadT)*%
X63506033Y-68843967D02*
X64516489Y-68843967D01*
X60400000Y-71950000D02*
X63506033Y-68843967D01*
%TO.N,Net-(Jack1-PadR1)*%
X125200000Y-70390000D02*
X122880000Y-68070000D01*
X125200000Y-73700000D02*
X125200000Y-70390000D01*
%TO.N,Net-(Jack1-PadT)*%
X129200000Y-73000000D02*
X123040000Y-66840000D01*
X129200000Y-73700000D02*
X129200000Y-73000000D01*
%TO.N,/col0*%
X19958499Y-60858499D02*
X22000000Y-62900000D01*
X19958499Y-47941501D02*
X19958499Y-60858499D01*
X22000000Y-45900000D02*
X19958499Y-47941501D01*
X19958499Y-77858499D02*
X22000000Y-79900000D01*
X19958499Y-64941501D02*
X19958499Y-77858499D01*
X22000000Y-62900000D02*
X19958499Y-64941501D01*
X57955840Y-79263473D02*
X54889313Y-82330000D01*
X24430000Y-82330000D02*
X22000000Y-79900000D01*
X54889313Y-82330000D02*
X24430000Y-82330000D01*
%TO.N,/col8*%
X198041501Y-52941501D02*
X196000000Y-50900000D01*
X198041501Y-65858499D02*
X198041501Y-52941501D01*
X196000000Y-67900000D02*
X198041501Y-65858499D01*
X198041501Y-35941501D02*
X196000000Y-33900000D01*
X198041501Y-48858499D02*
X198041501Y-35941501D01*
X196000000Y-50900000D02*
X198041501Y-48858499D01*
%TO.N,/col5*%
X142000000Y-86939550D02*
X142000000Y-69900000D01*
X134420000Y-94519550D02*
X142000000Y-86939550D01*
X144041501Y-50858499D02*
X144041501Y-37941501D01*
X142000000Y-52900000D02*
X144041501Y-50858499D01*
X144041501Y-37941501D02*
X142000000Y-35900000D01*
X144041501Y-67858499D02*
X144041501Y-54941501D01*
X144041501Y-54941501D02*
X142000000Y-52900000D01*
X142000000Y-69900000D02*
X144041501Y-67858499D01*
%TO.N,/col2*%
X55958499Y-42858499D02*
X58000000Y-44900000D01*
X55958499Y-29941501D02*
X55958499Y-42858499D01*
X58000000Y-27900000D02*
X55958499Y-29941501D01*
X55958499Y-59858499D02*
X58000000Y-61900000D01*
X55958499Y-46941501D02*
X55958499Y-59858499D01*
X58000000Y-44900000D02*
X55958499Y-46941501D01*
X56984001Y-75874001D02*
X59550000Y-78440000D01*
X56984001Y-62915999D02*
X56984001Y-75874001D01*
X58000000Y-61900000D02*
X56984001Y-62915999D01*
%TO.N,/col1*%
X37958499Y-65858499D02*
X40000000Y-67900000D01*
X37958499Y-52941501D02*
X37958499Y-65858499D01*
X40000000Y-50900000D02*
X37958499Y-52941501D01*
X57800376Y-78284195D02*
X54364571Y-81720000D01*
X58366061Y-78284195D02*
X57800376Y-78284195D01*
X41170000Y-81720000D02*
X40580000Y-81130000D01*
X54364571Y-81720000D02*
X41170000Y-81720000D01*
X40580000Y-68480000D02*
X40000000Y-67900000D01*
X40580000Y-81130000D02*
X40580000Y-68480000D01*
X37958499Y-35941501D02*
X40000000Y-33900000D01*
X37958499Y-48858499D02*
X37958499Y-35941501D01*
X40000000Y-50900000D02*
X37958499Y-48858499D01*
%TO.N,/col3*%
X73958499Y-48358499D02*
X76000000Y-50400000D01*
X73958499Y-35441501D02*
X73958499Y-48358499D01*
X76000000Y-33400000D02*
X73958499Y-35441501D01*
X73958499Y-65358499D02*
X76000000Y-67400000D01*
X73958499Y-52441501D02*
X73958499Y-65358499D01*
X76000000Y-50400000D02*
X73958499Y-52441501D01*
X84442968Y-85805349D02*
X84442968Y-87398962D01*
X61229999Y-78479999D02*
X77117617Y-78479999D01*
X60830000Y-78080000D02*
X61229999Y-78479999D01*
X77117617Y-78479999D02*
X77163809Y-78526191D01*
X77163809Y-78526191D02*
X84442968Y-85805349D01*
X77163809Y-68563809D02*
X76000000Y-67400000D01*
X77163809Y-78526191D02*
X77163809Y-68563809D01*
%TO.N,/col6*%
X156620493Y-70779507D02*
X160000000Y-67400000D01*
X156620493Y-82435501D02*
X156620493Y-70779507D01*
X151657032Y-87398962D02*
X156620493Y-82435501D01*
X162041501Y-52441501D02*
X160000000Y-50400000D01*
X162041501Y-65358499D02*
X162041501Y-52441501D01*
X160000000Y-67400000D02*
X162041501Y-65358499D01*
X162041501Y-35441501D02*
X160000000Y-33400000D01*
X162041501Y-48358499D02*
X162041501Y-35441501D01*
X160000000Y-50400000D02*
X162041501Y-48358499D01*
%TO.N,/col7*%
X180041501Y-46941501D02*
X178000000Y-44900000D01*
X180041501Y-59858499D02*
X180041501Y-46941501D01*
X178000000Y-61900000D02*
X180041501Y-59858499D01*
X180041501Y-29941501D02*
X178000000Y-27900000D01*
X180041501Y-42858499D02*
X180041501Y-29941501D01*
X178000000Y-44900000D02*
X180041501Y-42858499D01*
%TO.N,/col9*%
X216041501Y-47941501D02*
X214000000Y-45900000D01*
X216041501Y-60858499D02*
X216041501Y-47941501D01*
X214000000Y-62900000D02*
X216041501Y-60858499D01*
X216041501Y-64941501D02*
X214000000Y-62900000D01*
X216041501Y-77858499D02*
X216041501Y-64941501D01*
X214000000Y-79900000D02*
X216041501Y-77858499D01*
%TO.N,/row0\u002C0*%
X53670000Y-69180000D02*
X53670000Y-66594038D01*
X47850000Y-17050000D02*
X47855000Y-17045000D01*
X47850000Y-60774038D02*
X47850000Y-17050000D01*
X53670000Y-66594038D02*
X47850000Y-60774038D01*
%TO.N,/row0\u002C1*%
X54540000Y-66821972D02*
X54540000Y-70027000D01*
X48577001Y-60858973D02*
X54540000Y-66821972D01*
X48577001Y-33322999D02*
X48577001Y-60858973D01*
%TO.N,/row0\u002C2*%
X55551724Y-67191630D02*
X55551724Y-71104001D01*
X49304001Y-60943907D02*
X55551724Y-67191630D01*
X49304001Y-50072999D02*
X49304001Y-60943907D01*
%TO.N,Net-(R9-Pad1)*%
X126694816Y-68888354D02*
X124978231Y-67171769D01*
X127815500Y-68888354D02*
X126694816Y-68888354D01*
%TO.N,GND*%
X112117000Y-64440000D02*
X110200010Y-64440000D01*
D15*
X51720000Y-71485011D02*
X51414989Y-71180000D01*
X51720000Y-74620000D02*
X51720000Y-71485011D01*
%TD*%
D16*
%TO.N,GND*%
G36*
X52542769Y-80424149D02*
G01*
X45146767Y-80462821D01*
X45127231Y-69775852D01*
X50222362Y-69749211D01*
X50222795Y-69750256D01*
X50336063Y-69919774D01*
X50480226Y-70063937D01*
X50649744Y-70177205D01*
X50838102Y-70255226D01*
X51038061Y-70295000D01*
X51241939Y-70295000D01*
X51441898Y-70255226D01*
X51630256Y-70177205D01*
X51799774Y-70063937D01*
X51943937Y-69919774D01*
X52057205Y-69750256D01*
X52061622Y-69739594D01*
X52523233Y-69737180D01*
X52542769Y-80424149D01*
G37*
X52542769Y-80424149D02*
X45146767Y-80462821D01*
X45127231Y-69775852D01*
X50222362Y-69749211D01*
X50222795Y-69750256D01*
X50336063Y-69919774D01*
X50480226Y-70063937D01*
X50649744Y-70177205D01*
X50838102Y-70255226D01*
X51038061Y-70295000D01*
X51241939Y-70295000D01*
X51441898Y-70255226D01*
X51630256Y-70177205D01*
X51799774Y-70063937D01*
X51943937Y-69919774D01*
X52057205Y-69750256D01*
X52061622Y-69739594D01*
X52523233Y-69737180D01*
X52542769Y-80424149D01*
%TD*%
M02*
