%TF.GenerationSoftware,KiCad,Pcbnew,5.1.6*%
%TF.CreationDate,2020-08-13T12:20:14+01:00*%
%TF.ProjectId,ferris,66657272-6973-42e6-9b69-6361645f7063,rev?*%
%TF.SameCoordinates,Original*%
%TF.FileFunction,Copper,L1,Top*%
%TF.FilePolarity,Positive*%
%FSLAX46Y46*%
G04 Gerber Fmt 4.6, Leading zero omitted, Abs format (unit mm)*
G04 Created by KiCad (PCBNEW 5.1.6) date 2020-08-13 12:20:14*
%MOMM*%
%LPD*%
G01*
G04 APERTURE LIST*
%TA.AperFunction,EtchedComponent*%
%ADD10C,0.010000*%
%TD*%
%TA.AperFunction,SMDPad,CuDef*%
%ADD11R,1.800000X2.100000*%
%TD*%
%TA.AperFunction,ComponentPad*%
%ADD12C,2.032000*%
%TD*%
%TA.AperFunction,SMDPad,CuDef*%
%ADD13R,0.600000X1.450000*%
%TD*%
%TA.AperFunction,SMDPad,CuDef*%
%ADD14R,0.300000X1.450000*%
%TD*%
%TA.AperFunction,ComponentPad*%
%ADD15O,1.000000X2.100000*%
%TD*%
%TA.AperFunction,ComponentPad*%
%ADD16O,1.000000X1.600000*%
%TD*%
%TA.AperFunction,SMDPad,CuDef*%
%ADD17R,1.500000X0.550000*%
%TD*%
%TA.AperFunction,SMDPad,CuDef*%
%ADD18R,0.550000X1.500000*%
%TD*%
%TA.AperFunction,ComponentPad*%
%ADD19O,2.000000X1.600000*%
%TD*%
%TA.AperFunction,SMDPad,CuDef*%
%ADD20R,0.900000X1.200000*%
%TD*%
%TA.AperFunction,SMDPad,CuDef*%
%ADD21C,0.100000*%
%TD*%
%TA.AperFunction,SMDPad,CuDef*%
%ADD22R,1.700000X0.900000*%
%TD*%
%TA.AperFunction,ViaPad*%
%ADD23C,0.800000*%
%TD*%
%TA.AperFunction,Conductor*%
%ADD24C,0.381000*%
%TD*%
%TA.AperFunction,Conductor*%
%ADD25C,0.254000*%
%TD*%
G04 APERTURE END LIST*
D10*
%TO.C,G\u002A\u002A\u002A*%
G36*
X177050354Y-76912532D02*
G01*
X177076994Y-76918319D01*
X177218284Y-76978100D01*
X177348106Y-77085323D01*
X177454588Y-77220513D01*
X177520011Y-77350581D01*
X177569174Y-77511798D01*
X177598579Y-77686141D01*
X177604733Y-77855589D01*
X177595711Y-77948017D01*
X177549039Y-78125243D01*
X177473958Y-78276581D01*
X177375705Y-78397194D01*
X177259515Y-78482241D01*
X177130626Y-78526885D01*
X176994276Y-78526287D01*
X176974295Y-78522180D01*
X176853110Y-78472998D01*
X176730115Y-78386242D01*
X176619073Y-78272692D01*
X176569661Y-78205166D01*
X176505284Y-78074289D01*
X176457085Y-77913026D01*
X176428739Y-77740224D01*
X176423919Y-77574735D01*
X176431866Y-77498219D01*
X176479733Y-77313452D01*
X176555751Y-77158095D01*
X176655369Y-77036235D01*
X176774042Y-76951963D01*
X176907219Y-76909366D01*
X177050354Y-76912532D01*
G37*
X177050354Y-76912532D02*
X177076994Y-76918319D01*
X177218284Y-76978100D01*
X177348106Y-77085323D01*
X177454588Y-77220513D01*
X177520011Y-77350581D01*
X177569174Y-77511798D01*
X177598579Y-77686141D01*
X177604733Y-77855589D01*
X177595711Y-77948017D01*
X177549039Y-78125243D01*
X177473958Y-78276581D01*
X177375705Y-78397194D01*
X177259515Y-78482241D01*
X177130626Y-78526885D01*
X176994276Y-78526287D01*
X176974295Y-78522180D01*
X176853110Y-78472998D01*
X176730115Y-78386242D01*
X176619073Y-78272692D01*
X176569661Y-78205166D01*
X176505284Y-78074289D01*
X176457085Y-77913026D01*
X176428739Y-77740224D01*
X176423919Y-77574735D01*
X176431866Y-77498219D01*
X176479733Y-77313452D01*
X176555751Y-77158095D01*
X176655369Y-77036235D01*
X176774042Y-76951963D01*
X176907219Y-76909366D01*
X177050354Y-76912532D01*
G36*
X182040763Y-76313584D02*
G01*
X182181338Y-76385721D01*
X182258063Y-76446248D01*
X182373246Y-76578357D01*
X182457943Y-76736787D01*
X182512020Y-76912510D01*
X182535337Y-77096495D01*
X182527762Y-77279713D01*
X182489155Y-77453134D01*
X182419382Y-77607730D01*
X182318307Y-77734471D01*
X182278017Y-77768676D01*
X182147996Y-77837526D01*
X182003716Y-77861989D01*
X181858536Y-77840311D01*
X181825130Y-77828084D01*
X181692922Y-77747199D01*
X181579384Y-77625195D01*
X181488922Y-77469710D01*
X181425943Y-77288384D01*
X181394852Y-77088854D01*
X181394386Y-77081470D01*
X181396091Y-76889848D01*
X181428720Y-76727357D01*
X181495659Y-76580437D01*
X181534372Y-76520747D01*
X181646534Y-76395223D01*
X181770336Y-76318647D01*
X181902754Y-76291331D01*
X182040763Y-76313584D01*
G37*
X182040763Y-76313584D02*
X182181338Y-76385721D01*
X182258063Y-76446248D01*
X182373246Y-76578357D01*
X182457943Y-76736787D01*
X182512020Y-76912510D01*
X182535337Y-77096495D01*
X182527762Y-77279713D01*
X182489155Y-77453134D01*
X182419382Y-77607730D01*
X182318307Y-77734471D01*
X182278017Y-77768676D01*
X182147996Y-77837526D01*
X182003716Y-77861989D01*
X181858536Y-77840311D01*
X181825130Y-77828084D01*
X181692922Y-77747199D01*
X181579384Y-77625195D01*
X181488922Y-77469710D01*
X181425943Y-77288384D01*
X181394852Y-77088854D01*
X181394386Y-77081470D01*
X181396091Y-76889848D01*
X181428720Y-76727357D01*
X181495659Y-76580437D01*
X181534372Y-76520747D01*
X181646534Y-76395223D01*
X181770336Y-76318647D01*
X181902754Y-76291331D01*
X182040763Y-76313584D01*
G36*
X178337556Y-68000608D02*
G01*
X178436024Y-68025504D01*
X178446994Y-68031072D01*
X178491492Y-68068225D01*
X178562878Y-68144542D01*
X178659012Y-68257497D01*
X178777756Y-68404562D01*
X178916971Y-68583213D01*
X178940863Y-68614378D01*
X179085142Y-68800622D01*
X179204210Y-68949299D01*
X179297197Y-69059383D01*
X179363228Y-69129845D01*
X179401428Y-69159655D01*
X179404580Y-69160539D01*
X179463436Y-69162918D01*
X179542787Y-69158331D01*
X179560428Y-69156420D01*
X179589657Y-69152530D01*
X179615862Y-69145793D01*
X179642331Y-69132206D01*
X179672348Y-69107762D01*
X179709196Y-69068457D01*
X179756164Y-69010286D01*
X179816536Y-68929246D01*
X179893595Y-68821329D01*
X179990629Y-68682533D01*
X180110922Y-68508852D01*
X180213738Y-68360012D01*
X180312672Y-68218847D01*
X180390717Y-68114668D01*
X180454496Y-68041754D01*
X180510630Y-67994385D01*
X180565743Y-67966840D01*
X180626458Y-67953401D01*
X180689978Y-67948693D01*
X180823386Y-67961584D01*
X180930076Y-68015046D01*
X181017020Y-68110564D01*
X181040047Y-68150079D01*
X181081972Y-68227949D01*
X181139085Y-68337039D01*
X181207670Y-68470217D01*
X181284018Y-68620345D01*
X181336197Y-68723938D01*
X181414681Y-68878849D01*
X181487180Y-69019113D01*
X181550172Y-69138144D01*
X181600135Y-69229351D01*
X181633548Y-69286146D01*
X181645107Y-69301824D01*
X181687574Y-69320658D01*
X181760270Y-69339746D01*
X181806748Y-69348391D01*
X181936389Y-69368932D01*
X182425025Y-68899011D01*
X182572580Y-68757464D01*
X182688965Y-68647160D01*
X182779405Y-68563902D01*
X182849126Y-68503492D01*
X182903354Y-68461732D01*
X182947311Y-68434424D01*
X182986227Y-68417373D01*
X183025325Y-68406379D01*
X183043059Y-68402559D01*
X183134538Y-68389705D01*
X183204482Y-68398243D01*
X183266582Y-68424417D01*
X183342191Y-68474162D01*
X183405876Y-68533629D01*
X183413399Y-68543022D01*
X183438063Y-68592038D01*
X183473730Y-68686621D01*
X183519172Y-68823032D01*
X183573156Y-68997532D01*
X183634452Y-69206384D01*
X183651893Y-69267459D01*
X183701297Y-69440818D01*
X183746194Y-69597223D01*
X183784727Y-69730297D01*
X183815039Y-69833662D01*
X183835271Y-69900940D01*
X183843569Y-69925752D01*
X183843580Y-69925760D01*
X183868113Y-69937197D01*
X183925568Y-69962606D01*
X183984596Y-69988292D01*
X184119727Y-70046744D01*
X184689573Y-69685692D01*
X184863450Y-69575932D01*
X185000539Y-69490690D01*
X185106687Y-69426859D01*
X185187738Y-69381332D01*
X185249536Y-69351001D01*
X185297927Y-69332760D01*
X185338754Y-69323500D01*
X185377153Y-69320142D01*
X185514498Y-69336738D01*
X185626707Y-69396936D01*
X185711156Y-69499269D01*
X185717215Y-69510327D01*
X185734256Y-69546046D01*
X185748609Y-69586944D01*
X185761211Y-69639566D01*
X185773000Y-69710452D01*
X185784916Y-69806150D01*
X185797894Y-69933199D01*
X185812872Y-70098145D01*
X185829809Y-70295890D01*
X185887299Y-70977388D01*
X186016193Y-71065743D01*
X186145089Y-71154097D01*
X186379521Y-71065817D01*
X186626895Y-70972706D01*
X186831320Y-70895983D01*
X186997378Y-70834111D01*
X187129650Y-70785552D01*
X187232722Y-70748769D01*
X187311174Y-70722224D01*
X187369589Y-70704383D01*
X187412551Y-70693705D01*
X187444642Y-70688657D01*
X187470444Y-70687699D01*
X187494541Y-70689295D01*
X187500414Y-70689871D01*
X187622711Y-70726014D01*
X187726482Y-70801853D01*
X187801071Y-70906895D01*
X187834598Y-71018939D01*
X187835126Y-71068669D01*
X187830770Y-71160849D01*
X187822117Y-71287424D01*
X187809763Y-71440342D01*
X187794299Y-71611547D01*
X187781105Y-71746232D01*
X187764225Y-71923167D01*
X187750705Y-72085394D01*
X187741012Y-72225433D01*
X187735613Y-72335809D01*
X187734973Y-72409041D01*
X187738110Y-72435641D01*
X187769903Y-72483329D01*
X187825092Y-72543166D01*
X187852406Y-72568290D01*
X187945166Y-72648918D01*
X188603409Y-72543132D01*
X188819509Y-72508791D01*
X188991758Y-72483025D01*
X189126395Y-72465959D01*
X189229659Y-72457713D01*
X189307790Y-72458415D01*
X189367028Y-72468185D01*
X189413613Y-72487148D01*
X189453785Y-72515428D01*
X189493784Y-72553147D01*
X189501397Y-72560898D01*
X189566904Y-72653529D01*
X189603050Y-72768586D01*
X189609682Y-72810820D01*
X189611570Y-72854333D01*
X189607254Y-72905696D01*
X189595273Y-72971479D01*
X189574168Y-73058251D01*
X189542479Y-73172585D01*
X189498746Y-73321049D01*
X189441509Y-73510218D01*
X189429579Y-73549364D01*
X189230930Y-74200729D01*
X189320972Y-74336820D01*
X189367997Y-74406533D01*
X189402694Y-74455415D01*
X189416973Y-74472355D01*
X189442880Y-74473394D01*
X189512805Y-74476605D01*
X189620031Y-74481667D01*
X189757839Y-74488263D01*
X189919510Y-74496072D01*
X190086851Y-74504215D01*
X190306394Y-74515513D01*
X190481236Y-74526508D01*
X190617447Y-74538581D01*
X190721096Y-74553112D01*
X190798256Y-74571478D01*
X190854996Y-74595062D01*
X190897387Y-74625242D01*
X190931499Y-74663398D01*
X190957921Y-74702187D01*
X191004319Y-74808984D01*
X191024556Y-74929746D01*
X191015457Y-75041340D01*
X191007873Y-75066057D01*
X190988742Y-75108580D01*
X190949514Y-75188894D01*
X190893797Y-75299858D01*
X190825198Y-75434330D01*
X190747325Y-75585172D01*
X190688758Y-75697578D01*
X190608442Y-75852754D01*
X190536916Y-75994058D01*
X190477343Y-76114978D01*
X190432892Y-76209001D01*
X190406730Y-76269614D01*
X190401023Y-76289299D01*
X190406768Y-76321005D01*
X190418146Y-76351608D01*
X190438529Y-76383347D01*
X190471290Y-76418468D01*
X190519802Y-76459213D01*
X190587436Y-76507825D01*
X190677565Y-76566546D01*
X190793561Y-76637620D01*
X190938796Y-76723290D01*
X191116644Y-76825798D01*
X191330474Y-76947387D01*
X191583662Y-77090300D01*
X191724934Y-77169816D01*
X191968607Y-77307568D01*
X192196039Y-77437456D01*
X192403415Y-77557225D01*
X192586922Y-77664613D01*
X192742742Y-77757366D01*
X192867061Y-77833223D01*
X192956063Y-77889927D01*
X193005933Y-77925219D01*
X193014041Y-77932801D01*
X193046745Y-77982532D01*
X193067021Y-78043706D01*
X193079252Y-78132340D01*
X193083345Y-78186169D01*
X193086409Y-78285191D01*
X193078848Y-78371592D01*
X193057420Y-78463960D01*
X193018883Y-78580879D01*
X193010380Y-78604580D01*
X192974938Y-78696818D01*
X192928932Y-78806033D01*
X192871290Y-78934312D01*
X192800938Y-79083742D01*
X192716802Y-79256410D01*
X192617808Y-79454402D01*
X192502884Y-79679805D01*
X192370956Y-79934706D01*
X192220948Y-80221191D01*
X192051791Y-80541347D01*
X191862406Y-80897260D01*
X191651723Y-81291018D01*
X191418669Y-81724707D01*
X191162167Y-82200413D01*
X191123190Y-82272587D01*
X191019016Y-82467470D01*
X190913630Y-82668294D01*
X190812066Y-82865199D01*
X190719359Y-83048324D01*
X190640545Y-83207810D01*
X190580659Y-83333796D01*
X190575270Y-83345564D01*
X190473897Y-83563524D01*
X190389321Y-83735250D01*
X190320760Y-83862172D01*
X190267437Y-83945716D01*
X190228570Y-83987312D01*
X190223043Y-83990457D01*
X190205498Y-83990487D01*
X190193966Y-83965035D01*
X190186535Y-83905621D01*
X190181362Y-83805572D01*
X190185268Y-83557265D01*
X190213363Y-83272884D01*
X190264083Y-82960138D01*
X190335861Y-82626743D01*
X190427134Y-82280407D01*
X190536333Y-81928843D01*
X190599020Y-81748359D01*
X190660811Y-81564683D01*
X190728828Y-81341242D01*
X190800395Y-81088285D01*
X190872831Y-80816059D01*
X190943458Y-80534813D01*
X191009597Y-80254797D01*
X191068569Y-79986256D01*
X191100065Y-79831509D01*
X191146475Y-79581143D01*
X191178975Y-79371245D01*
X191198507Y-79193701D01*
X191206013Y-79040399D01*
X191204229Y-78934589D01*
X191195074Y-78742535D01*
X191054551Y-78651495D01*
X190904851Y-78571758D01*
X190720948Y-78500936D01*
X190519328Y-78444579D01*
X190341718Y-78411547D01*
X190247766Y-78402334D01*
X190144641Y-78400839D01*
X190020744Y-78407521D01*
X189864481Y-78422838D01*
X189767568Y-78434248D01*
X189596499Y-78456620D01*
X189469033Y-78478221D01*
X189378143Y-78502443D01*
X189316801Y-78532677D01*
X189277982Y-78572314D01*
X189254659Y-78624743D01*
X189240616Y-78688530D01*
X189225072Y-78753473D01*
X189195898Y-78852998D01*
X189157134Y-78974057D01*
X189112812Y-79103601D01*
X189108290Y-79116347D01*
X189066527Y-79235232D01*
X189032105Y-79336171D01*
X189008094Y-79409943D01*
X188997559Y-79447325D01*
X188997370Y-79449829D01*
X188987956Y-79476864D01*
X188960186Y-79537943D01*
X188919168Y-79622056D01*
X188898105Y-79663790D01*
X188667544Y-80066654D01*
X188389904Y-80465272D01*
X188068903Y-80855701D01*
X187708259Y-81233998D01*
X187311691Y-81596222D01*
X186882920Y-81938428D01*
X186496127Y-82210483D01*
X186349108Y-82308193D01*
X186236630Y-82384714D01*
X186150870Y-82446891D01*
X186084005Y-82501568D01*
X186028214Y-82555594D01*
X185975672Y-82615812D01*
X185918558Y-82689068D01*
X185860662Y-82766581D01*
X185517541Y-83204354D01*
X185175425Y-83592385D01*
X184833100Y-83931683D01*
X184489349Y-84223257D01*
X184142962Y-84468118D01*
X183792723Y-84667273D01*
X183437418Y-84821733D01*
X183352883Y-84851713D01*
X183245635Y-84882891D01*
X183108740Y-84915145D01*
X182956366Y-84945926D01*
X182802680Y-84972678D01*
X182661851Y-84992847D01*
X182548045Y-85003881D01*
X182501634Y-85005123D01*
X182179160Y-84987601D01*
X181888264Y-84945267D01*
X181614434Y-84874665D01*
X181343155Y-84772343D01*
X181157215Y-84685132D01*
X181051206Y-84628048D01*
X180944974Y-84564149D01*
X180845953Y-84498830D01*
X180761583Y-84437484D01*
X180699300Y-84385505D01*
X180666542Y-84348288D01*
X180669620Y-84331497D01*
X180706028Y-84323194D01*
X180781800Y-84307055D01*
X180886496Y-84285269D01*
X181009678Y-84260026D01*
X181033370Y-84255210D01*
X181396729Y-84168393D01*
X181726561Y-84060251D01*
X182037791Y-83924738D01*
X182345339Y-83755804D01*
X182490585Y-83664621D01*
X182863401Y-83391935D01*
X183204240Y-83080589D01*
X183509695Y-82733934D01*
X183692552Y-82484039D01*
X183864753Y-82229748D01*
X183571538Y-82195011D01*
X182993045Y-82143435D01*
X182444511Y-82129614D01*
X181921940Y-82153514D01*
X181668643Y-82179662D01*
X181333151Y-82230175D01*
X181042585Y-82293922D01*
X180792539Y-82372020D01*
X180619860Y-82445028D01*
X180537038Y-82482910D01*
X180475072Y-82507395D01*
X180444974Y-82514242D01*
X180443718Y-82512905D01*
X180455667Y-82485296D01*
X180488506Y-82425086D01*
X180536349Y-82342844D01*
X180564281Y-82296398D01*
X180817526Y-81896489D01*
X181063122Y-81543690D01*
X181303571Y-81235338D01*
X181541378Y-80968766D01*
X181779043Y-80741312D01*
X182019069Y-80550310D01*
X182263960Y-80393095D01*
X182436145Y-80303367D01*
X182638626Y-80226208D01*
X182869806Y-80169350D01*
X183110818Y-80135761D01*
X183342794Y-80128415D01*
X183479447Y-80139074D01*
X183780126Y-80202944D01*
X184084610Y-80314117D01*
X184388157Y-80469822D01*
X184686025Y-80667285D01*
X184973472Y-80903733D01*
X185236470Y-81166203D01*
X185311833Y-81249548D01*
X185373821Y-81319759D01*
X185414672Y-81367948D01*
X185426638Y-81384014D01*
X185453119Y-81383793D01*
X185517936Y-81367913D01*
X185612028Y-81338991D01*
X185726331Y-81299647D01*
X185755993Y-81288861D01*
X186074312Y-81171904D01*
X186333257Y-80931999D01*
X186439045Y-80834169D01*
X186541988Y-80739285D01*
X186631090Y-80657462D01*
X186695356Y-80598816D01*
X186701154Y-80593564D01*
X186776825Y-80520791D01*
X186867408Y-80426755D01*
X186968277Y-80317004D01*
X187074805Y-80197089D01*
X187182361Y-80072555D01*
X187286320Y-79948952D01*
X187382051Y-79831829D01*
X187464928Y-79726732D01*
X187530322Y-79639212D01*
X187573604Y-79574816D01*
X187590148Y-79539093D01*
X187585194Y-79533745D01*
X187553097Y-79545876D01*
X187485686Y-79576439D01*
X187392904Y-79620789D01*
X187287160Y-79673040D01*
X186939246Y-79840626D01*
X186549800Y-80015639D01*
X186126899Y-80194579D01*
X185678621Y-80373945D01*
X185598249Y-80405084D01*
X184989264Y-80639898D01*
X184760618Y-80484733D01*
X184423794Y-80279222D01*
X184085169Y-80117830D01*
X183748655Y-80002014D01*
X183418167Y-79933233D01*
X183234735Y-79915673D01*
X183088711Y-79916228D01*
X182915282Y-79929623D01*
X182733173Y-79953337D01*
X182561109Y-79984850D01*
X182417815Y-80021643D01*
X182397258Y-80028380D01*
X182070192Y-80166389D01*
X181750965Y-80354090D01*
X181439424Y-80591610D01*
X181135418Y-80879076D01*
X180838796Y-81216613D01*
X180606551Y-81523005D01*
X180491565Y-81684270D01*
X179932053Y-81752955D01*
X179056057Y-81841543D01*
X178148014Y-81896866D01*
X177214010Y-81919217D01*
X176260133Y-81908888D01*
X175292473Y-81866172D01*
X174317116Y-81791363D01*
X173340151Y-81684752D01*
X172367667Y-81546635D01*
X171405752Y-81377302D01*
X171174503Y-81331516D01*
X170942016Y-81282911D01*
X170693487Y-81228207D01*
X170439025Y-81169837D01*
X170188738Y-81110230D01*
X169952736Y-81051819D01*
X169741128Y-80997034D01*
X169564024Y-80948305D01*
X169489093Y-80926220D01*
X169331836Y-80878369D01*
X169165781Y-81002517D01*
X169067065Y-81084380D01*
X168965902Y-81182060D01*
X168869147Y-81287229D01*
X168783655Y-81391561D01*
X168716281Y-81486728D01*
X168673879Y-81564404D01*
X168662841Y-81613464D01*
X168688437Y-81707155D01*
X168744597Y-81834423D01*
X168828160Y-81990853D01*
X168935973Y-82172029D01*
X169064875Y-82373534D01*
X169211710Y-82590953D01*
X169373320Y-82819870D01*
X169546547Y-83055868D01*
X169728234Y-83294532D01*
X169915223Y-83531445D01*
X170104356Y-83762191D01*
X170292475Y-83982355D01*
X170476424Y-84187520D01*
X170589254Y-84307613D01*
X170796701Y-84533937D01*
X170998345Y-84773049D01*
X171189693Y-85018404D01*
X171366249Y-85263456D01*
X171523518Y-85501664D01*
X171657006Y-85726479D01*
X171762215Y-85931360D01*
X171834655Y-86109760D01*
X171841455Y-86130747D01*
X171856708Y-86193090D01*
X171849473Y-86221616D01*
X171831923Y-86227883D01*
X171800650Y-86213809D01*
X171738002Y-86171849D01*
X171651105Y-86107260D01*
X171547083Y-86025300D01*
X171455930Y-85950428D01*
X171387171Y-85894067D01*
X171281689Y-85809145D01*
X171142843Y-85698311D01*
X170973992Y-85564215D01*
X170778492Y-85409507D01*
X170559705Y-85236836D01*
X170320987Y-85048851D01*
X170065697Y-84848204D01*
X169797195Y-84637543D01*
X169518838Y-84419517D01*
X169233985Y-84196776D01*
X169147282Y-84129055D01*
X168864907Y-83908252D01*
X168590711Y-83693262D01*
X168327767Y-83486526D01*
X168079149Y-83290485D01*
X167847925Y-83107578D01*
X167637169Y-82940245D01*
X167449950Y-82790929D01*
X167289341Y-82662069D01*
X167158413Y-82556106D01*
X167060238Y-82475481D01*
X166997886Y-82422633D01*
X166983830Y-82409975D01*
X166805430Y-82229675D01*
X166673247Y-82064995D01*
X166585955Y-81913634D01*
X166542234Y-81773298D01*
X166540765Y-81641688D01*
X166540996Y-81640165D01*
X166545338Y-81614086D01*
X166551572Y-81588946D01*
X166562391Y-81560739D01*
X166580488Y-81525458D01*
X166608558Y-81479100D01*
X166649292Y-81417657D01*
X166705387Y-81337122D01*
X166779533Y-81233491D01*
X166874425Y-81102757D01*
X166992757Y-80940913D01*
X167137222Y-80743955D01*
X167212730Y-80641089D01*
X167319782Y-80494410D01*
X167416057Y-80360868D01*
X167497676Y-80245974D01*
X167560762Y-80155243D01*
X167601437Y-80094185D01*
X167615823Y-80068311D01*
X167615815Y-80068185D01*
X167594249Y-80048586D01*
X167536644Y-80008502D01*
X167450824Y-79953073D01*
X167344613Y-79887440D01*
X167339714Y-79884490D01*
X176249416Y-78790516D01*
X176287878Y-78967998D01*
X176325587Y-79075469D01*
X176454866Y-79310261D01*
X176624744Y-79515501D01*
X176833774Y-79690139D01*
X177080503Y-79833130D01*
X177363483Y-79943424D01*
X177614320Y-80007276D01*
X177736727Y-80025290D01*
X177852045Y-80025197D01*
X177974320Y-80005071D01*
X178117600Y-79962986D01*
X178228199Y-79923113D01*
X178479498Y-79804576D01*
X178693705Y-79653663D01*
X178869041Y-79472154D01*
X179003727Y-79261831D01*
X179083326Y-79066798D01*
X179126071Y-78913785D01*
X179152019Y-78769817D01*
X179161986Y-78620930D01*
X179156786Y-78453160D01*
X179137476Y-78255031D01*
X181057187Y-78019321D01*
X181076206Y-78160611D01*
X181093901Y-78265030D01*
X181113920Y-78346258D01*
X181139915Y-78417981D01*
X181175533Y-78493880D01*
X181192679Y-78527295D01*
X181305012Y-78712073D01*
X181443269Y-78890088D01*
X181597733Y-79051410D01*
X181758687Y-79186104D01*
X181916414Y-79284243D01*
X181947818Y-79299100D01*
X182153609Y-79365200D01*
X182371055Y-79384760D01*
X182603138Y-79357766D01*
X182824110Y-79294685D01*
X183002122Y-79218389D01*
X183184441Y-79117494D01*
X183360439Y-78999755D01*
X183519488Y-78872926D01*
X183650960Y-78744764D01*
X183743941Y-78623491D01*
X183841314Y-78415841D01*
X183896201Y-78183857D01*
X183908971Y-77930478D01*
X183879995Y-77658646D01*
X183809641Y-77371301D01*
X183698280Y-77071386D01*
X183546280Y-76761840D01*
X183499577Y-76679157D01*
X183420047Y-76553131D01*
X183339901Y-76455019D01*
X183246529Y-76373392D01*
X183127321Y-76296825D01*
X183006554Y-76232386D01*
X182839199Y-76155565D01*
X182692366Y-76108939D01*
X182548279Y-76089326D01*
X182389163Y-76093547D01*
X182291655Y-76104495D01*
X182066868Y-76151114D01*
X181864877Y-76230695D01*
X181675225Y-76348653D01*
X181487458Y-76510401D01*
X181464942Y-76532625D01*
X181381256Y-76618116D01*
X181321945Y-76686709D01*
X181277994Y-76753057D01*
X181240391Y-76831816D01*
X181200122Y-76937638D01*
X181178762Y-76997901D01*
X181109122Y-77211859D01*
X181063005Y-77397223D01*
X181038574Y-77569421D01*
X181033995Y-77743878D01*
X181047430Y-77936019D01*
X181057187Y-78019321D01*
X179137476Y-78255031D01*
X179137235Y-78252545D01*
X179132922Y-78217204D01*
X179104286Y-78015772D01*
X179071088Y-77851134D01*
X179028452Y-77709290D01*
X178971496Y-77576235D01*
X178895343Y-77437965D01*
X178819458Y-77317454D01*
X178652442Y-77102461D01*
X178462120Y-76932276D01*
X178249528Y-76807116D01*
X178015701Y-76727202D01*
X177761675Y-76692752D01*
X177488487Y-76703984D01*
X177197169Y-76761118D01*
X176888759Y-76864372D01*
X176816541Y-76894228D01*
X176721728Y-76937549D01*
X176658654Y-76977274D01*
X176611219Y-77026887D01*
X176563321Y-77099875D01*
X176555677Y-77112699D01*
X176505263Y-77215039D01*
X176450366Y-77355467D01*
X176394570Y-77521918D01*
X176341464Y-77702323D01*
X176294634Y-77884616D01*
X176257666Y-78056731D01*
X176236700Y-78185837D01*
X176222290Y-78384056D01*
X176227041Y-78590741D01*
X176249416Y-78790516D01*
X167339714Y-79884490D01*
X167297849Y-79859287D01*
X167010057Y-79676634D01*
X166720525Y-79472934D01*
X166439041Y-79256073D01*
X166175393Y-79033938D01*
X165939368Y-78814415D01*
X165740755Y-78605390D01*
X165738602Y-78602936D01*
X165658692Y-78503787D01*
X165571353Y-78382521D01*
X165484790Y-78251925D01*
X165407209Y-78124784D01*
X165346817Y-78013886D01*
X165316090Y-77944622D01*
X165297182Y-77897074D01*
X165274783Y-77858190D01*
X165241472Y-77821723D01*
X165189822Y-77781429D01*
X165112410Y-77731058D01*
X165001812Y-77664367D01*
X164938483Y-77626921D01*
X164763786Y-77517645D01*
X164569777Y-77385705D01*
X164366084Y-77238528D01*
X164162340Y-77083540D01*
X163968177Y-76928168D01*
X163793225Y-76779835D01*
X163647115Y-76645971D01*
X163583420Y-76582124D01*
X163338039Y-76296869D01*
X163142274Y-76007528D01*
X162996219Y-75715235D01*
X162899966Y-75421121D01*
X162853609Y-75126321D01*
X162857242Y-74831966D01*
X162910960Y-74539192D01*
X163014854Y-74249130D01*
X163169020Y-73962914D01*
X163346385Y-73715074D01*
X163447659Y-73590326D01*
X163530101Y-73494098D01*
X163605507Y-73414383D01*
X163685679Y-73339175D01*
X163782415Y-73256469D01*
X163858312Y-73194184D01*
X164064194Y-73026642D01*
X164123032Y-73363907D01*
X164222991Y-73809758D01*
X164363627Y-74241872D01*
X164542053Y-74654681D01*
X164755380Y-75042609D01*
X165000718Y-75400086D01*
X165275179Y-75721539D01*
X165419291Y-75864091D01*
X165534381Y-75971522D01*
X165523381Y-75761743D01*
X165518987Y-75698596D01*
X165510178Y-75590039D01*
X165497416Y-75441223D01*
X165481167Y-75257303D01*
X165461894Y-75043433D01*
X165440061Y-74804766D01*
X165416133Y-74546455D01*
X165390574Y-74273655D01*
X165365510Y-74008962D01*
X165339516Y-73734400D01*
X165315238Y-73475082D01*
X165293068Y-73235388D01*
X165273397Y-73019692D01*
X165256618Y-72832373D01*
X165243121Y-72677807D01*
X165233300Y-72560373D01*
X165227546Y-72484446D01*
X165226249Y-72454406D01*
X165226335Y-72454136D01*
X165253924Y-72455928D01*
X165316253Y-72483401D01*
X165406909Y-72532453D01*
X165519476Y-72598985D01*
X165647539Y-72678895D01*
X165784683Y-72768086D01*
X165924495Y-72862455D01*
X166060557Y-72957903D01*
X166186457Y-73050330D01*
X166295778Y-73135635D01*
X166307246Y-73145009D01*
X166620647Y-73424899D01*
X166886140Y-73710880D01*
X167106562Y-74006658D01*
X167284749Y-74315938D01*
X167395057Y-74565874D01*
X167445214Y-74724629D01*
X167488144Y-74916298D01*
X167521715Y-75124832D01*
X167543796Y-75334183D01*
X167552254Y-75528300D01*
X167544957Y-75691135D01*
X167544753Y-75692950D01*
X167475343Y-76081750D01*
X167357048Y-76467955D01*
X167191747Y-76847190D01*
X166981325Y-77215079D01*
X166751303Y-77537468D01*
X166557543Y-77783773D01*
X166670437Y-77932796D01*
X166796504Y-78073989D01*
X166965961Y-78224450D01*
X167173123Y-78380322D01*
X167412307Y-78537746D01*
X167677828Y-78692863D01*
X167964002Y-78841815D01*
X168116137Y-78914192D01*
X168246012Y-78972131D01*
X168335840Y-79006999D01*
X168390311Y-79019804D01*
X168414108Y-79011552D01*
X168411916Y-78983251D01*
X168409604Y-78977263D01*
X168388536Y-78947464D01*
X168338151Y-78885350D01*
X168263106Y-78796377D01*
X168168053Y-78686001D01*
X168057646Y-78559680D01*
X167942749Y-78429843D01*
X167808097Y-78278398D01*
X167703296Y-78159454D01*
X167624420Y-78067574D01*
X167567544Y-77997317D01*
X167528739Y-77943243D01*
X167504080Y-77899913D01*
X167489639Y-77861886D01*
X167481490Y-77823724D01*
X167476122Y-77783392D01*
X167477570Y-77633096D01*
X167520718Y-77508200D01*
X167593427Y-77421037D01*
X167626446Y-77405548D01*
X167700154Y-77377779D01*
X167806657Y-77340284D01*
X167938060Y-77295619D01*
X168086468Y-77246338D01*
X168243986Y-77194998D01*
X168402719Y-77144154D01*
X168554772Y-77096360D01*
X168692249Y-77054173D01*
X168807257Y-77020148D01*
X168891898Y-76996840D01*
X168932525Y-76987614D01*
X168950374Y-76962836D01*
X168972190Y-76904195D01*
X168993756Y-76827967D01*
X169010857Y-76750426D01*
X169019275Y-76687845D01*
X169017296Y-76660365D01*
X168999096Y-76624744D01*
X168958624Y-76552122D01*
X168899679Y-76449094D01*
X168826059Y-76322258D01*
X168741562Y-76178214D01*
X168673203Y-76062634D01*
X168566553Y-75881432D01*
X168484117Y-75737495D01*
X168422987Y-75625129D01*
X168380257Y-75538642D01*
X168353022Y-75472341D01*
X168338374Y-75420535D01*
X168335111Y-75400400D01*
X168341751Y-75259828D01*
X168395255Y-75134870D01*
X168476727Y-75045406D01*
X168502955Y-75025554D01*
X168531812Y-75009558D01*
X168570129Y-74996200D01*
X168624739Y-74984261D01*
X168702474Y-74972525D01*
X168810163Y-74959772D01*
X168954641Y-74944786D01*
X169142737Y-74926348D01*
X169146847Y-74925949D01*
X169320627Y-74909556D01*
X169482252Y-74895148D01*
X169623262Y-74883416D01*
X169735203Y-74875046D01*
X169809614Y-74870726D01*
X169831186Y-74870319D01*
X169882276Y-74867919D01*
X169919374Y-74851295D01*
X169954940Y-74810392D01*
X170001441Y-74735157D01*
X170003843Y-74731055D01*
X170086472Y-74589820D01*
X170022911Y-74414021D01*
X169926200Y-74146272D01*
X169845574Y-73921797D01*
X169779790Y-73736117D01*
X169727610Y-73584751D01*
X169687793Y-73463218D01*
X169659100Y-73367039D01*
X169640288Y-73291733D01*
X169630119Y-73232819D01*
X169627353Y-73185819D01*
X169630748Y-73146250D01*
X169639064Y-73109634D01*
X169651062Y-73071490D01*
X169651169Y-73071171D01*
X169711130Y-72966672D01*
X169806854Y-72887871D01*
X169925894Y-72844447D01*
X169946586Y-72841393D01*
X170002552Y-72840772D01*
X170100072Y-72845996D01*
X170230332Y-72856328D01*
X170384515Y-72871029D01*
X170553806Y-72889363D01*
X170638174Y-72899277D01*
X170807388Y-72919126D01*
X170961774Y-72936186D01*
X171093496Y-72949675D01*
X171194724Y-72958812D01*
X171257623Y-72962816D01*
X171272918Y-72962566D01*
X171317039Y-72939984D01*
X171375764Y-72889857D01*
X171413475Y-72849425D01*
X171503734Y-72743468D01*
X171395376Y-72047106D01*
X171363485Y-71841050D01*
X171339036Y-71678829D01*
X171321463Y-71554115D01*
X171310200Y-71460579D01*
X171304679Y-71391892D01*
X171304333Y-71341726D01*
X171308597Y-71303752D01*
X171316903Y-71271639D01*
X171324093Y-71251201D01*
X171382888Y-71136848D01*
X171463567Y-71063343D01*
X171575999Y-71023073D01*
X171630614Y-71014729D01*
X171685046Y-71010689D01*
X171739978Y-71012739D01*
X171803677Y-71022856D01*
X171884408Y-71043019D01*
X171990437Y-71075201D01*
X172130029Y-71121382D01*
X172254850Y-71164028D01*
X172411743Y-71217668D01*
X172561072Y-71268100D01*
X172692841Y-71311994D01*
X172797052Y-71346024D01*
X172863709Y-71366858D01*
X172865604Y-71367414D01*
X172995407Y-71405328D01*
X173121841Y-71317992D01*
X173188311Y-71268166D01*
X173232993Y-71227139D01*
X173245371Y-71207015D01*
X173244428Y-71165813D01*
X173245668Y-71082881D01*
X173248746Y-70966668D01*
X173253318Y-70825624D01*
X173259037Y-70668201D01*
X173265562Y-70502849D01*
X173272545Y-70338018D01*
X173279640Y-70182159D01*
X173286505Y-70043723D01*
X173292793Y-69931160D01*
X173298160Y-69852921D01*
X173302079Y-69818128D01*
X173338422Y-69742561D01*
X173402883Y-69663090D01*
X173478248Y-69598742D01*
X173521950Y-69575146D01*
X173577156Y-69557159D01*
X173631482Y-69549096D01*
X173690844Y-69553142D01*
X173761153Y-69571488D01*
X173848325Y-69606321D01*
X173958275Y-69659827D01*
X174096913Y-69734195D01*
X174270157Y-69831613D01*
X174370666Y-69889112D01*
X174954436Y-70224198D01*
X175085752Y-70167812D01*
X175161350Y-70129827D01*
X175216367Y-70091987D01*
X175233965Y-70071409D01*
X175243954Y-70036396D01*
X175263163Y-69958963D01*
X175289904Y-69846305D01*
X175322488Y-69705617D01*
X175359223Y-69544096D01*
X175390042Y-69406623D01*
X175429563Y-69232377D01*
X175467247Y-69072110D01*
X175501228Y-68933306D01*
X175529639Y-68823446D01*
X175550614Y-68750015D01*
X175560501Y-68723049D01*
X175638856Y-68625983D01*
X175745682Y-68561941D01*
X175867628Y-68535110D01*
X175991343Y-68549675D01*
X176044740Y-68571208D01*
X176088877Y-68600736D01*
X176164382Y-68658954D01*
X176264845Y-68740589D01*
X176383857Y-68840368D01*
X176515011Y-68953018D01*
X176611158Y-69037193D01*
X176757936Y-69166523D01*
X176872051Y-69265985D01*
X176958889Y-69339364D01*
X177023839Y-69390447D01*
X177072289Y-69423021D01*
X177109624Y-69440871D01*
X177141234Y-69447785D01*
X177172507Y-69447550D01*
X177192333Y-69445660D01*
X177274308Y-69431377D01*
X177343213Y-69410114D01*
X177353921Y-69405081D01*
X177382211Y-69374532D01*
X177424669Y-69304386D01*
X177482203Y-69192849D01*
X177555721Y-69038128D01*
X177646129Y-68838430D01*
X177684982Y-68750650D01*
X177773082Y-68554001D01*
X177851954Y-68384767D01*
X177919395Y-68247363D01*
X177973205Y-68146210D01*
X178011183Y-68085722D01*
X178022648Y-68072840D01*
X178109381Y-68026391D01*
X178221513Y-68001609D01*
X178337556Y-68000608D01*
G37*
X178337556Y-68000608D02*
X178436024Y-68025504D01*
X178446994Y-68031072D01*
X178491492Y-68068225D01*
X178562878Y-68144542D01*
X178659012Y-68257497D01*
X178777756Y-68404562D01*
X178916971Y-68583213D01*
X178940863Y-68614378D01*
X179085142Y-68800622D01*
X179204210Y-68949299D01*
X179297197Y-69059383D01*
X179363228Y-69129845D01*
X179401428Y-69159655D01*
X179404580Y-69160539D01*
X179463436Y-69162918D01*
X179542787Y-69158331D01*
X179560428Y-69156420D01*
X179589657Y-69152530D01*
X179615862Y-69145793D01*
X179642331Y-69132206D01*
X179672348Y-69107762D01*
X179709196Y-69068457D01*
X179756164Y-69010286D01*
X179816536Y-68929246D01*
X179893595Y-68821329D01*
X179990629Y-68682533D01*
X180110922Y-68508852D01*
X180213738Y-68360012D01*
X180312672Y-68218847D01*
X180390717Y-68114668D01*
X180454496Y-68041754D01*
X180510630Y-67994385D01*
X180565743Y-67966840D01*
X180626458Y-67953401D01*
X180689978Y-67948693D01*
X180823386Y-67961584D01*
X180930076Y-68015046D01*
X181017020Y-68110564D01*
X181040047Y-68150079D01*
X181081972Y-68227949D01*
X181139085Y-68337039D01*
X181207670Y-68470217D01*
X181284018Y-68620345D01*
X181336197Y-68723938D01*
X181414681Y-68878849D01*
X181487180Y-69019113D01*
X181550172Y-69138144D01*
X181600135Y-69229351D01*
X181633548Y-69286146D01*
X181645107Y-69301824D01*
X181687574Y-69320658D01*
X181760270Y-69339746D01*
X181806748Y-69348391D01*
X181936389Y-69368932D01*
X182425025Y-68899011D01*
X182572580Y-68757464D01*
X182688965Y-68647160D01*
X182779405Y-68563902D01*
X182849126Y-68503492D01*
X182903354Y-68461732D01*
X182947311Y-68434424D01*
X182986227Y-68417373D01*
X183025325Y-68406379D01*
X183043059Y-68402559D01*
X183134538Y-68389705D01*
X183204482Y-68398243D01*
X183266582Y-68424417D01*
X183342191Y-68474162D01*
X183405876Y-68533629D01*
X183413399Y-68543022D01*
X183438063Y-68592038D01*
X183473730Y-68686621D01*
X183519172Y-68823032D01*
X183573156Y-68997532D01*
X183634452Y-69206384D01*
X183651893Y-69267459D01*
X183701297Y-69440818D01*
X183746194Y-69597223D01*
X183784727Y-69730297D01*
X183815039Y-69833662D01*
X183835271Y-69900940D01*
X183843569Y-69925752D01*
X183843580Y-69925760D01*
X183868113Y-69937197D01*
X183925568Y-69962606D01*
X183984596Y-69988292D01*
X184119727Y-70046744D01*
X184689573Y-69685692D01*
X184863450Y-69575932D01*
X185000539Y-69490690D01*
X185106687Y-69426859D01*
X185187738Y-69381332D01*
X185249536Y-69351001D01*
X185297927Y-69332760D01*
X185338754Y-69323500D01*
X185377153Y-69320142D01*
X185514498Y-69336738D01*
X185626707Y-69396936D01*
X185711156Y-69499269D01*
X185717215Y-69510327D01*
X185734256Y-69546046D01*
X185748609Y-69586944D01*
X185761211Y-69639566D01*
X185773000Y-69710452D01*
X185784916Y-69806150D01*
X185797894Y-69933199D01*
X185812872Y-70098145D01*
X185829809Y-70295890D01*
X185887299Y-70977388D01*
X186016193Y-71065743D01*
X186145089Y-71154097D01*
X186379521Y-71065817D01*
X186626895Y-70972706D01*
X186831320Y-70895983D01*
X186997378Y-70834111D01*
X187129650Y-70785552D01*
X187232722Y-70748769D01*
X187311174Y-70722224D01*
X187369589Y-70704383D01*
X187412551Y-70693705D01*
X187444642Y-70688657D01*
X187470444Y-70687699D01*
X187494541Y-70689295D01*
X187500414Y-70689871D01*
X187622711Y-70726014D01*
X187726482Y-70801853D01*
X187801071Y-70906895D01*
X187834598Y-71018939D01*
X187835126Y-71068669D01*
X187830770Y-71160849D01*
X187822117Y-71287424D01*
X187809763Y-71440342D01*
X187794299Y-71611547D01*
X187781105Y-71746232D01*
X187764225Y-71923167D01*
X187750705Y-72085394D01*
X187741012Y-72225433D01*
X187735613Y-72335809D01*
X187734973Y-72409041D01*
X187738110Y-72435641D01*
X187769903Y-72483329D01*
X187825092Y-72543166D01*
X187852406Y-72568290D01*
X187945166Y-72648918D01*
X188603409Y-72543132D01*
X188819509Y-72508791D01*
X188991758Y-72483025D01*
X189126395Y-72465959D01*
X189229659Y-72457713D01*
X189307790Y-72458415D01*
X189367028Y-72468185D01*
X189413613Y-72487148D01*
X189453785Y-72515428D01*
X189493784Y-72553147D01*
X189501397Y-72560898D01*
X189566904Y-72653529D01*
X189603050Y-72768586D01*
X189609682Y-72810820D01*
X189611570Y-72854333D01*
X189607254Y-72905696D01*
X189595273Y-72971479D01*
X189574168Y-73058251D01*
X189542479Y-73172585D01*
X189498746Y-73321049D01*
X189441509Y-73510218D01*
X189429579Y-73549364D01*
X189230930Y-74200729D01*
X189320972Y-74336820D01*
X189367997Y-74406533D01*
X189402694Y-74455415D01*
X189416973Y-74472355D01*
X189442880Y-74473394D01*
X189512805Y-74476605D01*
X189620031Y-74481667D01*
X189757839Y-74488263D01*
X189919510Y-74496072D01*
X190086851Y-74504215D01*
X190306394Y-74515513D01*
X190481236Y-74526508D01*
X190617447Y-74538581D01*
X190721096Y-74553112D01*
X190798256Y-74571478D01*
X190854996Y-74595062D01*
X190897387Y-74625242D01*
X190931499Y-74663398D01*
X190957921Y-74702187D01*
X191004319Y-74808984D01*
X191024556Y-74929746D01*
X191015457Y-75041340D01*
X191007873Y-75066057D01*
X190988742Y-75108580D01*
X190949514Y-75188894D01*
X190893797Y-75299858D01*
X190825198Y-75434330D01*
X190747325Y-75585172D01*
X190688758Y-75697578D01*
X190608442Y-75852754D01*
X190536916Y-75994058D01*
X190477343Y-76114978D01*
X190432892Y-76209001D01*
X190406730Y-76269614D01*
X190401023Y-76289299D01*
X190406768Y-76321005D01*
X190418146Y-76351608D01*
X190438529Y-76383347D01*
X190471290Y-76418468D01*
X190519802Y-76459213D01*
X190587436Y-76507825D01*
X190677565Y-76566546D01*
X190793561Y-76637620D01*
X190938796Y-76723290D01*
X191116644Y-76825798D01*
X191330474Y-76947387D01*
X191583662Y-77090300D01*
X191724934Y-77169816D01*
X191968607Y-77307568D01*
X192196039Y-77437456D01*
X192403415Y-77557225D01*
X192586922Y-77664613D01*
X192742742Y-77757366D01*
X192867061Y-77833223D01*
X192956063Y-77889927D01*
X193005933Y-77925219D01*
X193014041Y-77932801D01*
X193046745Y-77982532D01*
X193067021Y-78043706D01*
X193079252Y-78132340D01*
X193083345Y-78186169D01*
X193086409Y-78285191D01*
X193078848Y-78371592D01*
X193057420Y-78463960D01*
X193018883Y-78580879D01*
X193010380Y-78604580D01*
X192974938Y-78696818D01*
X192928932Y-78806033D01*
X192871290Y-78934312D01*
X192800938Y-79083742D01*
X192716802Y-79256410D01*
X192617808Y-79454402D01*
X192502884Y-79679805D01*
X192370956Y-79934706D01*
X192220948Y-80221191D01*
X192051791Y-80541347D01*
X191862406Y-80897260D01*
X191651723Y-81291018D01*
X191418669Y-81724707D01*
X191162167Y-82200413D01*
X191123190Y-82272587D01*
X191019016Y-82467470D01*
X190913630Y-82668294D01*
X190812066Y-82865199D01*
X190719359Y-83048324D01*
X190640545Y-83207810D01*
X190580659Y-83333796D01*
X190575270Y-83345564D01*
X190473897Y-83563524D01*
X190389321Y-83735250D01*
X190320760Y-83862172D01*
X190267437Y-83945716D01*
X190228570Y-83987312D01*
X190223043Y-83990457D01*
X190205498Y-83990487D01*
X190193966Y-83965035D01*
X190186535Y-83905621D01*
X190181362Y-83805572D01*
X190185268Y-83557265D01*
X190213363Y-83272884D01*
X190264083Y-82960138D01*
X190335861Y-82626743D01*
X190427134Y-82280407D01*
X190536333Y-81928843D01*
X190599020Y-81748359D01*
X190660811Y-81564683D01*
X190728828Y-81341242D01*
X190800395Y-81088285D01*
X190872831Y-80816059D01*
X190943458Y-80534813D01*
X191009597Y-80254797D01*
X191068569Y-79986256D01*
X191100065Y-79831509D01*
X191146475Y-79581143D01*
X191178975Y-79371245D01*
X191198507Y-79193701D01*
X191206013Y-79040399D01*
X191204229Y-78934589D01*
X191195074Y-78742535D01*
X191054551Y-78651495D01*
X190904851Y-78571758D01*
X190720948Y-78500936D01*
X190519328Y-78444579D01*
X190341718Y-78411547D01*
X190247766Y-78402334D01*
X190144641Y-78400839D01*
X190020744Y-78407521D01*
X189864481Y-78422838D01*
X189767568Y-78434248D01*
X189596499Y-78456620D01*
X189469033Y-78478221D01*
X189378143Y-78502443D01*
X189316801Y-78532677D01*
X189277982Y-78572314D01*
X189254659Y-78624743D01*
X189240616Y-78688530D01*
X189225072Y-78753473D01*
X189195898Y-78852998D01*
X189157134Y-78974057D01*
X189112812Y-79103601D01*
X189108290Y-79116347D01*
X189066527Y-79235232D01*
X189032105Y-79336171D01*
X189008094Y-79409943D01*
X188997559Y-79447325D01*
X188997370Y-79449829D01*
X188987956Y-79476864D01*
X188960186Y-79537943D01*
X188919168Y-79622056D01*
X188898105Y-79663790D01*
X188667544Y-80066654D01*
X188389904Y-80465272D01*
X188068903Y-80855701D01*
X187708259Y-81233998D01*
X187311691Y-81596222D01*
X186882920Y-81938428D01*
X186496127Y-82210483D01*
X186349108Y-82308193D01*
X186236630Y-82384714D01*
X186150870Y-82446891D01*
X186084005Y-82501568D01*
X186028214Y-82555594D01*
X185975672Y-82615812D01*
X185918558Y-82689068D01*
X185860662Y-82766581D01*
X185517541Y-83204354D01*
X185175425Y-83592385D01*
X184833100Y-83931683D01*
X184489349Y-84223257D01*
X184142962Y-84468118D01*
X183792723Y-84667273D01*
X183437418Y-84821733D01*
X183352883Y-84851713D01*
X183245635Y-84882891D01*
X183108740Y-84915145D01*
X182956366Y-84945926D01*
X182802680Y-84972678D01*
X182661851Y-84992847D01*
X182548045Y-85003881D01*
X182501634Y-85005123D01*
X182179160Y-84987601D01*
X181888264Y-84945267D01*
X181614434Y-84874665D01*
X181343155Y-84772343D01*
X181157215Y-84685132D01*
X181051206Y-84628048D01*
X180944974Y-84564149D01*
X180845953Y-84498830D01*
X180761583Y-84437484D01*
X180699300Y-84385505D01*
X180666542Y-84348288D01*
X180669620Y-84331497D01*
X180706028Y-84323194D01*
X180781800Y-84307055D01*
X180886496Y-84285269D01*
X181009678Y-84260026D01*
X181033370Y-84255210D01*
X181396729Y-84168393D01*
X181726561Y-84060251D01*
X182037791Y-83924738D01*
X182345339Y-83755804D01*
X182490585Y-83664621D01*
X182863401Y-83391935D01*
X183204240Y-83080589D01*
X183509695Y-82733934D01*
X183692552Y-82484039D01*
X183864753Y-82229748D01*
X183571538Y-82195011D01*
X182993045Y-82143435D01*
X182444511Y-82129614D01*
X181921940Y-82153514D01*
X181668643Y-82179662D01*
X181333151Y-82230175D01*
X181042585Y-82293922D01*
X180792539Y-82372020D01*
X180619860Y-82445028D01*
X180537038Y-82482910D01*
X180475072Y-82507395D01*
X180444974Y-82514242D01*
X180443718Y-82512905D01*
X180455667Y-82485296D01*
X180488506Y-82425086D01*
X180536349Y-82342844D01*
X180564281Y-82296398D01*
X180817526Y-81896489D01*
X181063122Y-81543690D01*
X181303571Y-81235338D01*
X181541378Y-80968766D01*
X181779043Y-80741312D01*
X182019069Y-80550310D01*
X182263960Y-80393095D01*
X182436145Y-80303367D01*
X182638626Y-80226208D01*
X182869806Y-80169350D01*
X183110818Y-80135761D01*
X183342794Y-80128415D01*
X183479447Y-80139074D01*
X183780126Y-80202944D01*
X184084610Y-80314117D01*
X184388157Y-80469822D01*
X184686025Y-80667285D01*
X184973472Y-80903733D01*
X185236470Y-81166203D01*
X185311833Y-81249548D01*
X185373821Y-81319759D01*
X185414672Y-81367948D01*
X185426638Y-81384014D01*
X185453119Y-81383793D01*
X185517936Y-81367913D01*
X185612028Y-81338991D01*
X185726331Y-81299647D01*
X185755993Y-81288861D01*
X186074312Y-81171904D01*
X186333257Y-80931999D01*
X186439045Y-80834169D01*
X186541988Y-80739285D01*
X186631090Y-80657462D01*
X186695356Y-80598816D01*
X186701154Y-80593564D01*
X186776825Y-80520791D01*
X186867408Y-80426755D01*
X186968277Y-80317004D01*
X187074805Y-80197089D01*
X187182361Y-80072555D01*
X187286320Y-79948952D01*
X187382051Y-79831829D01*
X187464928Y-79726732D01*
X187530322Y-79639212D01*
X187573604Y-79574816D01*
X187590148Y-79539093D01*
X187585194Y-79533745D01*
X187553097Y-79545876D01*
X187485686Y-79576439D01*
X187392904Y-79620789D01*
X187287160Y-79673040D01*
X186939246Y-79840626D01*
X186549800Y-80015639D01*
X186126899Y-80194579D01*
X185678621Y-80373945D01*
X185598249Y-80405084D01*
X184989264Y-80639898D01*
X184760618Y-80484733D01*
X184423794Y-80279222D01*
X184085169Y-80117830D01*
X183748655Y-80002014D01*
X183418167Y-79933233D01*
X183234735Y-79915673D01*
X183088711Y-79916228D01*
X182915282Y-79929623D01*
X182733173Y-79953337D01*
X182561109Y-79984850D01*
X182417815Y-80021643D01*
X182397258Y-80028380D01*
X182070192Y-80166389D01*
X181750965Y-80354090D01*
X181439424Y-80591610D01*
X181135418Y-80879076D01*
X180838796Y-81216613D01*
X180606551Y-81523005D01*
X180491565Y-81684270D01*
X179932053Y-81752955D01*
X179056057Y-81841543D01*
X178148014Y-81896866D01*
X177214010Y-81919217D01*
X176260133Y-81908888D01*
X175292473Y-81866172D01*
X174317116Y-81791363D01*
X173340151Y-81684752D01*
X172367667Y-81546635D01*
X171405752Y-81377302D01*
X171174503Y-81331516D01*
X170942016Y-81282911D01*
X170693487Y-81228207D01*
X170439025Y-81169837D01*
X170188738Y-81110230D01*
X169952736Y-81051819D01*
X169741128Y-80997034D01*
X169564024Y-80948305D01*
X169489093Y-80926220D01*
X169331836Y-80878369D01*
X169165781Y-81002517D01*
X169067065Y-81084380D01*
X168965902Y-81182060D01*
X168869147Y-81287229D01*
X168783655Y-81391561D01*
X168716281Y-81486728D01*
X168673879Y-81564404D01*
X168662841Y-81613464D01*
X168688437Y-81707155D01*
X168744597Y-81834423D01*
X168828160Y-81990853D01*
X168935973Y-82172029D01*
X169064875Y-82373534D01*
X169211710Y-82590953D01*
X169373320Y-82819870D01*
X169546547Y-83055868D01*
X169728234Y-83294532D01*
X169915223Y-83531445D01*
X170104356Y-83762191D01*
X170292475Y-83982355D01*
X170476424Y-84187520D01*
X170589254Y-84307613D01*
X170796701Y-84533937D01*
X170998345Y-84773049D01*
X171189693Y-85018404D01*
X171366249Y-85263456D01*
X171523518Y-85501664D01*
X171657006Y-85726479D01*
X171762215Y-85931360D01*
X171834655Y-86109760D01*
X171841455Y-86130747D01*
X171856708Y-86193090D01*
X171849473Y-86221616D01*
X171831923Y-86227883D01*
X171800650Y-86213809D01*
X171738002Y-86171849D01*
X171651105Y-86107260D01*
X171547083Y-86025300D01*
X171455930Y-85950428D01*
X171387171Y-85894067D01*
X171281689Y-85809145D01*
X171142843Y-85698311D01*
X170973992Y-85564215D01*
X170778492Y-85409507D01*
X170559705Y-85236836D01*
X170320987Y-85048851D01*
X170065697Y-84848204D01*
X169797195Y-84637543D01*
X169518838Y-84419517D01*
X169233985Y-84196776D01*
X169147282Y-84129055D01*
X168864907Y-83908252D01*
X168590711Y-83693262D01*
X168327767Y-83486526D01*
X168079149Y-83290485D01*
X167847925Y-83107578D01*
X167637169Y-82940245D01*
X167449950Y-82790929D01*
X167289341Y-82662069D01*
X167158413Y-82556106D01*
X167060238Y-82475481D01*
X166997886Y-82422633D01*
X166983830Y-82409975D01*
X166805430Y-82229675D01*
X166673247Y-82064995D01*
X166585955Y-81913634D01*
X166542234Y-81773298D01*
X166540765Y-81641688D01*
X166540996Y-81640165D01*
X166545338Y-81614086D01*
X166551572Y-81588946D01*
X166562391Y-81560739D01*
X166580488Y-81525458D01*
X166608558Y-81479100D01*
X166649292Y-81417657D01*
X166705387Y-81337122D01*
X166779533Y-81233491D01*
X166874425Y-81102757D01*
X166992757Y-80940913D01*
X167137222Y-80743955D01*
X167212730Y-80641089D01*
X167319782Y-80494410D01*
X167416057Y-80360868D01*
X167497676Y-80245974D01*
X167560762Y-80155243D01*
X167601437Y-80094185D01*
X167615823Y-80068311D01*
X167615815Y-80068185D01*
X167594249Y-80048586D01*
X167536644Y-80008502D01*
X167450824Y-79953073D01*
X167344613Y-79887440D01*
X167339714Y-79884490D01*
X176249416Y-78790516D01*
X176287878Y-78967998D01*
X176325587Y-79075469D01*
X176454866Y-79310261D01*
X176624744Y-79515501D01*
X176833774Y-79690139D01*
X177080503Y-79833130D01*
X177363483Y-79943424D01*
X177614320Y-80007276D01*
X177736727Y-80025290D01*
X177852045Y-80025197D01*
X177974320Y-80005071D01*
X178117600Y-79962986D01*
X178228199Y-79923113D01*
X178479498Y-79804576D01*
X178693705Y-79653663D01*
X178869041Y-79472154D01*
X179003727Y-79261831D01*
X179083326Y-79066798D01*
X179126071Y-78913785D01*
X179152019Y-78769817D01*
X179161986Y-78620930D01*
X179156786Y-78453160D01*
X179137476Y-78255031D01*
X181057187Y-78019321D01*
X181076206Y-78160611D01*
X181093901Y-78265030D01*
X181113920Y-78346258D01*
X181139915Y-78417981D01*
X181175533Y-78493880D01*
X181192679Y-78527295D01*
X181305012Y-78712073D01*
X181443269Y-78890088D01*
X181597733Y-79051410D01*
X181758687Y-79186104D01*
X181916414Y-79284243D01*
X181947818Y-79299100D01*
X182153609Y-79365200D01*
X182371055Y-79384760D01*
X182603138Y-79357766D01*
X182824110Y-79294685D01*
X183002122Y-79218389D01*
X183184441Y-79117494D01*
X183360439Y-78999755D01*
X183519488Y-78872926D01*
X183650960Y-78744764D01*
X183743941Y-78623491D01*
X183841314Y-78415841D01*
X183896201Y-78183857D01*
X183908971Y-77930478D01*
X183879995Y-77658646D01*
X183809641Y-77371301D01*
X183698280Y-77071386D01*
X183546280Y-76761840D01*
X183499577Y-76679157D01*
X183420047Y-76553131D01*
X183339901Y-76455019D01*
X183246529Y-76373392D01*
X183127321Y-76296825D01*
X183006554Y-76232386D01*
X182839199Y-76155565D01*
X182692366Y-76108939D01*
X182548279Y-76089326D01*
X182389163Y-76093547D01*
X182291655Y-76104495D01*
X182066868Y-76151114D01*
X181864877Y-76230695D01*
X181675225Y-76348653D01*
X181487458Y-76510401D01*
X181464942Y-76532625D01*
X181381256Y-76618116D01*
X181321945Y-76686709D01*
X181277994Y-76753057D01*
X181240391Y-76831816D01*
X181200122Y-76937638D01*
X181178762Y-76997901D01*
X181109122Y-77211859D01*
X181063005Y-77397223D01*
X181038574Y-77569421D01*
X181033995Y-77743878D01*
X181047430Y-77936019D01*
X181057187Y-78019321D01*
X179137476Y-78255031D01*
X179137235Y-78252545D01*
X179132922Y-78217204D01*
X179104286Y-78015772D01*
X179071088Y-77851134D01*
X179028452Y-77709290D01*
X178971496Y-77576235D01*
X178895343Y-77437965D01*
X178819458Y-77317454D01*
X178652442Y-77102461D01*
X178462120Y-76932276D01*
X178249528Y-76807116D01*
X178015701Y-76727202D01*
X177761675Y-76692752D01*
X177488487Y-76703984D01*
X177197169Y-76761118D01*
X176888759Y-76864372D01*
X176816541Y-76894228D01*
X176721728Y-76937549D01*
X176658654Y-76977274D01*
X176611219Y-77026887D01*
X176563321Y-77099875D01*
X176555677Y-77112699D01*
X176505263Y-77215039D01*
X176450366Y-77355467D01*
X176394570Y-77521918D01*
X176341464Y-77702323D01*
X176294634Y-77884616D01*
X176257666Y-78056731D01*
X176236700Y-78185837D01*
X176222290Y-78384056D01*
X176227041Y-78590741D01*
X176249416Y-78790516D01*
X167339714Y-79884490D01*
X167297849Y-79859287D01*
X167010057Y-79676634D01*
X166720525Y-79472934D01*
X166439041Y-79256073D01*
X166175393Y-79033938D01*
X165939368Y-78814415D01*
X165740755Y-78605390D01*
X165738602Y-78602936D01*
X165658692Y-78503787D01*
X165571353Y-78382521D01*
X165484790Y-78251925D01*
X165407209Y-78124784D01*
X165346817Y-78013886D01*
X165316090Y-77944622D01*
X165297182Y-77897074D01*
X165274783Y-77858190D01*
X165241472Y-77821723D01*
X165189822Y-77781429D01*
X165112410Y-77731058D01*
X165001812Y-77664367D01*
X164938483Y-77626921D01*
X164763786Y-77517645D01*
X164569777Y-77385705D01*
X164366084Y-77238528D01*
X164162340Y-77083540D01*
X163968177Y-76928168D01*
X163793225Y-76779835D01*
X163647115Y-76645971D01*
X163583420Y-76582124D01*
X163338039Y-76296869D01*
X163142274Y-76007528D01*
X162996219Y-75715235D01*
X162899966Y-75421121D01*
X162853609Y-75126321D01*
X162857242Y-74831966D01*
X162910960Y-74539192D01*
X163014854Y-74249130D01*
X163169020Y-73962914D01*
X163346385Y-73715074D01*
X163447659Y-73590326D01*
X163530101Y-73494098D01*
X163605507Y-73414383D01*
X163685679Y-73339175D01*
X163782415Y-73256469D01*
X163858312Y-73194184D01*
X164064194Y-73026642D01*
X164123032Y-73363907D01*
X164222991Y-73809758D01*
X164363627Y-74241872D01*
X164542053Y-74654681D01*
X164755380Y-75042609D01*
X165000718Y-75400086D01*
X165275179Y-75721539D01*
X165419291Y-75864091D01*
X165534381Y-75971522D01*
X165523381Y-75761743D01*
X165518987Y-75698596D01*
X165510178Y-75590039D01*
X165497416Y-75441223D01*
X165481167Y-75257303D01*
X165461894Y-75043433D01*
X165440061Y-74804766D01*
X165416133Y-74546455D01*
X165390574Y-74273655D01*
X165365510Y-74008962D01*
X165339516Y-73734400D01*
X165315238Y-73475082D01*
X165293068Y-73235388D01*
X165273397Y-73019692D01*
X165256618Y-72832373D01*
X165243121Y-72677807D01*
X165233300Y-72560373D01*
X165227546Y-72484446D01*
X165226249Y-72454406D01*
X165226335Y-72454136D01*
X165253924Y-72455928D01*
X165316253Y-72483401D01*
X165406909Y-72532453D01*
X165519476Y-72598985D01*
X165647539Y-72678895D01*
X165784683Y-72768086D01*
X165924495Y-72862455D01*
X166060557Y-72957903D01*
X166186457Y-73050330D01*
X166295778Y-73135635D01*
X166307246Y-73145009D01*
X166620647Y-73424899D01*
X166886140Y-73710880D01*
X167106562Y-74006658D01*
X167284749Y-74315938D01*
X167395057Y-74565874D01*
X167445214Y-74724629D01*
X167488144Y-74916298D01*
X167521715Y-75124832D01*
X167543796Y-75334183D01*
X167552254Y-75528300D01*
X167544957Y-75691135D01*
X167544753Y-75692950D01*
X167475343Y-76081750D01*
X167357048Y-76467955D01*
X167191747Y-76847190D01*
X166981325Y-77215079D01*
X166751303Y-77537468D01*
X166557543Y-77783773D01*
X166670437Y-77932796D01*
X166796504Y-78073989D01*
X166965961Y-78224450D01*
X167173123Y-78380322D01*
X167412307Y-78537746D01*
X167677828Y-78692863D01*
X167964002Y-78841815D01*
X168116137Y-78914192D01*
X168246012Y-78972131D01*
X168335840Y-79006999D01*
X168390311Y-79019804D01*
X168414108Y-79011552D01*
X168411916Y-78983251D01*
X168409604Y-78977263D01*
X168388536Y-78947464D01*
X168338151Y-78885350D01*
X168263106Y-78796377D01*
X168168053Y-78686001D01*
X168057646Y-78559680D01*
X167942749Y-78429843D01*
X167808097Y-78278398D01*
X167703296Y-78159454D01*
X167624420Y-78067574D01*
X167567544Y-77997317D01*
X167528739Y-77943243D01*
X167504080Y-77899913D01*
X167489639Y-77861886D01*
X167481490Y-77823724D01*
X167476122Y-77783392D01*
X167477570Y-77633096D01*
X167520718Y-77508200D01*
X167593427Y-77421037D01*
X167626446Y-77405548D01*
X167700154Y-77377779D01*
X167806657Y-77340284D01*
X167938060Y-77295619D01*
X168086468Y-77246338D01*
X168243986Y-77194998D01*
X168402719Y-77144154D01*
X168554772Y-77096360D01*
X168692249Y-77054173D01*
X168807257Y-77020148D01*
X168891898Y-76996840D01*
X168932525Y-76987614D01*
X168950374Y-76962836D01*
X168972190Y-76904195D01*
X168993756Y-76827967D01*
X169010857Y-76750426D01*
X169019275Y-76687845D01*
X169017296Y-76660365D01*
X168999096Y-76624744D01*
X168958624Y-76552122D01*
X168899679Y-76449094D01*
X168826059Y-76322258D01*
X168741562Y-76178214D01*
X168673203Y-76062634D01*
X168566553Y-75881432D01*
X168484117Y-75737495D01*
X168422987Y-75625129D01*
X168380257Y-75538642D01*
X168353022Y-75472341D01*
X168338374Y-75420535D01*
X168335111Y-75400400D01*
X168341751Y-75259828D01*
X168395255Y-75134870D01*
X168476727Y-75045406D01*
X168502955Y-75025554D01*
X168531812Y-75009558D01*
X168570129Y-74996200D01*
X168624739Y-74984261D01*
X168702474Y-74972525D01*
X168810163Y-74959772D01*
X168954641Y-74944786D01*
X169142737Y-74926348D01*
X169146847Y-74925949D01*
X169320627Y-74909556D01*
X169482252Y-74895148D01*
X169623262Y-74883416D01*
X169735203Y-74875046D01*
X169809614Y-74870726D01*
X169831186Y-74870319D01*
X169882276Y-74867919D01*
X169919374Y-74851295D01*
X169954940Y-74810392D01*
X170001441Y-74735157D01*
X170003843Y-74731055D01*
X170086472Y-74589820D01*
X170022911Y-74414021D01*
X169926200Y-74146272D01*
X169845574Y-73921797D01*
X169779790Y-73736117D01*
X169727610Y-73584751D01*
X169687793Y-73463218D01*
X169659100Y-73367039D01*
X169640288Y-73291733D01*
X169630119Y-73232819D01*
X169627353Y-73185819D01*
X169630748Y-73146250D01*
X169639064Y-73109634D01*
X169651062Y-73071490D01*
X169651169Y-73071171D01*
X169711130Y-72966672D01*
X169806854Y-72887871D01*
X169925894Y-72844447D01*
X169946586Y-72841393D01*
X170002552Y-72840772D01*
X170100072Y-72845996D01*
X170230332Y-72856328D01*
X170384515Y-72871029D01*
X170553806Y-72889363D01*
X170638174Y-72899277D01*
X170807388Y-72919126D01*
X170961774Y-72936186D01*
X171093496Y-72949675D01*
X171194724Y-72958812D01*
X171257623Y-72962816D01*
X171272918Y-72962566D01*
X171317039Y-72939984D01*
X171375764Y-72889857D01*
X171413475Y-72849425D01*
X171503734Y-72743468D01*
X171395376Y-72047106D01*
X171363485Y-71841050D01*
X171339036Y-71678829D01*
X171321463Y-71554115D01*
X171310200Y-71460579D01*
X171304679Y-71391892D01*
X171304333Y-71341726D01*
X171308597Y-71303752D01*
X171316903Y-71271639D01*
X171324093Y-71251201D01*
X171382888Y-71136848D01*
X171463567Y-71063343D01*
X171575999Y-71023073D01*
X171630614Y-71014729D01*
X171685046Y-71010689D01*
X171739978Y-71012739D01*
X171803677Y-71022856D01*
X171884408Y-71043019D01*
X171990437Y-71075201D01*
X172130029Y-71121382D01*
X172254850Y-71164028D01*
X172411743Y-71217668D01*
X172561072Y-71268100D01*
X172692841Y-71311994D01*
X172797052Y-71346024D01*
X172863709Y-71366858D01*
X172865604Y-71367414D01*
X172995407Y-71405328D01*
X173121841Y-71317992D01*
X173188311Y-71268166D01*
X173232993Y-71227139D01*
X173245371Y-71207015D01*
X173244428Y-71165813D01*
X173245668Y-71082881D01*
X173248746Y-70966668D01*
X173253318Y-70825624D01*
X173259037Y-70668201D01*
X173265562Y-70502849D01*
X173272545Y-70338018D01*
X173279640Y-70182159D01*
X173286505Y-70043723D01*
X173292793Y-69931160D01*
X173298160Y-69852921D01*
X173302079Y-69818128D01*
X173338422Y-69742561D01*
X173402883Y-69663090D01*
X173478248Y-69598742D01*
X173521950Y-69575146D01*
X173577156Y-69557159D01*
X173631482Y-69549096D01*
X173690844Y-69553142D01*
X173761153Y-69571488D01*
X173848325Y-69606321D01*
X173958275Y-69659827D01*
X174096913Y-69734195D01*
X174270157Y-69831613D01*
X174370666Y-69889112D01*
X174954436Y-70224198D01*
X175085752Y-70167812D01*
X175161350Y-70129827D01*
X175216367Y-70091987D01*
X175233965Y-70071409D01*
X175243954Y-70036396D01*
X175263163Y-69958963D01*
X175289904Y-69846305D01*
X175322488Y-69705617D01*
X175359223Y-69544096D01*
X175390042Y-69406623D01*
X175429563Y-69232377D01*
X175467247Y-69072110D01*
X175501228Y-68933306D01*
X175529639Y-68823446D01*
X175550614Y-68750015D01*
X175560501Y-68723049D01*
X175638856Y-68625983D01*
X175745682Y-68561941D01*
X175867628Y-68535110D01*
X175991343Y-68549675D01*
X176044740Y-68571208D01*
X176088877Y-68600736D01*
X176164382Y-68658954D01*
X176264845Y-68740589D01*
X176383857Y-68840368D01*
X176515011Y-68953018D01*
X176611158Y-69037193D01*
X176757936Y-69166523D01*
X176872051Y-69265985D01*
X176958889Y-69339364D01*
X177023839Y-69390447D01*
X177072289Y-69423021D01*
X177109624Y-69440871D01*
X177141234Y-69447785D01*
X177172507Y-69447550D01*
X177192333Y-69445660D01*
X177274308Y-69431377D01*
X177343213Y-69410114D01*
X177353921Y-69405081D01*
X177382211Y-69374532D01*
X177424669Y-69304386D01*
X177482203Y-69192849D01*
X177555721Y-69038128D01*
X177646129Y-68838430D01*
X177684982Y-68750650D01*
X177773082Y-68554001D01*
X177851954Y-68384767D01*
X177919395Y-68247363D01*
X177973205Y-68146210D01*
X178011183Y-68085722D01*
X178022648Y-68072840D01*
X178109381Y-68026391D01*
X178221513Y-68001609D01*
X178337556Y-68000608D01*
%TD*%
D11*
%TO.P,Y1,4*%
%TO.N,GND*%
X47350000Y-76450000D03*
%TO.P,Y1,3*%
%TO.N,Net-(C2-Pad2)*%
X47350000Y-73550000D03*
%TO.P,Y1,2*%
%TO.N,GND*%
X49650000Y-73550000D03*
%TO.P,Y1,1*%
%TO.N,Net-(C1-Pad1)*%
X49650000Y-76450000D03*
%TD*%
D12*
%TO.P,K2_6,1*%
%TO.N,/col6*%
X160000000Y-67400000D03*
%TO.P,K2_6,2*%
%TO.N,Net-(D2_6-Pad2)*%
X155000000Y-65300000D03*
%TD*%
%TO.P,K2_1,1*%
%TO.N,/col1*%
X40000000Y-67900000D03*
%TO.P,K2_1,2*%
%TO.N,Net-(D2_1-Pad2)*%
X35000000Y-65800000D03*
%TD*%
%TO.P,K2_0,1*%
%TO.N,/col0*%
X22000000Y-79900000D03*
%TO.P,K2_0,2*%
%TO.N,Net-(D2_0-Pad2)*%
X17000000Y-77800000D03*
%TD*%
%TO.P,K0_5,1*%
%TO.N,/col5*%
X142000000Y-35900000D03*
%TO.P,K0_5,2*%
%TO.N,Net-(D0_5-Pad2)*%
X137000000Y-33800000D03*
%TD*%
%TO.P,K3_6,1*%
%TO.N,/col6*%
X151657032Y-87398962D03*
%TO.P,K3_6,2*%
%TO.N,Net-(D3_6-Pad2)*%
X146283883Y-86664613D03*
%TD*%
%TO.P,K1_6,1*%
%TO.N,/col6*%
X160000000Y-50400000D03*
%TO.P,K1_6,2*%
%TO.N,Net-(D1_6-Pad2)*%
X155000000Y-48300000D03*
%TD*%
%TO.P,K2_5,1*%
%TO.N,/col5*%
X142000000Y-69900000D03*
%TO.P,K2_5,2*%
%TO.N,Net-(D2_5-Pad2)*%
X137000000Y-67800000D03*
%TD*%
%TO.P,K,1*%
%TO.N,/col7*%
X178000000Y-61900000D03*
%TO.P,K,2*%
%TO.N,Net-(D2_7-Pad2)*%
X173000000Y-59800000D03*
%TD*%
%TO.P,K1_9,1*%
%TO.N,/col9*%
X214000000Y-62900000D03*
%TO.P,K1_9,2*%
%TO.N,Net-(D1_9-Pad2)*%
X209000000Y-60800000D03*
%TD*%
%TO.P,K3_5,1*%
%TO.N,/col5*%
X134420000Y-94519550D03*
%TO.P,K3_5,2*%
%TO.N,Net-(D3_5-Pad2)*%
X129039873Y-95200897D03*
%TD*%
%TO.P,K1_8,1*%
%TO.N,/col8*%
X196000000Y-50900000D03*
%TO.P,K1_8,2*%
%TO.N,Net-(D1_8-Pad2)*%
X191000000Y-48800000D03*
%TD*%
%TO.P,K1_5,1*%
%TO.N,/col5*%
X142000000Y-52900000D03*
%TO.P,K1_5,2*%
%TO.N,Net-(D1_5-Pad2)*%
X137000000Y-50800000D03*
%TD*%
%TO.P,K0_9,1*%
%TO.N,/col9*%
X214000000Y-45900000D03*
%TO.P,K0_9,2*%
%TO.N,Net-(D0_9-Pad2)*%
X209000000Y-43800000D03*
%TD*%
%TO.P,K0_6,1*%
%TO.N,/col6*%
X160000000Y-33400000D03*
%TO.P,K0_6,2*%
%TO.N,Net-(D0_6-Pad2)*%
X155000000Y-31300000D03*
%TD*%
%TO.P,K2_8,1*%
%TO.N,/col8*%
X196000000Y-67900000D03*
%TO.P,K2_8,2*%
%TO.N,Net-(D2_8-Pad2)*%
X191000000Y-65800000D03*
%TD*%
%TO.P,K1_7,1*%
%TO.N,/col7*%
X178000000Y-44900000D03*
%TO.P,K1_7,2*%
%TO.N,Net-(D1_7-Pad2)*%
X173000000Y-42800000D03*
%TD*%
%TO.P,K0_7,1*%
%TO.N,/col7*%
X178000000Y-27900000D03*
%TO.P,K0_7,2*%
%TO.N,Net-(D0_7-Pad2)*%
X173000000Y-25800000D03*
%TD*%
%TO.P,K0_8,1*%
%TO.N,/col8*%
X196000000Y-33900000D03*
%TO.P,K0_8,2*%
%TO.N,Net-(D0_8-Pad2)*%
X191000000Y-31800000D03*
%TD*%
%TO.P,K2_9,1*%
%TO.N,/col9*%
X214000000Y-79900000D03*
%TO.P,K2_9,2*%
%TO.N,Net-(D2_9-Pad2)*%
X209000000Y-77800000D03*
%TD*%
%TO.P,K3_3,1*%
%TO.N,/col3*%
X84442968Y-87398962D03*
%TO.P,K3_3,2*%
%TO.N,Net-(D3_3-Pad2)*%
X80156858Y-84076423D03*
%TD*%
%TO.P,K3_4,1*%
%TO.N,/col4*%
X101580000Y-94519550D03*
%TO.P,K3_4,2*%
%TO.N,Net-(D3_4-Pad2)*%
X98299873Y-90200897D03*
%TD*%
%TO.P,K2_4,1*%
%TO.N,/col4*%
X94000000Y-69900000D03*
%TO.P,K2_4,2*%
%TO.N,Net-(D2_4-Pad2)*%
X89000000Y-67800000D03*
%TD*%
%TO.P,K2_3,1*%
%TO.N,/col3*%
X76000000Y-67400000D03*
%TO.P,K2_3,2*%
%TO.N,Net-(D2_3-Pad2)*%
X71000000Y-65300000D03*
%TD*%
%TO.P,K2_2,1*%
%TO.N,/col2*%
X58000000Y-61900000D03*
%TO.P,K2_2,2*%
%TO.N,Net-(D2_2-Pad2)*%
X53000000Y-59800000D03*
%TD*%
%TO.P,K1_3,1*%
%TO.N,/col3*%
X76000000Y-50400000D03*
%TO.P,K1_3,2*%
%TO.N,Net-(D1_3-Pad2)*%
X71000000Y-48300000D03*
%TD*%
%TO.P,K1_2,1*%
%TO.N,/col2*%
X58000000Y-44900000D03*
%TO.P,K1_2,2*%
%TO.N,Net-(D1_2-Pad2)*%
X53000000Y-42800000D03*
%TD*%
%TO.P,K1_0,1*%
%TO.N,/col0*%
X22000000Y-62900000D03*
%TO.P,K1_0,2*%
%TO.N,Net-(D1_0-Pad2)*%
X17000000Y-60800000D03*
%TD*%
%TO.P,K1_1,1*%
%TO.N,/col1*%
X40000000Y-50900000D03*
%TO.P,K1_1,2*%
%TO.N,Net-(D1_1-Pad2)*%
X35000000Y-48800000D03*
%TD*%
%TO.P,K1_4,1*%
%TO.N,/col4*%
X94000000Y-52900000D03*
%TO.P,K1_4,2*%
%TO.N,Net-(D1_4-Pad2)*%
X89000000Y-50800000D03*
%TD*%
%TO.P,K0_3,1*%
%TO.N,/col3*%
X76000000Y-33400000D03*
%TO.P,K0_3,2*%
%TO.N,Net-(D0_3-Pad2)*%
X71000000Y-31300000D03*
%TD*%
%TO.P,K0_0,1*%
%TO.N,/col0*%
X22000000Y-45900000D03*
%TO.P,K0_0,2*%
%TO.N,Net-(D0_0-Pad2)*%
X17000000Y-43800000D03*
%TD*%
%TO.P,K0_1,1*%
%TO.N,/col1*%
X40000000Y-33900000D03*
%TO.P,K0_1,2*%
%TO.N,Net-(D0_1-Pad2)*%
X35000000Y-31800000D03*
%TD*%
%TO.P,K0_4,1*%
%TO.N,/col4*%
X94000000Y-35900000D03*
%TO.P,K0_4,2*%
%TO.N,Net-(D0_4-Pad2)*%
X89000000Y-33800000D03*
%TD*%
%TO.P,K0_2,1*%
%TO.N,/col2*%
X58000000Y-27900000D03*
%TO.P,K0_2,2*%
%TO.N,Net-(D0_2-Pad2)*%
X53000000Y-25800000D03*
%TD*%
D13*
%TO.P,J1,B1*%
%TO.N,GND*%
X108390000Y-60055000D03*
%TO.P,J1,A9*%
%TO.N,VCC*%
X109190000Y-60055000D03*
%TO.P,J1,B9*%
X114090000Y-60055000D03*
%TO.P,J1,B12*%
%TO.N,GND*%
X114890000Y-60055000D03*
%TO.P,J1,A1*%
X114890000Y-60055000D03*
%TO.P,J1,A4*%
%TO.N,VCC*%
X114090000Y-60055000D03*
%TO.P,J1,B4*%
X109190000Y-60055000D03*
%TO.P,J1,A12*%
%TO.N,GND*%
X108390000Y-60055000D03*
D14*
%TO.P,J1,B8*%
%TO.N,N/C*%
X113390000Y-60055000D03*
%TO.P,J1,A5*%
%TO.N,Net-(J1-PadA5)*%
X112890000Y-60055000D03*
%TO.P,J1,B7*%
%TO.N,Net-(J1-PadA7)*%
X112390000Y-60055000D03*
%TO.P,J1,A7*%
X111390000Y-60055000D03*
%TO.P,J1,B6*%
%TO.N,Net-(J1-PadA6)*%
X110890000Y-60055000D03*
%TO.P,J1,A8*%
%TO.N,N/C*%
X110390000Y-60055000D03*
%TO.P,J1,B5*%
%TO.N,Net-(J1-PadB5)*%
X109890000Y-60055000D03*
%TO.P,J1,A6*%
%TO.N,Net-(J1-PadA6)*%
X111890000Y-60055000D03*
D15*
%TO.P,J1,S1*%
%TO.N,GND*%
X107320000Y-59140000D03*
X115960000Y-59140000D03*
D16*
X115960000Y-54960000D03*
X107320000Y-54960000D03*
%TD*%
%TO.P,F1,2*%
%TO.N,VCC*%
%TA.AperFunction,SMDPad,CuDef*%
G36*
G01*
X114775000Y-66625000D02*
X114775000Y-65375000D01*
G75*
G02*
X115025000Y-65125000I250000J0D01*
G01*
X115775000Y-65125000D01*
G75*
G02*
X116025000Y-65375000I0J-250000D01*
G01*
X116025000Y-66625000D01*
G75*
G02*
X115775000Y-66875000I-250000J0D01*
G01*
X115025000Y-66875000D01*
G75*
G02*
X114775000Y-66625000I0J250000D01*
G01*
G37*
%TD.AperFunction*%
%TO.P,F1,1*%
%TO.N,+5V*%
%TA.AperFunction,SMDPad,CuDef*%
G36*
G01*
X111975000Y-66625000D02*
X111975000Y-65375000D01*
G75*
G02*
X112225000Y-65125000I250000J0D01*
G01*
X112975000Y-65125000D01*
G75*
G02*
X113225000Y-65375000I0J-250000D01*
G01*
X113225000Y-66625000D01*
G75*
G02*
X112975000Y-66875000I-250000J0D01*
G01*
X112225000Y-66875000D01*
G75*
G02*
X111975000Y-66625000I0J250000D01*
G01*
G37*
%TD.AperFunction*%
%TD*%
%TO.P,R9,2*%
%TO.N,VDD*%
%TA.AperFunction,SMDPad,CuDef*%
G36*
G01*
X126450000Y-71950001D02*
X126450000Y-71049999D01*
G75*
G02*
X126699999Y-70800000I249999J0D01*
G01*
X127350001Y-70800000D01*
G75*
G02*
X127600000Y-71049999I0J-249999D01*
G01*
X127600000Y-71950001D01*
G75*
G02*
X127350001Y-72200000I-249999J0D01*
G01*
X126699999Y-72200000D01*
G75*
G02*
X126450000Y-71950001I0J249999D01*
G01*
G37*
%TD.AperFunction*%
%TO.P,R9,1*%
%TO.N,Net-(R9-Pad1)*%
%TA.AperFunction,SMDPad,CuDef*%
G36*
G01*
X124400000Y-71950001D02*
X124400000Y-71049999D01*
G75*
G02*
X124649999Y-70800000I249999J0D01*
G01*
X125300001Y-70800000D01*
G75*
G02*
X125550000Y-71049999I0J-249999D01*
G01*
X125550000Y-71950001D01*
G75*
G02*
X125300001Y-72200000I-249999J0D01*
G01*
X124649999Y-72200000D01*
G75*
G02*
X124400000Y-71950001I0J249999D01*
G01*
G37*
%TD.AperFunction*%
%TD*%
%TO.P,C10,2*%
%TO.N,VDD*%
%TA.AperFunction,SMDPad,CuDef*%
G36*
G01*
X122450000Y-71950001D02*
X122450000Y-71049999D01*
G75*
G02*
X122699999Y-70800000I249999J0D01*
G01*
X123350001Y-70800000D01*
G75*
G02*
X123600000Y-71049999I0J-249999D01*
G01*
X123600000Y-71950001D01*
G75*
G02*
X123350001Y-72200000I-249999J0D01*
G01*
X122699999Y-72200000D01*
G75*
G02*
X122450000Y-71950001I0J249999D01*
G01*
G37*
%TD.AperFunction*%
%TO.P,C10,1*%
%TO.N,VSS*%
%TA.AperFunction,SMDPad,CuDef*%
G36*
G01*
X120400000Y-71950001D02*
X120400000Y-71049999D01*
G75*
G02*
X120649999Y-70800000I249999J0D01*
G01*
X121300001Y-70800000D01*
G75*
G02*
X121550000Y-71049999I0J-249999D01*
G01*
X121550000Y-71950001D01*
G75*
G02*
X121300001Y-72200000I-249999J0D01*
G01*
X120649999Y-72200000D01*
G75*
G02*
X120400000Y-71950001I0J249999D01*
G01*
G37*
%TD.AperFunction*%
%TD*%
D17*
%TO.P,U1,44*%
%TO.N,+5V*%
X65200000Y-71000000D03*
%TO.P,U1,43*%
%TO.N,GND*%
X65200000Y-71800000D03*
%TO.P,U1,42*%
%TO.N,N/C*%
X65200000Y-72600000D03*
%TO.P,U1,41*%
%TO.N,/row0\u002C3*%
X65200000Y-73400000D03*
%TO.P,U1,40*%
%TO.N,N/C*%
X65200000Y-74200000D03*
%TO.P,U1,39*%
X65200000Y-75000000D03*
%TO.P,U1,38*%
X65200000Y-75800000D03*
%TO.P,U1,37*%
X65200000Y-76600000D03*
%TO.P,U1,36*%
X65200000Y-77400000D03*
%TO.P,U1,35*%
%TO.N,GND*%
X65200000Y-78200000D03*
%TO.P,U1,34*%
%TO.N,+5V*%
X65200000Y-79000000D03*
D18*
%TO.P,U1,33*%
%TO.N,Net-(R2-Pad2)*%
X63500000Y-80700000D03*
%TO.P,U1,32*%
%TO.N,N/C*%
X62700000Y-80700000D03*
%TO.P,U1,31*%
X61900000Y-80700000D03*
%TO.P,U1,30*%
%TO.N,/col4*%
X61100000Y-80700000D03*
%TO.P,U1,29*%
%TO.N,/col3*%
X60300000Y-80700000D03*
%TO.P,U1,28*%
%TO.N,/col2*%
X59500000Y-80700000D03*
%TO.P,U1,27*%
%TO.N,/col1*%
X58700000Y-80700000D03*
%TO.P,U1,26*%
%TO.N,/col0*%
X57900000Y-80700000D03*
%TO.P,U1,25*%
%TO.N,N/C*%
X57100000Y-80700000D03*
%TO.P,U1,24*%
%TO.N,+5V*%
X56300000Y-80700000D03*
%TO.P,U1,23*%
%TO.N,GND*%
X55500000Y-80700000D03*
D17*
%TO.P,U1,22*%
%TO.N,N/C*%
X53800000Y-79000000D03*
%TO.P,U1,21*%
X53800000Y-78200000D03*
%TO.P,U1,20*%
X53800000Y-77400000D03*
%TO.P,U1,19*%
%TO.N,Net-(Jack0-PadR1)*%
X53800000Y-76600000D03*
%TO.P,U1,18*%
%TO.N,Net-(Jack0-PadT)*%
X53800000Y-75800000D03*
%TO.P,U1,17*%
%TO.N,Net-(C1-Pad1)*%
X53800000Y-75000000D03*
%TO.P,U1,16*%
%TO.N,Net-(C2-Pad2)*%
X53800000Y-74200000D03*
%TO.P,U1,15*%
%TO.N,GND*%
X53800000Y-73400000D03*
%TO.P,U1,14*%
%TO.N,+5V*%
X53800000Y-72600000D03*
%TO.P,U1,13*%
%TO.N,Net-(R1-Pad1)*%
X53800000Y-71800000D03*
%TO.P,U1,12*%
%TO.N,N/C*%
X53800000Y-71000000D03*
D18*
%TO.P,U1,11*%
%TO.N,/row0\u002C0*%
X55500000Y-69300000D03*
%TO.P,U1,10*%
%TO.N,/row0\u002C1*%
X56300000Y-69300000D03*
%TO.P,U1,9*%
%TO.N,/row0\u002C2*%
X57100000Y-69300000D03*
%TO.P,U1,8*%
%TO.N,N/C*%
X57900000Y-69300000D03*
%TO.P,U1,7*%
%TO.N,+5V*%
X58700000Y-69300000D03*
%TO.P,U1,6*%
%TO.N,Net-(C8-Pad1)*%
X59500000Y-69300000D03*
%TO.P,U1,5*%
%TO.N,GND*%
X60300000Y-69300000D03*
%TO.P,U1,4*%
%TO.N,/D+*%
X61100000Y-69300000D03*
%TO.P,U1,3*%
%TO.N,/D-*%
X61900000Y-69300000D03*
%TO.P,U1,2*%
%TO.N,+5V*%
X62700000Y-69300000D03*
%TO.P,U1,1*%
%TO.N,N/C*%
X63500000Y-69300000D03*
%TD*%
D19*
%TO.P,Jack1,R1*%
%TO.N,Net-(Jack1-PadR1)*%
X125200000Y-73700000D03*
%TO.P,Jack1,R2*%
%TO.N,VDD*%
X122200000Y-73700000D03*
%TO.P,Jack1,T*%
%TO.N,Net-(Jack1-PadT)*%
X129200000Y-73700000D03*
%TO.P,Jack1,S*%
%TO.N,VSS*%
X130300000Y-78300000D03*
%TD*%
D20*
%TO.P,D1_6,2*%
%TO.N,Net-(D1_6-Pad2)*%
X158350000Y-39800000D03*
%TO.P,D1_6,1*%
%TO.N,/row1\u002C1*%
X161650000Y-39800000D03*
%TD*%
%TO.P,D0_7,2*%
%TO.N,Net-(D0_7-Pad2)*%
X176350000Y-17300000D03*
%TO.P,D0_7,1*%
%TO.N,/row1\u002C0*%
X179650000Y-17300000D03*
%TD*%
%TO.P,D2_5,2*%
%TO.N,Net-(D2_5-Pad2)*%
X140350000Y-59300000D03*
%TO.P,D2_5,1*%
%TO.N,/row1\u002C2*%
X143650000Y-59300000D03*
%TD*%
%TO.P,D0_5,2*%
%TO.N,Net-(D0_5-Pad2)*%
X140350000Y-25300000D03*
%TO.P,D0_5,1*%
%TO.N,/row1\u002C0*%
X143650000Y-25300000D03*
%TD*%
%TA.AperFunction,SMDPad,CuDef*%
D21*
%TO.P,D3_5,2*%
%TO.N,Net-(D3_5-Pad2)*%
G36*
X127760769Y-85480385D02*
G01*
X128360769Y-86519615D01*
X127581347Y-86969615D01*
X126981347Y-85930385D01*
X127760769Y-85480385D01*
G37*
%TD.AperFunction*%
%TA.AperFunction,SMDPad,CuDef*%
%TO.P,D3_5,1*%
%TO.N,/row1\u002C3*%
G36*
X130618653Y-83830385D02*
G01*
X131218653Y-84869615D01*
X130439231Y-85319615D01*
X129839231Y-84280385D01*
X130618653Y-83830385D01*
G37*
%TD.AperFunction*%
%TD*%
D20*
%TO.P,D1_9,2*%
%TO.N,Net-(D1_9-Pad2)*%
X212350000Y-52300000D03*
%TO.P,D1_9,1*%
%TO.N,/row1\u002C1*%
X215650000Y-52300000D03*
%TD*%
%TO.P,C9,2*%
%TO.N,VDD*%
%TA.AperFunction,SMDPad,CuDef*%
G36*
G01*
X129550000Y-71049999D02*
X129550000Y-71950001D01*
G75*
G02*
X129300001Y-72200000I-249999J0D01*
G01*
X128649999Y-72200000D01*
G75*
G02*
X128400000Y-71950001I0J249999D01*
G01*
X128400000Y-71049999D01*
G75*
G02*
X128649999Y-70800000I249999J0D01*
G01*
X129300001Y-70800000D01*
G75*
G02*
X129550000Y-71049999I0J-249999D01*
G01*
G37*
%TD.AperFunction*%
%TO.P,C9,1*%
%TO.N,VSS*%
%TA.AperFunction,SMDPad,CuDef*%
G36*
G01*
X131600000Y-71049999D02*
X131600000Y-71950001D01*
G75*
G02*
X131350001Y-72200000I-249999J0D01*
G01*
X130699999Y-72200000D01*
G75*
G02*
X130450000Y-71950001I0J249999D01*
G01*
X130450000Y-71049999D01*
G75*
G02*
X130699999Y-70800000I249999J0D01*
G01*
X131350001Y-70800000D01*
G75*
G02*
X131600000Y-71049999I0J-249999D01*
G01*
G37*
%TD.AperFunction*%
%TD*%
%TO.P,D0_6,2*%
%TO.N,Net-(D0_6-Pad2)*%
X158350000Y-22800000D03*
%TO.P,D0_6,1*%
%TO.N,/row1\u002C0*%
X161650000Y-22800000D03*
%TD*%
%TA.AperFunction,SMDPad,CuDef*%
D21*
%TO.P,D3_6,2*%
%TO.N,Net-(D3_6-Pad2)*%
G36*
X147585597Y-76831027D02*
G01*
X147896180Y-77990138D01*
X147026847Y-78223075D01*
X146716264Y-77063964D01*
X147585597Y-76831027D01*
G37*
%TD.AperFunction*%
%TA.AperFunction,SMDPad,CuDef*%
%TO.P,D3_6,1*%
%TO.N,/row1\u002C3*%
G36*
X150773153Y-75976925D02*
G01*
X151083736Y-77136036D01*
X150214403Y-77368973D01*
X149903820Y-76209862D01*
X150773153Y-75976925D01*
G37*
%TD.AperFunction*%
%TD*%
D20*
%TO.P,D2_8,2*%
%TO.N,Net-(D2_8-Pad2)*%
X194350000Y-57300000D03*
%TO.P,D2_8,1*%
%TO.N,/row1\u002C2*%
X197650000Y-57300000D03*
%TD*%
%TO.P,D0_8,2*%
%TO.N,Net-(D0_8-Pad2)*%
X194350000Y-23300000D03*
%TO.P,D0_8,1*%
%TO.N,/row1\u002C0*%
X197650000Y-23300000D03*
%TD*%
%TO.P,D0_9,2*%
%TO.N,Net-(D0_9-Pad2)*%
X212350000Y-35200000D03*
%TO.P,D0_9,1*%
%TO.N,/row1\u002C0*%
X215650000Y-35200000D03*
%TD*%
%TO.P,D2_6,2*%
%TO.N,Net-(D2_6-Pad2)*%
X158350000Y-56700000D03*
%TO.P,D2_6,1*%
%TO.N,/row1\u002C2*%
X161650000Y-56700000D03*
%TD*%
%TO.P,D1_7,2*%
%TO.N,Net-(D1_7-Pad2)*%
X176350000Y-34300000D03*
%TO.P,D1_7,1*%
%TO.N,/row1\u002C1*%
X179650000Y-34300000D03*
%TD*%
%TO.P,U2,28*%
%TO.N,N/C*%
%TA.AperFunction,SMDPad,CuDef*%
G36*
G01*
X129625000Y-52935000D02*
X129625000Y-52635000D01*
G75*
G02*
X129775000Y-52485000I150000J0D01*
G01*
X131525000Y-52485000D01*
G75*
G02*
X131675000Y-52635000I0J-150000D01*
G01*
X131675000Y-52935000D01*
G75*
G02*
X131525000Y-53085000I-150000J0D01*
G01*
X129775000Y-53085000D01*
G75*
G02*
X129625000Y-52935000I0J150000D01*
G01*
G37*
%TD.AperFunction*%
%TO.P,U2,27*%
%TA.AperFunction,SMDPad,CuDef*%
G36*
G01*
X129625000Y-54205000D02*
X129625000Y-53905000D01*
G75*
G02*
X129775000Y-53755000I150000J0D01*
G01*
X131525000Y-53755000D01*
G75*
G02*
X131675000Y-53905000I0J-150000D01*
G01*
X131675000Y-54205000D01*
G75*
G02*
X131525000Y-54355000I-150000J0D01*
G01*
X129775000Y-54355000D01*
G75*
G02*
X129625000Y-54205000I0J150000D01*
G01*
G37*
%TD.AperFunction*%
%TO.P,U2,26*%
%TA.AperFunction,SMDPad,CuDef*%
G36*
G01*
X129625000Y-55475000D02*
X129625000Y-55175000D01*
G75*
G02*
X129775000Y-55025000I150000J0D01*
G01*
X131525000Y-55025000D01*
G75*
G02*
X131675000Y-55175000I0J-150000D01*
G01*
X131675000Y-55475000D01*
G75*
G02*
X131525000Y-55625000I-150000J0D01*
G01*
X129775000Y-55625000D01*
G75*
G02*
X129625000Y-55475000I0J150000D01*
G01*
G37*
%TD.AperFunction*%
%TO.P,U2,25*%
%TO.N,/col9*%
%TA.AperFunction,SMDPad,CuDef*%
G36*
G01*
X129625000Y-56745000D02*
X129625000Y-56445000D01*
G75*
G02*
X129775000Y-56295000I150000J0D01*
G01*
X131525000Y-56295000D01*
G75*
G02*
X131675000Y-56445000I0J-150000D01*
G01*
X131675000Y-56745000D01*
G75*
G02*
X131525000Y-56895000I-150000J0D01*
G01*
X129775000Y-56895000D01*
G75*
G02*
X129625000Y-56745000I0J150000D01*
G01*
G37*
%TD.AperFunction*%
%TO.P,U2,24*%
%TO.N,/col8*%
%TA.AperFunction,SMDPad,CuDef*%
G36*
G01*
X129625000Y-58015000D02*
X129625000Y-57715000D01*
G75*
G02*
X129775000Y-57565000I150000J0D01*
G01*
X131525000Y-57565000D01*
G75*
G02*
X131675000Y-57715000I0J-150000D01*
G01*
X131675000Y-58015000D01*
G75*
G02*
X131525000Y-58165000I-150000J0D01*
G01*
X129775000Y-58165000D01*
G75*
G02*
X129625000Y-58015000I0J150000D01*
G01*
G37*
%TD.AperFunction*%
%TO.P,U2,23*%
%TO.N,/col7*%
%TA.AperFunction,SMDPad,CuDef*%
G36*
G01*
X129625000Y-59285000D02*
X129625000Y-58985000D01*
G75*
G02*
X129775000Y-58835000I150000J0D01*
G01*
X131525000Y-58835000D01*
G75*
G02*
X131675000Y-58985000I0J-150000D01*
G01*
X131675000Y-59285000D01*
G75*
G02*
X131525000Y-59435000I-150000J0D01*
G01*
X129775000Y-59435000D01*
G75*
G02*
X129625000Y-59285000I0J150000D01*
G01*
G37*
%TD.AperFunction*%
%TO.P,U2,22*%
%TO.N,/col6*%
%TA.AperFunction,SMDPad,CuDef*%
G36*
G01*
X129625000Y-60555000D02*
X129625000Y-60255000D01*
G75*
G02*
X129775000Y-60105000I150000J0D01*
G01*
X131525000Y-60105000D01*
G75*
G02*
X131675000Y-60255000I0J-150000D01*
G01*
X131675000Y-60555000D01*
G75*
G02*
X131525000Y-60705000I-150000J0D01*
G01*
X129775000Y-60705000D01*
G75*
G02*
X129625000Y-60555000I0J150000D01*
G01*
G37*
%TD.AperFunction*%
%TO.P,U2,21*%
%TO.N,/col5*%
%TA.AperFunction,SMDPad,CuDef*%
G36*
G01*
X129625000Y-61825000D02*
X129625000Y-61525000D01*
G75*
G02*
X129775000Y-61375000I150000J0D01*
G01*
X131525000Y-61375000D01*
G75*
G02*
X131675000Y-61525000I0J-150000D01*
G01*
X131675000Y-61825000D01*
G75*
G02*
X131525000Y-61975000I-150000J0D01*
G01*
X129775000Y-61975000D01*
G75*
G02*
X129625000Y-61825000I0J150000D01*
G01*
G37*
%TD.AperFunction*%
%TO.P,U2,20*%
%TO.N,N/C*%
%TA.AperFunction,SMDPad,CuDef*%
G36*
G01*
X129625000Y-63095000D02*
X129625000Y-62795000D01*
G75*
G02*
X129775000Y-62645000I150000J0D01*
G01*
X131525000Y-62645000D01*
G75*
G02*
X131675000Y-62795000I0J-150000D01*
G01*
X131675000Y-63095000D01*
G75*
G02*
X131525000Y-63245000I-150000J0D01*
G01*
X129775000Y-63245000D01*
G75*
G02*
X129625000Y-63095000I0J150000D01*
G01*
G37*
%TD.AperFunction*%
%TO.P,U2,19*%
%TA.AperFunction,SMDPad,CuDef*%
G36*
G01*
X129625000Y-64365000D02*
X129625000Y-64065000D01*
G75*
G02*
X129775000Y-63915000I150000J0D01*
G01*
X131525000Y-63915000D01*
G75*
G02*
X131675000Y-64065000I0J-150000D01*
G01*
X131675000Y-64365000D01*
G75*
G02*
X131525000Y-64515000I-150000J0D01*
G01*
X129775000Y-64515000D01*
G75*
G02*
X129625000Y-64365000I0J150000D01*
G01*
G37*
%TD.AperFunction*%
%TO.P,U2,18*%
%TO.N,Net-(R9-Pad1)*%
%TA.AperFunction,SMDPad,CuDef*%
G36*
G01*
X129625000Y-65635000D02*
X129625000Y-65335000D01*
G75*
G02*
X129775000Y-65185000I150000J0D01*
G01*
X131525000Y-65185000D01*
G75*
G02*
X131675000Y-65335000I0J-150000D01*
G01*
X131675000Y-65635000D01*
G75*
G02*
X131525000Y-65785000I-150000J0D01*
G01*
X129775000Y-65785000D01*
G75*
G02*
X129625000Y-65635000I0J150000D01*
G01*
G37*
%TD.AperFunction*%
%TO.P,U2,17*%
%TO.N,VSS*%
%TA.AperFunction,SMDPad,CuDef*%
G36*
G01*
X129625000Y-66905000D02*
X129625000Y-66605000D01*
G75*
G02*
X129775000Y-66455000I150000J0D01*
G01*
X131525000Y-66455000D01*
G75*
G02*
X131675000Y-66605000I0J-150000D01*
G01*
X131675000Y-66905000D01*
G75*
G02*
X131525000Y-67055000I-150000J0D01*
G01*
X129775000Y-67055000D01*
G75*
G02*
X129625000Y-66905000I0J150000D01*
G01*
G37*
%TD.AperFunction*%
%TO.P,U2,16*%
%TA.AperFunction,SMDPad,CuDef*%
G36*
G01*
X129625000Y-68175000D02*
X129625000Y-67875000D01*
G75*
G02*
X129775000Y-67725000I150000J0D01*
G01*
X131525000Y-67725000D01*
G75*
G02*
X131675000Y-67875000I0J-150000D01*
G01*
X131675000Y-68175000D01*
G75*
G02*
X131525000Y-68325000I-150000J0D01*
G01*
X129775000Y-68325000D01*
G75*
G02*
X129625000Y-68175000I0J150000D01*
G01*
G37*
%TD.AperFunction*%
%TO.P,U2,15*%
%TA.AperFunction,SMDPad,CuDef*%
G36*
G01*
X129625000Y-69445000D02*
X129625000Y-69145000D01*
G75*
G02*
X129775000Y-68995000I150000J0D01*
G01*
X131525000Y-68995000D01*
G75*
G02*
X131675000Y-69145000I0J-150000D01*
G01*
X131675000Y-69445000D01*
G75*
G02*
X131525000Y-69595000I-150000J0D01*
G01*
X129775000Y-69595000D01*
G75*
G02*
X129625000Y-69445000I0J150000D01*
G01*
G37*
%TD.AperFunction*%
%TO.P,U2,14*%
%TO.N,N/C*%
%TA.AperFunction,SMDPad,CuDef*%
G36*
G01*
X120325000Y-69445000D02*
X120325000Y-69145000D01*
G75*
G02*
X120475000Y-68995000I150000J0D01*
G01*
X122225000Y-68995000D01*
G75*
G02*
X122375000Y-69145000I0J-150000D01*
G01*
X122375000Y-69445000D01*
G75*
G02*
X122225000Y-69595000I-150000J0D01*
G01*
X120475000Y-69595000D01*
G75*
G02*
X120325000Y-69445000I0J150000D01*
G01*
G37*
%TD.AperFunction*%
%TO.P,U2,13*%
%TO.N,Net-(Jack1-PadR1)*%
%TA.AperFunction,SMDPad,CuDef*%
G36*
G01*
X120325000Y-68175000D02*
X120325000Y-67875000D01*
G75*
G02*
X120475000Y-67725000I150000J0D01*
G01*
X122225000Y-67725000D01*
G75*
G02*
X122375000Y-67875000I0J-150000D01*
G01*
X122375000Y-68175000D01*
G75*
G02*
X122225000Y-68325000I-150000J0D01*
G01*
X120475000Y-68325000D01*
G75*
G02*
X120325000Y-68175000I0J150000D01*
G01*
G37*
%TD.AperFunction*%
%TO.P,U2,12*%
%TO.N,Net-(Jack1-PadT)*%
%TA.AperFunction,SMDPad,CuDef*%
G36*
G01*
X120325000Y-66905000D02*
X120325000Y-66605000D01*
G75*
G02*
X120475000Y-66455000I150000J0D01*
G01*
X122225000Y-66455000D01*
G75*
G02*
X122375000Y-66605000I0J-150000D01*
G01*
X122375000Y-66905000D01*
G75*
G02*
X122225000Y-67055000I-150000J0D01*
G01*
X120475000Y-67055000D01*
G75*
G02*
X120325000Y-66905000I0J150000D01*
G01*
G37*
%TD.AperFunction*%
%TO.P,U2,11*%
%TO.N,N/C*%
%TA.AperFunction,SMDPad,CuDef*%
G36*
G01*
X120325000Y-65635000D02*
X120325000Y-65335000D01*
G75*
G02*
X120475000Y-65185000I150000J0D01*
G01*
X122225000Y-65185000D01*
G75*
G02*
X122375000Y-65335000I0J-150000D01*
G01*
X122375000Y-65635000D01*
G75*
G02*
X122225000Y-65785000I-150000J0D01*
G01*
X120475000Y-65785000D01*
G75*
G02*
X120325000Y-65635000I0J150000D01*
G01*
G37*
%TD.AperFunction*%
%TO.P,U2,10*%
%TO.N,VSS*%
%TA.AperFunction,SMDPad,CuDef*%
G36*
G01*
X120325000Y-64365000D02*
X120325000Y-64065000D01*
G75*
G02*
X120475000Y-63915000I150000J0D01*
G01*
X122225000Y-63915000D01*
G75*
G02*
X122375000Y-64065000I0J-150000D01*
G01*
X122375000Y-64365000D01*
G75*
G02*
X122225000Y-64515000I-150000J0D01*
G01*
X120475000Y-64515000D01*
G75*
G02*
X120325000Y-64365000I0J150000D01*
G01*
G37*
%TD.AperFunction*%
%TO.P,U2,9*%
%TO.N,VDD*%
%TA.AperFunction,SMDPad,CuDef*%
G36*
G01*
X120325000Y-63095000D02*
X120325000Y-62795000D01*
G75*
G02*
X120475000Y-62645000I150000J0D01*
G01*
X122225000Y-62645000D01*
G75*
G02*
X122375000Y-62795000I0J-150000D01*
G01*
X122375000Y-63095000D01*
G75*
G02*
X122225000Y-63245000I-150000J0D01*
G01*
X120475000Y-63245000D01*
G75*
G02*
X120325000Y-63095000I0J150000D01*
G01*
G37*
%TD.AperFunction*%
%TO.P,U2,8*%
%TO.N,N/C*%
%TA.AperFunction,SMDPad,CuDef*%
G36*
G01*
X120325000Y-61825000D02*
X120325000Y-61525000D01*
G75*
G02*
X120475000Y-61375000I150000J0D01*
G01*
X122225000Y-61375000D01*
G75*
G02*
X122375000Y-61525000I0J-150000D01*
G01*
X122375000Y-61825000D01*
G75*
G02*
X122225000Y-61975000I-150000J0D01*
G01*
X120475000Y-61975000D01*
G75*
G02*
X120325000Y-61825000I0J150000D01*
G01*
G37*
%TD.AperFunction*%
%TO.P,U2,7*%
%TA.AperFunction,SMDPad,CuDef*%
G36*
G01*
X120325000Y-60555000D02*
X120325000Y-60255000D01*
G75*
G02*
X120475000Y-60105000I150000J0D01*
G01*
X122225000Y-60105000D01*
G75*
G02*
X122375000Y-60255000I0J-150000D01*
G01*
X122375000Y-60555000D01*
G75*
G02*
X122225000Y-60705000I-150000J0D01*
G01*
X120475000Y-60705000D01*
G75*
G02*
X120325000Y-60555000I0J150000D01*
G01*
G37*
%TD.AperFunction*%
%TO.P,U2,6*%
%TA.AperFunction,SMDPad,CuDef*%
G36*
G01*
X120325000Y-59285000D02*
X120325000Y-58985000D01*
G75*
G02*
X120475000Y-58835000I150000J0D01*
G01*
X122225000Y-58835000D01*
G75*
G02*
X122375000Y-58985000I0J-150000D01*
G01*
X122375000Y-59285000D01*
G75*
G02*
X122225000Y-59435000I-150000J0D01*
G01*
X120475000Y-59435000D01*
G75*
G02*
X120325000Y-59285000I0J150000D01*
G01*
G37*
%TD.AperFunction*%
%TO.P,U2,5*%
%TA.AperFunction,SMDPad,CuDef*%
G36*
G01*
X120325000Y-58015000D02*
X120325000Y-57715000D01*
G75*
G02*
X120475000Y-57565000I150000J0D01*
G01*
X122225000Y-57565000D01*
G75*
G02*
X122375000Y-57715000I0J-150000D01*
G01*
X122375000Y-58015000D01*
G75*
G02*
X122225000Y-58165000I-150000J0D01*
G01*
X120475000Y-58165000D01*
G75*
G02*
X120325000Y-58015000I0J150000D01*
G01*
G37*
%TD.AperFunction*%
%TO.P,U2,4*%
%TO.N,/row1\u002C3*%
%TA.AperFunction,SMDPad,CuDef*%
G36*
G01*
X120325000Y-56745000D02*
X120325000Y-56445000D01*
G75*
G02*
X120475000Y-56295000I150000J0D01*
G01*
X122225000Y-56295000D01*
G75*
G02*
X122375000Y-56445000I0J-150000D01*
G01*
X122375000Y-56745000D01*
G75*
G02*
X122225000Y-56895000I-150000J0D01*
G01*
X120475000Y-56895000D01*
G75*
G02*
X120325000Y-56745000I0J150000D01*
G01*
G37*
%TD.AperFunction*%
%TO.P,U2,3*%
%TO.N,/row1\u002C2*%
%TA.AperFunction,SMDPad,CuDef*%
G36*
G01*
X120325000Y-55475000D02*
X120325000Y-55175000D01*
G75*
G02*
X120475000Y-55025000I150000J0D01*
G01*
X122225000Y-55025000D01*
G75*
G02*
X122375000Y-55175000I0J-150000D01*
G01*
X122375000Y-55475000D01*
G75*
G02*
X122225000Y-55625000I-150000J0D01*
G01*
X120475000Y-55625000D01*
G75*
G02*
X120325000Y-55475000I0J150000D01*
G01*
G37*
%TD.AperFunction*%
%TO.P,U2,2*%
%TO.N,/row1\u002C1*%
%TA.AperFunction,SMDPad,CuDef*%
G36*
G01*
X120325000Y-54205000D02*
X120325000Y-53905000D01*
G75*
G02*
X120475000Y-53755000I150000J0D01*
G01*
X122225000Y-53755000D01*
G75*
G02*
X122375000Y-53905000I0J-150000D01*
G01*
X122375000Y-54205000D01*
G75*
G02*
X122225000Y-54355000I-150000J0D01*
G01*
X120475000Y-54355000D01*
G75*
G02*
X120325000Y-54205000I0J150000D01*
G01*
G37*
%TD.AperFunction*%
%TO.P,U2,1*%
%TO.N,/row1\u002C0*%
%TA.AperFunction,SMDPad,CuDef*%
G36*
G01*
X120325000Y-52935000D02*
X120325000Y-52635000D01*
G75*
G02*
X120475000Y-52485000I150000J0D01*
G01*
X122225000Y-52485000D01*
G75*
G02*
X122375000Y-52635000I0J-150000D01*
G01*
X122375000Y-52935000D01*
G75*
G02*
X122225000Y-53085000I-150000J0D01*
G01*
X120475000Y-53085000D01*
G75*
G02*
X120325000Y-52935000I0J150000D01*
G01*
G37*
%TD.AperFunction*%
%TD*%
%TO.P,D1_8,2*%
%TO.N,Net-(D1_8-Pad2)*%
X194350000Y-40200000D03*
%TO.P,D1_8,1*%
%TO.N,/row1\u002C1*%
X197650000Y-40200000D03*
%TD*%
%TO.P,D2_7,2*%
%TO.N,Net-(D2_7-Pad2)*%
X176350000Y-51300000D03*
%TO.P,D2_7,1*%
%TO.N,/row1\u002C2*%
X179650000Y-51300000D03*
%TD*%
%TO.P,D2_9,2*%
%TO.N,Net-(D2_9-Pad2)*%
X212350000Y-69200000D03*
%TO.P,D2_9,1*%
%TO.N,/row1\u002C2*%
X215650000Y-69200000D03*
%TD*%
%TO.P,D1_5,2*%
%TO.N,Net-(D1_5-Pad2)*%
X140350000Y-42300000D03*
%TO.P,D1_5,1*%
%TO.N,/row1\u002C1*%
X143650000Y-42300000D03*
%TD*%
D22*
%TO.P,SW1,1*%
%TO.N,GND*%
X40000000Y-78700000D03*
%TO.P,SW1,2*%
%TO.N,Net-(R1-Pad1)*%
X40000000Y-75300000D03*
%TD*%
%TA.AperFunction,SMDPad,CuDef*%
D21*
%TO.P,D3_4,2*%
%TO.N,Net-(D3_4-Pad2)*%
G36*
X106100769Y-84160385D02*
G01*
X105500769Y-85199615D01*
X104721347Y-84749615D01*
X105321347Y-83710385D01*
X106100769Y-84160385D01*
G37*
%TD.AperFunction*%
%TA.AperFunction,SMDPad,CuDef*%
%TO.P,D3_4,1*%
%TO.N,/row0\u002C3*%
G36*
X108958653Y-85810385D02*
G01*
X108358653Y-86849615D01*
X107579231Y-86399615D01*
X108179231Y-85360385D01*
X108958653Y-85810385D01*
G37*
%TD.AperFunction*%
%TD*%
%TA.AperFunction,SMDPad,CuDef*%
%TO.P,D3_3,2*%
%TO.N,Net-(D3_3-Pad2)*%
G36*
X86176180Y-76319862D02*
G01*
X85865597Y-77478973D01*
X84996264Y-77246036D01*
X85306847Y-76086925D01*
X86176180Y-76319862D01*
G37*
%TD.AperFunction*%
%TA.AperFunction,SMDPad,CuDef*%
%TO.P,D3_3,1*%
%TO.N,/row0\u002C3*%
G36*
X89363736Y-77173964D02*
G01*
X89053153Y-78333075D01*
X88183820Y-78100138D01*
X88494403Y-76941027D01*
X89363736Y-77173964D01*
G37*
%TD.AperFunction*%
%TD*%
D20*
%TO.P,D2_4,2*%
%TO.N,Net-(D2_4-Pad2)*%
X92350000Y-59250000D03*
%TO.P,D2_4,1*%
%TO.N,/row0\u002C2*%
X95650000Y-59250000D03*
%TD*%
%TO.P,D2_3,2*%
%TO.N,Net-(D2_3-Pad2)*%
X74350000Y-56750000D03*
%TO.P,D2_3,1*%
%TO.N,/row0\u002C2*%
X77650000Y-56750000D03*
%TD*%
%TO.P,D2_2,2*%
%TO.N,Net-(D2_2-Pad2)*%
X56350000Y-51000000D03*
%TO.P,D2_2,1*%
%TO.N,/row0\u002C2*%
X59650000Y-51000000D03*
%TD*%
%TO.P,D2_1,2*%
%TO.N,Net-(D2_1-Pad2)*%
X38350000Y-57250000D03*
%TO.P,D2_1,1*%
%TO.N,/row0\u002C2*%
X41650000Y-57250000D03*
%TD*%
%TO.P,D2_0,2*%
%TO.N,Net-(D2_0-Pad2)*%
X20350000Y-69250000D03*
%TO.P,D2_0,1*%
%TO.N,/row0\u002C2*%
X23650000Y-69250000D03*
%TD*%
%TO.P,D1_4,2*%
%TO.N,Net-(D1_4-Pad2)*%
X92350000Y-42250000D03*
%TO.P,D1_4,1*%
%TO.N,/row0\u002C1*%
X95650000Y-42250000D03*
%TD*%
%TO.P,D1_3,2*%
%TO.N,Net-(D1_3-Pad2)*%
X74350000Y-39500000D03*
%TO.P,D1_3,1*%
%TO.N,/row0\u002C1*%
X77650000Y-39500000D03*
%TD*%
%TO.P,D1_2,2*%
%TO.N,Net-(D1_2-Pad2)*%
X56350000Y-34250000D03*
%TO.P,D1_2,1*%
%TO.N,/row0\u002C1*%
X59650000Y-34250000D03*
%TD*%
%TO.P,D1_1,2*%
%TO.N,Net-(D1_1-Pad2)*%
X38350000Y-40250000D03*
%TO.P,D1_1,1*%
%TO.N,/row0\u002C1*%
X41650000Y-40250000D03*
%TD*%
%TO.P,D1_0,2*%
%TO.N,Net-(D1_0-Pad2)*%
X20350000Y-52000000D03*
%TO.P,D1_0,1*%
%TO.N,/row0\u002C1*%
X23650000Y-52000000D03*
%TD*%
%TO.P,D0_4,2*%
%TO.N,Net-(D0_4-Pad2)*%
X92350000Y-25250000D03*
%TO.P,D0_4,1*%
%TO.N,/row0\u002C0*%
X95650000Y-25250000D03*
%TD*%
%TO.P,D0_3,2*%
%TO.N,Net-(D0_3-Pad2)*%
X74350000Y-22750000D03*
%TO.P,D0_3,1*%
%TO.N,/row0\u002C0*%
X77650000Y-22750000D03*
%TD*%
%TO.P,D0_2,2*%
%TO.N,Net-(D0_2-Pad2)*%
X56350000Y-17250000D03*
%TO.P,D0_2,1*%
%TO.N,/row0\u002C0*%
X59650000Y-17250000D03*
%TD*%
%TO.P,D0_1,2*%
%TO.N,Net-(D0_1-Pad2)*%
X38350000Y-23250000D03*
%TO.P,D0_1,1*%
%TO.N,/row0\u002C0*%
X41650000Y-23250000D03*
%TD*%
%TO.P,D0_0,2*%
%TO.N,Net-(D0_0-Pad2)*%
X20350000Y-35000000D03*
%TO.P,D0_0,1*%
%TO.N,/row0\u002C0*%
X23650000Y-35000000D03*
%TD*%
%TO.P,C3,2*%
%TO.N,GND*%
%TA.AperFunction,SMDPad,CuDef*%
G36*
G01*
X49550000Y-81549999D02*
X49550000Y-82450001D01*
G75*
G02*
X49300001Y-82700000I-249999J0D01*
G01*
X48649999Y-82700000D01*
G75*
G02*
X48400000Y-82450001I0J249999D01*
G01*
X48400000Y-81549999D01*
G75*
G02*
X48649999Y-81300000I249999J0D01*
G01*
X49300001Y-81300000D01*
G75*
G02*
X49550000Y-81549999I0J-249999D01*
G01*
G37*
%TD.AperFunction*%
%TO.P,C3,1*%
%TO.N,+5V*%
%TA.AperFunction,SMDPad,CuDef*%
G36*
G01*
X51600000Y-81549999D02*
X51600000Y-82450001D01*
G75*
G02*
X51350001Y-82700000I-249999J0D01*
G01*
X50699999Y-82700000D01*
G75*
G02*
X50450000Y-82450001I0J249999D01*
G01*
X50450000Y-81549999D01*
G75*
G02*
X50699999Y-81300000I249999J0D01*
G01*
X51350001Y-81300000D01*
G75*
G02*
X51600000Y-81549999I0J-249999D01*
G01*
G37*
%TD.AperFunction*%
%TD*%
%TO.P,R8,2*%
%TO.N,Net-(Jack0-PadR1)*%
%TA.AperFunction,SMDPad,CuDef*%
G36*
G01*
X114949999Y-70450000D02*
X115850001Y-70450000D01*
G75*
G02*
X116100000Y-70699999I0J-249999D01*
G01*
X116100000Y-71350001D01*
G75*
G02*
X115850001Y-71600000I-249999J0D01*
G01*
X114949999Y-71600000D01*
G75*
G02*
X114700000Y-71350001I0J249999D01*
G01*
X114700000Y-70699999D01*
G75*
G02*
X114949999Y-70450000I249999J0D01*
G01*
G37*
%TD.AperFunction*%
%TO.P,R8,1*%
%TO.N,+5V*%
%TA.AperFunction,SMDPad,CuDef*%
G36*
G01*
X114949999Y-68400000D02*
X115850001Y-68400000D01*
G75*
G02*
X116100000Y-68649999I0J-249999D01*
G01*
X116100000Y-69300001D01*
G75*
G02*
X115850001Y-69550000I-249999J0D01*
G01*
X114949999Y-69550000D01*
G75*
G02*
X114700000Y-69300001I0J249999D01*
G01*
X114700000Y-68649999D01*
G75*
G02*
X114949999Y-68400000I249999J0D01*
G01*
G37*
%TD.AperFunction*%
%TD*%
%TO.P,R7,2*%
%TO.N,+5V*%
%TA.AperFunction,SMDPad,CuDef*%
G36*
G01*
X113420001Y-69550000D02*
X112519999Y-69550000D01*
G75*
G02*
X112270000Y-69300001I0J249999D01*
G01*
X112270000Y-68649999D01*
G75*
G02*
X112519999Y-68400000I249999J0D01*
G01*
X113420001Y-68400000D01*
G75*
G02*
X113670000Y-68649999I0J-249999D01*
G01*
X113670000Y-69300001D01*
G75*
G02*
X113420001Y-69550000I-249999J0D01*
G01*
G37*
%TD.AperFunction*%
%TO.P,R7,1*%
%TO.N,Net-(Jack0-PadT)*%
%TA.AperFunction,SMDPad,CuDef*%
G36*
G01*
X113420001Y-71600000D02*
X112519999Y-71600000D01*
G75*
G02*
X112270000Y-71350001I0J249999D01*
G01*
X112270000Y-70699999D01*
G75*
G02*
X112519999Y-70450000I249999J0D01*
G01*
X113420001Y-70450000D01*
G75*
G02*
X113670000Y-70699999I0J-249999D01*
G01*
X113670000Y-71350001D01*
G75*
G02*
X113420001Y-71600000I-249999J0D01*
G01*
G37*
%TD.AperFunction*%
%TD*%
%TO.P,R6,2*%
%TO.N,Net-(J1-PadB5)*%
%TA.AperFunction,SMDPad,CuDef*%
G36*
G01*
X109450000Y-63450001D02*
X109450000Y-62549999D01*
G75*
G02*
X109699999Y-62300000I249999J0D01*
G01*
X110350001Y-62300000D01*
G75*
G02*
X110600000Y-62549999I0J-249999D01*
G01*
X110600000Y-63450001D01*
G75*
G02*
X110350001Y-63700000I-249999J0D01*
G01*
X109699999Y-63700000D01*
G75*
G02*
X109450000Y-63450001I0J249999D01*
G01*
G37*
%TD.AperFunction*%
%TO.P,R6,1*%
%TO.N,GND*%
%TA.AperFunction,SMDPad,CuDef*%
G36*
G01*
X107400000Y-63450001D02*
X107400000Y-62549999D01*
G75*
G02*
X107649999Y-62300000I249999J0D01*
G01*
X108300001Y-62300000D01*
G75*
G02*
X108550000Y-62549999I0J-249999D01*
G01*
X108550000Y-63450001D01*
G75*
G02*
X108300001Y-63700000I-249999J0D01*
G01*
X107649999Y-63700000D01*
G75*
G02*
X107400000Y-63450001I0J249999D01*
G01*
G37*
%TD.AperFunction*%
%TD*%
%TO.P,R5,2*%
%TO.N,Net-(J1-PadA5)*%
%TA.AperFunction,SMDPad,CuDef*%
G36*
G01*
X114050000Y-62549999D02*
X114050000Y-63450001D01*
G75*
G02*
X113800001Y-63700000I-249999J0D01*
G01*
X113149999Y-63700000D01*
G75*
G02*
X112900000Y-63450001I0J249999D01*
G01*
X112900000Y-62549999D01*
G75*
G02*
X113149999Y-62300000I249999J0D01*
G01*
X113800001Y-62300000D01*
G75*
G02*
X114050000Y-62549999I0J-249999D01*
G01*
G37*
%TD.AperFunction*%
%TO.P,R5,1*%
%TO.N,GND*%
%TA.AperFunction,SMDPad,CuDef*%
G36*
G01*
X116100000Y-62549999D02*
X116100000Y-63450001D01*
G75*
G02*
X115850001Y-63700000I-249999J0D01*
G01*
X115199999Y-63700000D01*
G75*
G02*
X114950000Y-63450001I0J249999D01*
G01*
X114950000Y-62549999D01*
G75*
G02*
X115199999Y-62300000I249999J0D01*
G01*
X115850001Y-62300000D01*
G75*
G02*
X116100000Y-62549999I0J-249999D01*
G01*
G37*
%TD.AperFunction*%
%TD*%
%TO.P,R4,2*%
%TO.N,Net-(J1-PadA6)*%
%TA.AperFunction,SMDPad,CuDef*%
G36*
G01*
X108450001Y-69550000D02*
X107549999Y-69550000D01*
G75*
G02*
X107300000Y-69300001I0J249999D01*
G01*
X107300000Y-68649999D01*
G75*
G02*
X107549999Y-68400000I249999J0D01*
G01*
X108450001Y-68400000D01*
G75*
G02*
X108700000Y-68649999I0J-249999D01*
G01*
X108700000Y-69300001D01*
G75*
G02*
X108450001Y-69550000I-249999J0D01*
G01*
G37*
%TD.AperFunction*%
%TO.P,R4,1*%
%TO.N,/D+*%
%TA.AperFunction,SMDPad,CuDef*%
G36*
G01*
X108450001Y-71600000D02*
X107549999Y-71600000D01*
G75*
G02*
X107300000Y-71350001I0J249999D01*
G01*
X107300000Y-70699999D01*
G75*
G02*
X107549999Y-70450000I249999J0D01*
G01*
X108450001Y-70450000D01*
G75*
G02*
X108700000Y-70699999I0J-249999D01*
G01*
X108700000Y-71350001D01*
G75*
G02*
X108450001Y-71600000I-249999J0D01*
G01*
G37*
%TD.AperFunction*%
%TD*%
%TO.P,R3,2*%
%TO.N,Net-(J1-PadA7)*%
%TA.AperFunction,SMDPad,CuDef*%
G36*
G01*
X110980001Y-69550000D02*
X110079999Y-69550000D01*
G75*
G02*
X109830000Y-69300001I0J249999D01*
G01*
X109830000Y-68649999D01*
G75*
G02*
X110079999Y-68400000I249999J0D01*
G01*
X110980001Y-68400000D01*
G75*
G02*
X111230000Y-68649999I0J-249999D01*
G01*
X111230000Y-69300001D01*
G75*
G02*
X110980001Y-69550000I-249999J0D01*
G01*
G37*
%TD.AperFunction*%
%TO.P,R3,1*%
%TO.N,/D-*%
%TA.AperFunction,SMDPad,CuDef*%
G36*
G01*
X110980001Y-71600000D02*
X110079999Y-71600000D01*
G75*
G02*
X109830000Y-71350001I0J249999D01*
G01*
X109830000Y-70699999D01*
G75*
G02*
X110079999Y-70450000I249999J0D01*
G01*
X110980001Y-70450000D01*
G75*
G02*
X111230000Y-70699999I0J-249999D01*
G01*
X111230000Y-71350001D01*
G75*
G02*
X110980001Y-71600000I-249999J0D01*
G01*
G37*
%TD.AperFunction*%
%TD*%
%TO.P,R2,2*%
%TO.N,Net-(R2-Pad2)*%
%TA.AperFunction,SMDPad,CuDef*%
G36*
G01*
X68710000Y-80549999D02*
X68710000Y-81450001D01*
G75*
G02*
X68460001Y-81700000I-249999J0D01*
G01*
X67809999Y-81700000D01*
G75*
G02*
X67560000Y-81450001I0J249999D01*
G01*
X67560000Y-80549999D01*
G75*
G02*
X67809999Y-80300000I249999J0D01*
G01*
X68460001Y-80300000D01*
G75*
G02*
X68710000Y-80549999I0J-249999D01*
G01*
G37*
%TD.AperFunction*%
%TO.P,R2,1*%
%TO.N,GND*%
%TA.AperFunction,SMDPad,CuDef*%
G36*
G01*
X70760000Y-80549999D02*
X70760000Y-81450001D01*
G75*
G02*
X70510001Y-81700000I-249999J0D01*
G01*
X69859999Y-81700000D01*
G75*
G02*
X69610000Y-81450001I0J249999D01*
G01*
X69610000Y-80549999D01*
G75*
G02*
X69859999Y-80300000I249999J0D01*
G01*
X70510001Y-80300000D01*
G75*
G02*
X70760000Y-80549999I0J-249999D01*
G01*
G37*
%TD.AperFunction*%
%TD*%
%TO.P,R1,2*%
%TO.N,+5V*%
%TA.AperFunction,SMDPad,CuDef*%
G36*
G01*
X40425000Y-72450001D02*
X40425000Y-71549999D01*
G75*
G02*
X40674999Y-71300000I249999J0D01*
G01*
X41325001Y-71300000D01*
G75*
G02*
X41575000Y-71549999I0J-249999D01*
G01*
X41575000Y-72450001D01*
G75*
G02*
X41325001Y-72700000I-249999J0D01*
G01*
X40674999Y-72700000D01*
G75*
G02*
X40425000Y-72450001I0J249999D01*
G01*
G37*
%TD.AperFunction*%
%TO.P,R1,1*%
%TO.N,Net-(R1-Pad1)*%
%TA.AperFunction,SMDPad,CuDef*%
G36*
G01*
X38375000Y-72450001D02*
X38375000Y-71549999D01*
G75*
G02*
X38624999Y-71300000I249999J0D01*
G01*
X39275001Y-71300000D01*
G75*
G02*
X39525000Y-71549999I0J-249999D01*
G01*
X39525000Y-72450001D01*
G75*
G02*
X39275001Y-72700000I-249999J0D01*
G01*
X38624999Y-72700000D01*
G75*
G02*
X38375000Y-72450001I0J249999D01*
G01*
G37*
%TD.AperFunction*%
%TD*%
%TO.P,C8,2*%
%TO.N,GND*%
%TA.AperFunction,SMDPad,CuDef*%
G36*
G01*
X59950001Y-65550000D02*
X59049999Y-65550000D01*
G75*
G02*
X58800000Y-65300001I0J249999D01*
G01*
X58800000Y-64649999D01*
G75*
G02*
X59049999Y-64400000I249999J0D01*
G01*
X59950001Y-64400000D01*
G75*
G02*
X60200000Y-64649999I0J-249999D01*
G01*
X60200000Y-65300001D01*
G75*
G02*
X59950001Y-65550000I-249999J0D01*
G01*
G37*
%TD.AperFunction*%
%TO.P,C8,1*%
%TO.N,Net-(C8-Pad1)*%
%TA.AperFunction,SMDPad,CuDef*%
G36*
G01*
X59950001Y-67600000D02*
X59049999Y-67600000D01*
G75*
G02*
X58800000Y-67350001I0J249999D01*
G01*
X58800000Y-66699999D01*
G75*
G02*
X59049999Y-66450000I249999J0D01*
G01*
X59950001Y-66450000D01*
G75*
G02*
X60200000Y-66699999I0J-249999D01*
G01*
X60200000Y-67350001D01*
G75*
G02*
X59950001Y-67600000I-249999J0D01*
G01*
G37*
%TD.AperFunction*%
%TD*%
%TO.P,C7,2*%
%TO.N,GND*%
%TA.AperFunction,SMDPad,CuDef*%
G36*
G01*
X68760000Y-73549999D02*
X68760000Y-74450001D01*
G75*
G02*
X68510001Y-74700000I-249999J0D01*
G01*
X67859999Y-74700000D01*
G75*
G02*
X67610000Y-74450001I0J249999D01*
G01*
X67610000Y-73549999D01*
G75*
G02*
X67859999Y-73300000I249999J0D01*
G01*
X68510001Y-73300000D01*
G75*
G02*
X68760000Y-73549999I0J-249999D01*
G01*
G37*
%TD.AperFunction*%
%TO.P,C7,1*%
%TO.N,+5V*%
%TA.AperFunction,SMDPad,CuDef*%
G36*
G01*
X70810000Y-73549999D02*
X70810000Y-74450001D01*
G75*
G02*
X70560001Y-74700000I-249999J0D01*
G01*
X69909999Y-74700000D01*
G75*
G02*
X69660000Y-74450001I0J249999D01*
G01*
X69660000Y-73549999D01*
G75*
G02*
X69909999Y-73300000I249999J0D01*
G01*
X70560001Y-73300000D01*
G75*
G02*
X70810000Y-73549999I0J-249999D01*
G01*
G37*
%TD.AperFunction*%
%TD*%
%TO.P,C6,2*%
%TO.N,GND*%
%TA.AperFunction,SMDPad,CuDef*%
G36*
G01*
X68730000Y-77049999D02*
X68730000Y-77950001D01*
G75*
G02*
X68480001Y-78200000I-249999J0D01*
G01*
X67829999Y-78200000D01*
G75*
G02*
X67580000Y-77950001I0J249999D01*
G01*
X67580000Y-77049999D01*
G75*
G02*
X67829999Y-76800000I249999J0D01*
G01*
X68480001Y-76800000D01*
G75*
G02*
X68730000Y-77049999I0J-249999D01*
G01*
G37*
%TD.AperFunction*%
%TO.P,C6,1*%
%TO.N,+5V*%
%TA.AperFunction,SMDPad,CuDef*%
G36*
G01*
X70780000Y-77049999D02*
X70780000Y-77950001D01*
G75*
G02*
X70530001Y-78200000I-249999J0D01*
G01*
X69879999Y-78200000D01*
G75*
G02*
X69630000Y-77950001I0J249999D01*
G01*
X69630000Y-77049999D01*
G75*
G02*
X69879999Y-76800000I249999J0D01*
G01*
X70530001Y-76800000D01*
G75*
G02*
X70780000Y-77049999I0J-249999D01*
G01*
G37*
%TD.AperFunction*%
%TD*%
%TO.P,C5,2*%
%TO.N,GND*%
%TA.AperFunction,SMDPad,CuDef*%
G36*
G01*
X49550000Y-67549999D02*
X49550000Y-68450001D01*
G75*
G02*
X49300001Y-68700000I-249999J0D01*
G01*
X48649999Y-68700000D01*
G75*
G02*
X48400000Y-68450001I0J249999D01*
G01*
X48400000Y-67549999D01*
G75*
G02*
X48649999Y-67300000I249999J0D01*
G01*
X49300001Y-67300000D01*
G75*
G02*
X49550000Y-67549999I0J-249999D01*
G01*
G37*
%TD.AperFunction*%
%TO.P,C5,1*%
%TO.N,+5V*%
%TA.AperFunction,SMDPad,CuDef*%
G36*
G01*
X51600000Y-67549999D02*
X51600000Y-68450001D01*
G75*
G02*
X51350001Y-68700000I-249999J0D01*
G01*
X50699999Y-68700000D01*
G75*
G02*
X50450000Y-68450001I0J249999D01*
G01*
X50450000Y-67549999D01*
G75*
G02*
X50699999Y-67300000I249999J0D01*
G01*
X51350001Y-67300000D01*
G75*
G02*
X51600000Y-67549999I0J-249999D01*
G01*
G37*
%TD.AperFunction*%
%TD*%
%TO.P,C4,2*%
%TO.N,GND*%
%TA.AperFunction,SMDPad,CuDef*%
G36*
G01*
X57450001Y-65575000D02*
X56549999Y-65575000D01*
G75*
G02*
X56300000Y-65325001I0J249999D01*
G01*
X56300000Y-64674999D01*
G75*
G02*
X56549999Y-64425000I249999J0D01*
G01*
X57450001Y-64425000D01*
G75*
G02*
X57700000Y-64674999I0J-249999D01*
G01*
X57700000Y-65325001D01*
G75*
G02*
X57450001Y-65575000I-249999J0D01*
G01*
G37*
%TD.AperFunction*%
%TO.P,C4,1*%
%TO.N,+5V*%
%TA.AperFunction,SMDPad,CuDef*%
G36*
G01*
X57450001Y-67625000D02*
X56549999Y-67625000D01*
G75*
G02*
X56300000Y-67375001I0J249999D01*
G01*
X56300000Y-66724999D01*
G75*
G02*
X56549999Y-66475000I249999J0D01*
G01*
X57450001Y-66475000D01*
G75*
G02*
X57700000Y-66724999I0J-249999D01*
G01*
X57700000Y-67375001D01*
G75*
G02*
X57450001Y-67625000I-249999J0D01*
G01*
G37*
%TD.AperFunction*%
%TD*%
%TO.P,C2,2*%
%TO.N,Net-(C2-Pad2)*%
%TA.AperFunction,SMDPad,CuDef*%
G36*
G01*
X48550000Y-70549999D02*
X48550000Y-71450001D01*
G75*
G02*
X48300001Y-71700000I-249999J0D01*
G01*
X47649999Y-71700000D01*
G75*
G02*
X47400000Y-71450001I0J249999D01*
G01*
X47400000Y-70549999D01*
G75*
G02*
X47649999Y-70300000I249999J0D01*
G01*
X48300001Y-70300000D01*
G75*
G02*
X48550000Y-70549999I0J-249999D01*
G01*
G37*
%TD.AperFunction*%
%TO.P,C2,1*%
%TO.N,GND*%
%TA.AperFunction,SMDPad,CuDef*%
G36*
G01*
X50600000Y-70549999D02*
X50600000Y-71450001D01*
G75*
G02*
X50350001Y-71700000I-249999J0D01*
G01*
X49699999Y-71700000D01*
G75*
G02*
X49450000Y-71450001I0J249999D01*
G01*
X49450000Y-70549999D01*
G75*
G02*
X49699999Y-70300000I249999J0D01*
G01*
X50350001Y-70300000D01*
G75*
G02*
X50600000Y-70549999I0J-249999D01*
G01*
G37*
%TD.AperFunction*%
%TD*%
%TO.P,C1,2*%
%TO.N,GND*%
%TA.AperFunction,SMDPad,CuDef*%
G36*
G01*
X48550000Y-78549999D02*
X48550000Y-79450001D01*
G75*
G02*
X48300001Y-79700000I-249999J0D01*
G01*
X47649999Y-79700000D01*
G75*
G02*
X47400000Y-79450001I0J249999D01*
G01*
X47400000Y-78549999D01*
G75*
G02*
X47649999Y-78300000I249999J0D01*
G01*
X48300001Y-78300000D01*
G75*
G02*
X48550000Y-78549999I0J-249999D01*
G01*
G37*
%TD.AperFunction*%
%TO.P,C1,1*%
%TO.N,Net-(C1-Pad1)*%
%TA.AperFunction,SMDPad,CuDef*%
G36*
G01*
X50600000Y-78549999D02*
X50600000Y-79450001D01*
G75*
G02*
X50350001Y-79700000I-249999J0D01*
G01*
X49699999Y-79700000D01*
G75*
G02*
X49450000Y-79450001I0J249999D01*
G01*
X49450000Y-78549999D01*
G75*
G02*
X49699999Y-78300000I249999J0D01*
G01*
X50350001Y-78300000D01*
G75*
G02*
X50600000Y-78549999I0J-249999D01*
G01*
G37*
%TD.AperFunction*%
%TD*%
D19*
%TO.P,Jack0,R1*%
%TO.N,Net-(Jack0-PadR1)*%
X110800000Y-78300000D03*
%TO.P,Jack0,R2*%
%TO.N,+5V*%
X113800000Y-78300000D03*
%TO.P,Jack0,T*%
%TO.N,Net-(Jack0-PadT)*%
X106800000Y-78300000D03*
%TO.P,Jack0,S*%
%TO.N,GND*%
X105700000Y-73700000D03*
%TD*%
D23*
%TO.N,+5V*%
X58250000Y-67830000D03*
X71750000Y-73890000D03*
X71790000Y-77440000D03*
X51140000Y-69260000D03*
X52910000Y-66910000D03*
%TO.N,/col4*%
X61100000Y-79240000D03*
%TO.N,Net-(Jack0-PadR1)*%
X61281760Y-72421702D03*
X65200000Y-69649468D03*
%TO.N,Net-(Jack0-PadT)*%
X60400000Y-71950000D03*
X64516489Y-68843967D03*
%TO.N,Net-(Jack1-PadR1)*%
X122880000Y-68070000D03*
%TO.N,Net-(Jack1-PadT)*%
X123040000Y-66840000D03*
%TO.N,/col0*%
X57955840Y-79263473D03*
%TO.N,/col2*%
X59550000Y-78440000D03*
%TO.N,/col1*%
X58366061Y-78284195D03*
%TO.N,/col3*%
X60830000Y-78080000D03*
%TO.N,/row0\u002C0*%
X53670000Y-69180000D03*
X47855000Y-17045000D03*
%TO.N,/row0\u002C1*%
X54540000Y-70027000D03*
X48577001Y-33322999D03*
%TO.N,/row0\u002C2*%
X55551724Y-71104001D03*
X49304001Y-50072999D03*
%TO.N,Net-(R9-Pad1)*%
X127815500Y-68888354D03*
X124978231Y-67171769D03*
%TO.N,GND*%
X112117000Y-64440000D03*
X110200010Y-64440000D03*
X51720000Y-74620000D03*
X51414989Y-71180000D03*
%TD*%
D24*
%TO.N,+5V*%
X112600000Y-68605000D02*
X112970000Y-68975000D01*
X112600000Y-66000000D02*
X112600000Y-68605000D01*
X112970000Y-68975000D02*
X115400000Y-68975000D01*
X115181000Y-78300000D02*
X113800000Y-78300000D01*
X116549491Y-76931509D02*
X115181000Y-78300000D01*
X116549491Y-70124491D02*
X116549491Y-76931509D01*
X115400000Y-68975000D02*
X116549491Y-70124491D01*
X58700000Y-68280000D02*
X58250000Y-67830000D01*
X58700000Y-69300000D02*
X58700000Y-68280000D01*
X57470000Y-67050000D02*
X58250000Y-67830000D01*
X57000000Y-67050000D02*
X57470000Y-67050000D01*
X66127902Y-71000000D02*
X67457902Y-72330000D01*
X65200000Y-71000000D02*
X66127902Y-71000000D01*
X68565000Y-72330000D02*
X70235000Y-74000000D01*
X67457902Y-72330000D02*
X68565000Y-72330000D01*
X62700000Y-69300000D02*
X62700000Y-70227902D01*
X62912599Y-70440501D02*
X64087401Y-70440501D01*
X87290063Y-75310000D02*
X88077113Y-76097050D01*
X62700000Y-70227902D02*
X62912599Y-70440501D01*
X83609464Y-71719464D02*
X87200000Y-75310000D01*
X87200000Y-75310000D02*
X87290063Y-75310000D01*
X103571474Y-76097050D02*
X104955480Y-77481056D01*
X88077113Y-76097050D02*
X103571474Y-76097050D01*
X64087934Y-70439968D02*
X64087401Y-70440501D01*
X66880032Y-70439968D02*
X64087934Y-70439968D01*
X66880032Y-70439968D02*
X68159528Y-71719464D01*
X71749464Y-73889464D02*
X71750000Y-73890000D01*
X71749464Y-71719464D02*
X71749464Y-73889464D01*
X68159528Y-71719464D02*
X71749464Y-71719464D01*
X71749464Y-71719464D02*
X83609464Y-71719464D01*
X71640000Y-74000000D02*
X71750000Y-73890000D01*
X70235000Y-74000000D02*
X71640000Y-74000000D01*
X56131000Y-82000000D02*
X51025000Y-82000000D01*
X56300000Y-81831000D02*
X56131000Y-82000000D01*
X56300000Y-80700000D02*
X56300000Y-81831000D01*
X57000000Y-67050000D02*
X56390000Y-67050000D01*
X68705000Y-79000000D02*
X70205000Y-77500000D01*
X65200000Y-79000000D02*
X68705000Y-79000000D01*
X71730000Y-77500000D02*
X71790000Y-77440000D01*
X70205000Y-77500000D02*
X71730000Y-77500000D01*
X71790000Y-81075820D02*
X71790000Y-77440000D01*
X68545820Y-84320000D02*
X71790000Y-81075820D01*
X52650000Y-84320000D02*
X68545820Y-84320000D01*
X51025000Y-82695000D02*
X52650000Y-84320000D01*
X51025000Y-82000000D02*
X51025000Y-82695000D01*
X51080000Y-68055000D02*
X51025000Y-68000000D01*
X43671520Y-69328480D02*
X43155000Y-69845000D01*
X50396520Y-69328480D02*
X43671520Y-69328480D01*
X51025000Y-68700000D02*
X50396520Y-69328480D01*
X51025000Y-68000000D02*
X51025000Y-68700000D01*
X43155000Y-69845000D02*
X41000000Y-72000000D01*
X43660000Y-69340000D02*
X43155000Y-69845000D01*
X51071520Y-69328480D02*
X51140000Y-69260000D01*
X50396520Y-69328480D02*
X51071520Y-69328480D01*
X56860000Y-66910000D02*
X57000000Y-67050000D01*
X52910000Y-66910000D02*
X56860000Y-66910000D01*
X104955480Y-77481056D02*
X104955480Y-78981181D01*
X111039115Y-79944520D02*
X105918819Y-79944520D01*
X104955480Y-78981181D02*
X105918819Y-79944520D01*
X112683635Y-78300000D02*
X111039115Y-79944520D01*
X113800000Y-78300000D02*
X112683635Y-78300000D01*
X52872098Y-72600000D02*
X52205489Y-71933391D01*
X53800000Y-72600000D02*
X52872098Y-72600000D01*
X52205489Y-69180489D02*
X51025000Y-68000000D01*
X52205489Y-71933391D02*
X52205489Y-69180489D01*
D25*
%TO.N,Net-(C1-Pad1)*%
X52986398Y-75000000D02*
X52220000Y-75766398D01*
X53800000Y-75000000D02*
X52986398Y-75000000D01*
X52220000Y-75766398D02*
X52220000Y-78230000D01*
X51450000Y-79000000D02*
X50025000Y-79000000D01*
X52220000Y-78230000D02*
X51450000Y-79000000D01*
X49650000Y-78625000D02*
X50025000Y-79000000D01*
X49650000Y-76450000D02*
X49650000Y-78625000D01*
D24*
%TO.N,VCC*%
X109349499Y-59017599D02*
X109427599Y-58939499D01*
X109349499Y-59350501D02*
X109349499Y-59017599D01*
X109190000Y-59510000D02*
X109349499Y-59350501D01*
X109190000Y-60055000D02*
X109190000Y-59510000D01*
X113852401Y-58939499D02*
X113930501Y-59017599D01*
X113930501Y-59895501D02*
X114090000Y-60055000D01*
X113930501Y-59017599D02*
X113930501Y-59895501D01*
X113398391Y-58485489D02*
X113930501Y-59017599D01*
X109881609Y-58485489D02*
X113398391Y-58485489D01*
X109349499Y-59017599D02*
X109881609Y-58485489D01*
X114559490Y-65159490D02*
X115400000Y-66000000D01*
X114559490Y-62403670D02*
X114559490Y-65159490D01*
X114090000Y-61934180D02*
X114559490Y-62403670D01*
X114090000Y-60055000D02*
X114090000Y-61934180D01*
D25*
%TO.N,Net-(C8-Pad1)*%
X59500000Y-69300000D02*
X59500000Y-67025000D01*
%TO.N,/col4*%
X61100000Y-80700000D02*
X61100000Y-79240000D01*
%TO.N,Net-(J1-PadA5)*%
X113475000Y-63000000D02*
X112912999Y-62437999D01*
X112890000Y-60220000D02*
X112890000Y-60055000D01*
X112912999Y-60242999D02*
X112890000Y-60220000D01*
X112912999Y-62437999D02*
X112912999Y-60242999D01*
%TO.N,Net-(J1-PadA7)*%
X112301601Y-61107001D02*
X112390000Y-61018602D01*
X111463001Y-61107001D02*
X112301601Y-61107001D01*
X111390000Y-61034000D02*
X111463001Y-61107001D01*
X112390000Y-61018602D02*
X112390000Y-60055000D01*
X111390000Y-60055000D02*
X111390000Y-61034000D01*
X111390000Y-68115000D02*
X110530000Y-68975000D01*
X111390000Y-60055000D02*
X111390000Y-68115000D01*
%TO.N,Net-(J1-PadA6)*%
X111801601Y-59002999D02*
X111890000Y-59091398D01*
X110963001Y-59002999D02*
X111801601Y-59002999D01*
X110890000Y-59076000D02*
X110963001Y-59002999D01*
X111890000Y-59091398D02*
X111890000Y-60055000D01*
X110890000Y-60055000D02*
X110890000Y-59076000D01*
X110927010Y-66047990D02*
X108000000Y-68975000D01*
X110927010Y-62310992D02*
X110927010Y-66047990D01*
X110890000Y-62273982D02*
X110927010Y-62310992D01*
X110890000Y-60055000D02*
X110890000Y-62273982D01*
%TO.N,Net-(J1-PadB5)*%
X109890000Y-62865000D02*
X109890000Y-60055000D01*
X110025000Y-63000000D02*
X109890000Y-62865000D01*
%TO.N,Net-(Jack0-PadR1)*%
X115400000Y-73700000D02*
X110800000Y-78300000D01*
X115400000Y-71025000D02*
X115400000Y-73700000D01*
X106133178Y-79427010D02*
X109672990Y-79427010D01*
X109672990Y-79427010D02*
X110800000Y-78300000D01*
X105472990Y-78766822D02*
X106133178Y-79427010D01*
X105472990Y-77266698D02*
X105472990Y-78766822D01*
X103785832Y-75579540D02*
X105472990Y-77266698D01*
X88291472Y-75579540D02*
X103785832Y-75579540D01*
X83913887Y-71201954D02*
X88291472Y-75579540D01*
X68373887Y-71201954D02*
X83913887Y-71201954D01*
X57103462Y-76600000D02*
X61281760Y-72421702D01*
X53800000Y-76600000D02*
X57103462Y-76600000D01*
X66821400Y-69649468D02*
X67830966Y-70659034D01*
X65200000Y-69649468D02*
X66821400Y-69649468D01*
X67830966Y-70659034D02*
X68373887Y-71201954D01*
%TO.N,Net-(Jack0-PadT)*%
X66594000Y-68780000D02*
X64630000Y-68780000D01*
X56550000Y-75800000D02*
X60400000Y-71950000D01*
X53800000Y-75800000D02*
X56550000Y-75800000D01*
X66594000Y-68780000D02*
X64580456Y-68780000D01*
X64580456Y-68780000D02*
X64516489Y-68843967D01*
X105926999Y-77426999D02*
X106800000Y-78300000D01*
X105926999Y-77078641D02*
X105926999Y-77426999D01*
X88479529Y-75125530D02*
X103973888Y-75125530D01*
X103973888Y-75125530D02*
X105926999Y-77078641D01*
X84101943Y-70747944D02*
X88479529Y-75125530D01*
X68561943Y-70747944D02*
X84101943Y-70747944D01*
X66594000Y-68780000D02*
X68561943Y-70747944D01*
X112970000Y-73384000D02*
X112970000Y-71025000D01*
X108054000Y-78300000D02*
X112970000Y-73384000D01*
X106800000Y-78300000D02*
X108054000Y-78300000D01*
%TO.N,Net-(Jack1-PadR1)*%
X121395000Y-68070000D02*
X121350000Y-68025000D01*
X122880000Y-68070000D02*
X121395000Y-68070000D01*
%TO.N,Net-(Jack1-PadT)*%
X121435000Y-66840000D02*
X121350000Y-66755000D01*
X123040000Y-66840000D02*
X121435000Y-66840000D01*
%TO.N,/col0*%
X57900000Y-79319313D02*
X57955840Y-79263473D01*
X57900000Y-80700000D02*
X57900000Y-79319313D01*
%TO.N,/col8*%
X190470291Y-67900000D02*
X196000000Y-67900000D01*
X183127290Y-60556999D02*
X190470291Y-67900000D01*
X177355359Y-60556999D02*
X183127290Y-60556999D01*
X172436368Y-65475990D02*
X177355359Y-60556999D01*
X137865055Y-69597011D02*
X137152989Y-69597011D01*
X137865056Y-69597011D02*
X137152989Y-69597011D01*
X130650000Y-57865000D02*
X131583089Y-57865000D01*
X131583089Y-57865000D02*
X134868089Y-61150000D01*
X136167302Y-69597011D02*
X137152989Y-69597011D01*
X134868089Y-68297798D02*
X136167302Y-69597011D01*
X134868089Y-61150000D02*
X134868089Y-68297798D01*
X139970086Y-67491980D02*
X138396033Y-69066033D01*
X138396033Y-69066033D02*
X137865055Y-69597011D01*
X159294302Y-65475990D02*
X162594010Y-65475990D01*
X157426282Y-67344010D02*
X159294302Y-65475990D01*
X140118058Y-67344010D02*
X157426282Y-67344010D01*
X162594010Y-65475990D02*
X172436368Y-65475990D01*
X138396033Y-69066033D02*
X140118058Y-67344010D01*
X162225990Y-65475990D02*
X162594010Y-65475990D01*
%TO.N,/col5*%
X140308268Y-69080000D02*
X141180000Y-69080000D01*
X138429227Y-70959041D02*
X140308268Y-69080000D01*
X141180000Y-69080000D02*
X142000000Y-69900000D01*
X133506059Y-63290000D02*
X133506059Y-68861969D01*
X133506059Y-68861969D02*
X135603131Y-70959041D01*
X131891059Y-61675000D02*
X133506059Y-63290000D01*
X135603131Y-70959041D02*
X138429227Y-70959041D01*
X130650000Y-61675000D02*
X131891059Y-61675000D01*
%TO.N,/col2*%
X59550000Y-80650000D02*
X59500000Y-80700000D01*
X59550000Y-78440000D02*
X59550000Y-80650000D01*
%TO.N,/col1*%
X58700000Y-78618134D02*
X58366061Y-78284195D01*
X58700000Y-80700000D02*
X58700000Y-78618134D01*
%TO.N,/col3*%
X60300000Y-78610000D02*
X60830000Y-78080000D01*
X60300000Y-80700000D02*
X60300000Y-78610000D01*
%TO.N,/col6*%
X140280020Y-68466179D02*
X140048100Y-68698100D01*
X138241170Y-70505031D02*
X140048100Y-68698100D01*
X135791188Y-70505031D02*
X138241170Y-70505031D01*
X133960069Y-62690069D02*
X133960069Y-68673912D01*
X131675000Y-60405000D02*
X133960069Y-62690069D01*
X133960069Y-68673912D02*
X135791188Y-70505031D01*
X130650000Y-60405000D02*
X131675000Y-60405000D01*
X140048100Y-68698100D02*
X140494170Y-68252030D01*
X158654426Y-67400000D02*
X160000000Y-67400000D01*
X157802396Y-68252030D02*
X158654426Y-67400000D01*
X140494170Y-68252030D02*
X157802396Y-68252030D01*
%TO.N,/col7*%
X140158144Y-67945990D02*
X139872067Y-68232067D01*
X172624425Y-65930000D02*
X159482358Y-65930000D01*
X176654425Y-61900000D02*
X172624425Y-65930000D01*
X178000000Y-61900000D02*
X176654425Y-61900000D01*
X140091963Y-68012169D02*
X139872067Y-68232067D01*
X135979245Y-70051021D02*
X138053113Y-70051021D01*
X134414079Y-68485855D02*
X135979245Y-70051021D01*
X131675000Y-59135000D02*
X134414079Y-61874079D01*
X134414079Y-61874079D02*
X134414079Y-68485855D01*
X130650000Y-59135000D02*
X131675000Y-59135000D01*
X139732067Y-68372067D02*
X140306114Y-67798020D01*
X138053113Y-70051021D02*
X139732067Y-68372067D01*
X139732067Y-68372067D02*
X139872067Y-68232067D01*
X158911179Y-66501180D02*
X158911179Y-66501179D01*
X157614339Y-67798020D02*
X158911179Y-66501180D01*
X140306114Y-67798020D02*
X157614339Y-67798020D01*
X159482358Y-65930000D02*
X158911179Y-66501179D01*
%TO.N,Net-(R1-Pad1)*%
X38950000Y-74250000D02*
X40000000Y-75300000D01*
X38950000Y-72000000D02*
X38950000Y-74250000D01*
X40338018Y-70391982D02*
X40076350Y-70391982D01*
X43247509Y-67482490D02*
X40338018Y-70391982D01*
X47693490Y-67482490D02*
X43247509Y-67482490D01*
X51927010Y-67310992D02*
X51589008Y-66972990D01*
X51927010Y-67381012D02*
X51927010Y-67310992D01*
X38950000Y-71518323D02*
X38950000Y-72000000D01*
X48202990Y-66972990D02*
X47693490Y-67482490D01*
X52722999Y-68177001D02*
X51927010Y-67381012D01*
X51589008Y-66972990D02*
X48202990Y-66972990D01*
X52722999Y-71536601D02*
X52722999Y-68177001D01*
X52986398Y-71800000D02*
X52722999Y-71536601D01*
X40076350Y-70391982D02*
X38950000Y-71518323D01*
X53800000Y-71800000D02*
X52986398Y-71800000D01*
%TO.N,Net-(R2-Pad2)*%
X67835000Y-80700000D02*
X68135000Y-81000000D01*
X63500000Y-80700000D02*
X67835000Y-80700000D01*
%TO.N,/col9*%
X196644641Y-66556999D02*
X197343001Y-67255359D01*
X194891179Y-67021179D02*
X195355359Y-66556999D01*
X194888821Y-67021179D02*
X194891179Y-67021179D01*
X194464010Y-67445990D02*
X194888821Y-67021179D01*
X195355359Y-66556999D02*
X196644641Y-66556999D01*
X131675000Y-56595000D02*
X135322099Y-60242099D01*
X135322099Y-60242099D02*
X135322099Y-68109741D01*
X209112358Y-79900000D02*
X214000000Y-79900000D01*
X190658348Y-67445990D02*
X194464010Y-67445990D01*
X136355359Y-69143001D02*
X137676999Y-69143001D01*
X135322099Y-68109741D02*
X136355359Y-69143001D01*
X197343001Y-67255359D02*
X197343001Y-68130643D01*
X139930000Y-66890000D02*
X157238226Y-66890000D01*
X157238226Y-66890000D02*
X159115067Y-65013159D01*
X172248312Y-65021980D02*
X177167302Y-60102990D01*
X137676999Y-69143001D02*
X139930000Y-66890000D01*
X197343001Y-68130643D02*
X209112358Y-79900000D01*
X159115067Y-65013159D02*
X172239491Y-65013159D01*
X130650000Y-56595000D02*
X131675000Y-56595000D01*
X172239491Y-65013159D02*
X172248312Y-65021980D01*
X177167302Y-60102990D02*
X183315347Y-60102989D01*
X183315347Y-60102989D02*
X190658348Y-67445990D01*
%TO.N,/row0\u002C0*%
X59650000Y-17250000D02*
X59922301Y-16977699D01*
X53790000Y-69300000D02*
X53670000Y-69180000D01*
X55500000Y-69300000D02*
X53790000Y-69300000D01*
X40722999Y-22322999D02*
X41650000Y-23250000D01*
X36327001Y-22322999D02*
X40722999Y-22322999D01*
X23650000Y-35000000D02*
X36327001Y-22322999D01*
X58722999Y-16322999D02*
X59650000Y-17250000D01*
X48577001Y-16322999D02*
X58722999Y-16322999D01*
X47855000Y-17045000D02*
X48577001Y-16322999D01*
X41650000Y-23250000D02*
X47855000Y-17045000D01*
X71877699Y-16977699D02*
X77650000Y-22750000D01*
X69867699Y-16977699D02*
X71877699Y-16977699D01*
X59922301Y-16977699D02*
X69867699Y-16977699D01*
X69867699Y-16977699D02*
X70877699Y-16977699D01*
X92877699Y-22477699D02*
X95650000Y-25250000D01*
X77922301Y-22477699D02*
X92877699Y-22477699D01*
X77650000Y-22750000D02*
X77922301Y-22477699D01*
%TO.N,/row1\u002C0*%
X160722999Y-21872999D02*
X161650000Y-22800000D01*
X147077001Y-21872999D02*
X160722999Y-21872999D01*
X143650000Y-25300000D02*
X147077001Y-21872999D01*
X178722999Y-16372999D02*
X179650000Y-17300000D01*
X168077001Y-16372999D02*
X178722999Y-16372999D01*
X161650000Y-22800000D02*
X168077001Y-16372999D01*
X191327699Y-16977699D02*
X197650000Y-23300000D01*
X179972301Y-16977699D02*
X191327699Y-16977699D01*
X179650000Y-17300000D02*
X179972301Y-16977699D01*
X203427699Y-22977699D02*
X215650000Y-35200000D01*
X197972301Y-22977699D02*
X203427699Y-22977699D01*
X197650000Y-23300000D02*
X197972301Y-22977699D01*
X121977010Y-53412010D02*
X121350000Y-52785000D01*
X135322099Y-49812497D02*
X131722586Y-53412010D01*
X135322099Y-39397901D02*
X135322099Y-49812497D01*
X131722586Y-53412010D02*
X121977010Y-53412010D01*
X139958499Y-34761501D02*
X135322099Y-39397901D01*
X139958499Y-28991501D02*
X139958499Y-34761501D01*
X143650000Y-25300000D02*
X139958499Y-28991501D01*
%TO.N,/row1\u002C1*%
X160722999Y-38872999D02*
X161650000Y-39800000D01*
X147077001Y-38872999D02*
X160722999Y-38872999D01*
X143650000Y-42300000D02*
X147077001Y-38872999D01*
X168077001Y-33372999D02*
X161650000Y-39800000D01*
X178722999Y-33372999D02*
X168077001Y-33372999D01*
X179650000Y-34300000D02*
X178722999Y-33372999D01*
X179972301Y-33977699D02*
X191427699Y-33977699D01*
X191427699Y-33977699D02*
X197650000Y-40200000D01*
X179650000Y-34300000D02*
X179972301Y-33977699D01*
X215512358Y-52300000D02*
X215650000Y-52300000D01*
X203190057Y-39977699D02*
X215512358Y-52300000D01*
X197872301Y-39977699D02*
X203190057Y-39977699D01*
X197650000Y-40200000D02*
X197872301Y-39977699D01*
X136737990Y-54682010D02*
X121977010Y-54682010D01*
X139958499Y-51461501D02*
X136737990Y-54682010D01*
X121977010Y-54682010D02*
X121350000Y-54055000D01*
X139958499Y-45991501D02*
X139958499Y-51461501D01*
X143650000Y-42300000D02*
X139958499Y-45991501D01*
%TO.N,/row0\u002C1*%
X40722999Y-39322999D02*
X41650000Y-40250000D01*
X36327001Y-39322999D02*
X40722999Y-39322999D01*
X23650000Y-52000000D02*
X36327001Y-39322999D01*
X58722999Y-33322999D02*
X59650000Y-34250000D01*
X48577001Y-33322999D02*
X58722999Y-33322999D01*
X41650000Y-40250000D02*
X48577001Y-33322999D01*
X72127699Y-33977699D02*
X77650000Y-39500000D01*
X59922301Y-33977699D02*
X72127699Y-33977699D01*
X59650000Y-34250000D02*
X59922301Y-33977699D01*
X92877699Y-39477699D02*
X95650000Y-42250000D01*
X77672301Y-39477699D02*
X92877699Y-39477699D01*
X77650000Y-39500000D02*
X77672301Y-39477699D01*
X54890001Y-70377001D02*
X54540000Y-70027000D01*
X56226999Y-70377001D02*
X54890001Y-70377001D01*
X56300000Y-70304000D02*
X56226999Y-70377001D01*
X56300000Y-69300000D02*
X56300000Y-70304000D01*
%TO.N,/row0\u002C2*%
X40722999Y-56322999D02*
X41650000Y-57250000D01*
X36577001Y-56322999D02*
X40722999Y-56322999D01*
X23650000Y-69250000D02*
X36577001Y-56322999D01*
X58722999Y-50072999D02*
X59650000Y-51000000D01*
X48827001Y-50072999D02*
X58722999Y-50072999D01*
X41650000Y-57250000D02*
X48827001Y-50072999D01*
X71877699Y-50977699D02*
X77650000Y-56750000D01*
X59672301Y-50977699D02*
X71877699Y-50977699D01*
X59650000Y-51000000D02*
X59672301Y-50977699D01*
X92877699Y-56477699D02*
X95650000Y-59250000D01*
X77922301Y-56477699D02*
X92877699Y-56477699D01*
X77650000Y-56750000D02*
X77922301Y-56477699D01*
X56299999Y-71104001D02*
X55551724Y-71104001D01*
X57100000Y-70304000D02*
X56299999Y-71104001D01*
X57100000Y-69300000D02*
X57100000Y-70304000D01*
%TO.N,/row0\u002C3*%
X67620992Y-75027010D02*
X65993982Y-73400000D01*
X71688952Y-75027010D02*
X67620992Y-75027010D01*
X74478988Y-72236974D02*
X71688952Y-75027010D01*
X83395106Y-72236974D02*
X74478988Y-72236974D01*
X83395106Y-72258379D02*
X83395106Y-72236974D01*
X65993982Y-73400000D02*
X65200000Y-73400000D01*
X88773778Y-77637051D02*
X83395106Y-72258379D01*
X100493813Y-77637051D02*
X108268942Y-85412180D01*
X108268942Y-85412180D02*
X108268942Y-86105000D01*
X88773778Y-77637051D02*
X100493813Y-77637051D01*
%TO.N,/row1\u002C3*%
X150324846Y-76504017D02*
X150493778Y-76672949D01*
X138599925Y-76504017D02*
X150324846Y-76504017D01*
X130528942Y-84575000D02*
X138599925Y-76504017D01*
X129577414Y-62317990D02*
X131891983Y-62317990D01*
X123854424Y-56595000D02*
X129577414Y-62317990D01*
X121350000Y-56595000D02*
X123854424Y-56595000D01*
X133052049Y-70956141D02*
X138599925Y-76504017D01*
X133052049Y-63478056D02*
X133052049Y-70956141D01*
X131891983Y-62317990D02*
X133052049Y-63478056D01*
%TO.N,/row1\u002C2*%
X160722999Y-55772999D02*
X161650000Y-56700000D01*
X147177001Y-55772999D02*
X160722999Y-55772999D01*
X143650000Y-59300000D02*
X147177001Y-55772999D01*
X178722999Y-50372999D02*
X179650000Y-51300000D01*
X167977001Y-50372999D02*
X178722999Y-50372999D01*
X161650000Y-56700000D02*
X167977001Y-50372999D01*
X191327699Y-50977699D02*
X197650000Y-57300000D01*
X179972301Y-50977699D02*
X191327699Y-50977699D01*
X179650000Y-51300000D02*
X179972301Y-50977699D01*
X214946000Y-69200000D02*
X215650000Y-69200000D01*
X202723699Y-56977699D02*
X214946000Y-69200000D01*
X197972301Y-56977699D02*
X202723699Y-56977699D01*
X197650000Y-57300000D02*
X197972301Y-56977699D01*
X140302010Y-55952010D02*
X143650000Y-59300000D01*
X121977010Y-55952010D02*
X140302010Y-55952010D01*
X121350000Y-55325000D02*
X121977010Y-55952010D01*
D24*
%TO.N,VDD*%
X122200000Y-72325000D02*
X123025000Y-71500000D01*
X122200000Y-73700000D02*
X122200000Y-72325000D01*
X123025000Y-71500000D02*
X123025000Y-72465000D01*
X123025000Y-72465000D02*
X123580000Y-73020000D01*
X128975000Y-72041365D02*
X128975000Y-71500000D01*
X126125855Y-74890510D02*
X128975000Y-72041365D01*
X124506875Y-74890510D02*
X126125855Y-74890510D01*
X123580000Y-73963635D02*
X124506875Y-74890510D01*
X123580000Y-73020000D02*
X123580000Y-73963635D01*
X128975000Y-71500000D02*
X127025000Y-71500000D01*
X121869398Y-62945000D02*
X121350000Y-62945000D01*
X127025000Y-68100602D02*
X121869398Y-62945000D01*
X127025000Y-71500000D02*
X127025000Y-68100602D01*
%TO.N,VSS*%
X131025000Y-77575000D02*
X131025000Y-71500000D01*
X130300000Y-78300000D02*
X131025000Y-77575000D01*
X131025000Y-69670000D02*
X130650000Y-69295000D01*
X131025000Y-71500000D02*
X131025000Y-69670000D01*
X130650000Y-69295000D02*
X130650000Y-68025000D01*
X130650000Y-68025000D02*
X130650000Y-66755000D01*
X120809490Y-71665510D02*
X120975000Y-71500000D01*
X120809490Y-75039548D02*
X120809490Y-71665510D01*
X124069942Y-78300000D02*
X120809490Y-75039548D01*
X130300000Y-78300000D02*
X124069942Y-78300000D01*
X121869398Y-64215000D02*
X121350000Y-64215000D01*
X123830501Y-66176103D02*
X121869398Y-64215000D01*
X123830501Y-68644499D02*
X123830501Y-66176103D01*
X120975000Y-71500000D02*
X123830501Y-68644499D01*
D25*
%TO.N,Net-(D0_0-Pad2)*%
X18015999Y-42784001D02*
X17000000Y-43800000D01*
X18015999Y-37334001D02*
X18015999Y-42784001D01*
X20350000Y-35000000D02*
X18015999Y-37334001D01*
%TO.N,Net-(D0_1-Pad2)*%
X36015999Y-25584001D02*
X38350000Y-23250000D01*
X36015999Y-30784001D02*
X36015999Y-25584001D01*
X35000000Y-31800000D02*
X36015999Y-30784001D01*
%TO.N,Net-(D0_2-Pad2)*%
X53677901Y-25122099D02*
X53000000Y-25800000D01*
X53677901Y-19078805D02*
X53677901Y-25122099D01*
X55506706Y-17250000D02*
X53677901Y-19078805D01*
X56350000Y-17250000D02*
X55506706Y-17250000D01*
%TO.N,Net-(D0_3-Pad2)*%
X72015999Y-25084001D02*
X74350000Y-22750000D01*
X72015999Y-30284001D02*
X72015999Y-25084001D01*
X71000000Y-31300000D02*
X72015999Y-30284001D01*
%TO.N,Net-(D0_5-Pad2)*%
X138015999Y-27634001D02*
X140350000Y-25300000D01*
X138015999Y-32784001D02*
X138015999Y-27634001D01*
X137000000Y-33800000D02*
X138015999Y-32784001D01*
%TO.N,Net-(D0_6-Pad2)*%
X156015999Y-30284001D02*
X155000000Y-31300000D01*
X156015999Y-25134001D02*
X156015999Y-30284001D01*
X158350000Y-22800000D02*
X156015999Y-25134001D01*
%TO.N,Net-(D0_7-Pad2)*%
X174015999Y-24784001D02*
X173000000Y-25800000D01*
X174015999Y-19634001D02*
X174015999Y-24784001D01*
X176350000Y-17300000D02*
X174015999Y-19634001D01*
%TO.N,Net-(D0_8-Pad2)*%
X192015999Y-30784001D02*
X191000000Y-31800000D01*
X192015999Y-25634001D02*
X192015999Y-30784001D01*
X194350000Y-23300000D02*
X192015999Y-25634001D01*
%TO.N,Net-(D0_9-Pad2)*%
X209677901Y-43122099D02*
X209000000Y-43800000D01*
X209677901Y-37872099D02*
X209677901Y-43122099D01*
X212350000Y-35200000D02*
X209677901Y-37872099D01*
%TO.N,Net-(D1_0-Pad2)*%
X18015999Y-59784001D02*
X17000000Y-60800000D01*
X18015999Y-54334001D02*
X18015999Y-59784001D01*
X20350000Y-52000000D02*
X18015999Y-54334001D01*
%TO.N,Net-(D1_1-Pad2)*%
X35677901Y-48122099D02*
X35000000Y-48800000D01*
X35677901Y-42922099D02*
X35677901Y-48122099D01*
X38350000Y-40250000D02*
X35677901Y-42922099D01*
%TO.N,Net-(D1_2-Pad2)*%
X54015999Y-41784001D02*
X53000000Y-42800000D01*
X54015999Y-36584001D02*
X54015999Y-41784001D01*
X56350000Y-34250000D02*
X54015999Y-36584001D01*
%TO.N,Net-(D1_3-Pad2)*%
X72015999Y-47284001D02*
X71000000Y-48300000D01*
X72015999Y-41834001D02*
X72015999Y-47284001D01*
X74350000Y-39500000D02*
X72015999Y-41834001D01*
%TO.N,Net-(D1_4-Pad2)*%
X89677901Y-50122099D02*
X89000000Y-50800000D01*
X89677901Y-44922099D02*
X89677901Y-50122099D01*
X92350000Y-42250000D02*
X89677901Y-44922099D01*
%TO.N,Net-(D1_5-Pad2)*%
X138015999Y-44634001D02*
X140350000Y-42300000D01*
X138015999Y-49784001D02*
X138015999Y-44634001D01*
X137000000Y-50800000D02*
X138015999Y-49784001D01*
%TO.N,Net-(D1_6-Pad2)*%
X156015999Y-42134001D02*
X158350000Y-39800000D01*
X156015999Y-47284001D02*
X156015999Y-42134001D01*
X155000000Y-48300000D02*
X156015999Y-47284001D01*
%TO.N,Net-(D1_7-Pad2)*%
X174015999Y-41784001D02*
X173000000Y-42800000D01*
X174015999Y-36634001D02*
X174015999Y-41784001D01*
X176350000Y-34300000D02*
X174015999Y-36634001D01*
%TO.N,Net-(D1_8-Pad2)*%
X192015999Y-47784001D02*
X191000000Y-48800000D01*
X192015999Y-42534001D02*
X192015999Y-47784001D01*
X194350000Y-40200000D02*
X192015999Y-42534001D01*
%TO.N,Net-(D1_9-Pad2)*%
X210015999Y-54634001D02*
X212350000Y-52300000D01*
X210015999Y-59784001D02*
X210015999Y-54634001D01*
X209000000Y-60800000D02*
X210015999Y-59784001D01*
%TO.N,Net-(D2_0-Pad2)*%
X17677901Y-77122099D02*
X17000000Y-77800000D01*
X17677901Y-71218099D02*
X17677901Y-77122099D01*
X19646000Y-69250000D02*
X17677901Y-71218099D01*
X20350000Y-69250000D02*
X19646000Y-69250000D01*
%TO.N,Net-(D2_1-Pad2)*%
X35677901Y-65122099D02*
X35000000Y-65800000D01*
X35677901Y-59922099D02*
X35677901Y-65122099D01*
X38350000Y-57250000D02*
X35677901Y-59922099D01*
%TO.N,Net-(D2_2-Pad2)*%
X53677901Y-59122099D02*
X53000000Y-59800000D01*
X53677901Y-52968099D02*
X53677901Y-59122099D01*
X55646000Y-51000000D02*
X53677901Y-52968099D01*
X56350000Y-51000000D02*
X55646000Y-51000000D01*
%TO.N,Net-(D2_3-Pad2)*%
X72015999Y-64284001D02*
X71000000Y-65300000D01*
X72015999Y-59084001D02*
X72015999Y-64284001D01*
X74350000Y-56750000D02*
X72015999Y-59084001D01*
%TO.N,Net-(D2_4-Pad2)*%
X89677901Y-67122099D02*
X89000000Y-67800000D01*
X89677901Y-61922099D02*
X89677901Y-67122099D01*
X92350000Y-59250000D02*
X89677901Y-61922099D01*
%TO.N,Net-(D2_5-Pad2)*%
X138015999Y-61634001D02*
X138015999Y-66784001D01*
X138015999Y-66784001D02*
X137000000Y-67800000D01*
X140350000Y-59300000D02*
X138015999Y-61634001D01*
%TO.N,Net-(D2_6-Pad2)*%
X156015999Y-59034001D02*
X158350000Y-56700000D01*
X156015999Y-64284001D02*
X156015999Y-59034001D01*
X155000000Y-65300000D02*
X156015999Y-64284001D01*
%TO.N,Net-(D2_7-Pad2)*%
X174015999Y-53634001D02*
X176350000Y-51300000D01*
X174015999Y-58784001D02*
X174015999Y-53634001D01*
X173000000Y-59800000D02*
X174015999Y-58784001D01*
%TO.N,Net-(D2_8-Pad2)*%
X192015999Y-59634001D02*
X194350000Y-57300000D01*
X192015999Y-64784001D02*
X192015999Y-59634001D01*
X191000000Y-65800000D02*
X192015999Y-64784001D01*
%TO.N,Net-(D2_9-Pad2)*%
X210015999Y-71534001D02*
X212350000Y-69200000D01*
X210015999Y-76784001D02*
X210015999Y-71534001D01*
X209000000Y-77800000D02*
X210015999Y-76784001D01*
%TO.N,Net-(D3_3-Pad2)*%
X85586222Y-78647059D02*
X85586222Y-76782949D01*
X80156858Y-84076423D02*
X85586222Y-78647059D01*
%TO.N,Net-(D3_4-Pad2)*%
X104045770Y-84455000D02*
X105411058Y-84455000D01*
X98299873Y-90200897D02*
X104045770Y-84455000D01*
%TO.N,Net-(D3_5-Pad2)*%
X128110288Y-94271312D02*
X129039873Y-95200897D01*
X128110288Y-86664230D02*
X128110288Y-94271312D01*
X127671058Y-86225000D02*
X128110288Y-86664230D01*
%TO.N,Net-(D3_6-Pad2)*%
X147306222Y-85642274D02*
X146283883Y-86664613D01*
X147306222Y-77527051D02*
X147306222Y-85642274D01*
%TO.N,Net-(D0_4-Pad2)*%
X90015999Y-32784001D02*
X89000000Y-33800000D01*
X90015999Y-27584001D02*
X90015999Y-32784001D01*
X92350000Y-25250000D02*
X90015999Y-27584001D01*
%TO.N,Net-(C2-Pad2)*%
X47350000Y-73311398D02*
X47350000Y-73550000D01*
X48488399Y-72172999D02*
X47350000Y-73311398D01*
X50768999Y-72172999D02*
X48488399Y-72172999D01*
X52796000Y-74200000D02*
X50768999Y-72172999D01*
X53800000Y-74200000D02*
X52796000Y-74200000D01*
X47350000Y-71625000D02*
X47975000Y-71000000D01*
X47350000Y-73550000D02*
X47350000Y-71625000D01*
%TO.N,/D-*%
X110530000Y-71600000D02*
X110530000Y-71025000D01*
X106713490Y-75416510D02*
X110530000Y-71600000D01*
X84289999Y-70293934D02*
X68750000Y-70293934D01*
X88667584Y-74671520D02*
X84289999Y-70293934D01*
X104161944Y-74671520D02*
X88667584Y-74671520D01*
X104906933Y-75416509D02*
X104161944Y-74671520D01*
X106713490Y-75416510D02*
X104906933Y-75416509D01*
X62269431Y-68116967D02*
X66573033Y-68116967D01*
X61900000Y-68486398D02*
X62269431Y-68116967D01*
X61900000Y-69300000D02*
X61900000Y-68486398D01*
X68750000Y-70293934D02*
X66573033Y-68116967D01*
%TO.N,/D+*%
X108000000Y-73193832D02*
X108000000Y-71025000D01*
X106231332Y-74962500D02*
X108000000Y-73193832D01*
X88855641Y-74217510D02*
X104350000Y-74217510D01*
X68822142Y-69724011D02*
X84362142Y-69724011D01*
X105094990Y-74962500D02*
X106231332Y-74962500D01*
X84362142Y-69724011D02*
X88855641Y-74217510D01*
X66761089Y-67662957D02*
X68822142Y-69724011D01*
X104350000Y-74217510D02*
X105094990Y-74962500D01*
X61733043Y-67662957D02*
X66761089Y-67662957D01*
X61100000Y-68296000D02*
X61733043Y-67662957D01*
X61100000Y-69300000D02*
X61100000Y-68296000D01*
%TO.N,Net-(R9-Pad1)*%
X127815500Y-67294500D02*
X127815500Y-68888354D01*
X129625000Y-65485000D02*
X127815500Y-67294500D01*
X130650000Y-65485000D02*
X129625000Y-65485000D01*
X124978231Y-71496769D02*
X124975000Y-71500000D01*
X124978231Y-67171769D02*
X124978231Y-71496769D01*
D24*
%TO.N,GND*%
X107320000Y-59140000D02*
X107320000Y-54960000D01*
X115960000Y-54960000D02*
X115960000Y-59140000D01*
X108390000Y-62585000D02*
X107975000Y-63000000D01*
X108390000Y-60055000D02*
X108390000Y-62585000D01*
X107320000Y-62345000D02*
X107975000Y-63000000D01*
X107320000Y-59140000D02*
X107320000Y-62345000D01*
X115525000Y-60690000D02*
X115525000Y-63000000D01*
X114890000Y-60055000D02*
X115525000Y-60690000D01*
X107320000Y-54960000D02*
X115960000Y-54960000D01*
X59475000Y-65000000D02*
X59500000Y-64975000D01*
X57000000Y-65000000D02*
X59475000Y-65000000D01*
X105700000Y-65275000D02*
X107975000Y-63000000D01*
X105700000Y-73700000D02*
X105700000Y-65275000D01*
D25*
X112856018Y-64440000D02*
X112117000Y-64440000D01*
X113552010Y-65968028D02*
X113552010Y-65135992D01*
X114785992Y-67202010D02*
X113552010Y-65968028D01*
X116014008Y-67202010D02*
X114785992Y-67202010D01*
X113552010Y-65135992D02*
X112856018Y-64440000D01*
X116352010Y-66864008D02*
X116014008Y-67202010D01*
X116352010Y-63827010D02*
X116352010Y-66864008D01*
X115525000Y-63000000D02*
X116352010Y-63827010D01*
X109415000Y-64440000D02*
X107975000Y-63000000D01*
X110200010Y-64440000D02*
X109415000Y-64440000D01*
D24*
X64805000Y-64975000D02*
X59500000Y-64975000D01*
X69036501Y-69206501D02*
X64805000Y-64975000D01*
X89070000Y-73700000D02*
X84576501Y-69206501D01*
X84576501Y-69206501D02*
X69036501Y-69206501D01*
X105700000Y-73700000D02*
X89070000Y-73700000D01*
X60590510Y-66065510D02*
X59500000Y-64975000D01*
X60590510Y-67615310D02*
X60590510Y-66065510D01*
X60300000Y-67905820D02*
X60590510Y-67615310D01*
X60300000Y-69300000D02*
X60300000Y-67905820D01*
X68185000Y-73878770D02*
X68185000Y-74000000D01*
X66106230Y-71800000D02*
X68185000Y-73878770D01*
X65200000Y-71800000D02*
X66106230Y-71800000D01*
X41240501Y-77459499D02*
X40000000Y-78700000D01*
X41240501Y-74537599D02*
X41240501Y-77459499D01*
X39915510Y-73212608D02*
X41240501Y-74537599D01*
X39915510Y-71284690D02*
X39915510Y-73212608D01*
X40290710Y-70909490D02*
X39915510Y-71284690D01*
X40552378Y-70909490D02*
X40290710Y-70909490D01*
X43461868Y-68000000D02*
X40552378Y-70909490D01*
X48975000Y-68000000D02*
X43461868Y-68000000D01*
X40000000Y-78700000D02*
X40000000Y-78850000D01*
X43150000Y-82000000D02*
X48975000Y-82000000D01*
X40000000Y-78850000D02*
X43150000Y-82000000D01*
X64272098Y-78200000D02*
X65200000Y-78200000D01*
X64059499Y-78412599D02*
X64272098Y-78200000D01*
X64059499Y-79587401D02*
X64059499Y-78412599D01*
X64137599Y-79665501D02*
X64059499Y-79587401D01*
X68850501Y-79665501D02*
X64137599Y-79665501D01*
X70185000Y-81000000D02*
X68850501Y-79665501D01*
X67455000Y-78200000D02*
X68155000Y-77500000D01*
X65200000Y-78200000D02*
X67455000Y-78200000D01*
X64059499Y-77987401D02*
X64059499Y-72012599D01*
X64137599Y-78065501D02*
X64059499Y-77987401D01*
X64059499Y-72012599D02*
X64137599Y-71934499D01*
X65185501Y-78065501D02*
X64137599Y-78065501D01*
X65200000Y-78080000D02*
X65185501Y-78065501D01*
X65200000Y-78200000D02*
X65200000Y-78080000D01*
X64750000Y-71800000D02*
X65200000Y-71800000D01*
X64615501Y-71934499D02*
X64750000Y-71800000D01*
X64137599Y-71934499D02*
X64615501Y-71934499D01*
X60300000Y-70330000D02*
X60300000Y-69300000D01*
X61770000Y-71800000D02*
X60300000Y-70330000D01*
X65200000Y-71800000D02*
X61770000Y-71800000D01*
X60300000Y-70227902D02*
X60300000Y-69300000D01*
X57127902Y-73400000D02*
X60300000Y-70227902D01*
X53800000Y-73400000D02*
X57127902Y-73400000D01*
X62839499Y-77289499D02*
X63750000Y-78200000D01*
X63750000Y-78200000D02*
X65200000Y-78200000D01*
X57779501Y-77289499D02*
X62839499Y-77289499D01*
X55500000Y-79569000D02*
X57779501Y-77289499D01*
X55500000Y-80700000D02*
X55500000Y-79569000D01*
X50065510Y-80909490D02*
X55290510Y-80909490D01*
X55290510Y-80909490D02*
X55500000Y-80700000D01*
X48975000Y-82000000D02*
X50065510Y-80909490D01*
X49650000Y-73902902D02*
X49650000Y-73550000D01*
X47350000Y-76202902D02*
X49650000Y-73902902D01*
X47350000Y-76450000D02*
X47350000Y-76202902D01*
X52850426Y-73400000D02*
X53800000Y-73400000D01*
X50450426Y-71000000D02*
X52850426Y-73400000D01*
X50025000Y-71000000D02*
X50450426Y-71000000D01*
X47975000Y-77075000D02*
X47350000Y-76450000D01*
X47975000Y-79000000D02*
X47975000Y-77075000D01*
X50650000Y-73550000D02*
X51720000Y-74620000D01*
X49650000Y-73550000D02*
X50650000Y-73550000D01*
X50205000Y-71180000D02*
X50025000Y-71000000D01*
X51414989Y-71180000D02*
X50205000Y-71180000D01*
%TD*%
D25*
%TO.N,GND*%
G36*
X46829528Y-70210149D02*
G01*
X46778992Y-70376745D01*
X46761928Y-70549999D01*
X46761928Y-71140422D01*
X46713355Y-71199608D01*
X46642599Y-71331985D01*
X46599027Y-71475622D01*
X46584314Y-71625000D01*
X46588001Y-71662433D01*
X46588001Y-71861928D01*
X46450000Y-71861928D01*
X46325518Y-71874188D01*
X46205820Y-71910498D01*
X46095506Y-71969463D01*
X45998815Y-72048815D01*
X45919463Y-72145506D01*
X45860498Y-72255820D01*
X45824188Y-72375518D01*
X45811928Y-72500000D01*
X45811928Y-74600000D01*
X45824188Y-74724482D01*
X45860498Y-74844180D01*
X45919463Y-74954494D01*
X45956809Y-75000000D01*
X45919463Y-75045506D01*
X45860498Y-75155820D01*
X45824188Y-75275518D01*
X45811928Y-75400000D01*
X45815000Y-76164250D01*
X45973750Y-76323000D01*
X47223000Y-76323000D01*
X47223000Y-76303000D01*
X47477000Y-76303000D01*
X47477000Y-76323000D01*
X47497000Y-76323000D01*
X47497000Y-76577000D01*
X47477000Y-76577000D01*
X47477000Y-76597000D01*
X47223000Y-76597000D01*
X47223000Y-76577000D01*
X45973750Y-76577000D01*
X45815000Y-76735750D01*
X45811928Y-77500000D01*
X45824188Y-77624482D01*
X45860498Y-77744180D01*
X45919463Y-77854494D01*
X45998815Y-77951185D01*
X46095506Y-78030537D01*
X46205820Y-78089502D01*
X46325518Y-78125812D01*
X46450000Y-78138072D01*
X46786057Y-78136391D01*
X46774188Y-78175518D01*
X46761928Y-78300000D01*
X46765000Y-78714250D01*
X46923750Y-78873000D01*
X47848000Y-78873000D01*
X47848000Y-78853000D01*
X48102000Y-78853000D01*
X48102000Y-78873000D01*
X48122000Y-78873000D01*
X48122000Y-79127000D01*
X48102000Y-79127000D01*
X48102000Y-80176250D01*
X48260750Y-80335000D01*
X48550000Y-80338072D01*
X48674482Y-80325812D01*
X48794180Y-80289502D01*
X48904494Y-80230537D01*
X49001185Y-80151185D01*
X49066658Y-80071406D01*
X49072038Y-80077962D01*
X49206613Y-80188405D01*
X49360149Y-80270472D01*
X49526745Y-80321008D01*
X49699999Y-80338072D01*
X50350001Y-80338072D01*
X50523255Y-80321008D01*
X50689851Y-80270472D01*
X50843387Y-80188405D01*
X50977962Y-80077962D01*
X51088405Y-79943387D01*
X51170472Y-79789851D01*
X51178920Y-79762000D01*
X51412577Y-79762000D01*
X51450000Y-79765686D01*
X51487423Y-79762000D01*
X51487426Y-79762000D01*
X51599378Y-79750974D01*
X51743015Y-79707402D01*
X51875392Y-79636645D01*
X51991422Y-79541422D01*
X52015284Y-79512347D01*
X52411928Y-79115703D01*
X52411928Y-79275000D01*
X52424188Y-79399482D01*
X52460498Y-79519180D01*
X52519463Y-79629494D01*
X52545358Y-79661047D01*
X52547645Y-80495811D01*
X45171659Y-80370139D01*
X45169823Y-79700000D01*
X46761928Y-79700000D01*
X46774188Y-79824482D01*
X46810498Y-79944180D01*
X46869463Y-80054494D01*
X46948815Y-80151185D01*
X47045506Y-80230537D01*
X47155820Y-80289502D01*
X47275518Y-80325812D01*
X47400000Y-80338072D01*
X47689250Y-80335000D01*
X47848000Y-80176250D01*
X47848000Y-79127000D01*
X46923750Y-79127000D01*
X46765000Y-79285750D01*
X46761928Y-79700000D01*
X45169823Y-79700000D01*
X45143669Y-70153980D01*
X46859551Y-70153980D01*
X46829528Y-70210149D01*
G37*
X46829528Y-70210149D02*
X46778992Y-70376745D01*
X46761928Y-70549999D01*
X46761928Y-71140422D01*
X46713355Y-71199608D01*
X46642599Y-71331985D01*
X46599027Y-71475622D01*
X46584314Y-71625000D01*
X46588001Y-71662433D01*
X46588001Y-71861928D01*
X46450000Y-71861928D01*
X46325518Y-71874188D01*
X46205820Y-71910498D01*
X46095506Y-71969463D01*
X45998815Y-72048815D01*
X45919463Y-72145506D01*
X45860498Y-72255820D01*
X45824188Y-72375518D01*
X45811928Y-72500000D01*
X45811928Y-74600000D01*
X45824188Y-74724482D01*
X45860498Y-74844180D01*
X45919463Y-74954494D01*
X45956809Y-75000000D01*
X45919463Y-75045506D01*
X45860498Y-75155820D01*
X45824188Y-75275518D01*
X45811928Y-75400000D01*
X45815000Y-76164250D01*
X45973750Y-76323000D01*
X47223000Y-76323000D01*
X47223000Y-76303000D01*
X47477000Y-76303000D01*
X47477000Y-76323000D01*
X47497000Y-76323000D01*
X47497000Y-76577000D01*
X47477000Y-76577000D01*
X47477000Y-76597000D01*
X47223000Y-76597000D01*
X47223000Y-76577000D01*
X45973750Y-76577000D01*
X45815000Y-76735750D01*
X45811928Y-77500000D01*
X45824188Y-77624482D01*
X45860498Y-77744180D01*
X45919463Y-77854494D01*
X45998815Y-77951185D01*
X46095506Y-78030537D01*
X46205820Y-78089502D01*
X46325518Y-78125812D01*
X46450000Y-78138072D01*
X46786057Y-78136391D01*
X46774188Y-78175518D01*
X46761928Y-78300000D01*
X46765000Y-78714250D01*
X46923750Y-78873000D01*
X47848000Y-78873000D01*
X47848000Y-78853000D01*
X48102000Y-78853000D01*
X48102000Y-78873000D01*
X48122000Y-78873000D01*
X48122000Y-79127000D01*
X48102000Y-79127000D01*
X48102000Y-80176250D01*
X48260750Y-80335000D01*
X48550000Y-80338072D01*
X48674482Y-80325812D01*
X48794180Y-80289502D01*
X48904494Y-80230537D01*
X49001185Y-80151185D01*
X49066658Y-80071406D01*
X49072038Y-80077962D01*
X49206613Y-80188405D01*
X49360149Y-80270472D01*
X49526745Y-80321008D01*
X49699999Y-80338072D01*
X50350001Y-80338072D01*
X50523255Y-80321008D01*
X50689851Y-80270472D01*
X50843387Y-80188405D01*
X50977962Y-80077962D01*
X51088405Y-79943387D01*
X51170472Y-79789851D01*
X51178920Y-79762000D01*
X51412577Y-79762000D01*
X51450000Y-79765686D01*
X51487423Y-79762000D01*
X51487426Y-79762000D01*
X51599378Y-79750974D01*
X51743015Y-79707402D01*
X51875392Y-79636645D01*
X51991422Y-79541422D01*
X52015284Y-79512347D01*
X52411928Y-79115703D01*
X52411928Y-79275000D01*
X52424188Y-79399482D01*
X52460498Y-79519180D01*
X52519463Y-79629494D01*
X52545358Y-79661047D01*
X52547645Y-80495811D01*
X45171659Y-80370139D01*
X45169823Y-79700000D01*
X46761928Y-79700000D01*
X46774188Y-79824482D01*
X46810498Y-79944180D01*
X46869463Y-80054494D01*
X46948815Y-80151185D01*
X47045506Y-80230537D01*
X47155820Y-80289502D01*
X47275518Y-80325812D01*
X47400000Y-80338072D01*
X47689250Y-80335000D01*
X47848000Y-80176250D01*
X47848000Y-79127000D01*
X46923750Y-79127000D01*
X46765000Y-79285750D01*
X46761928Y-79700000D01*
X45169823Y-79700000D01*
X45143669Y-70153980D01*
X46859551Y-70153980D01*
X46829528Y-70210149D01*
G36*
X52213568Y-74695199D02*
G01*
X51707653Y-75201114D01*
X51678578Y-75224976D01*
X51637525Y-75275000D01*
X51583355Y-75341006D01*
X51551546Y-75400518D01*
X51512598Y-75473384D01*
X51469026Y-75617021D01*
X51458275Y-75726185D01*
X51454314Y-75766398D01*
X51458000Y-75803821D01*
X51458001Y-77914368D01*
X51167598Y-78204772D01*
X51088405Y-78056613D01*
X51001534Y-77950760D01*
X51080537Y-77854494D01*
X51139502Y-77744180D01*
X51175812Y-77624482D01*
X51188072Y-77500000D01*
X51188072Y-75400000D01*
X51175812Y-75275518D01*
X51139502Y-75155820D01*
X51080537Y-75045506D01*
X51043191Y-75000000D01*
X51080537Y-74954494D01*
X51139502Y-74844180D01*
X51175812Y-74724482D01*
X51188072Y-74600000D01*
X51185000Y-73835750D01*
X51026252Y-73677002D01*
X51185000Y-73677002D01*
X51185000Y-73666630D01*
X52213568Y-74695199D01*
G37*
X52213568Y-74695199D02*
X51707653Y-75201114D01*
X51678578Y-75224976D01*
X51637525Y-75275000D01*
X51583355Y-75341006D01*
X51551546Y-75400518D01*
X51512598Y-75473384D01*
X51469026Y-75617021D01*
X51458275Y-75726185D01*
X51454314Y-75766398D01*
X51458000Y-75803821D01*
X51458001Y-77914368D01*
X51167598Y-78204772D01*
X51088405Y-78056613D01*
X51001534Y-77950760D01*
X51080537Y-77854494D01*
X51139502Y-77744180D01*
X51175812Y-77624482D01*
X51188072Y-77500000D01*
X51188072Y-75400000D01*
X51175812Y-75275518D01*
X51139502Y-75155820D01*
X51080537Y-75045506D01*
X51043191Y-75000000D01*
X51080537Y-74954494D01*
X51139502Y-74844180D01*
X51175812Y-74724482D01*
X51188072Y-74600000D01*
X51185000Y-73835750D01*
X51026252Y-73677002D01*
X51185000Y-73677002D01*
X51185000Y-73666630D01*
X52213568Y-74695199D01*
G36*
X49777000Y-73423000D02*
G01*
X49797000Y-73423000D01*
X49797000Y-73677000D01*
X49777000Y-73677000D01*
X49777000Y-73697000D01*
X49523000Y-73697000D01*
X49523000Y-73677000D01*
X49503000Y-73677000D01*
X49503000Y-73423000D01*
X49523000Y-73423000D01*
X49523000Y-73403000D01*
X49777000Y-73403000D01*
X49777000Y-73423000D01*
G37*
X49777000Y-73423000D02*
X49797000Y-73423000D01*
X49797000Y-73677000D01*
X49777000Y-73677000D01*
X49777000Y-73697000D01*
X49523000Y-73697000D01*
X49523000Y-73677000D01*
X49503000Y-73677000D01*
X49503000Y-73423000D01*
X49523000Y-73423000D01*
X49523000Y-73403000D01*
X49777000Y-73403000D01*
X49777000Y-73423000D01*
G36*
X51379989Y-71706359D02*
G01*
X51334283Y-71660653D01*
X51310421Y-71631577D01*
X51237118Y-71571419D01*
X51235000Y-71285750D01*
X51076250Y-71127000D01*
X50152000Y-71127000D01*
X50152000Y-71147000D01*
X49898000Y-71147000D01*
X49898000Y-71127000D01*
X49878000Y-71127000D01*
X49878000Y-70873000D01*
X49898000Y-70873000D01*
X49898000Y-70853000D01*
X50152000Y-70853000D01*
X50152000Y-70873000D01*
X51076250Y-70873000D01*
X51235000Y-70714250D01*
X51238072Y-70300000D01*
X51237580Y-70295000D01*
X51241939Y-70295000D01*
X51379990Y-70267540D01*
X51379989Y-71706359D01*
G37*
X51379989Y-71706359D02*
X51334283Y-71660653D01*
X51310421Y-71631577D01*
X51237118Y-71571419D01*
X51235000Y-71285750D01*
X51076250Y-71127000D01*
X50152000Y-71127000D01*
X50152000Y-71147000D01*
X49898000Y-71147000D01*
X49898000Y-71127000D01*
X49878000Y-71127000D01*
X49878000Y-70873000D01*
X49898000Y-70873000D01*
X49898000Y-70853000D01*
X50152000Y-70853000D01*
X50152000Y-70873000D01*
X51076250Y-70873000D01*
X51235000Y-70714250D01*
X51238072Y-70300000D01*
X51237580Y-70295000D01*
X51241939Y-70295000D01*
X51379990Y-70267540D01*
X51379989Y-71706359D01*
G36*
X60373815Y-70501185D02*
G01*
X60470506Y-70580537D01*
X60493667Y-70592917D01*
X60585750Y-70685000D01*
X60699337Y-70675454D01*
X60700518Y-70675812D01*
X60825000Y-70688072D01*
X61375000Y-70688072D01*
X61499482Y-70675812D01*
X61500000Y-70675655D01*
X61500518Y-70675812D01*
X61625000Y-70688072D01*
X62009942Y-70688072D01*
X62010301Y-70688744D01*
X62066647Y-70757401D01*
X62113460Y-70814443D01*
X62144961Y-70840295D01*
X62300201Y-70995535D01*
X62326058Y-71027042D01*
X62451757Y-71130200D01*
X62595165Y-71206854D01*
X62750773Y-71254057D01*
X62872046Y-71266001D01*
X62872055Y-71266001D01*
X62912598Y-71269994D01*
X62953141Y-71266001D01*
X63811928Y-71266001D01*
X63811928Y-71275000D01*
X63824188Y-71399482D01*
X63824546Y-71400663D01*
X63815000Y-71514250D01*
X63907083Y-71606333D01*
X63919463Y-71629494D01*
X63998815Y-71726185D01*
X64088759Y-71800000D01*
X63998815Y-71873815D01*
X63919463Y-71970506D01*
X63907083Y-71993667D01*
X63815000Y-72085750D01*
X63824546Y-72199337D01*
X63824188Y-72200518D01*
X63811928Y-72325000D01*
X63811928Y-72875000D01*
X63824188Y-72999482D01*
X63824345Y-73000000D01*
X63824188Y-73000518D01*
X63811928Y-73125000D01*
X63811928Y-73675000D01*
X63824188Y-73799482D01*
X63824345Y-73800000D01*
X63824188Y-73800518D01*
X63811928Y-73925000D01*
X63811928Y-74475000D01*
X63824188Y-74599482D01*
X63824345Y-74600000D01*
X63824188Y-74600518D01*
X63811928Y-74725000D01*
X63811928Y-75275000D01*
X63824188Y-75399482D01*
X63824345Y-75400000D01*
X63824188Y-75400518D01*
X63811928Y-75525000D01*
X63811928Y-76075000D01*
X63824188Y-76199482D01*
X63824345Y-76200000D01*
X63824188Y-76200518D01*
X63811928Y-76325000D01*
X63811928Y-76875000D01*
X63824188Y-76999482D01*
X63824345Y-77000000D01*
X63824188Y-77000518D01*
X63811928Y-77125000D01*
X63811928Y-77675000D01*
X63824188Y-77799482D01*
X63824546Y-77800663D01*
X63815000Y-77914250D01*
X63907083Y-78006333D01*
X63919463Y-78029494D01*
X63998815Y-78126185D01*
X64088759Y-78200000D01*
X63998815Y-78273815D01*
X63919463Y-78370506D01*
X63907083Y-78393667D01*
X63815000Y-78485750D01*
X63824546Y-78599337D01*
X63824188Y-78600518D01*
X63811928Y-78725000D01*
X63811928Y-79275000D01*
X63815962Y-79315962D01*
X63775000Y-79311928D01*
X63225000Y-79311928D01*
X63100518Y-79324188D01*
X63100000Y-79324345D01*
X63099482Y-79324188D01*
X62975000Y-79311928D01*
X62425000Y-79311928D01*
X62300518Y-79324188D01*
X62300000Y-79324345D01*
X62299482Y-79324188D01*
X62175000Y-79311928D01*
X62135000Y-79311928D01*
X62135000Y-79138061D01*
X62095226Y-78938102D01*
X62017205Y-78749744D01*
X61903937Y-78580226D01*
X61790191Y-78466480D01*
X61825226Y-78381898D01*
X61865000Y-78181939D01*
X61865000Y-77978061D01*
X61825226Y-77778102D01*
X61747205Y-77589744D01*
X61633937Y-77420226D01*
X61489774Y-77276063D01*
X61320256Y-77162795D01*
X61131898Y-77084774D01*
X60931939Y-77045000D01*
X60728061Y-77045000D01*
X60528102Y-77084774D01*
X60339744Y-77162795D01*
X60170226Y-77276063D01*
X60026063Y-77420226D01*
X59975462Y-77495956D01*
X59851898Y-77444774D01*
X59651939Y-77405000D01*
X59448061Y-77405000D01*
X59248102Y-77444774D01*
X59065845Y-77520268D01*
X59025835Y-77480258D01*
X58856317Y-77366990D01*
X58667959Y-77288969D01*
X58468000Y-77249195D01*
X58264122Y-77249195D01*
X58064163Y-77288969D01*
X57875805Y-77366990D01*
X57706287Y-77480258D01*
X57562124Y-77624421D01*
X57448856Y-77793939D01*
X57370835Y-77982297D01*
X57331061Y-78182256D01*
X57331061Y-78386134D01*
X57339843Y-78430285D01*
X57296066Y-78459536D01*
X57151903Y-78603699D01*
X57038635Y-78773217D01*
X56960614Y-78961575D01*
X56920840Y-79161534D01*
X56920840Y-79311928D01*
X56825000Y-79311928D01*
X56700518Y-79324188D01*
X56700000Y-79324345D01*
X56699482Y-79324188D01*
X56575000Y-79311928D01*
X56025000Y-79311928D01*
X55900518Y-79324188D01*
X55899337Y-79324546D01*
X55785750Y-79315000D01*
X55693667Y-79407083D01*
X55670506Y-79419463D01*
X55573815Y-79498815D01*
X55494463Y-79595506D01*
X55435498Y-79705820D01*
X55399188Y-79825518D01*
X55386928Y-79950000D01*
X55386928Y-80033000D01*
X55373000Y-80033000D01*
X55373000Y-79473750D01*
X55214250Y-79315000D01*
X55183881Y-79317552D01*
X55188072Y-79275000D01*
X55188072Y-78725000D01*
X55175812Y-78600518D01*
X55175655Y-78600000D01*
X55175812Y-78599482D01*
X55188072Y-78475000D01*
X55188072Y-77925000D01*
X55175812Y-77800518D01*
X55175655Y-77800000D01*
X55175812Y-77799482D01*
X55188072Y-77675000D01*
X55188072Y-77362000D01*
X57066039Y-77362000D01*
X57103462Y-77365686D01*
X57140885Y-77362000D01*
X57140888Y-77362000D01*
X57252840Y-77350974D01*
X57396477Y-77307402D01*
X57528854Y-77236645D01*
X57644884Y-77141422D01*
X57668746Y-77112346D01*
X61324390Y-73456702D01*
X61383699Y-73456702D01*
X61583658Y-73416928D01*
X61772016Y-73338907D01*
X61941534Y-73225639D01*
X62085697Y-73081476D01*
X62198965Y-72911958D01*
X62276986Y-72723600D01*
X62316760Y-72523641D01*
X62316760Y-72319763D01*
X62276986Y-72119804D01*
X62198965Y-71931446D01*
X62085697Y-71761928D01*
X61941534Y-71617765D01*
X61772016Y-71504497D01*
X61583658Y-71426476D01*
X61383699Y-71386702D01*
X61268400Y-71386702D01*
X61203937Y-71290226D01*
X61059774Y-71146063D01*
X60890256Y-71032795D01*
X60701898Y-70954774D01*
X60501939Y-70915000D01*
X60298061Y-70915000D01*
X60098102Y-70954774D01*
X59909744Y-71032795D01*
X59740226Y-71146063D01*
X59596063Y-71290226D01*
X59482795Y-71459744D01*
X59404774Y-71648102D01*
X59365000Y-71848061D01*
X59365000Y-71907369D01*
X56234370Y-75038000D01*
X55188072Y-75038000D01*
X55188072Y-74725000D01*
X55175812Y-74600518D01*
X55175655Y-74600000D01*
X55175812Y-74599482D01*
X55188072Y-74475000D01*
X55188072Y-73925000D01*
X55175812Y-73800518D01*
X55175454Y-73799337D01*
X55185000Y-73685750D01*
X55092917Y-73593667D01*
X55080537Y-73570506D01*
X55001185Y-73473815D01*
X54911241Y-73400000D01*
X55001185Y-73326185D01*
X55080537Y-73229494D01*
X55092917Y-73206333D01*
X55185000Y-73114250D01*
X55175454Y-73000663D01*
X55175812Y-72999482D01*
X55188072Y-72875000D01*
X55188072Y-72325000D01*
X55175812Y-72200518D01*
X55175655Y-72200000D01*
X55175812Y-72199482D01*
X55188072Y-72075000D01*
X55188072Y-72073647D01*
X55249826Y-72099227D01*
X55449785Y-72139001D01*
X55653663Y-72139001D01*
X55853622Y-72099227D01*
X56041980Y-72021206D01*
X56211498Y-71907938D01*
X56253435Y-71866001D01*
X56262576Y-71866001D01*
X56299999Y-71869687D01*
X56337422Y-71866001D01*
X56337425Y-71866001D01*
X56449377Y-71854975D01*
X56593014Y-71811403D01*
X56725391Y-71740646D01*
X56841421Y-71645423D01*
X56865283Y-71616348D01*
X57612351Y-70869280D01*
X57641422Y-70845422D01*
X57736645Y-70729392D01*
X57758731Y-70688072D01*
X58175000Y-70688072D01*
X58299482Y-70675812D01*
X58300000Y-70675655D01*
X58300518Y-70675812D01*
X58425000Y-70688072D01*
X58975000Y-70688072D01*
X59099482Y-70675812D01*
X59100000Y-70675655D01*
X59100518Y-70675812D01*
X59225000Y-70688072D01*
X59775000Y-70688072D01*
X59899482Y-70675812D01*
X59900663Y-70675454D01*
X60014250Y-70685000D01*
X60106333Y-70592917D01*
X60129494Y-70580537D01*
X60226185Y-70501185D01*
X60300000Y-70411241D01*
X60373815Y-70501185D01*
G37*
X60373815Y-70501185D02*
X60470506Y-70580537D01*
X60493667Y-70592917D01*
X60585750Y-70685000D01*
X60699337Y-70675454D01*
X60700518Y-70675812D01*
X60825000Y-70688072D01*
X61375000Y-70688072D01*
X61499482Y-70675812D01*
X61500000Y-70675655D01*
X61500518Y-70675812D01*
X61625000Y-70688072D01*
X62009942Y-70688072D01*
X62010301Y-70688744D01*
X62066647Y-70757401D01*
X62113460Y-70814443D01*
X62144961Y-70840295D01*
X62300201Y-70995535D01*
X62326058Y-71027042D01*
X62451757Y-71130200D01*
X62595165Y-71206854D01*
X62750773Y-71254057D01*
X62872046Y-71266001D01*
X62872055Y-71266001D01*
X62912598Y-71269994D01*
X62953141Y-71266001D01*
X63811928Y-71266001D01*
X63811928Y-71275000D01*
X63824188Y-71399482D01*
X63824546Y-71400663D01*
X63815000Y-71514250D01*
X63907083Y-71606333D01*
X63919463Y-71629494D01*
X63998815Y-71726185D01*
X64088759Y-71800000D01*
X63998815Y-71873815D01*
X63919463Y-71970506D01*
X63907083Y-71993667D01*
X63815000Y-72085750D01*
X63824546Y-72199337D01*
X63824188Y-72200518D01*
X63811928Y-72325000D01*
X63811928Y-72875000D01*
X63824188Y-72999482D01*
X63824345Y-73000000D01*
X63824188Y-73000518D01*
X63811928Y-73125000D01*
X63811928Y-73675000D01*
X63824188Y-73799482D01*
X63824345Y-73800000D01*
X63824188Y-73800518D01*
X63811928Y-73925000D01*
X63811928Y-74475000D01*
X63824188Y-74599482D01*
X63824345Y-74600000D01*
X63824188Y-74600518D01*
X63811928Y-74725000D01*
X63811928Y-75275000D01*
X63824188Y-75399482D01*
X63824345Y-75400000D01*
X63824188Y-75400518D01*
X63811928Y-75525000D01*
X63811928Y-76075000D01*
X63824188Y-76199482D01*
X63824345Y-76200000D01*
X63824188Y-76200518D01*
X63811928Y-76325000D01*
X63811928Y-76875000D01*
X63824188Y-76999482D01*
X63824345Y-77000000D01*
X63824188Y-77000518D01*
X63811928Y-77125000D01*
X63811928Y-77675000D01*
X63824188Y-77799482D01*
X63824546Y-77800663D01*
X63815000Y-77914250D01*
X63907083Y-78006333D01*
X63919463Y-78029494D01*
X63998815Y-78126185D01*
X64088759Y-78200000D01*
X63998815Y-78273815D01*
X63919463Y-78370506D01*
X63907083Y-78393667D01*
X63815000Y-78485750D01*
X63824546Y-78599337D01*
X63824188Y-78600518D01*
X63811928Y-78725000D01*
X63811928Y-79275000D01*
X63815962Y-79315962D01*
X63775000Y-79311928D01*
X63225000Y-79311928D01*
X63100518Y-79324188D01*
X63100000Y-79324345D01*
X63099482Y-79324188D01*
X62975000Y-79311928D01*
X62425000Y-79311928D01*
X62300518Y-79324188D01*
X62300000Y-79324345D01*
X62299482Y-79324188D01*
X62175000Y-79311928D01*
X62135000Y-79311928D01*
X62135000Y-79138061D01*
X62095226Y-78938102D01*
X62017205Y-78749744D01*
X61903937Y-78580226D01*
X61790191Y-78466480D01*
X61825226Y-78381898D01*
X61865000Y-78181939D01*
X61865000Y-77978061D01*
X61825226Y-77778102D01*
X61747205Y-77589744D01*
X61633937Y-77420226D01*
X61489774Y-77276063D01*
X61320256Y-77162795D01*
X61131898Y-77084774D01*
X60931939Y-77045000D01*
X60728061Y-77045000D01*
X60528102Y-77084774D01*
X60339744Y-77162795D01*
X60170226Y-77276063D01*
X60026063Y-77420226D01*
X59975462Y-77495956D01*
X59851898Y-77444774D01*
X59651939Y-77405000D01*
X59448061Y-77405000D01*
X59248102Y-77444774D01*
X59065845Y-77520268D01*
X59025835Y-77480258D01*
X58856317Y-77366990D01*
X58667959Y-77288969D01*
X58468000Y-77249195D01*
X58264122Y-77249195D01*
X58064163Y-77288969D01*
X57875805Y-77366990D01*
X57706287Y-77480258D01*
X57562124Y-77624421D01*
X57448856Y-77793939D01*
X57370835Y-77982297D01*
X57331061Y-78182256D01*
X57331061Y-78386134D01*
X57339843Y-78430285D01*
X57296066Y-78459536D01*
X57151903Y-78603699D01*
X57038635Y-78773217D01*
X56960614Y-78961575D01*
X56920840Y-79161534D01*
X56920840Y-79311928D01*
X56825000Y-79311928D01*
X56700518Y-79324188D01*
X56700000Y-79324345D01*
X56699482Y-79324188D01*
X56575000Y-79311928D01*
X56025000Y-79311928D01*
X55900518Y-79324188D01*
X55899337Y-79324546D01*
X55785750Y-79315000D01*
X55693667Y-79407083D01*
X55670506Y-79419463D01*
X55573815Y-79498815D01*
X55494463Y-79595506D01*
X55435498Y-79705820D01*
X55399188Y-79825518D01*
X55386928Y-79950000D01*
X55386928Y-80033000D01*
X55373000Y-80033000D01*
X55373000Y-79473750D01*
X55214250Y-79315000D01*
X55183881Y-79317552D01*
X55188072Y-79275000D01*
X55188072Y-78725000D01*
X55175812Y-78600518D01*
X55175655Y-78600000D01*
X55175812Y-78599482D01*
X55188072Y-78475000D01*
X55188072Y-77925000D01*
X55175812Y-77800518D01*
X55175655Y-77800000D01*
X55175812Y-77799482D01*
X55188072Y-77675000D01*
X55188072Y-77362000D01*
X57066039Y-77362000D01*
X57103462Y-77365686D01*
X57140885Y-77362000D01*
X57140888Y-77362000D01*
X57252840Y-77350974D01*
X57396477Y-77307402D01*
X57528854Y-77236645D01*
X57644884Y-77141422D01*
X57668746Y-77112346D01*
X61324390Y-73456702D01*
X61383699Y-73456702D01*
X61583658Y-73416928D01*
X61772016Y-73338907D01*
X61941534Y-73225639D01*
X62085697Y-73081476D01*
X62198965Y-72911958D01*
X62276986Y-72723600D01*
X62316760Y-72523641D01*
X62316760Y-72319763D01*
X62276986Y-72119804D01*
X62198965Y-71931446D01*
X62085697Y-71761928D01*
X61941534Y-71617765D01*
X61772016Y-71504497D01*
X61583658Y-71426476D01*
X61383699Y-71386702D01*
X61268400Y-71386702D01*
X61203937Y-71290226D01*
X61059774Y-71146063D01*
X60890256Y-71032795D01*
X60701898Y-70954774D01*
X60501939Y-70915000D01*
X60298061Y-70915000D01*
X60098102Y-70954774D01*
X59909744Y-71032795D01*
X59740226Y-71146063D01*
X59596063Y-71290226D01*
X59482795Y-71459744D01*
X59404774Y-71648102D01*
X59365000Y-71848061D01*
X59365000Y-71907369D01*
X56234370Y-75038000D01*
X55188072Y-75038000D01*
X55188072Y-74725000D01*
X55175812Y-74600518D01*
X55175655Y-74600000D01*
X55175812Y-74599482D01*
X55188072Y-74475000D01*
X55188072Y-73925000D01*
X55175812Y-73800518D01*
X55175454Y-73799337D01*
X55185000Y-73685750D01*
X55092917Y-73593667D01*
X55080537Y-73570506D01*
X55001185Y-73473815D01*
X54911241Y-73400000D01*
X55001185Y-73326185D01*
X55080537Y-73229494D01*
X55092917Y-73206333D01*
X55185000Y-73114250D01*
X55175454Y-73000663D01*
X55175812Y-72999482D01*
X55188072Y-72875000D01*
X55188072Y-72325000D01*
X55175812Y-72200518D01*
X55175655Y-72200000D01*
X55175812Y-72199482D01*
X55188072Y-72075000D01*
X55188072Y-72073647D01*
X55249826Y-72099227D01*
X55449785Y-72139001D01*
X55653663Y-72139001D01*
X55853622Y-72099227D01*
X56041980Y-72021206D01*
X56211498Y-71907938D01*
X56253435Y-71866001D01*
X56262576Y-71866001D01*
X56299999Y-71869687D01*
X56337422Y-71866001D01*
X56337425Y-71866001D01*
X56449377Y-71854975D01*
X56593014Y-71811403D01*
X56725391Y-71740646D01*
X56841421Y-71645423D01*
X56865283Y-71616348D01*
X57612351Y-70869280D01*
X57641422Y-70845422D01*
X57736645Y-70729392D01*
X57758731Y-70688072D01*
X58175000Y-70688072D01*
X58299482Y-70675812D01*
X58300000Y-70675655D01*
X58300518Y-70675812D01*
X58425000Y-70688072D01*
X58975000Y-70688072D01*
X59099482Y-70675812D01*
X59100000Y-70675655D01*
X59100518Y-70675812D01*
X59225000Y-70688072D01*
X59775000Y-70688072D01*
X59899482Y-70675812D01*
X59900663Y-70675454D01*
X60014250Y-70685000D01*
X60106333Y-70592917D01*
X60129494Y-70580537D01*
X60226185Y-70501185D01*
X60300000Y-70411241D01*
X60373815Y-70501185D01*
%TD*%
M02*
