%TF.GenerationSoftware,KiCad,Pcbnew,5.1.6*%
%TF.CreationDate,2020-08-13T12:20:14+01:00*%
%TF.ProjectId,ferris,66657272-6973-42e6-9b69-6361645f7063,rev?*%
%TF.SameCoordinates,Original*%
%TF.FileFunction,Soldermask,Top*%
%TF.FilePolarity,Negative*%
%FSLAX46Y46*%
G04 Gerber Fmt 4.6, Leading zero omitted, Abs format (unit mm)*
G04 Created by KiCad (PCBNEW 5.1.6) date 2020-08-13 12:20:14*
%MOMM*%
%LPD*%
G01*
G04 APERTURE LIST*
%ADD10C,0.010000*%
%ADD11R,1.900000X2.200000*%
%ADD12C,1.801800*%
%ADD13C,1.090600*%
%ADD14C,2.132000*%
%ADD15C,3.529000*%
%ADD16R,0.700000X1.550000*%
%ADD17R,0.400000X1.550000*%
%ADD18O,1.100000X2.200000*%
%ADD19C,0.750000*%
%ADD20O,1.100000X1.700000*%
%ADD21R,1.600000X0.650000*%
%ADD22R,0.650000X1.600000*%
%ADD23O,2.100000X1.700000*%
%ADD24C,0.900000*%
%ADD25R,1.000000X1.300000*%
%ADD26C,0.100000*%
%ADD27R,1.800000X1.000000*%
G04 APERTURE END LIST*
D10*
%TO.C,G\u002A\u002A\u002A*%
G36*
X178234481Y-67866112D02*
G01*
X178234806Y-67866083D01*
X178356142Y-67856968D01*
X178440465Y-67856595D01*
X178500961Y-67865923D01*
X178550816Y-67885908D01*
X178557570Y-67889541D01*
X178602186Y-67926810D01*
X178673708Y-68003385D01*
X178770085Y-68116839D01*
X178889260Y-68264741D01*
X179029182Y-68444663D01*
X179051570Y-68473918D01*
X179184901Y-68646375D01*
X179297995Y-68788281D01*
X179388774Y-68897177D01*
X179455159Y-68970599D01*
X179495073Y-69006087D01*
X179503389Y-69009094D01*
X179520209Y-69001774D01*
X179544824Y-68979949D01*
X179580023Y-68939893D01*
X179628598Y-68877877D01*
X179693338Y-68790175D01*
X179777034Y-68673060D01*
X179882475Y-68522804D01*
X180012453Y-68335681D01*
X180072094Y-68249450D01*
X180168229Y-68111302D01*
X180243734Y-68009003D01*
X180306897Y-67936633D01*
X180366005Y-67888272D01*
X180429345Y-67858003D01*
X180505205Y-67839906D01*
X180601872Y-67828062D01*
X180670998Y-67821704D01*
X180792059Y-67811861D01*
X180874581Y-67808950D01*
X180930490Y-67814065D01*
X180971707Y-67828297D01*
X181010160Y-67852736D01*
X181010201Y-67852767D01*
X181043599Y-67878391D01*
X181073705Y-67906277D01*
X181103850Y-67941989D01*
X181137368Y-67991091D01*
X181177589Y-68059147D01*
X181227848Y-68151721D01*
X181291475Y-68274378D01*
X181371805Y-68432683D01*
X181447132Y-68582364D01*
X181525586Y-68737364D01*
X181597805Y-68877894D01*
X181660298Y-68997337D01*
X181709579Y-69089078D01*
X181742157Y-69146499D01*
X181753073Y-69162646D01*
X181800994Y-69184231D01*
X181829388Y-69185264D01*
X181860322Y-69166599D01*
X181921917Y-69117257D01*
X182008592Y-69042159D01*
X182114766Y-68946225D01*
X182234858Y-68834375D01*
X182326839Y-68746722D01*
X182776647Y-68314029D01*
X183029875Y-68274550D01*
X183148245Y-68257166D01*
X183229636Y-68249252D01*
X183287038Y-68251132D01*
X183333442Y-68263128D01*
X183377193Y-68283173D01*
X183452836Y-68332773D01*
X183516526Y-68392189D01*
X183523975Y-68401491D01*
X183548637Y-68450506D01*
X183584304Y-68545091D01*
X183629748Y-68681510D01*
X183683738Y-68856030D01*
X183745046Y-69064914D01*
X183762541Y-69126180D01*
X183816056Y-69310996D01*
X183865346Y-69474263D01*
X183908547Y-69610268D01*
X183943797Y-69713298D01*
X183969233Y-69777643D01*
X183981418Y-69797510D01*
X184019670Y-69816103D01*
X184054171Y-69827036D01*
X184091174Y-69827715D01*
X184136930Y-69815549D01*
X184197693Y-69787943D01*
X184279714Y-69742306D01*
X184389247Y-69676043D01*
X184532542Y-69586564D01*
X184614668Y-69534911D01*
X185121321Y-69216109D01*
X185334437Y-69189941D01*
X185488249Y-69178448D01*
X185605259Y-69189259D01*
X185695750Y-69225610D01*
X185770007Y-69290739D01*
X185806675Y-69338578D01*
X185827882Y-69370076D01*
X185845050Y-69400494D01*
X185859280Y-69436157D01*
X185871675Y-69483386D01*
X185883334Y-69548508D01*
X185895358Y-69637846D01*
X185908851Y-69757723D01*
X185924912Y-69914465D01*
X185944642Y-70114394D01*
X185948335Y-70152057D01*
X186017856Y-70861129D01*
X186110653Y-70915053D01*
X186203450Y-70968976D01*
X186679750Y-70783936D01*
X186859344Y-70715238D01*
X187002454Y-70663441D01*
X187119284Y-70625441D01*
X187220048Y-70598136D01*
X187314952Y-70578423D01*
X187399544Y-70565195D01*
X187517516Y-70550306D01*
X187598246Y-70544897D01*
X187654477Y-70549376D01*
X187698950Y-70564153D01*
X187720693Y-70575493D01*
X187801494Y-70630505D01*
X187865511Y-70697470D01*
X187913612Y-70781390D01*
X187946662Y-70887266D01*
X187965530Y-71020101D01*
X187971082Y-71184897D01*
X187964187Y-71386653D01*
X187945709Y-71630373D01*
X187930663Y-71786681D01*
X187874203Y-72341986D01*
X187951391Y-72418292D01*
X188028581Y-72494598D01*
X188719873Y-72393167D01*
X189411164Y-72291734D01*
X189504164Y-72340867D01*
X189593119Y-72400320D01*
X189657019Y-72476259D01*
X189701279Y-72578757D01*
X189731308Y-72717882D01*
X189739699Y-72779026D01*
X189767301Y-73003829D01*
X189592527Y-73584703D01*
X189537512Y-73768500D01*
X189496137Y-73910232D01*
X189467076Y-74016377D01*
X189448995Y-74093412D01*
X189440567Y-74147818D01*
X189440460Y-74186071D01*
X189447345Y-74214651D01*
X189458503Y-74237603D01*
X189493523Y-74290796D01*
X189521988Y-74320069D01*
X189522732Y-74320437D01*
X189553516Y-74324539D01*
X189628054Y-74330500D01*
X189739350Y-74337878D01*
X189880411Y-74346237D01*
X190044242Y-74355139D01*
X190203777Y-74363171D01*
X190422371Y-74374377D01*
X190596296Y-74385330D01*
X190731652Y-74397425D01*
X190834543Y-74412055D01*
X190911071Y-74430612D01*
X190967339Y-74454494D01*
X191009451Y-74485091D01*
X191043509Y-74523798D01*
X191068497Y-74560656D01*
X191100537Y-74635327D01*
X191127966Y-74742535D01*
X191148694Y-74866220D01*
X191160630Y-74990327D01*
X191161683Y-75098796D01*
X191149763Y-75175570D01*
X191148876Y-75178055D01*
X191129156Y-75222089D01*
X191089535Y-75303338D01*
X191033887Y-75414126D01*
X190966084Y-75546771D01*
X190889999Y-75693595D01*
X190857746Y-75755277D01*
X190781412Y-75902574D01*
X190713925Y-76036055D01*
X190658664Y-76148766D01*
X190619011Y-76233750D01*
X190598345Y-76284050D01*
X190596144Y-76293594D01*
X190618007Y-76312436D01*
X190680247Y-76353609D01*
X190778859Y-76414742D01*
X190909829Y-76493463D01*
X191069147Y-76587399D01*
X191252805Y-76694180D01*
X191456792Y-76811433D01*
X191677099Y-76936787D01*
X191821234Y-77018159D01*
X192065657Y-77156425D01*
X192293840Y-77286854D01*
X192501937Y-77407166D01*
X192686102Y-77515083D01*
X192842487Y-77608324D01*
X192967243Y-77684612D01*
X193056526Y-77741666D01*
X193106487Y-77777208D01*
X193113802Y-77783950D01*
X193143563Y-77820103D01*
X193164716Y-77857695D01*
X193180030Y-77907517D01*
X193192279Y-77980358D01*
X193204233Y-78087008D01*
X193211831Y-78165496D01*
X193223545Y-78294691D01*
X193228860Y-78388383D01*
X193226167Y-78461639D01*
X193213861Y-78529530D01*
X193190335Y-78607123D01*
X193153984Y-78709488D01*
X193153789Y-78710028D01*
X193108721Y-78825127D01*
X193046062Y-78969333D01*
X192965001Y-79144246D01*
X192864722Y-79351469D01*
X192744416Y-79592602D01*
X192603271Y-79869247D01*
X192440474Y-80183007D01*
X192255213Y-80535482D01*
X192046676Y-80928276D01*
X191814051Y-81362989D01*
X191722313Y-81533664D01*
X191611819Y-81739014D01*
X191498308Y-81949984D01*
X191386741Y-82157349D01*
X191282082Y-82351888D01*
X191189289Y-82524379D01*
X191113327Y-82665599D01*
X191085407Y-82717509D01*
X190996050Y-82887547D01*
X190897886Y-83080767D01*
X190800865Y-83277196D01*
X190714940Y-83456862D01*
X190687281Y-83516554D01*
X190622783Y-83655201D01*
X190560740Y-83784642D01*
X190506139Y-83894761D01*
X190463963Y-83975440D01*
X190445079Y-84008083D01*
X190407237Y-84061901D01*
X190369249Y-84092894D01*
X190313916Y-84110251D01*
X190231257Y-84122273D01*
X190078206Y-84141065D01*
X190053505Y-83817816D01*
X190044341Y-83637702D01*
X190043617Y-83461569D01*
X190051279Y-83309624D01*
X190054959Y-83273834D01*
X190109747Y-82916159D01*
X190191179Y-82532435D01*
X190295629Y-82137406D01*
X190419468Y-81745817D01*
X190457489Y-81637783D01*
X190528117Y-81427810D01*
X190602951Y-81180554D01*
X190679443Y-80906515D01*
X190755043Y-80616195D01*
X190827206Y-80320092D01*
X190893382Y-80028707D01*
X190951022Y-79752539D01*
X190997580Y-79502090D01*
X191030507Y-79287858D01*
X191033571Y-79263882D01*
X191051777Y-79118002D01*
X191063648Y-79014134D01*
X191068341Y-78943788D01*
X191065013Y-78898471D01*
X191052825Y-78869697D01*
X191030932Y-78848973D01*
X190998495Y-78827809D01*
X190989776Y-78822196D01*
X190932279Y-78791803D01*
X190893264Y-78784074D01*
X190886988Y-78787816D01*
X190871212Y-78817610D01*
X190837951Y-78884801D01*
X190791369Y-78980833D01*
X190735633Y-79097149D01*
X190705065Y-79161439D01*
X190644533Y-79286267D01*
X190562437Y-79451214D01*
X190461182Y-79651609D01*
X190343171Y-79882783D01*
X190210811Y-80140064D01*
X190066507Y-80418783D01*
X189912665Y-80714268D01*
X189751688Y-81021852D01*
X189585984Y-81336861D01*
X189533255Y-81436761D01*
X189448820Y-81599381D01*
X189357529Y-81779839D01*
X189268671Y-81959491D01*
X189191536Y-82119693D01*
X189168997Y-82167786D01*
X189112628Y-82286577D01*
X189063133Y-82385951D01*
X189024542Y-82458193D01*
X189000886Y-82495585D01*
X188996004Y-82498876D01*
X188991801Y-82468072D01*
X188997366Y-82396478D01*
X189011179Y-82292835D01*
X189031721Y-82165883D01*
X189057471Y-82024362D01*
X189086912Y-81877013D01*
X189118521Y-81732575D01*
X189150781Y-81599791D01*
X189155416Y-81582046D01*
X189197589Y-81431864D01*
X189251199Y-81254985D01*
X189309728Y-81072234D01*
X189366662Y-80904434D01*
X189373410Y-80885358D01*
X189508693Y-80487399D01*
X189639959Y-80068024D01*
X189758175Y-79656375D01*
X189783222Y-79563397D01*
X189818249Y-79426500D01*
X189854019Y-79277961D01*
X189888562Y-79126993D01*
X189919907Y-78982810D01*
X189946087Y-78854626D01*
X189965134Y-78751658D01*
X189975077Y-78683116D01*
X189975823Y-78662083D01*
X189957865Y-78658375D01*
X189912628Y-78691156D01*
X189851821Y-78749726D01*
X189755418Y-78842991D01*
X189625501Y-78958831D01*
X189469970Y-79090399D01*
X189296723Y-79230848D01*
X189296268Y-79231209D01*
X189249946Y-79287847D01*
X189201637Y-79380502D01*
X189169591Y-79462599D01*
X189055045Y-79741059D01*
X188896499Y-80036793D01*
X188693207Y-80351050D01*
X188444427Y-80685084D01*
X188441954Y-80688215D01*
X188070769Y-81119227D01*
X187655092Y-81529660D01*
X187198018Y-81916712D01*
X186702640Y-82277584D01*
X186637658Y-82321059D01*
X186490639Y-82418769D01*
X186378161Y-82495290D01*
X186292401Y-82557467D01*
X186225536Y-82612144D01*
X186169745Y-82666170D01*
X186117202Y-82726387D01*
X186060088Y-82799644D01*
X186002192Y-82877157D01*
X185663424Y-83309860D01*
X185326281Y-83693365D01*
X184988980Y-84029157D01*
X184649735Y-84318721D01*
X184306761Y-84563544D01*
X183958273Y-84765111D01*
X183602487Y-84924909D01*
X183494709Y-84964698D01*
X183413307Y-84987718D01*
X183293634Y-85014488D01*
X183147398Y-85043076D01*
X182986310Y-85071554D01*
X182822079Y-85097991D01*
X182666413Y-85120457D01*
X182531023Y-85137023D01*
X182427619Y-85145760D01*
X182391049Y-85146581D01*
X182034298Y-85124366D01*
X181706189Y-85071218D01*
X181425259Y-84992392D01*
X181255288Y-84924872D01*
X181074900Y-84839830D01*
X180900732Y-84745983D01*
X180749424Y-84652047D01*
X180679971Y-84601950D01*
X180602857Y-84540011D01*
X180556949Y-84493437D01*
X180532458Y-84447591D01*
X180519595Y-84387834D01*
X180515403Y-84355855D01*
X180499340Y-84225033D01*
X180867576Y-84149881D01*
X181017217Y-84117518D01*
X181166893Y-84081984D01*
X181301021Y-84047176D01*
X181404018Y-84016994D01*
X181420002Y-84011687D01*
X181739280Y-83885018D01*
X182062824Y-83724492D01*
X182374467Y-83539229D01*
X182658040Y-83338354D01*
X182760232Y-83255470D01*
X182863960Y-83162756D01*
X182976640Y-83053740D01*
X183092682Y-82934766D01*
X183206496Y-82812179D01*
X183312489Y-82692321D01*
X183405073Y-82581537D01*
X183478655Y-82486170D01*
X183527647Y-82412564D01*
X183546456Y-82367063D01*
X183546378Y-82363421D01*
X183521205Y-82352675D01*
X183453481Y-82340081D01*
X183351384Y-82326472D01*
X183223092Y-82312684D01*
X183076785Y-82299552D01*
X182920639Y-82287911D01*
X182762833Y-82278597D01*
X182678203Y-82274764D01*
X182218659Y-82270095D01*
X181800696Y-82294308D01*
X181424076Y-82347435D01*
X181088564Y-82429514D01*
X180793924Y-82540577D01*
X180755374Y-82558705D01*
X180649848Y-82604001D01*
X180543471Y-82640465D01*
X180458327Y-82660583D01*
X180454459Y-82661096D01*
X180334730Y-82675976D01*
X180317573Y-82536240D01*
X180311167Y-82452875D01*
X180319607Y-82386518D01*
X180347890Y-82315618D01*
X180384497Y-82247618D01*
X180426705Y-82169481D01*
X180456018Y-82108681D01*
X180466013Y-82078759D01*
X180441157Y-82076518D01*
X180372023Y-82079754D01*
X180264776Y-82087930D01*
X180125581Y-82100512D01*
X179960604Y-82116965D01*
X179776010Y-82136751D01*
X179700058Y-82145254D01*
X178691962Y-82246557D01*
X177719595Y-82317755D01*
X176777864Y-82358980D01*
X175861676Y-82370364D01*
X174965938Y-82352039D01*
X174085558Y-82304138D01*
X173950419Y-82294094D01*
X173710177Y-82273508D01*
X173452710Y-82247756D01*
X173188590Y-82218170D01*
X172928397Y-82186078D01*
X172682703Y-82152812D01*
X172462087Y-82119701D01*
X172277123Y-82088076D01*
X172212377Y-82075508D01*
X171914662Y-82009355D01*
X171603326Y-81930088D01*
X171290939Y-81841469D01*
X170990074Y-81747267D01*
X170713300Y-81651245D01*
X170473189Y-81557168D01*
X170452604Y-81548410D01*
X170355269Y-81510716D01*
X170300635Y-81499404D01*
X170287978Y-81510268D01*
X170303557Y-81543744D01*
X170344371Y-81613092D01*
X170406549Y-81712545D01*
X170486227Y-81836337D01*
X170579533Y-81978702D01*
X170682602Y-82133873D01*
X170791564Y-82296084D01*
X170902551Y-82459568D01*
X171011695Y-82618561D01*
X171115128Y-82767295D01*
X171208981Y-82900005D01*
X171289387Y-83010923D01*
X171338617Y-83076442D01*
X171522071Y-83323267D01*
X171691117Y-83567195D01*
X171841293Y-83801068D01*
X171968132Y-84017723D01*
X172067168Y-84209999D01*
X172116977Y-84324758D01*
X172147806Y-84402711D01*
X172173987Y-84467441D01*
X172180593Y-84483287D01*
X172201240Y-84531933D01*
X172138498Y-84488455D01*
X172097545Y-84453451D01*
X172031455Y-84389581D01*
X171949109Y-84305702D01*
X171859393Y-84210673D01*
X171852887Y-84203639D01*
X171767940Y-84114298D01*
X171654781Y-83999163D01*
X171522337Y-83867106D01*
X171379533Y-83726992D01*
X171235297Y-83587693D01*
X171176630Y-83531746D01*
X170800283Y-83173422D01*
X170460899Y-82848347D01*
X170158575Y-82556615D01*
X169893409Y-82298324D01*
X169665496Y-82073566D01*
X169474932Y-81882437D01*
X169321815Y-81725033D01*
X169206240Y-81601450D01*
X169128518Y-81512044D01*
X169076560Y-81451984D01*
X169036622Y-81412737D01*
X169021373Y-81403643D01*
X168996834Y-81422690D01*
X168951371Y-81469703D01*
X168910178Y-81516591D01*
X168816230Y-81627421D01*
X168901775Y-81792723D01*
X168991433Y-81951786D01*
X169110743Y-82141742D01*
X169254853Y-82356196D01*
X169418920Y-82588748D01*
X169598098Y-82833003D01*
X169787537Y-83082562D01*
X169982393Y-83331029D01*
X170177819Y-83572005D01*
X170368967Y-83799094D01*
X170550991Y-84005899D01*
X170699830Y-84166082D01*
X170919437Y-84406503D01*
X171134961Y-84664109D01*
X171339562Y-84929561D01*
X171526400Y-85193518D01*
X171688637Y-85446643D01*
X171819430Y-85679596D01*
X171843423Y-85727451D01*
X171938217Y-85971862D01*
X171975246Y-86127115D01*
X172012627Y-86333649D01*
X171682886Y-86374136D01*
X171345389Y-86092242D01*
X171277172Y-86036358D01*
X171172195Y-85951855D01*
X171033767Y-85841345D01*
X170865194Y-85707438D01*
X170669785Y-85552745D01*
X170450849Y-85379877D01*
X170211693Y-85191444D01*
X169955624Y-84990056D01*
X169685952Y-84778326D01*
X169405983Y-84558862D01*
X169119026Y-84334276D01*
X168995321Y-84237569D01*
X168710469Y-84014596D01*
X168434133Y-83797573D01*
X168169313Y-83588897D01*
X167919011Y-83390965D01*
X167686227Y-83206173D01*
X167473965Y-83036917D01*
X167285224Y-82885595D01*
X167123008Y-82754602D01*
X166990317Y-82646336D01*
X166890151Y-82563192D01*
X166825516Y-82507568D01*
X166806789Y-82490162D01*
X166671264Y-82347850D01*
X166571414Y-82222264D01*
X166500508Y-82102158D01*
X166451816Y-81976286D01*
X166420706Y-81844922D01*
X166397893Y-81680707D01*
X166399228Y-81549727D01*
X166426480Y-81439611D01*
X166481425Y-81337987D01*
X166496308Y-81317026D01*
X166533872Y-81265942D01*
X166596441Y-81180808D01*
X166678953Y-81068517D01*
X166776343Y-80935959D01*
X166883547Y-80790028D01*
X166978177Y-80661201D01*
X167377238Y-80117907D01*
X167097762Y-79946354D01*
X166900101Y-79817576D01*
X176362577Y-78655730D01*
X176412924Y-78874837D01*
X176507923Y-79083070D01*
X176644539Y-79276448D01*
X176819741Y-79450991D01*
X177030496Y-79602714D01*
X177273768Y-79727638D01*
X177380403Y-79769536D01*
X177560760Y-79829193D01*
X177710014Y-79863316D01*
X177841281Y-79871372D01*
X177967681Y-79852825D01*
X178102332Y-79807145D01*
X178258263Y-79733841D01*
X178485738Y-79593914D01*
X178671672Y-79426695D01*
X178817590Y-79229972D01*
X178925017Y-79001533D01*
X178995478Y-78739165D01*
X179011320Y-78641587D01*
X179020615Y-78477873D01*
X179012166Y-78324169D01*
X181185575Y-78057308D01*
X181192766Y-78091319D01*
X181236316Y-78223575D01*
X181301832Y-78372717D01*
X181379056Y-78517990D01*
X181457731Y-78638645D01*
X181473063Y-78658398D01*
X181667243Y-78873648D01*
X181862297Y-79039162D01*
X182057761Y-79154744D01*
X182253172Y-79220201D01*
X182448066Y-79235337D01*
X182641981Y-79199958D01*
X182707240Y-79176536D01*
X182893983Y-79089795D01*
X183079295Y-78983164D01*
X183253297Y-78863880D01*
X183406108Y-78739179D01*
X183527847Y-78616297D01*
X183594695Y-78526658D01*
X183674894Y-78376018D01*
X183727471Y-78222278D01*
X183758537Y-78045774D01*
X183765201Y-77978110D01*
X183770959Y-77885662D01*
X183768866Y-77809343D01*
X183756556Y-77731381D01*
X183731665Y-77633999D01*
X183709186Y-77557110D01*
X183618003Y-77297881D01*
X183616978Y-77295566D01*
X183766367Y-77277223D01*
X183780520Y-77288281D01*
X183791577Y-77274128D01*
X183777424Y-77263070D01*
X183766367Y-77277223D01*
X183616978Y-77295566D01*
X183498829Y-77029037D01*
X183421396Y-76884537D01*
X183587690Y-76864119D01*
X183601843Y-76875177D01*
X183612901Y-76861024D01*
X183598748Y-76849966D01*
X183587690Y-76864119D01*
X183421396Y-76884537D01*
X183362199Y-76774073D01*
X183345876Y-76746758D01*
X183241338Y-76610611D01*
X183099751Y-76489836D01*
X182915584Y-76380098D01*
X182818594Y-76333725D01*
X182740846Y-76304333D01*
X182644164Y-76275614D01*
X182541124Y-76250268D01*
X182444304Y-76230994D01*
X182366275Y-76220492D01*
X182319617Y-76221462D01*
X182312907Y-76225157D01*
X182324382Y-76247614D01*
X182362961Y-76294254D01*
X182404656Y-76338772D01*
X182493218Y-76447816D01*
X182560863Y-76575987D01*
X182610525Y-76731676D01*
X182645138Y-76923271D01*
X182661000Y-77071535D01*
X182672208Y-77237389D01*
X182672277Y-77366795D01*
X182659286Y-77473262D01*
X182631309Y-77570298D01*
X182586423Y-77671415D01*
X182571421Y-77700662D01*
X182514824Y-77783475D01*
X182440970Y-77861519D01*
X182419547Y-77879251D01*
X182366690Y-77915612D01*
X182312227Y-77940887D01*
X182242126Y-77959358D01*
X182142355Y-77975308D01*
X182077670Y-77983589D01*
X181948674Y-77996970D01*
X181855286Y-77999693D01*
X181783371Y-77991430D01*
X181728536Y-77975511D01*
X181603088Y-77904565D01*
X181489375Y-77791577D01*
X181393713Y-77645017D01*
X181322417Y-77473353D01*
X181303633Y-77405809D01*
X181266215Y-77251523D01*
X181229578Y-77399134D01*
X181195448Y-77572892D01*
X181176179Y-77751021D01*
X181172609Y-77917750D01*
X181185575Y-78057308D01*
X179012166Y-78324169D01*
X179010234Y-78289022D01*
X178982706Y-78095585D01*
X178940557Y-77918115D01*
X178912101Y-77834866D01*
X178839885Y-77679741D01*
X178744280Y-77514516D01*
X178636520Y-77356474D01*
X178527833Y-77222897D01*
X178486939Y-77180506D01*
X178307859Y-77040337D01*
X178097569Y-76933783D01*
X177865797Y-76864374D01*
X177837045Y-76860982D01*
X181618239Y-76396710D01*
X181623890Y-76396132D01*
X181664902Y-76368018D01*
X181708094Y-76342631D01*
X181740259Y-76320045D01*
X181726435Y-76313811D01*
X181725216Y-76313906D01*
X181677667Y-76334815D01*
X181641012Y-76367407D01*
X181618239Y-76396710D01*
X177837045Y-76860982D01*
X177622266Y-76835642D01*
X177537495Y-76835800D01*
X177353618Y-76841927D01*
X177415850Y-76895425D01*
X177464479Y-76946177D01*
X177524492Y-77020846D01*
X177566087Y-77078869D01*
X177601731Y-77134127D01*
X177628334Y-77185456D01*
X177649056Y-77243775D01*
X177667057Y-77320005D01*
X177685498Y-77425065D01*
X177706839Y-77565133D01*
X177731890Y-77757545D01*
X177742851Y-77912074D01*
X177738948Y-78039859D01*
X177719409Y-78152042D01*
X177683461Y-78259761D01*
X177654033Y-78326172D01*
X177564243Y-78463970D01*
X177441758Y-78565544D01*
X177283401Y-78633166D01*
X177195922Y-78653821D01*
X177086576Y-78668882D01*
X176978825Y-78674849D01*
X176904150Y-78671223D01*
X176783727Y-78633092D01*
X176658854Y-78557895D01*
X176543787Y-78455797D01*
X176467009Y-78359526D01*
X176423823Y-78297456D01*
X176396432Y-78273207D01*
X176379617Y-78290201D01*
X176368158Y-78351859D01*
X176359914Y-78429733D01*
X176362577Y-78655730D01*
X166900101Y-79817576D01*
X166819663Y-79765170D01*
X166539397Y-79563086D01*
X166267133Y-79348418D01*
X166013041Y-79129481D01*
X165787290Y-78914591D01*
X165628026Y-78744466D01*
X165548116Y-78645318D01*
X165460777Y-78524052D01*
X165374214Y-78393456D01*
X165296633Y-78266315D01*
X165236241Y-78155417D01*
X165205514Y-78086153D01*
X165186606Y-78038605D01*
X165164207Y-77999720D01*
X165130896Y-77963254D01*
X165079246Y-77922959D01*
X165001834Y-77872589D01*
X164891236Y-77805897D01*
X164827907Y-77768452D01*
X164653210Y-77659176D01*
X164459201Y-77527236D01*
X164255508Y-77380059D01*
X164051764Y-77225071D01*
X163857601Y-77069698D01*
X163682649Y-76921366D01*
X163536540Y-76787502D01*
X163472844Y-76723655D01*
X163320520Y-76549905D01*
X163174026Y-76356357D01*
X163041880Y-76155919D01*
X162932598Y-75961494D01*
X162855663Y-75788601D01*
X162808479Y-75632039D01*
X162767701Y-75442032D01*
X162735627Y-75235603D01*
X162714555Y-75029772D01*
X162706783Y-74841564D01*
X162711302Y-74719453D01*
X162758405Y-74453385D01*
X162852701Y-74181925D01*
X162991760Y-73910561D01*
X163173153Y-73644782D01*
X163204855Y-73604498D01*
X163306203Y-73479663D01*
X163388673Y-73383400D01*
X163464011Y-73303749D01*
X163543964Y-73228748D01*
X163640277Y-73146439D01*
X163714526Y-73085542D01*
X163812314Y-73008066D01*
X163884649Y-72957644D01*
X163943986Y-72927512D01*
X164002781Y-72910907D01*
X164049091Y-72903856D01*
X164180028Y-72887779D01*
X164238063Y-73232526D01*
X164338364Y-73688083D01*
X164482281Y-74128536D01*
X164667275Y-74548308D01*
X164890809Y-74941817D01*
X165150346Y-75303485D01*
X165216548Y-75383562D01*
X165374043Y-75568950D01*
X165332296Y-75100647D01*
X165320806Y-74973057D01*
X165305320Y-74803070D01*
X165286593Y-74598865D01*
X165265380Y-74368622D01*
X165242435Y-74120521D01*
X165218511Y-73862743D01*
X165194363Y-73603466D01*
X165183534Y-73487502D01*
X165076518Y-72342660D01*
X165222162Y-72324778D01*
X165297218Y-72317837D01*
X165356401Y-72321677D01*
X165416024Y-72340724D01*
X165492397Y-72379403D01*
X165555184Y-72415107D01*
X165986527Y-72683915D01*
X166368457Y-72963674D01*
X166701223Y-73254647D01*
X166985074Y-73557092D01*
X167220259Y-73871267D01*
X167407028Y-74197433D01*
X167519509Y-74461025D01*
X167557023Y-74587099D01*
X167592854Y-74750118D01*
X167625456Y-74937671D01*
X167653284Y-75137346D01*
X167674792Y-75336733D01*
X167688437Y-75523419D01*
X167692673Y-75684995D01*
X167686626Y-75803483D01*
X167616377Y-76193586D01*
X167497130Y-76581581D01*
X167330645Y-76963250D01*
X167118679Y-77334378D01*
X166942469Y-77587925D01*
X166785713Y-77797058D01*
X166865606Y-77891657D01*
X166942114Y-77969693D01*
X167051753Y-78064886D01*
X167183681Y-78168955D01*
X167327053Y-78273620D01*
X167471027Y-78370602D01*
X167581518Y-78438348D01*
X167671379Y-78489091D01*
X167743041Y-78527032D01*
X167786536Y-78547026D01*
X167794861Y-78548486D01*
X167781832Y-78527107D01*
X167741011Y-78475469D01*
X167678572Y-78401084D01*
X167600691Y-78311468D01*
X167592385Y-78302065D01*
X167382644Y-78064942D01*
X167369765Y-77959754D01*
X182571764Y-76093183D01*
X182585917Y-76104240D01*
X182596975Y-76090087D01*
X182582822Y-76079030D01*
X182571764Y-76093183D01*
X167369765Y-77959754D01*
X167349968Y-77798048D01*
X167335541Y-77641275D01*
X167337601Y-77523189D01*
X167358242Y-77433763D01*
X167399564Y-77362965D01*
X167451897Y-77310461D01*
X167492537Y-77289324D01*
X167575845Y-77256510D01*
X167695607Y-77214163D01*
X167845609Y-77164431D01*
X168019639Y-77109460D01*
X168140197Y-77072689D01*
X168311245Y-77020824D01*
X168466310Y-76973080D01*
X168598713Y-76931569D01*
X168701778Y-76898407D01*
X168768831Y-76875708D01*
X168792864Y-76865977D01*
X168813745Y-76831650D01*
X168834280Y-76774144D01*
X168839104Y-76747168D01*
X168836700Y-76716272D01*
X168824220Y-76675541D01*
X168798810Y-76619058D01*
X168757615Y-76540907D01*
X168697784Y-76435175D01*
X168616465Y-76295942D01*
X168546924Y-76178245D01*
X168238659Y-75657739D01*
X168209015Y-75415529D01*
X168196092Y-75262798D01*
X168202092Y-75147207D01*
X168229915Y-75057685D01*
X168282461Y-74983166D01*
X168335132Y-74934309D01*
X168359392Y-74915606D01*
X168385955Y-74900264D01*
X168421052Y-74887215D01*
X168470910Y-74875392D01*
X168541760Y-74863729D01*
X168639830Y-74851158D01*
X168771348Y-74836612D01*
X168942545Y-74819023D01*
X169100137Y-74803253D01*
X169789395Y-74734573D01*
X169844257Y-74656436D01*
X169865164Y-74623450D01*
X169878292Y-74589606D01*
X169882288Y-74548546D01*
X169875797Y-74493917D01*
X169857466Y-74419366D01*
X169825941Y-74318536D01*
X169779867Y-74185073D01*
X169717892Y-74012624D01*
X169691749Y-73940661D01*
X169602062Y-73678444D01*
X169538897Y-73455830D01*
X169502041Y-73269230D01*
X169491284Y-73115050D01*
X169506412Y-72989699D01*
X169547214Y-72889585D01*
X169613478Y-72811117D01*
X169624501Y-72801874D01*
X169673988Y-72767024D01*
X169728371Y-72743128D01*
X169801943Y-72725874D01*
X169908998Y-72710953D01*
X169936506Y-72707777D01*
X170029370Y-72699597D01*
X170124087Y-72696969D01*
X170230670Y-72700430D01*
X170359137Y-72710515D01*
X170519505Y-72727759D01*
X170682156Y-72747660D01*
X171200646Y-72813239D01*
X171276611Y-72736452D01*
X171352575Y-72659665D01*
X171248719Y-71943081D01*
X171218518Y-71733503D01*
X171195316Y-71567989D01*
X171178612Y-71440358D01*
X171167901Y-71344432D01*
X171162686Y-71274029D01*
X171162463Y-71222970D01*
X171166732Y-71185075D01*
X171174990Y-71154164D01*
X171183000Y-71133069D01*
X171223287Y-71048820D01*
X171270673Y-70988591D01*
X171335148Y-70946702D01*
X171426701Y-70917477D01*
X171555320Y-70895241D01*
X171615000Y-70887563D01*
X171884202Y-70854800D01*
X172365354Y-71021908D01*
X172548977Y-71085702D01*
X172690765Y-71134464D01*
X172796965Y-71169550D01*
X172873829Y-71192316D01*
X172927601Y-71204115D01*
X172964533Y-71206307D01*
X172990872Y-71200245D01*
X173012868Y-71187285D01*
X173036767Y-71168784D01*
X173037979Y-71167849D01*
X173083483Y-71126640D01*
X173103531Y-71096085D01*
X173103553Y-71094094D01*
X173102662Y-71053307D01*
X173103958Y-70970763D01*
X173107090Y-70854910D01*
X173111713Y-70714194D01*
X173117480Y-70557061D01*
X173124043Y-70391958D01*
X173131054Y-70227333D01*
X173138169Y-70071630D01*
X173145038Y-69933298D01*
X173151313Y-69820781D01*
X173156650Y-69742529D01*
X173160549Y-69707552D01*
X173196480Y-69632745D01*
X173260184Y-69553624D01*
X173334403Y-69489386D01*
X173378189Y-69465432D01*
X173429647Y-69453104D01*
X173516088Y-69439805D01*
X173621800Y-69427818D01*
X173661192Y-69424293D01*
X173885749Y-69405694D01*
X174426910Y-69716712D01*
X174578908Y-69802758D01*
X174718308Y-69879196D01*
X174838505Y-69942603D01*
X174932893Y-69989551D01*
X174994867Y-70016620D01*
X175015715Y-70021879D01*
X175066354Y-70000077D01*
X175083440Y-69981575D01*
X175094277Y-69948078D01*
X175114142Y-69872094D01*
X175141314Y-69760790D01*
X175174073Y-69621328D01*
X175210700Y-69460875D01*
X175240137Y-69328964D01*
X175279317Y-69154400D01*
X175316744Y-68992699D01*
X175350521Y-68851662D01*
X175378752Y-68739088D01*
X175399543Y-68662780D01*
X175408817Y-68634727D01*
X175454027Y-68554477D01*
X175517504Y-68496073D01*
X175608341Y-68454663D01*
X175735635Y-68425397D01*
X175825243Y-68412627D01*
X175943365Y-68399749D01*
X176025154Y-68396183D01*
X176084345Y-68402638D01*
X176134671Y-68419828D01*
X176155081Y-68429706D01*
X176199652Y-68459349D01*
X176275607Y-68517391D01*
X176376361Y-68598477D01*
X176495334Y-68697254D01*
X176625945Y-68808368D01*
X176708568Y-68879960D01*
X176858579Y-69008973D01*
X176987705Y-69116203D01*
X177092129Y-69198662D01*
X177168029Y-69253362D01*
X177211589Y-69277317D01*
X177217458Y-69278110D01*
X177239297Y-69260948D01*
X177272406Y-69211569D01*
X177318323Y-69126975D01*
X177378583Y-69004171D01*
X177454721Y-68840159D01*
X177546316Y-68636349D01*
X177637034Y-68432543D01*
X177711137Y-68270055D01*
X177773030Y-68143956D01*
X177827118Y-68049316D01*
X177877809Y-67981208D01*
X177929505Y-67934701D01*
X177986616Y-67904867D01*
X178053545Y-67886777D01*
X178134698Y-67875502D01*
X178234481Y-67866112D01*
G37*
X178234481Y-67866112D02*
X178234806Y-67866083D01*
X178356142Y-67856968D01*
X178440465Y-67856595D01*
X178500961Y-67865923D01*
X178550816Y-67885908D01*
X178557570Y-67889541D01*
X178602186Y-67926810D01*
X178673708Y-68003385D01*
X178770085Y-68116839D01*
X178889260Y-68264741D01*
X179029182Y-68444663D01*
X179051570Y-68473918D01*
X179184901Y-68646375D01*
X179297995Y-68788281D01*
X179388774Y-68897177D01*
X179455159Y-68970599D01*
X179495073Y-69006087D01*
X179503389Y-69009094D01*
X179520209Y-69001774D01*
X179544824Y-68979949D01*
X179580023Y-68939893D01*
X179628598Y-68877877D01*
X179693338Y-68790175D01*
X179777034Y-68673060D01*
X179882475Y-68522804D01*
X180012453Y-68335681D01*
X180072094Y-68249450D01*
X180168229Y-68111302D01*
X180243734Y-68009003D01*
X180306897Y-67936633D01*
X180366005Y-67888272D01*
X180429345Y-67858003D01*
X180505205Y-67839906D01*
X180601872Y-67828062D01*
X180670998Y-67821704D01*
X180792059Y-67811861D01*
X180874581Y-67808950D01*
X180930490Y-67814065D01*
X180971707Y-67828297D01*
X181010160Y-67852736D01*
X181010201Y-67852767D01*
X181043599Y-67878391D01*
X181073705Y-67906277D01*
X181103850Y-67941989D01*
X181137368Y-67991091D01*
X181177589Y-68059147D01*
X181227848Y-68151721D01*
X181291475Y-68274378D01*
X181371805Y-68432683D01*
X181447132Y-68582364D01*
X181525586Y-68737364D01*
X181597805Y-68877894D01*
X181660298Y-68997337D01*
X181709579Y-69089078D01*
X181742157Y-69146499D01*
X181753073Y-69162646D01*
X181800994Y-69184231D01*
X181829388Y-69185264D01*
X181860322Y-69166599D01*
X181921917Y-69117257D01*
X182008592Y-69042159D01*
X182114766Y-68946225D01*
X182234858Y-68834375D01*
X182326839Y-68746722D01*
X182776647Y-68314029D01*
X183029875Y-68274550D01*
X183148245Y-68257166D01*
X183229636Y-68249252D01*
X183287038Y-68251132D01*
X183333442Y-68263128D01*
X183377193Y-68283173D01*
X183452836Y-68332773D01*
X183516526Y-68392189D01*
X183523975Y-68401491D01*
X183548637Y-68450506D01*
X183584304Y-68545091D01*
X183629748Y-68681510D01*
X183683738Y-68856030D01*
X183745046Y-69064914D01*
X183762541Y-69126180D01*
X183816056Y-69310996D01*
X183865346Y-69474263D01*
X183908547Y-69610268D01*
X183943797Y-69713298D01*
X183969233Y-69777643D01*
X183981418Y-69797510D01*
X184019670Y-69816103D01*
X184054171Y-69827036D01*
X184091174Y-69827715D01*
X184136930Y-69815549D01*
X184197693Y-69787943D01*
X184279714Y-69742306D01*
X184389247Y-69676043D01*
X184532542Y-69586564D01*
X184614668Y-69534911D01*
X185121321Y-69216109D01*
X185334437Y-69189941D01*
X185488249Y-69178448D01*
X185605259Y-69189259D01*
X185695750Y-69225610D01*
X185770007Y-69290739D01*
X185806675Y-69338578D01*
X185827882Y-69370076D01*
X185845050Y-69400494D01*
X185859280Y-69436157D01*
X185871675Y-69483386D01*
X185883334Y-69548508D01*
X185895358Y-69637846D01*
X185908851Y-69757723D01*
X185924912Y-69914465D01*
X185944642Y-70114394D01*
X185948335Y-70152057D01*
X186017856Y-70861129D01*
X186110653Y-70915053D01*
X186203450Y-70968976D01*
X186679750Y-70783936D01*
X186859344Y-70715238D01*
X187002454Y-70663441D01*
X187119284Y-70625441D01*
X187220048Y-70598136D01*
X187314952Y-70578423D01*
X187399544Y-70565195D01*
X187517516Y-70550306D01*
X187598246Y-70544897D01*
X187654477Y-70549376D01*
X187698950Y-70564153D01*
X187720693Y-70575493D01*
X187801494Y-70630505D01*
X187865511Y-70697470D01*
X187913612Y-70781390D01*
X187946662Y-70887266D01*
X187965530Y-71020101D01*
X187971082Y-71184897D01*
X187964187Y-71386653D01*
X187945709Y-71630373D01*
X187930663Y-71786681D01*
X187874203Y-72341986D01*
X187951391Y-72418292D01*
X188028581Y-72494598D01*
X188719873Y-72393167D01*
X189411164Y-72291734D01*
X189504164Y-72340867D01*
X189593119Y-72400320D01*
X189657019Y-72476259D01*
X189701279Y-72578757D01*
X189731308Y-72717882D01*
X189739699Y-72779026D01*
X189767301Y-73003829D01*
X189592527Y-73584703D01*
X189537512Y-73768500D01*
X189496137Y-73910232D01*
X189467076Y-74016377D01*
X189448995Y-74093412D01*
X189440567Y-74147818D01*
X189440460Y-74186071D01*
X189447345Y-74214651D01*
X189458503Y-74237603D01*
X189493523Y-74290796D01*
X189521988Y-74320069D01*
X189522732Y-74320437D01*
X189553516Y-74324539D01*
X189628054Y-74330500D01*
X189739350Y-74337878D01*
X189880411Y-74346237D01*
X190044242Y-74355139D01*
X190203777Y-74363171D01*
X190422371Y-74374377D01*
X190596296Y-74385330D01*
X190731652Y-74397425D01*
X190834543Y-74412055D01*
X190911071Y-74430612D01*
X190967339Y-74454494D01*
X191009451Y-74485091D01*
X191043509Y-74523798D01*
X191068497Y-74560656D01*
X191100537Y-74635327D01*
X191127966Y-74742535D01*
X191148694Y-74866220D01*
X191160630Y-74990327D01*
X191161683Y-75098796D01*
X191149763Y-75175570D01*
X191148876Y-75178055D01*
X191129156Y-75222089D01*
X191089535Y-75303338D01*
X191033887Y-75414126D01*
X190966084Y-75546771D01*
X190889999Y-75693595D01*
X190857746Y-75755277D01*
X190781412Y-75902574D01*
X190713925Y-76036055D01*
X190658664Y-76148766D01*
X190619011Y-76233750D01*
X190598345Y-76284050D01*
X190596144Y-76293594D01*
X190618007Y-76312436D01*
X190680247Y-76353609D01*
X190778859Y-76414742D01*
X190909829Y-76493463D01*
X191069147Y-76587399D01*
X191252805Y-76694180D01*
X191456792Y-76811433D01*
X191677099Y-76936787D01*
X191821234Y-77018159D01*
X192065657Y-77156425D01*
X192293840Y-77286854D01*
X192501937Y-77407166D01*
X192686102Y-77515083D01*
X192842487Y-77608324D01*
X192967243Y-77684612D01*
X193056526Y-77741666D01*
X193106487Y-77777208D01*
X193113802Y-77783950D01*
X193143563Y-77820103D01*
X193164716Y-77857695D01*
X193180030Y-77907517D01*
X193192279Y-77980358D01*
X193204233Y-78087008D01*
X193211831Y-78165496D01*
X193223545Y-78294691D01*
X193228860Y-78388383D01*
X193226167Y-78461639D01*
X193213861Y-78529530D01*
X193190335Y-78607123D01*
X193153984Y-78709488D01*
X193153789Y-78710028D01*
X193108721Y-78825127D01*
X193046062Y-78969333D01*
X192965001Y-79144246D01*
X192864722Y-79351469D01*
X192744416Y-79592602D01*
X192603271Y-79869247D01*
X192440474Y-80183007D01*
X192255213Y-80535482D01*
X192046676Y-80928276D01*
X191814051Y-81362989D01*
X191722313Y-81533664D01*
X191611819Y-81739014D01*
X191498308Y-81949984D01*
X191386741Y-82157349D01*
X191282082Y-82351888D01*
X191189289Y-82524379D01*
X191113327Y-82665599D01*
X191085407Y-82717509D01*
X190996050Y-82887547D01*
X190897886Y-83080767D01*
X190800865Y-83277196D01*
X190714940Y-83456862D01*
X190687281Y-83516554D01*
X190622783Y-83655201D01*
X190560740Y-83784642D01*
X190506139Y-83894761D01*
X190463963Y-83975440D01*
X190445079Y-84008083D01*
X190407237Y-84061901D01*
X190369249Y-84092894D01*
X190313916Y-84110251D01*
X190231257Y-84122273D01*
X190078206Y-84141065D01*
X190053505Y-83817816D01*
X190044341Y-83637702D01*
X190043617Y-83461569D01*
X190051279Y-83309624D01*
X190054959Y-83273834D01*
X190109747Y-82916159D01*
X190191179Y-82532435D01*
X190295629Y-82137406D01*
X190419468Y-81745817D01*
X190457489Y-81637783D01*
X190528117Y-81427810D01*
X190602951Y-81180554D01*
X190679443Y-80906515D01*
X190755043Y-80616195D01*
X190827206Y-80320092D01*
X190893382Y-80028707D01*
X190951022Y-79752539D01*
X190997580Y-79502090D01*
X191030507Y-79287858D01*
X191033571Y-79263882D01*
X191051777Y-79118002D01*
X191063648Y-79014134D01*
X191068341Y-78943788D01*
X191065013Y-78898471D01*
X191052825Y-78869697D01*
X191030932Y-78848973D01*
X190998495Y-78827809D01*
X190989776Y-78822196D01*
X190932279Y-78791803D01*
X190893264Y-78784074D01*
X190886988Y-78787816D01*
X190871212Y-78817610D01*
X190837951Y-78884801D01*
X190791369Y-78980833D01*
X190735633Y-79097149D01*
X190705065Y-79161439D01*
X190644533Y-79286267D01*
X190562437Y-79451214D01*
X190461182Y-79651609D01*
X190343171Y-79882783D01*
X190210811Y-80140064D01*
X190066507Y-80418783D01*
X189912665Y-80714268D01*
X189751688Y-81021852D01*
X189585984Y-81336861D01*
X189533255Y-81436761D01*
X189448820Y-81599381D01*
X189357529Y-81779839D01*
X189268671Y-81959491D01*
X189191536Y-82119693D01*
X189168997Y-82167786D01*
X189112628Y-82286577D01*
X189063133Y-82385951D01*
X189024542Y-82458193D01*
X189000886Y-82495585D01*
X188996004Y-82498876D01*
X188991801Y-82468072D01*
X188997366Y-82396478D01*
X189011179Y-82292835D01*
X189031721Y-82165883D01*
X189057471Y-82024362D01*
X189086912Y-81877013D01*
X189118521Y-81732575D01*
X189150781Y-81599791D01*
X189155416Y-81582046D01*
X189197589Y-81431864D01*
X189251199Y-81254985D01*
X189309728Y-81072234D01*
X189366662Y-80904434D01*
X189373410Y-80885358D01*
X189508693Y-80487399D01*
X189639959Y-80068024D01*
X189758175Y-79656375D01*
X189783222Y-79563397D01*
X189818249Y-79426500D01*
X189854019Y-79277961D01*
X189888562Y-79126993D01*
X189919907Y-78982810D01*
X189946087Y-78854626D01*
X189965134Y-78751658D01*
X189975077Y-78683116D01*
X189975823Y-78662083D01*
X189957865Y-78658375D01*
X189912628Y-78691156D01*
X189851821Y-78749726D01*
X189755418Y-78842991D01*
X189625501Y-78958831D01*
X189469970Y-79090399D01*
X189296723Y-79230848D01*
X189296268Y-79231209D01*
X189249946Y-79287847D01*
X189201637Y-79380502D01*
X189169591Y-79462599D01*
X189055045Y-79741059D01*
X188896499Y-80036793D01*
X188693207Y-80351050D01*
X188444427Y-80685084D01*
X188441954Y-80688215D01*
X188070769Y-81119227D01*
X187655092Y-81529660D01*
X187198018Y-81916712D01*
X186702640Y-82277584D01*
X186637658Y-82321059D01*
X186490639Y-82418769D01*
X186378161Y-82495290D01*
X186292401Y-82557467D01*
X186225536Y-82612144D01*
X186169745Y-82666170D01*
X186117202Y-82726387D01*
X186060088Y-82799644D01*
X186002192Y-82877157D01*
X185663424Y-83309860D01*
X185326281Y-83693365D01*
X184988980Y-84029157D01*
X184649735Y-84318721D01*
X184306761Y-84563544D01*
X183958273Y-84765111D01*
X183602487Y-84924909D01*
X183494709Y-84964698D01*
X183413307Y-84987718D01*
X183293634Y-85014488D01*
X183147398Y-85043076D01*
X182986310Y-85071554D01*
X182822079Y-85097991D01*
X182666413Y-85120457D01*
X182531023Y-85137023D01*
X182427619Y-85145760D01*
X182391049Y-85146581D01*
X182034298Y-85124366D01*
X181706189Y-85071218D01*
X181425259Y-84992392D01*
X181255288Y-84924872D01*
X181074900Y-84839830D01*
X180900732Y-84745983D01*
X180749424Y-84652047D01*
X180679971Y-84601950D01*
X180602857Y-84540011D01*
X180556949Y-84493437D01*
X180532458Y-84447591D01*
X180519595Y-84387834D01*
X180515403Y-84355855D01*
X180499340Y-84225033D01*
X180867576Y-84149881D01*
X181017217Y-84117518D01*
X181166893Y-84081984D01*
X181301021Y-84047176D01*
X181404018Y-84016994D01*
X181420002Y-84011687D01*
X181739280Y-83885018D01*
X182062824Y-83724492D01*
X182374467Y-83539229D01*
X182658040Y-83338354D01*
X182760232Y-83255470D01*
X182863960Y-83162756D01*
X182976640Y-83053740D01*
X183092682Y-82934766D01*
X183206496Y-82812179D01*
X183312489Y-82692321D01*
X183405073Y-82581537D01*
X183478655Y-82486170D01*
X183527647Y-82412564D01*
X183546456Y-82367063D01*
X183546378Y-82363421D01*
X183521205Y-82352675D01*
X183453481Y-82340081D01*
X183351384Y-82326472D01*
X183223092Y-82312684D01*
X183076785Y-82299552D01*
X182920639Y-82287911D01*
X182762833Y-82278597D01*
X182678203Y-82274764D01*
X182218659Y-82270095D01*
X181800696Y-82294308D01*
X181424076Y-82347435D01*
X181088564Y-82429514D01*
X180793924Y-82540577D01*
X180755374Y-82558705D01*
X180649848Y-82604001D01*
X180543471Y-82640465D01*
X180458327Y-82660583D01*
X180454459Y-82661096D01*
X180334730Y-82675976D01*
X180317573Y-82536240D01*
X180311167Y-82452875D01*
X180319607Y-82386518D01*
X180347890Y-82315618D01*
X180384497Y-82247618D01*
X180426705Y-82169481D01*
X180456018Y-82108681D01*
X180466013Y-82078759D01*
X180441157Y-82076518D01*
X180372023Y-82079754D01*
X180264776Y-82087930D01*
X180125581Y-82100512D01*
X179960604Y-82116965D01*
X179776010Y-82136751D01*
X179700058Y-82145254D01*
X178691962Y-82246557D01*
X177719595Y-82317755D01*
X176777864Y-82358980D01*
X175861676Y-82370364D01*
X174965938Y-82352039D01*
X174085558Y-82304138D01*
X173950419Y-82294094D01*
X173710177Y-82273508D01*
X173452710Y-82247756D01*
X173188590Y-82218170D01*
X172928397Y-82186078D01*
X172682703Y-82152812D01*
X172462087Y-82119701D01*
X172277123Y-82088076D01*
X172212377Y-82075508D01*
X171914662Y-82009355D01*
X171603326Y-81930088D01*
X171290939Y-81841469D01*
X170990074Y-81747267D01*
X170713300Y-81651245D01*
X170473189Y-81557168D01*
X170452604Y-81548410D01*
X170355269Y-81510716D01*
X170300635Y-81499404D01*
X170287978Y-81510268D01*
X170303557Y-81543744D01*
X170344371Y-81613092D01*
X170406549Y-81712545D01*
X170486227Y-81836337D01*
X170579533Y-81978702D01*
X170682602Y-82133873D01*
X170791564Y-82296084D01*
X170902551Y-82459568D01*
X171011695Y-82618561D01*
X171115128Y-82767295D01*
X171208981Y-82900005D01*
X171289387Y-83010923D01*
X171338617Y-83076442D01*
X171522071Y-83323267D01*
X171691117Y-83567195D01*
X171841293Y-83801068D01*
X171968132Y-84017723D01*
X172067168Y-84209999D01*
X172116977Y-84324758D01*
X172147806Y-84402711D01*
X172173987Y-84467441D01*
X172180593Y-84483287D01*
X172201240Y-84531933D01*
X172138498Y-84488455D01*
X172097545Y-84453451D01*
X172031455Y-84389581D01*
X171949109Y-84305702D01*
X171859393Y-84210673D01*
X171852887Y-84203639D01*
X171767940Y-84114298D01*
X171654781Y-83999163D01*
X171522337Y-83867106D01*
X171379533Y-83726992D01*
X171235297Y-83587693D01*
X171176630Y-83531746D01*
X170800283Y-83173422D01*
X170460899Y-82848347D01*
X170158575Y-82556615D01*
X169893409Y-82298324D01*
X169665496Y-82073566D01*
X169474932Y-81882437D01*
X169321815Y-81725033D01*
X169206240Y-81601450D01*
X169128518Y-81512044D01*
X169076560Y-81451984D01*
X169036622Y-81412737D01*
X169021373Y-81403643D01*
X168996834Y-81422690D01*
X168951371Y-81469703D01*
X168910178Y-81516591D01*
X168816230Y-81627421D01*
X168901775Y-81792723D01*
X168991433Y-81951786D01*
X169110743Y-82141742D01*
X169254853Y-82356196D01*
X169418920Y-82588748D01*
X169598098Y-82833003D01*
X169787537Y-83082562D01*
X169982393Y-83331029D01*
X170177819Y-83572005D01*
X170368967Y-83799094D01*
X170550991Y-84005899D01*
X170699830Y-84166082D01*
X170919437Y-84406503D01*
X171134961Y-84664109D01*
X171339562Y-84929561D01*
X171526400Y-85193518D01*
X171688637Y-85446643D01*
X171819430Y-85679596D01*
X171843423Y-85727451D01*
X171938217Y-85971862D01*
X171975246Y-86127115D01*
X172012627Y-86333649D01*
X171682886Y-86374136D01*
X171345389Y-86092242D01*
X171277172Y-86036358D01*
X171172195Y-85951855D01*
X171033767Y-85841345D01*
X170865194Y-85707438D01*
X170669785Y-85552745D01*
X170450849Y-85379877D01*
X170211693Y-85191444D01*
X169955624Y-84990056D01*
X169685952Y-84778326D01*
X169405983Y-84558862D01*
X169119026Y-84334276D01*
X168995321Y-84237569D01*
X168710469Y-84014596D01*
X168434133Y-83797573D01*
X168169313Y-83588897D01*
X167919011Y-83390965D01*
X167686227Y-83206173D01*
X167473965Y-83036917D01*
X167285224Y-82885595D01*
X167123008Y-82754602D01*
X166990317Y-82646336D01*
X166890151Y-82563192D01*
X166825516Y-82507568D01*
X166806789Y-82490162D01*
X166671264Y-82347850D01*
X166571414Y-82222264D01*
X166500508Y-82102158D01*
X166451816Y-81976286D01*
X166420706Y-81844922D01*
X166397893Y-81680707D01*
X166399228Y-81549727D01*
X166426480Y-81439611D01*
X166481425Y-81337987D01*
X166496308Y-81317026D01*
X166533872Y-81265942D01*
X166596441Y-81180808D01*
X166678953Y-81068517D01*
X166776343Y-80935959D01*
X166883547Y-80790028D01*
X166978177Y-80661201D01*
X167377238Y-80117907D01*
X167097762Y-79946354D01*
X166900101Y-79817576D01*
X176362577Y-78655730D01*
X176412924Y-78874837D01*
X176507923Y-79083070D01*
X176644539Y-79276448D01*
X176819741Y-79450991D01*
X177030496Y-79602714D01*
X177273768Y-79727638D01*
X177380403Y-79769536D01*
X177560760Y-79829193D01*
X177710014Y-79863316D01*
X177841281Y-79871372D01*
X177967681Y-79852825D01*
X178102332Y-79807145D01*
X178258263Y-79733841D01*
X178485738Y-79593914D01*
X178671672Y-79426695D01*
X178817590Y-79229972D01*
X178925017Y-79001533D01*
X178995478Y-78739165D01*
X179011320Y-78641587D01*
X179020615Y-78477873D01*
X179012166Y-78324169D01*
X181185575Y-78057308D01*
X181192766Y-78091319D01*
X181236316Y-78223575D01*
X181301832Y-78372717D01*
X181379056Y-78517990D01*
X181457731Y-78638645D01*
X181473063Y-78658398D01*
X181667243Y-78873648D01*
X181862297Y-79039162D01*
X182057761Y-79154744D01*
X182253172Y-79220201D01*
X182448066Y-79235337D01*
X182641981Y-79199958D01*
X182707240Y-79176536D01*
X182893983Y-79089795D01*
X183079295Y-78983164D01*
X183253297Y-78863880D01*
X183406108Y-78739179D01*
X183527847Y-78616297D01*
X183594695Y-78526658D01*
X183674894Y-78376018D01*
X183727471Y-78222278D01*
X183758537Y-78045774D01*
X183765201Y-77978110D01*
X183770959Y-77885662D01*
X183768866Y-77809343D01*
X183756556Y-77731381D01*
X183731665Y-77633999D01*
X183709186Y-77557110D01*
X183618003Y-77297881D01*
X183616978Y-77295566D01*
X183766367Y-77277223D01*
X183780520Y-77288281D01*
X183791577Y-77274128D01*
X183777424Y-77263070D01*
X183766367Y-77277223D01*
X183616978Y-77295566D01*
X183498829Y-77029037D01*
X183421396Y-76884537D01*
X183587690Y-76864119D01*
X183601843Y-76875177D01*
X183612901Y-76861024D01*
X183598748Y-76849966D01*
X183587690Y-76864119D01*
X183421396Y-76884537D01*
X183362199Y-76774073D01*
X183345876Y-76746758D01*
X183241338Y-76610611D01*
X183099751Y-76489836D01*
X182915584Y-76380098D01*
X182818594Y-76333725D01*
X182740846Y-76304333D01*
X182644164Y-76275614D01*
X182541124Y-76250268D01*
X182444304Y-76230994D01*
X182366275Y-76220492D01*
X182319617Y-76221462D01*
X182312907Y-76225157D01*
X182324382Y-76247614D01*
X182362961Y-76294254D01*
X182404656Y-76338772D01*
X182493218Y-76447816D01*
X182560863Y-76575987D01*
X182610525Y-76731676D01*
X182645138Y-76923271D01*
X182661000Y-77071535D01*
X182672208Y-77237389D01*
X182672277Y-77366795D01*
X182659286Y-77473262D01*
X182631309Y-77570298D01*
X182586423Y-77671415D01*
X182571421Y-77700662D01*
X182514824Y-77783475D01*
X182440970Y-77861519D01*
X182419547Y-77879251D01*
X182366690Y-77915612D01*
X182312227Y-77940887D01*
X182242126Y-77959358D01*
X182142355Y-77975308D01*
X182077670Y-77983589D01*
X181948674Y-77996970D01*
X181855286Y-77999693D01*
X181783371Y-77991430D01*
X181728536Y-77975511D01*
X181603088Y-77904565D01*
X181489375Y-77791577D01*
X181393713Y-77645017D01*
X181322417Y-77473353D01*
X181303633Y-77405809D01*
X181266215Y-77251523D01*
X181229578Y-77399134D01*
X181195448Y-77572892D01*
X181176179Y-77751021D01*
X181172609Y-77917750D01*
X181185575Y-78057308D01*
X179012166Y-78324169D01*
X179010234Y-78289022D01*
X178982706Y-78095585D01*
X178940557Y-77918115D01*
X178912101Y-77834866D01*
X178839885Y-77679741D01*
X178744280Y-77514516D01*
X178636520Y-77356474D01*
X178527833Y-77222897D01*
X178486939Y-77180506D01*
X178307859Y-77040337D01*
X178097569Y-76933783D01*
X177865797Y-76864374D01*
X177837045Y-76860982D01*
X181618239Y-76396710D01*
X181623890Y-76396132D01*
X181664902Y-76368018D01*
X181708094Y-76342631D01*
X181740259Y-76320045D01*
X181726435Y-76313811D01*
X181725216Y-76313906D01*
X181677667Y-76334815D01*
X181641012Y-76367407D01*
X181618239Y-76396710D01*
X177837045Y-76860982D01*
X177622266Y-76835642D01*
X177537495Y-76835800D01*
X177353618Y-76841927D01*
X177415850Y-76895425D01*
X177464479Y-76946177D01*
X177524492Y-77020846D01*
X177566087Y-77078869D01*
X177601731Y-77134127D01*
X177628334Y-77185456D01*
X177649056Y-77243775D01*
X177667057Y-77320005D01*
X177685498Y-77425065D01*
X177706839Y-77565133D01*
X177731890Y-77757545D01*
X177742851Y-77912074D01*
X177738948Y-78039859D01*
X177719409Y-78152042D01*
X177683461Y-78259761D01*
X177654033Y-78326172D01*
X177564243Y-78463970D01*
X177441758Y-78565544D01*
X177283401Y-78633166D01*
X177195922Y-78653821D01*
X177086576Y-78668882D01*
X176978825Y-78674849D01*
X176904150Y-78671223D01*
X176783727Y-78633092D01*
X176658854Y-78557895D01*
X176543787Y-78455797D01*
X176467009Y-78359526D01*
X176423823Y-78297456D01*
X176396432Y-78273207D01*
X176379617Y-78290201D01*
X176368158Y-78351859D01*
X176359914Y-78429733D01*
X176362577Y-78655730D01*
X166900101Y-79817576D01*
X166819663Y-79765170D01*
X166539397Y-79563086D01*
X166267133Y-79348418D01*
X166013041Y-79129481D01*
X165787290Y-78914591D01*
X165628026Y-78744466D01*
X165548116Y-78645318D01*
X165460777Y-78524052D01*
X165374214Y-78393456D01*
X165296633Y-78266315D01*
X165236241Y-78155417D01*
X165205514Y-78086153D01*
X165186606Y-78038605D01*
X165164207Y-77999720D01*
X165130896Y-77963254D01*
X165079246Y-77922959D01*
X165001834Y-77872589D01*
X164891236Y-77805897D01*
X164827907Y-77768452D01*
X164653210Y-77659176D01*
X164459201Y-77527236D01*
X164255508Y-77380059D01*
X164051764Y-77225071D01*
X163857601Y-77069698D01*
X163682649Y-76921366D01*
X163536540Y-76787502D01*
X163472844Y-76723655D01*
X163320520Y-76549905D01*
X163174026Y-76356357D01*
X163041880Y-76155919D01*
X162932598Y-75961494D01*
X162855663Y-75788601D01*
X162808479Y-75632039D01*
X162767701Y-75442032D01*
X162735627Y-75235603D01*
X162714555Y-75029772D01*
X162706783Y-74841564D01*
X162711302Y-74719453D01*
X162758405Y-74453385D01*
X162852701Y-74181925D01*
X162991760Y-73910561D01*
X163173153Y-73644782D01*
X163204855Y-73604498D01*
X163306203Y-73479663D01*
X163388673Y-73383400D01*
X163464011Y-73303749D01*
X163543964Y-73228748D01*
X163640277Y-73146439D01*
X163714526Y-73085542D01*
X163812314Y-73008066D01*
X163884649Y-72957644D01*
X163943986Y-72927512D01*
X164002781Y-72910907D01*
X164049091Y-72903856D01*
X164180028Y-72887779D01*
X164238063Y-73232526D01*
X164338364Y-73688083D01*
X164482281Y-74128536D01*
X164667275Y-74548308D01*
X164890809Y-74941817D01*
X165150346Y-75303485D01*
X165216548Y-75383562D01*
X165374043Y-75568950D01*
X165332296Y-75100647D01*
X165320806Y-74973057D01*
X165305320Y-74803070D01*
X165286593Y-74598865D01*
X165265380Y-74368622D01*
X165242435Y-74120521D01*
X165218511Y-73862743D01*
X165194363Y-73603466D01*
X165183534Y-73487502D01*
X165076518Y-72342660D01*
X165222162Y-72324778D01*
X165297218Y-72317837D01*
X165356401Y-72321677D01*
X165416024Y-72340724D01*
X165492397Y-72379403D01*
X165555184Y-72415107D01*
X165986527Y-72683915D01*
X166368457Y-72963674D01*
X166701223Y-73254647D01*
X166985074Y-73557092D01*
X167220259Y-73871267D01*
X167407028Y-74197433D01*
X167519509Y-74461025D01*
X167557023Y-74587099D01*
X167592854Y-74750118D01*
X167625456Y-74937671D01*
X167653284Y-75137346D01*
X167674792Y-75336733D01*
X167688437Y-75523419D01*
X167692673Y-75684995D01*
X167686626Y-75803483D01*
X167616377Y-76193586D01*
X167497130Y-76581581D01*
X167330645Y-76963250D01*
X167118679Y-77334378D01*
X166942469Y-77587925D01*
X166785713Y-77797058D01*
X166865606Y-77891657D01*
X166942114Y-77969693D01*
X167051753Y-78064886D01*
X167183681Y-78168955D01*
X167327053Y-78273620D01*
X167471027Y-78370602D01*
X167581518Y-78438348D01*
X167671379Y-78489091D01*
X167743041Y-78527032D01*
X167786536Y-78547026D01*
X167794861Y-78548486D01*
X167781832Y-78527107D01*
X167741011Y-78475469D01*
X167678572Y-78401084D01*
X167600691Y-78311468D01*
X167592385Y-78302065D01*
X167382644Y-78064942D01*
X167369765Y-77959754D01*
X182571764Y-76093183D01*
X182585917Y-76104240D01*
X182596975Y-76090087D01*
X182582822Y-76079030D01*
X182571764Y-76093183D01*
X167369765Y-77959754D01*
X167349968Y-77798048D01*
X167335541Y-77641275D01*
X167337601Y-77523189D01*
X167358242Y-77433763D01*
X167399564Y-77362965D01*
X167451897Y-77310461D01*
X167492537Y-77289324D01*
X167575845Y-77256510D01*
X167695607Y-77214163D01*
X167845609Y-77164431D01*
X168019639Y-77109460D01*
X168140197Y-77072689D01*
X168311245Y-77020824D01*
X168466310Y-76973080D01*
X168598713Y-76931569D01*
X168701778Y-76898407D01*
X168768831Y-76875708D01*
X168792864Y-76865977D01*
X168813745Y-76831650D01*
X168834280Y-76774144D01*
X168839104Y-76747168D01*
X168836700Y-76716272D01*
X168824220Y-76675541D01*
X168798810Y-76619058D01*
X168757615Y-76540907D01*
X168697784Y-76435175D01*
X168616465Y-76295942D01*
X168546924Y-76178245D01*
X168238659Y-75657739D01*
X168209015Y-75415529D01*
X168196092Y-75262798D01*
X168202092Y-75147207D01*
X168229915Y-75057685D01*
X168282461Y-74983166D01*
X168335132Y-74934309D01*
X168359392Y-74915606D01*
X168385955Y-74900264D01*
X168421052Y-74887215D01*
X168470910Y-74875392D01*
X168541760Y-74863729D01*
X168639830Y-74851158D01*
X168771348Y-74836612D01*
X168942545Y-74819023D01*
X169100137Y-74803253D01*
X169789395Y-74734573D01*
X169844257Y-74656436D01*
X169865164Y-74623450D01*
X169878292Y-74589606D01*
X169882288Y-74548546D01*
X169875797Y-74493917D01*
X169857466Y-74419366D01*
X169825941Y-74318536D01*
X169779867Y-74185073D01*
X169717892Y-74012624D01*
X169691749Y-73940661D01*
X169602062Y-73678444D01*
X169538897Y-73455830D01*
X169502041Y-73269230D01*
X169491284Y-73115050D01*
X169506412Y-72989699D01*
X169547214Y-72889585D01*
X169613478Y-72811117D01*
X169624501Y-72801874D01*
X169673988Y-72767024D01*
X169728371Y-72743128D01*
X169801943Y-72725874D01*
X169908998Y-72710953D01*
X169936506Y-72707777D01*
X170029370Y-72699597D01*
X170124087Y-72696969D01*
X170230670Y-72700430D01*
X170359137Y-72710515D01*
X170519505Y-72727759D01*
X170682156Y-72747660D01*
X171200646Y-72813239D01*
X171276611Y-72736452D01*
X171352575Y-72659665D01*
X171248719Y-71943081D01*
X171218518Y-71733503D01*
X171195316Y-71567989D01*
X171178612Y-71440358D01*
X171167901Y-71344432D01*
X171162686Y-71274029D01*
X171162463Y-71222970D01*
X171166732Y-71185075D01*
X171174990Y-71154164D01*
X171183000Y-71133069D01*
X171223287Y-71048820D01*
X171270673Y-70988591D01*
X171335148Y-70946702D01*
X171426701Y-70917477D01*
X171555320Y-70895241D01*
X171615000Y-70887563D01*
X171884202Y-70854800D01*
X172365354Y-71021908D01*
X172548977Y-71085702D01*
X172690765Y-71134464D01*
X172796965Y-71169550D01*
X172873829Y-71192316D01*
X172927601Y-71204115D01*
X172964533Y-71206307D01*
X172990872Y-71200245D01*
X173012868Y-71187285D01*
X173036767Y-71168784D01*
X173037979Y-71167849D01*
X173083483Y-71126640D01*
X173103531Y-71096085D01*
X173103553Y-71094094D01*
X173102662Y-71053307D01*
X173103958Y-70970763D01*
X173107090Y-70854910D01*
X173111713Y-70714194D01*
X173117480Y-70557061D01*
X173124043Y-70391958D01*
X173131054Y-70227333D01*
X173138169Y-70071630D01*
X173145038Y-69933298D01*
X173151313Y-69820781D01*
X173156650Y-69742529D01*
X173160549Y-69707552D01*
X173196480Y-69632745D01*
X173260184Y-69553624D01*
X173334403Y-69489386D01*
X173378189Y-69465432D01*
X173429647Y-69453104D01*
X173516088Y-69439805D01*
X173621800Y-69427818D01*
X173661192Y-69424293D01*
X173885749Y-69405694D01*
X174426910Y-69716712D01*
X174578908Y-69802758D01*
X174718308Y-69879196D01*
X174838505Y-69942603D01*
X174932893Y-69989551D01*
X174994867Y-70016620D01*
X175015715Y-70021879D01*
X175066354Y-70000077D01*
X175083440Y-69981575D01*
X175094277Y-69948078D01*
X175114142Y-69872094D01*
X175141314Y-69760790D01*
X175174073Y-69621328D01*
X175210700Y-69460875D01*
X175240137Y-69328964D01*
X175279317Y-69154400D01*
X175316744Y-68992699D01*
X175350521Y-68851662D01*
X175378752Y-68739088D01*
X175399543Y-68662780D01*
X175408817Y-68634727D01*
X175454027Y-68554477D01*
X175517504Y-68496073D01*
X175608341Y-68454663D01*
X175735635Y-68425397D01*
X175825243Y-68412627D01*
X175943365Y-68399749D01*
X176025154Y-68396183D01*
X176084345Y-68402638D01*
X176134671Y-68419828D01*
X176155081Y-68429706D01*
X176199652Y-68459349D01*
X176275607Y-68517391D01*
X176376361Y-68598477D01*
X176495334Y-68697254D01*
X176625945Y-68808368D01*
X176708568Y-68879960D01*
X176858579Y-69008973D01*
X176987705Y-69116203D01*
X177092129Y-69198662D01*
X177168029Y-69253362D01*
X177211589Y-69277317D01*
X177217458Y-69278110D01*
X177239297Y-69260948D01*
X177272406Y-69211569D01*
X177318323Y-69126975D01*
X177378583Y-69004171D01*
X177454721Y-68840159D01*
X177546316Y-68636349D01*
X177637034Y-68432543D01*
X177711137Y-68270055D01*
X177773030Y-68143956D01*
X177827118Y-68049316D01*
X177877809Y-67981208D01*
X177929505Y-67934701D01*
X177986616Y-67904867D01*
X178053545Y-67886777D01*
X178134698Y-67875502D01*
X178234481Y-67866112D01*
%TD*%
D11*
%TO.C,Y1*%
X47350000Y-76450000D03*
X47350000Y-73550000D03*
X49650000Y-73550000D03*
X49650000Y-76450000D03*
%TD*%
D12*
%TO.C,K2_6*%
X154500000Y-61500000D03*
X165500000Y-61500000D03*
D13*
X165220000Y-57300000D03*
D14*
X160000000Y-67400000D03*
X155000000Y-65300000D03*
D15*
X160000000Y-61500000D03*
%TD*%
D12*
%TO.C,K2_1*%
X34500000Y-62000000D03*
X45500000Y-62000000D03*
D13*
X45220000Y-57800000D03*
D14*
X40000000Y-67900000D03*
X35000000Y-65800000D03*
D15*
X40000000Y-62000000D03*
%TD*%
D12*
%TO.C,K2_0*%
X16500000Y-74000000D03*
X27500000Y-74000000D03*
D13*
X27220000Y-69800000D03*
D14*
X22000000Y-79900000D03*
X17000000Y-77800000D03*
D15*
X22000000Y-74000000D03*
%TD*%
D12*
%TO.C,K0_5*%
X136500000Y-30000000D03*
X147500000Y-30000000D03*
D13*
X147220000Y-25800000D03*
D14*
X142000000Y-35900000D03*
X137000000Y-33800000D03*
D15*
X142000000Y-30000000D03*
%TD*%
D12*
%TO.C,K3_6*%
X144817408Y-83123505D03*
X155442592Y-80276495D03*
D13*
X154085093Y-76292076D03*
D14*
X151657032Y-87398962D03*
X146283883Y-86664613D03*
D15*
X150130000Y-81700000D03*
%TD*%
D12*
%TO.C,K1_6*%
X154500000Y-44500000D03*
X165500000Y-44500000D03*
D13*
X165220000Y-40300000D03*
D14*
X160000000Y-50400000D03*
X155000000Y-48300000D03*
D15*
X160000000Y-44500000D03*
%TD*%
D12*
%TO.C,K2_5*%
X136500000Y-64000000D03*
X147500000Y-64000000D03*
D13*
X147220000Y-59800000D03*
D14*
X142000000Y-69900000D03*
X137000000Y-67800000D03*
D15*
X142000000Y-64000000D03*
%TD*%
D12*
%TO.C,K*%
X172500000Y-56000000D03*
X183500000Y-56000000D03*
D13*
X183220000Y-51800000D03*
D14*
X178000000Y-61900000D03*
X173000000Y-59800000D03*
D15*
X178000000Y-56000000D03*
%TD*%
D12*
%TO.C,K1_9*%
X208500000Y-57000000D03*
X219500000Y-57000000D03*
D13*
X219220000Y-52800000D03*
D14*
X214000000Y-62900000D03*
X209000000Y-60800000D03*
D15*
X214000000Y-57000000D03*
%TD*%
D12*
%TO.C,K3_5*%
X126706860Y-92160000D03*
X136233140Y-86660000D03*
D13*
X133890653Y-83162693D03*
D14*
X134420000Y-94519550D03*
X129039873Y-95200897D03*
D15*
X131470000Y-89410000D03*
%TD*%
D12*
%TO.C,K1_8*%
X190500000Y-45000000D03*
X201500000Y-45000000D03*
D13*
X201220000Y-40800000D03*
D14*
X196000000Y-50900000D03*
X191000000Y-48800000D03*
D15*
X196000000Y-45000000D03*
%TD*%
D12*
%TO.C,K1_5*%
X136500000Y-47000000D03*
X147500000Y-47000000D03*
D13*
X147220000Y-42800000D03*
D14*
X142000000Y-52900000D03*
X137000000Y-50800000D03*
D15*
X142000000Y-47000000D03*
%TD*%
D12*
%TO.C,K0_9*%
X208500000Y-40000000D03*
X219500000Y-40000000D03*
D13*
X219220000Y-35800000D03*
D14*
X214000000Y-45900000D03*
X209000000Y-43800000D03*
D15*
X214000000Y-40000000D03*
%TD*%
D12*
%TO.C,K0_6*%
X154500000Y-27500000D03*
X165500000Y-27500000D03*
D13*
X165220000Y-23300000D03*
D14*
X160000000Y-33400000D03*
X155000000Y-31300000D03*
D15*
X160000000Y-27500000D03*
%TD*%
D12*
%TO.C,K2_8*%
X190500000Y-62000000D03*
X201500000Y-62000000D03*
D13*
X201220000Y-57800000D03*
D14*
X196000000Y-67900000D03*
X191000000Y-65800000D03*
D15*
X196000000Y-62000000D03*
%TD*%
D12*
%TO.C,K1_7*%
X172500000Y-39000000D03*
X183500000Y-39000000D03*
D13*
X183220000Y-34800000D03*
D14*
X178000000Y-44900000D03*
X173000000Y-42800000D03*
D15*
X178000000Y-39000000D03*
%TD*%
D12*
%TO.C,K0_7*%
X172500000Y-22000000D03*
X183500000Y-22000000D03*
D13*
X183220000Y-17800000D03*
D14*
X178000000Y-27900000D03*
X173000000Y-25800000D03*
D15*
X178000000Y-22000000D03*
%TD*%
D12*
%TO.C,K0_8*%
X190500000Y-28000000D03*
X201500000Y-28000000D03*
D13*
X201220000Y-23800000D03*
D14*
X196000000Y-33900000D03*
X191000000Y-31800000D03*
D15*
X196000000Y-28000000D03*
%TD*%
D12*
%TO.C,K2_9*%
X208500000Y-74000000D03*
X219500000Y-74000000D03*
D13*
X219220000Y-69800000D03*
D14*
X214000000Y-79900000D03*
X209000000Y-77800000D03*
D15*
X214000000Y-74000000D03*
%TD*%
D12*
%TO.C,K3_3*%
X80657408Y-80276495D03*
X91282592Y-83123505D03*
D13*
X92099173Y-78994147D03*
D14*
X84442968Y-87398962D03*
X80156858Y-84076423D03*
D15*
X85970000Y-81700000D03*
%TD*%
D12*
%TO.C,K3_4*%
X99766860Y-86660000D03*
X109293140Y-92160000D03*
D13*
X111150653Y-88382693D03*
D14*
X101580000Y-94519550D03*
X98299873Y-90200897D03*
D15*
X104530000Y-89410000D03*
%TD*%
D12*
%TO.C,K2_4*%
X88500000Y-64000000D03*
X99500000Y-64000000D03*
D13*
X99220000Y-59800000D03*
D14*
X94000000Y-69900000D03*
X89000000Y-67800000D03*
D15*
X94000000Y-64000000D03*
%TD*%
D12*
%TO.C,K2_3*%
X70500000Y-61500000D03*
X81500000Y-61500000D03*
D13*
X81220000Y-57300000D03*
D14*
X76000000Y-67400000D03*
X71000000Y-65300000D03*
D15*
X76000000Y-61500000D03*
%TD*%
D12*
%TO.C,K2_2*%
X52500000Y-56000000D03*
X63500000Y-56000000D03*
D13*
X63220000Y-51800000D03*
D14*
X58000000Y-61900000D03*
X53000000Y-59800000D03*
D15*
X58000000Y-56000000D03*
%TD*%
D12*
%TO.C,K1_3*%
X70500000Y-44500000D03*
X81500000Y-44500000D03*
D13*
X81220000Y-40300000D03*
D14*
X76000000Y-50400000D03*
X71000000Y-48300000D03*
D15*
X76000000Y-44500000D03*
%TD*%
D12*
%TO.C,K1_2*%
X52500000Y-39000000D03*
X63500000Y-39000000D03*
D13*
X63220000Y-34800000D03*
D14*
X58000000Y-44900000D03*
X53000000Y-42800000D03*
D15*
X58000000Y-39000000D03*
%TD*%
D12*
%TO.C,K1_0*%
X16500000Y-57000000D03*
X27500000Y-57000000D03*
D13*
X27220000Y-52800000D03*
D14*
X22000000Y-62900000D03*
X17000000Y-60800000D03*
D15*
X22000000Y-57000000D03*
%TD*%
D12*
%TO.C,K1_1*%
X34500000Y-45000000D03*
X45500000Y-45000000D03*
D13*
X45220000Y-40800000D03*
D14*
X40000000Y-50900000D03*
X35000000Y-48800000D03*
D15*
X40000000Y-45000000D03*
%TD*%
D12*
%TO.C,K1_4*%
X88500000Y-47000000D03*
X99500000Y-47000000D03*
D13*
X99220000Y-42800000D03*
D14*
X94000000Y-52900000D03*
X89000000Y-50800000D03*
D15*
X94000000Y-47000000D03*
%TD*%
D12*
%TO.C,K0_3*%
X70500000Y-27500000D03*
X81500000Y-27500000D03*
D13*
X81220000Y-23300000D03*
D14*
X76000000Y-33400000D03*
X71000000Y-31300000D03*
D15*
X76000000Y-27500000D03*
%TD*%
D12*
%TO.C,K0_0*%
X16500000Y-40000000D03*
X27500000Y-40000000D03*
D13*
X27220000Y-35800000D03*
D14*
X22000000Y-45900000D03*
X17000000Y-43800000D03*
D15*
X22000000Y-40000000D03*
%TD*%
D12*
%TO.C,K0_1*%
X34500000Y-28000000D03*
X45500000Y-28000000D03*
D13*
X45220000Y-23800000D03*
D14*
X40000000Y-33900000D03*
X35000000Y-31800000D03*
D15*
X40000000Y-28000000D03*
%TD*%
D12*
%TO.C,K0_4*%
X88500000Y-30000000D03*
X99500000Y-30000000D03*
D13*
X99220000Y-25800000D03*
D14*
X94000000Y-35900000D03*
X89000000Y-33800000D03*
D15*
X94000000Y-30000000D03*
%TD*%
D12*
%TO.C,K0_2*%
X52500000Y-22000000D03*
X63500000Y-22000000D03*
D13*
X63220000Y-17800000D03*
D14*
X58000000Y-27900000D03*
X53000000Y-25800000D03*
D15*
X58000000Y-22000000D03*
%TD*%
D16*
%TO.C,J1*%
X108390000Y-60055000D03*
X109190000Y-60055000D03*
X114090000Y-60055000D03*
X114890000Y-60055000D03*
X114890000Y-60055000D03*
X114090000Y-60055000D03*
X109190000Y-60055000D03*
X108390000Y-60055000D03*
D17*
X113390000Y-60055000D03*
X112890000Y-60055000D03*
X112390000Y-60055000D03*
X111390000Y-60055000D03*
X110890000Y-60055000D03*
X110390000Y-60055000D03*
X109890000Y-60055000D03*
X111890000Y-60055000D03*
D18*
X107320000Y-59140000D03*
X115960000Y-59140000D03*
D19*
X114530000Y-58610000D03*
D20*
X115960000Y-54960000D03*
D19*
X108750000Y-58610000D03*
D20*
X107320000Y-54960000D03*
%TD*%
%TO.C,F1*%
G36*
G01*
X114725000Y-66655000D02*
X114725000Y-65345000D01*
G75*
G02*
X114995000Y-65075000I270000J0D01*
G01*
X115805000Y-65075000D01*
G75*
G02*
X116075000Y-65345000I0J-270000D01*
G01*
X116075000Y-66655000D01*
G75*
G02*
X115805000Y-66925000I-270000J0D01*
G01*
X114995000Y-66925000D01*
G75*
G02*
X114725000Y-66655000I0J270000D01*
G01*
G37*
G36*
G01*
X111925000Y-66655000D02*
X111925000Y-65345000D01*
G75*
G02*
X112195000Y-65075000I270000J0D01*
G01*
X113005000Y-65075000D01*
G75*
G02*
X113275000Y-65345000I0J-270000D01*
G01*
X113275000Y-66655000D01*
G75*
G02*
X113005000Y-66925000I-270000J0D01*
G01*
X112195000Y-66925000D01*
G75*
G02*
X111925000Y-66655000I0J270000D01*
G01*
G37*
%TD*%
%TO.C,R9*%
G36*
G01*
X126400000Y-71978262D02*
X126400000Y-71021738D01*
G75*
G02*
X126671738Y-70750000I271738J0D01*
G01*
X127378262Y-70750000D01*
G75*
G02*
X127650000Y-71021738I0J-271738D01*
G01*
X127650000Y-71978262D01*
G75*
G02*
X127378262Y-72250000I-271738J0D01*
G01*
X126671738Y-72250000D01*
G75*
G02*
X126400000Y-71978262I0J271738D01*
G01*
G37*
G36*
G01*
X124350000Y-71978262D02*
X124350000Y-71021738D01*
G75*
G02*
X124621738Y-70750000I271738J0D01*
G01*
X125328262Y-70750000D01*
G75*
G02*
X125600000Y-71021738I0J-271738D01*
G01*
X125600000Y-71978262D01*
G75*
G02*
X125328262Y-72250000I-271738J0D01*
G01*
X124621738Y-72250000D01*
G75*
G02*
X124350000Y-71978262I0J271738D01*
G01*
G37*
%TD*%
%TO.C,C10*%
G36*
G01*
X122400000Y-71978262D02*
X122400000Y-71021738D01*
G75*
G02*
X122671738Y-70750000I271738J0D01*
G01*
X123378262Y-70750000D01*
G75*
G02*
X123650000Y-71021738I0J-271738D01*
G01*
X123650000Y-71978262D01*
G75*
G02*
X123378262Y-72250000I-271738J0D01*
G01*
X122671738Y-72250000D01*
G75*
G02*
X122400000Y-71978262I0J271738D01*
G01*
G37*
G36*
G01*
X120350000Y-71978262D02*
X120350000Y-71021738D01*
G75*
G02*
X120621738Y-70750000I271738J0D01*
G01*
X121328262Y-70750000D01*
G75*
G02*
X121600000Y-71021738I0J-271738D01*
G01*
X121600000Y-71978262D01*
G75*
G02*
X121328262Y-72250000I-271738J0D01*
G01*
X120621738Y-72250000D01*
G75*
G02*
X120350000Y-71978262I0J271738D01*
G01*
G37*
%TD*%
D21*
%TO.C,U1*%
X65200000Y-71000000D03*
X65200000Y-71800000D03*
X65200000Y-72600000D03*
X65200000Y-73400000D03*
X65200000Y-74200000D03*
X65200000Y-75000000D03*
X65200000Y-75800000D03*
X65200000Y-76600000D03*
X65200000Y-77400000D03*
X65200000Y-78200000D03*
X65200000Y-79000000D03*
D22*
X63500000Y-80700000D03*
X62700000Y-80700000D03*
X61900000Y-80700000D03*
X61100000Y-80700000D03*
X60300000Y-80700000D03*
X59500000Y-80700000D03*
X58700000Y-80700000D03*
X57900000Y-80700000D03*
X57100000Y-80700000D03*
X56300000Y-80700000D03*
X55500000Y-80700000D03*
D21*
X53800000Y-79000000D03*
X53800000Y-78200000D03*
X53800000Y-77400000D03*
X53800000Y-76600000D03*
X53800000Y-75800000D03*
X53800000Y-75000000D03*
X53800000Y-74200000D03*
X53800000Y-73400000D03*
X53800000Y-72600000D03*
X53800000Y-71800000D03*
X53800000Y-71000000D03*
D22*
X55500000Y-69300000D03*
X56300000Y-69300000D03*
X57100000Y-69300000D03*
X57900000Y-69300000D03*
X58700000Y-69300000D03*
X59500000Y-69300000D03*
X60300000Y-69300000D03*
X61100000Y-69300000D03*
X61900000Y-69300000D03*
X62700000Y-69300000D03*
X63500000Y-69300000D03*
%TD*%
D23*
%TO.C,Jack1*%
X125200000Y-73700000D03*
D24*
X120600000Y-76000000D03*
X127600000Y-76000000D03*
D23*
X122200000Y-73700000D03*
X129200000Y-73700000D03*
X130300000Y-78300000D03*
%TD*%
D25*
%TO.C,D1_6*%
X158350000Y-39800000D03*
X161650000Y-39800000D03*
%TD*%
%TO.C,D0_7*%
X176350000Y-17300000D03*
X179650000Y-17300000D03*
%TD*%
%TO.C,D2_5*%
X140350000Y-59300000D03*
X143650000Y-59300000D03*
%TD*%
%TO.C,D0_5*%
X140350000Y-25300000D03*
X143650000Y-25300000D03*
%TD*%
D26*
%TO.C,D3_5*%
G36*
X127779071Y-85412083D02*
G01*
X128429071Y-86537917D01*
X127563045Y-87037917D01*
X126913045Y-85912083D01*
X127779071Y-85412083D01*
G37*
G36*
X130636955Y-83762083D02*
G01*
X131286955Y-84887917D01*
X130420929Y-85387917D01*
X129770929Y-84262083D01*
X130636955Y-83762083D01*
G37*
%TD*%
D25*
%TO.C,D1_9*%
X212350000Y-52300000D03*
X215650000Y-52300000D03*
%TD*%
%TO.C,C9*%
G36*
G01*
X129600000Y-71021738D02*
X129600000Y-71978262D01*
G75*
G02*
X129328262Y-72250000I-271738J0D01*
G01*
X128621738Y-72250000D01*
G75*
G02*
X128350000Y-71978262I0J271738D01*
G01*
X128350000Y-71021738D01*
G75*
G02*
X128621738Y-70750000I271738J0D01*
G01*
X129328262Y-70750000D01*
G75*
G02*
X129600000Y-71021738I0J-271738D01*
G01*
G37*
G36*
G01*
X131650000Y-71021738D02*
X131650000Y-71978262D01*
G75*
G02*
X131378262Y-72250000I-271738J0D01*
G01*
X130671738Y-72250000D01*
G75*
G02*
X130400000Y-71978262I0J271738D01*
G01*
X130400000Y-71021738D01*
G75*
G02*
X130671738Y-70750000I271738J0D01*
G01*
X131378262Y-70750000D01*
G75*
G02*
X131650000Y-71021738I0J-271738D01*
G01*
G37*
%TD*%
%TO.C,D0_6*%
X158350000Y-22800000D03*
X161650000Y-22800000D03*
%TD*%
D26*
%TO.C,D3_6*%
G36*
X147620953Y-76769790D02*
G01*
X147957417Y-78025493D01*
X146991491Y-78284312D01*
X146655027Y-77028609D01*
X147620953Y-76769790D01*
G37*
G36*
X150808509Y-75915688D02*
G01*
X151144973Y-77171391D01*
X150179047Y-77430210D01*
X149842583Y-76174507D01*
X150808509Y-75915688D01*
G37*
%TD*%
D25*
%TO.C,D2_8*%
X194350000Y-57300000D03*
X197650000Y-57300000D03*
%TD*%
%TO.C,D0_8*%
X194350000Y-23300000D03*
X197650000Y-23300000D03*
%TD*%
%TO.C,D0_9*%
X212350000Y-35200000D03*
X215650000Y-35200000D03*
%TD*%
%TO.C,D2_6*%
X158350000Y-56700000D03*
X161650000Y-56700000D03*
%TD*%
%TO.C,D1_7*%
X176350000Y-34300000D03*
X179650000Y-34300000D03*
%TD*%
%TO.C,U2*%
G36*
G01*
X129575000Y-52960000D02*
X129575000Y-52610000D01*
G75*
G02*
X129750000Y-52435000I175000J0D01*
G01*
X131550000Y-52435000D01*
G75*
G02*
X131725000Y-52610000I0J-175000D01*
G01*
X131725000Y-52960000D01*
G75*
G02*
X131550000Y-53135000I-175000J0D01*
G01*
X129750000Y-53135000D01*
G75*
G02*
X129575000Y-52960000I0J175000D01*
G01*
G37*
G36*
G01*
X129575000Y-54230000D02*
X129575000Y-53880000D01*
G75*
G02*
X129750000Y-53705000I175000J0D01*
G01*
X131550000Y-53705000D01*
G75*
G02*
X131725000Y-53880000I0J-175000D01*
G01*
X131725000Y-54230000D01*
G75*
G02*
X131550000Y-54405000I-175000J0D01*
G01*
X129750000Y-54405000D01*
G75*
G02*
X129575000Y-54230000I0J175000D01*
G01*
G37*
G36*
G01*
X129575000Y-55500000D02*
X129575000Y-55150000D01*
G75*
G02*
X129750000Y-54975000I175000J0D01*
G01*
X131550000Y-54975000D01*
G75*
G02*
X131725000Y-55150000I0J-175000D01*
G01*
X131725000Y-55500000D01*
G75*
G02*
X131550000Y-55675000I-175000J0D01*
G01*
X129750000Y-55675000D01*
G75*
G02*
X129575000Y-55500000I0J175000D01*
G01*
G37*
G36*
G01*
X129575000Y-56770000D02*
X129575000Y-56420000D01*
G75*
G02*
X129750000Y-56245000I175000J0D01*
G01*
X131550000Y-56245000D01*
G75*
G02*
X131725000Y-56420000I0J-175000D01*
G01*
X131725000Y-56770000D01*
G75*
G02*
X131550000Y-56945000I-175000J0D01*
G01*
X129750000Y-56945000D01*
G75*
G02*
X129575000Y-56770000I0J175000D01*
G01*
G37*
G36*
G01*
X129575000Y-58040000D02*
X129575000Y-57690000D01*
G75*
G02*
X129750000Y-57515000I175000J0D01*
G01*
X131550000Y-57515000D01*
G75*
G02*
X131725000Y-57690000I0J-175000D01*
G01*
X131725000Y-58040000D01*
G75*
G02*
X131550000Y-58215000I-175000J0D01*
G01*
X129750000Y-58215000D01*
G75*
G02*
X129575000Y-58040000I0J175000D01*
G01*
G37*
G36*
G01*
X129575000Y-59310000D02*
X129575000Y-58960000D01*
G75*
G02*
X129750000Y-58785000I175000J0D01*
G01*
X131550000Y-58785000D01*
G75*
G02*
X131725000Y-58960000I0J-175000D01*
G01*
X131725000Y-59310000D01*
G75*
G02*
X131550000Y-59485000I-175000J0D01*
G01*
X129750000Y-59485000D01*
G75*
G02*
X129575000Y-59310000I0J175000D01*
G01*
G37*
G36*
G01*
X129575000Y-60580000D02*
X129575000Y-60230000D01*
G75*
G02*
X129750000Y-60055000I175000J0D01*
G01*
X131550000Y-60055000D01*
G75*
G02*
X131725000Y-60230000I0J-175000D01*
G01*
X131725000Y-60580000D01*
G75*
G02*
X131550000Y-60755000I-175000J0D01*
G01*
X129750000Y-60755000D01*
G75*
G02*
X129575000Y-60580000I0J175000D01*
G01*
G37*
G36*
G01*
X129575000Y-61850000D02*
X129575000Y-61500000D01*
G75*
G02*
X129750000Y-61325000I175000J0D01*
G01*
X131550000Y-61325000D01*
G75*
G02*
X131725000Y-61500000I0J-175000D01*
G01*
X131725000Y-61850000D01*
G75*
G02*
X131550000Y-62025000I-175000J0D01*
G01*
X129750000Y-62025000D01*
G75*
G02*
X129575000Y-61850000I0J175000D01*
G01*
G37*
G36*
G01*
X129575000Y-63120000D02*
X129575000Y-62770000D01*
G75*
G02*
X129750000Y-62595000I175000J0D01*
G01*
X131550000Y-62595000D01*
G75*
G02*
X131725000Y-62770000I0J-175000D01*
G01*
X131725000Y-63120000D01*
G75*
G02*
X131550000Y-63295000I-175000J0D01*
G01*
X129750000Y-63295000D01*
G75*
G02*
X129575000Y-63120000I0J175000D01*
G01*
G37*
G36*
G01*
X129575000Y-64390000D02*
X129575000Y-64040000D01*
G75*
G02*
X129750000Y-63865000I175000J0D01*
G01*
X131550000Y-63865000D01*
G75*
G02*
X131725000Y-64040000I0J-175000D01*
G01*
X131725000Y-64390000D01*
G75*
G02*
X131550000Y-64565000I-175000J0D01*
G01*
X129750000Y-64565000D01*
G75*
G02*
X129575000Y-64390000I0J175000D01*
G01*
G37*
G36*
G01*
X129575000Y-65660000D02*
X129575000Y-65310000D01*
G75*
G02*
X129750000Y-65135000I175000J0D01*
G01*
X131550000Y-65135000D01*
G75*
G02*
X131725000Y-65310000I0J-175000D01*
G01*
X131725000Y-65660000D01*
G75*
G02*
X131550000Y-65835000I-175000J0D01*
G01*
X129750000Y-65835000D01*
G75*
G02*
X129575000Y-65660000I0J175000D01*
G01*
G37*
G36*
G01*
X129575000Y-66930000D02*
X129575000Y-66580000D01*
G75*
G02*
X129750000Y-66405000I175000J0D01*
G01*
X131550000Y-66405000D01*
G75*
G02*
X131725000Y-66580000I0J-175000D01*
G01*
X131725000Y-66930000D01*
G75*
G02*
X131550000Y-67105000I-175000J0D01*
G01*
X129750000Y-67105000D01*
G75*
G02*
X129575000Y-66930000I0J175000D01*
G01*
G37*
G36*
G01*
X129575000Y-68200000D02*
X129575000Y-67850000D01*
G75*
G02*
X129750000Y-67675000I175000J0D01*
G01*
X131550000Y-67675000D01*
G75*
G02*
X131725000Y-67850000I0J-175000D01*
G01*
X131725000Y-68200000D01*
G75*
G02*
X131550000Y-68375000I-175000J0D01*
G01*
X129750000Y-68375000D01*
G75*
G02*
X129575000Y-68200000I0J175000D01*
G01*
G37*
G36*
G01*
X129575000Y-69470000D02*
X129575000Y-69120000D01*
G75*
G02*
X129750000Y-68945000I175000J0D01*
G01*
X131550000Y-68945000D01*
G75*
G02*
X131725000Y-69120000I0J-175000D01*
G01*
X131725000Y-69470000D01*
G75*
G02*
X131550000Y-69645000I-175000J0D01*
G01*
X129750000Y-69645000D01*
G75*
G02*
X129575000Y-69470000I0J175000D01*
G01*
G37*
G36*
G01*
X120275000Y-69470000D02*
X120275000Y-69120000D01*
G75*
G02*
X120450000Y-68945000I175000J0D01*
G01*
X122250000Y-68945000D01*
G75*
G02*
X122425000Y-69120000I0J-175000D01*
G01*
X122425000Y-69470000D01*
G75*
G02*
X122250000Y-69645000I-175000J0D01*
G01*
X120450000Y-69645000D01*
G75*
G02*
X120275000Y-69470000I0J175000D01*
G01*
G37*
G36*
G01*
X120275000Y-68200000D02*
X120275000Y-67850000D01*
G75*
G02*
X120450000Y-67675000I175000J0D01*
G01*
X122250000Y-67675000D01*
G75*
G02*
X122425000Y-67850000I0J-175000D01*
G01*
X122425000Y-68200000D01*
G75*
G02*
X122250000Y-68375000I-175000J0D01*
G01*
X120450000Y-68375000D01*
G75*
G02*
X120275000Y-68200000I0J175000D01*
G01*
G37*
G36*
G01*
X120275000Y-66930000D02*
X120275000Y-66580000D01*
G75*
G02*
X120450000Y-66405000I175000J0D01*
G01*
X122250000Y-66405000D01*
G75*
G02*
X122425000Y-66580000I0J-175000D01*
G01*
X122425000Y-66930000D01*
G75*
G02*
X122250000Y-67105000I-175000J0D01*
G01*
X120450000Y-67105000D01*
G75*
G02*
X120275000Y-66930000I0J175000D01*
G01*
G37*
G36*
G01*
X120275000Y-65660000D02*
X120275000Y-65310000D01*
G75*
G02*
X120450000Y-65135000I175000J0D01*
G01*
X122250000Y-65135000D01*
G75*
G02*
X122425000Y-65310000I0J-175000D01*
G01*
X122425000Y-65660000D01*
G75*
G02*
X122250000Y-65835000I-175000J0D01*
G01*
X120450000Y-65835000D01*
G75*
G02*
X120275000Y-65660000I0J175000D01*
G01*
G37*
G36*
G01*
X120275000Y-64390000D02*
X120275000Y-64040000D01*
G75*
G02*
X120450000Y-63865000I175000J0D01*
G01*
X122250000Y-63865000D01*
G75*
G02*
X122425000Y-64040000I0J-175000D01*
G01*
X122425000Y-64390000D01*
G75*
G02*
X122250000Y-64565000I-175000J0D01*
G01*
X120450000Y-64565000D01*
G75*
G02*
X120275000Y-64390000I0J175000D01*
G01*
G37*
G36*
G01*
X120275000Y-63120000D02*
X120275000Y-62770000D01*
G75*
G02*
X120450000Y-62595000I175000J0D01*
G01*
X122250000Y-62595000D01*
G75*
G02*
X122425000Y-62770000I0J-175000D01*
G01*
X122425000Y-63120000D01*
G75*
G02*
X122250000Y-63295000I-175000J0D01*
G01*
X120450000Y-63295000D01*
G75*
G02*
X120275000Y-63120000I0J175000D01*
G01*
G37*
G36*
G01*
X120275000Y-61850000D02*
X120275000Y-61500000D01*
G75*
G02*
X120450000Y-61325000I175000J0D01*
G01*
X122250000Y-61325000D01*
G75*
G02*
X122425000Y-61500000I0J-175000D01*
G01*
X122425000Y-61850000D01*
G75*
G02*
X122250000Y-62025000I-175000J0D01*
G01*
X120450000Y-62025000D01*
G75*
G02*
X120275000Y-61850000I0J175000D01*
G01*
G37*
G36*
G01*
X120275000Y-60580000D02*
X120275000Y-60230000D01*
G75*
G02*
X120450000Y-60055000I175000J0D01*
G01*
X122250000Y-60055000D01*
G75*
G02*
X122425000Y-60230000I0J-175000D01*
G01*
X122425000Y-60580000D01*
G75*
G02*
X122250000Y-60755000I-175000J0D01*
G01*
X120450000Y-60755000D01*
G75*
G02*
X120275000Y-60580000I0J175000D01*
G01*
G37*
G36*
G01*
X120275000Y-59310000D02*
X120275000Y-58960000D01*
G75*
G02*
X120450000Y-58785000I175000J0D01*
G01*
X122250000Y-58785000D01*
G75*
G02*
X122425000Y-58960000I0J-175000D01*
G01*
X122425000Y-59310000D01*
G75*
G02*
X122250000Y-59485000I-175000J0D01*
G01*
X120450000Y-59485000D01*
G75*
G02*
X120275000Y-59310000I0J175000D01*
G01*
G37*
G36*
G01*
X120275000Y-58040000D02*
X120275000Y-57690000D01*
G75*
G02*
X120450000Y-57515000I175000J0D01*
G01*
X122250000Y-57515000D01*
G75*
G02*
X122425000Y-57690000I0J-175000D01*
G01*
X122425000Y-58040000D01*
G75*
G02*
X122250000Y-58215000I-175000J0D01*
G01*
X120450000Y-58215000D01*
G75*
G02*
X120275000Y-58040000I0J175000D01*
G01*
G37*
G36*
G01*
X120275000Y-56770000D02*
X120275000Y-56420000D01*
G75*
G02*
X120450000Y-56245000I175000J0D01*
G01*
X122250000Y-56245000D01*
G75*
G02*
X122425000Y-56420000I0J-175000D01*
G01*
X122425000Y-56770000D01*
G75*
G02*
X122250000Y-56945000I-175000J0D01*
G01*
X120450000Y-56945000D01*
G75*
G02*
X120275000Y-56770000I0J175000D01*
G01*
G37*
G36*
G01*
X120275000Y-55500000D02*
X120275000Y-55150000D01*
G75*
G02*
X120450000Y-54975000I175000J0D01*
G01*
X122250000Y-54975000D01*
G75*
G02*
X122425000Y-55150000I0J-175000D01*
G01*
X122425000Y-55500000D01*
G75*
G02*
X122250000Y-55675000I-175000J0D01*
G01*
X120450000Y-55675000D01*
G75*
G02*
X120275000Y-55500000I0J175000D01*
G01*
G37*
G36*
G01*
X120275000Y-54230000D02*
X120275000Y-53880000D01*
G75*
G02*
X120450000Y-53705000I175000J0D01*
G01*
X122250000Y-53705000D01*
G75*
G02*
X122425000Y-53880000I0J-175000D01*
G01*
X122425000Y-54230000D01*
G75*
G02*
X122250000Y-54405000I-175000J0D01*
G01*
X120450000Y-54405000D01*
G75*
G02*
X120275000Y-54230000I0J175000D01*
G01*
G37*
G36*
G01*
X120275000Y-52960000D02*
X120275000Y-52610000D01*
G75*
G02*
X120450000Y-52435000I175000J0D01*
G01*
X122250000Y-52435000D01*
G75*
G02*
X122425000Y-52610000I0J-175000D01*
G01*
X122425000Y-52960000D01*
G75*
G02*
X122250000Y-53135000I-175000J0D01*
G01*
X120450000Y-53135000D01*
G75*
G02*
X120275000Y-52960000I0J175000D01*
G01*
G37*
%TD*%
%TO.C,D1_8*%
X194350000Y-40200000D03*
X197650000Y-40200000D03*
%TD*%
%TO.C,D2_7*%
X176350000Y-51300000D03*
X179650000Y-51300000D03*
%TD*%
%TO.C,D2_9*%
X212350000Y-69200000D03*
X215650000Y-69200000D03*
%TD*%
%TO.C,D1_5*%
X140350000Y-42300000D03*
X143650000Y-42300000D03*
%TD*%
D27*
%TO.C,SW1*%
X40000000Y-78700000D03*
X40000000Y-75300000D03*
%TD*%
D26*
%TO.C,D3_4*%
G36*
X106169071Y-84142083D02*
G01*
X105519071Y-85267917D01*
X104653045Y-84767917D01*
X105303045Y-83642083D01*
X106169071Y-84142083D01*
G37*
G36*
X109026955Y-85792083D02*
G01*
X108376955Y-86917917D01*
X107510929Y-86417917D01*
X108160929Y-85292083D01*
X109026955Y-85792083D01*
G37*
%TD*%
%TO.C,D3_3*%
G36*
X86237417Y-76284507D02*
G01*
X85900953Y-77540210D01*
X84935027Y-77281391D01*
X85271491Y-76025688D01*
X86237417Y-76284507D01*
G37*
G36*
X89424973Y-77138609D02*
G01*
X89088509Y-78394312D01*
X88122583Y-78135493D01*
X88459047Y-76879790D01*
X89424973Y-77138609D01*
G37*
%TD*%
D25*
%TO.C,D2_4*%
X92350000Y-59250000D03*
X95650000Y-59250000D03*
%TD*%
%TO.C,D2_3*%
X74350000Y-56750000D03*
X77650000Y-56750000D03*
%TD*%
%TO.C,D2_2*%
X56350000Y-51000000D03*
X59650000Y-51000000D03*
%TD*%
%TO.C,D2_1*%
X38350000Y-57250000D03*
X41650000Y-57250000D03*
%TD*%
%TO.C,D2_0*%
X20350000Y-69250000D03*
X23650000Y-69250000D03*
%TD*%
%TO.C,D1_4*%
X92350000Y-42250000D03*
X95650000Y-42250000D03*
%TD*%
%TO.C,D1_3*%
X74350000Y-39500000D03*
X77650000Y-39500000D03*
%TD*%
%TO.C,D1_2*%
X56350000Y-34250000D03*
X59650000Y-34250000D03*
%TD*%
%TO.C,D1_1*%
X38350000Y-40250000D03*
X41650000Y-40250000D03*
%TD*%
%TO.C,D1_0*%
X20350000Y-52000000D03*
X23650000Y-52000000D03*
%TD*%
%TO.C,D0_4*%
X92350000Y-25250000D03*
X95650000Y-25250000D03*
%TD*%
%TO.C,D0_3*%
X74350000Y-22750000D03*
X77650000Y-22750000D03*
%TD*%
%TO.C,D0_2*%
X56350000Y-17250000D03*
X59650000Y-17250000D03*
%TD*%
%TO.C,D0_1*%
X38350000Y-23250000D03*
X41650000Y-23250000D03*
%TD*%
%TO.C,D0_0*%
X20350000Y-35000000D03*
X23650000Y-35000000D03*
%TD*%
%TO.C,C3*%
G36*
G01*
X49600000Y-81521738D02*
X49600000Y-82478262D01*
G75*
G02*
X49328262Y-82750000I-271738J0D01*
G01*
X48621738Y-82750000D01*
G75*
G02*
X48350000Y-82478262I0J271738D01*
G01*
X48350000Y-81521738D01*
G75*
G02*
X48621738Y-81250000I271738J0D01*
G01*
X49328262Y-81250000D01*
G75*
G02*
X49600000Y-81521738I0J-271738D01*
G01*
G37*
G36*
G01*
X51650000Y-81521738D02*
X51650000Y-82478262D01*
G75*
G02*
X51378262Y-82750000I-271738J0D01*
G01*
X50671738Y-82750000D01*
G75*
G02*
X50400000Y-82478262I0J271738D01*
G01*
X50400000Y-81521738D01*
G75*
G02*
X50671738Y-81250000I271738J0D01*
G01*
X51378262Y-81250000D01*
G75*
G02*
X51650000Y-81521738I0J-271738D01*
G01*
G37*
%TD*%
%TO.C,R8*%
G36*
G01*
X114921738Y-70400000D02*
X115878262Y-70400000D01*
G75*
G02*
X116150000Y-70671738I0J-271738D01*
G01*
X116150000Y-71378262D01*
G75*
G02*
X115878262Y-71650000I-271738J0D01*
G01*
X114921738Y-71650000D01*
G75*
G02*
X114650000Y-71378262I0J271738D01*
G01*
X114650000Y-70671738D01*
G75*
G02*
X114921738Y-70400000I271738J0D01*
G01*
G37*
G36*
G01*
X114921738Y-68350000D02*
X115878262Y-68350000D01*
G75*
G02*
X116150000Y-68621738I0J-271738D01*
G01*
X116150000Y-69328262D01*
G75*
G02*
X115878262Y-69600000I-271738J0D01*
G01*
X114921738Y-69600000D01*
G75*
G02*
X114650000Y-69328262I0J271738D01*
G01*
X114650000Y-68621738D01*
G75*
G02*
X114921738Y-68350000I271738J0D01*
G01*
G37*
%TD*%
%TO.C,R7*%
G36*
G01*
X113448262Y-69600000D02*
X112491738Y-69600000D01*
G75*
G02*
X112220000Y-69328262I0J271738D01*
G01*
X112220000Y-68621738D01*
G75*
G02*
X112491738Y-68350000I271738J0D01*
G01*
X113448262Y-68350000D01*
G75*
G02*
X113720000Y-68621738I0J-271738D01*
G01*
X113720000Y-69328262D01*
G75*
G02*
X113448262Y-69600000I-271738J0D01*
G01*
G37*
G36*
G01*
X113448262Y-71650000D02*
X112491738Y-71650000D01*
G75*
G02*
X112220000Y-71378262I0J271738D01*
G01*
X112220000Y-70671738D01*
G75*
G02*
X112491738Y-70400000I271738J0D01*
G01*
X113448262Y-70400000D01*
G75*
G02*
X113720000Y-70671738I0J-271738D01*
G01*
X113720000Y-71378262D01*
G75*
G02*
X113448262Y-71650000I-271738J0D01*
G01*
G37*
%TD*%
%TO.C,R6*%
G36*
G01*
X109400000Y-63478262D02*
X109400000Y-62521738D01*
G75*
G02*
X109671738Y-62250000I271738J0D01*
G01*
X110378262Y-62250000D01*
G75*
G02*
X110650000Y-62521738I0J-271738D01*
G01*
X110650000Y-63478262D01*
G75*
G02*
X110378262Y-63750000I-271738J0D01*
G01*
X109671738Y-63750000D01*
G75*
G02*
X109400000Y-63478262I0J271738D01*
G01*
G37*
G36*
G01*
X107350000Y-63478262D02*
X107350000Y-62521738D01*
G75*
G02*
X107621738Y-62250000I271738J0D01*
G01*
X108328262Y-62250000D01*
G75*
G02*
X108600000Y-62521738I0J-271738D01*
G01*
X108600000Y-63478262D01*
G75*
G02*
X108328262Y-63750000I-271738J0D01*
G01*
X107621738Y-63750000D01*
G75*
G02*
X107350000Y-63478262I0J271738D01*
G01*
G37*
%TD*%
%TO.C,R5*%
G36*
G01*
X114100000Y-62521738D02*
X114100000Y-63478262D01*
G75*
G02*
X113828262Y-63750000I-271738J0D01*
G01*
X113121738Y-63750000D01*
G75*
G02*
X112850000Y-63478262I0J271738D01*
G01*
X112850000Y-62521738D01*
G75*
G02*
X113121738Y-62250000I271738J0D01*
G01*
X113828262Y-62250000D01*
G75*
G02*
X114100000Y-62521738I0J-271738D01*
G01*
G37*
G36*
G01*
X116150000Y-62521738D02*
X116150000Y-63478262D01*
G75*
G02*
X115878262Y-63750000I-271738J0D01*
G01*
X115171738Y-63750000D01*
G75*
G02*
X114900000Y-63478262I0J271738D01*
G01*
X114900000Y-62521738D01*
G75*
G02*
X115171738Y-62250000I271738J0D01*
G01*
X115878262Y-62250000D01*
G75*
G02*
X116150000Y-62521738I0J-271738D01*
G01*
G37*
%TD*%
%TO.C,R4*%
G36*
G01*
X108478262Y-69600000D02*
X107521738Y-69600000D01*
G75*
G02*
X107250000Y-69328262I0J271738D01*
G01*
X107250000Y-68621738D01*
G75*
G02*
X107521738Y-68350000I271738J0D01*
G01*
X108478262Y-68350000D01*
G75*
G02*
X108750000Y-68621738I0J-271738D01*
G01*
X108750000Y-69328262D01*
G75*
G02*
X108478262Y-69600000I-271738J0D01*
G01*
G37*
G36*
G01*
X108478262Y-71650000D02*
X107521738Y-71650000D01*
G75*
G02*
X107250000Y-71378262I0J271738D01*
G01*
X107250000Y-70671738D01*
G75*
G02*
X107521738Y-70400000I271738J0D01*
G01*
X108478262Y-70400000D01*
G75*
G02*
X108750000Y-70671738I0J-271738D01*
G01*
X108750000Y-71378262D01*
G75*
G02*
X108478262Y-71650000I-271738J0D01*
G01*
G37*
%TD*%
%TO.C,R3*%
G36*
G01*
X111008262Y-69600000D02*
X110051738Y-69600000D01*
G75*
G02*
X109780000Y-69328262I0J271738D01*
G01*
X109780000Y-68621738D01*
G75*
G02*
X110051738Y-68350000I271738J0D01*
G01*
X111008262Y-68350000D01*
G75*
G02*
X111280000Y-68621738I0J-271738D01*
G01*
X111280000Y-69328262D01*
G75*
G02*
X111008262Y-69600000I-271738J0D01*
G01*
G37*
G36*
G01*
X111008262Y-71650000D02*
X110051738Y-71650000D01*
G75*
G02*
X109780000Y-71378262I0J271738D01*
G01*
X109780000Y-70671738D01*
G75*
G02*
X110051738Y-70400000I271738J0D01*
G01*
X111008262Y-70400000D01*
G75*
G02*
X111280000Y-70671738I0J-271738D01*
G01*
X111280000Y-71378262D01*
G75*
G02*
X111008262Y-71650000I-271738J0D01*
G01*
G37*
%TD*%
%TO.C,R2*%
G36*
G01*
X68760000Y-80521738D02*
X68760000Y-81478262D01*
G75*
G02*
X68488262Y-81750000I-271738J0D01*
G01*
X67781738Y-81750000D01*
G75*
G02*
X67510000Y-81478262I0J271738D01*
G01*
X67510000Y-80521738D01*
G75*
G02*
X67781738Y-80250000I271738J0D01*
G01*
X68488262Y-80250000D01*
G75*
G02*
X68760000Y-80521738I0J-271738D01*
G01*
G37*
G36*
G01*
X70810000Y-80521738D02*
X70810000Y-81478262D01*
G75*
G02*
X70538262Y-81750000I-271738J0D01*
G01*
X69831738Y-81750000D01*
G75*
G02*
X69560000Y-81478262I0J271738D01*
G01*
X69560000Y-80521738D01*
G75*
G02*
X69831738Y-80250000I271738J0D01*
G01*
X70538262Y-80250000D01*
G75*
G02*
X70810000Y-80521738I0J-271738D01*
G01*
G37*
%TD*%
%TO.C,R1*%
G36*
G01*
X40375000Y-72478262D02*
X40375000Y-71521738D01*
G75*
G02*
X40646738Y-71250000I271738J0D01*
G01*
X41353262Y-71250000D01*
G75*
G02*
X41625000Y-71521738I0J-271738D01*
G01*
X41625000Y-72478262D01*
G75*
G02*
X41353262Y-72750000I-271738J0D01*
G01*
X40646738Y-72750000D01*
G75*
G02*
X40375000Y-72478262I0J271738D01*
G01*
G37*
G36*
G01*
X38325000Y-72478262D02*
X38325000Y-71521738D01*
G75*
G02*
X38596738Y-71250000I271738J0D01*
G01*
X39303262Y-71250000D01*
G75*
G02*
X39575000Y-71521738I0J-271738D01*
G01*
X39575000Y-72478262D01*
G75*
G02*
X39303262Y-72750000I-271738J0D01*
G01*
X38596738Y-72750000D01*
G75*
G02*
X38325000Y-72478262I0J271738D01*
G01*
G37*
%TD*%
%TO.C,C8*%
G36*
G01*
X59978262Y-65600000D02*
X59021738Y-65600000D01*
G75*
G02*
X58750000Y-65328262I0J271738D01*
G01*
X58750000Y-64621738D01*
G75*
G02*
X59021738Y-64350000I271738J0D01*
G01*
X59978262Y-64350000D01*
G75*
G02*
X60250000Y-64621738I0J-271738D01*
G01*
X60250000Y-65328262D01*
G75*
G02*
X59978262Y-65600000I-271738J0D01*
G01*
G37*
G36*
G01*
X59978262Y-67650000D02*
X59021738Y-67650000D01*
G75*
G02*
X58750000Y-67378262I0J271738D01*
G01*
X58750000Y-66671738D01*
G75*
G02*
X59021738Y-66400000I271738J0D01*
G01*
X59978262Y-66400000D01*
G75*
G02*
X60250000Y-66671738I0J-271738D01*
G01*
X60250000Y-67378262D01*
G75*
G02*
X59978262Y-67650000I-271738J0D01*
G01*
G37*
%TD*%
%TO.C,C7*%
G36*
G01*
X68810000Y-73521738D02*
X68810000Y-74478262D01*
G75*
G02*
X68538262Y-74750000I-271738J0D01*
G01*
X67831738Y-74750000D01*
G75*
G02*
X67560000Y-74478262I0J271738D01*
G01*
X67560000Y-73521738D01*
G75*
G02*
X67831738Y-73250000I271738J0D01*
G01*
X68538262Y-73250000D01*
G75*
G02*
X68810000Y-73521738I0J-271738D01*
G01*
G37*
G36*
G01*
X70860000Y-73521738D02*
X70860000Y-74478262D01*
G75*
G02*
X70588262Y-74750000I-271738J0D01*
G01*
X69881738Y-74750000D01*
G75*
G02*
X69610000Y-74478262I0J271738D01*
G01*
X69610000Y-73521738D01*
G75*
G02*
X69881738Y-73250000I271738J0D01*
G01*
X70588262Y-73250000D01*
G75*
G02*
X70860000Y-73521738I0J-271738D01*
G01*
G37*
%TD*%
%TO.C,C6*%
G36*
G01*
X68780000Y-77021738D02*
X68780000Y-77978262D01*
G75*
G02*
X68508262Y-78250000I-271738J0D01*
G01*
X67801738Y-78250000D01*
G75*
G02*
X67530000Y-77978262I0J271738D01*
G01*
X67530000Y-77021738D01*
G75*
G02*
X67801738Y-76750000I271738J0D01*
G01*
X68508262Y-76750000D01*
G75*
G02*
X68780000Y-77021738I0J-271738D01*
G01*
G37*
G36*
G01*
X70830000Y-77021738D02*
X70830000Y-77978262D01*
G75*
G02*
X70558262Y-78250000I-271738J0D01*
G01*
X69851738Y-78250000D01*
G75*
G02*
X69580000Y-77978262I0J271738D01*
G01*
X69580000Y-77021738D01*
G75*
G02*
X69851738Y-76750000I271738J0D01*
G01*
X70558262Y-76750000D01*
G75*
G02*
X70830000Y-77021738I0J-271738D01*
G01*
G37*
%TD*%
%TO.C,C5*%
G36*
G01*
X49600000Y-67521738D02*
X49600000Y-68478262D01*
G75*
G02*
X49328262Y-68750000I-271738J0D01*
G01*
X48621738Y-68750000D01*
G75*
G02*
X48350000Y-68478262I0J271738D01*
G01*
X48350000Y-67521738D01*
G75*
G02*
X48621738Y-67250000I271738J0D01*
G01*
X49328262Y-67250000D01*
G75*
G02*
X49600000Y-67521738I0J-271738D01*
G01*
G37*
G36*
G01*
X51650000Y-67521738D02*
X51650000Y-68478262D01*
G75*
G02*
X51378262Y-68750000I-271738J0D01*
G01*
X50671738Y-68750000D01*
G75*
G02*
X50400000Y-68478262I0J271738D01*
G01*
X50400000Y-67521738D01*
G75*
G02*
X50671738Y-67250000I271738J0D01*
G01*
X51378262Y-67250000D01*
G75*
G02*
X51650000Y-67521738I0J-271738D01*
G01*
G37*
%TD*%
%TO.C,C4*%
G36*
G01*
X57478262Y-65625000D02*
X56521738Y-65625000D01*
G75*
G02*
X56250000Y-65353262I0J271738D01*
G01*
X56250000Y-64646738D01*
G75*
G02*
X56521738Y-64375000I271738J0D01*
G01*
X57478262Y-64375000D01*
G75*
G02*
X57750000Y-64646738I0J-271738D01*
G01*
X57750000Y-65353262D01*
G75*
G02*
X57478262Y-65625000I-271738J0D01*
G01*
G37*
G36*
G01*
X57478262Y-67675000D02*
X56521738Y-67675000D01*
G75*
G02*
X56250000Y-67403262I0J271738D01*
G01*
X56250000Y-66696738D01*
G75*
G02*
X56521738Y-66425000I271738J0D01*
G01*
X57478262Y-66425000D01*
G75*
G02*
X57750000Y-66696738I0J-271738D01*
G01*
X57750000Y-67403262D01*
G75*
G02*
X57478262Y-67675000I-271738J0D01*
G01*
G37*
%TD*%
%TO.C,C2*%
G36*
G01*
X48600000Y-70521738D02*
X48600000Y-71478262D01*
G75*
G02*
X48328262Y-71750000I-271738J0D01*
G01*
X47621738Y-71750000D01*
G75*
G02*
X47350000Y-71478262I0J271738D01*
G01*
X47350000Y-70521738D01*
G75*
G02*
X47621738Y-70250000I271738J0D01*
G01*
X48328262Y-70250000D01*
G75*
G02*
X48600000Y-70521738I0J-271738D01*
G01*
G37*
G36*
G01*
X50650000Y-70521738D02*
X50650000Y-71478262D01*
G75*
G02*
X50378262Y-71750000I-271738J0D01*
G01*
X49671738Y-71750000D01*
G75*
G02*
X49400000Y-71478262I0J271738D01*
G01*
X49400000Y-70521738D01*
G75*
G02*
X49671738Y-70250000I271738J0D01*
G01*
X50378262Y-70250000D01*
G75*
G02*
X50650000Y-70521738I0J-271738D01*
G01*
G37*
%TD*%
%TO.C,C1*%
G36*
G01*
X48600000Y-78521738D02*
X48600000Y-79478262D01*
G75*
G02*
X48328262Y-79750000I-271738J0D01*
G01*
X47621738Y-79750000D01*
G75*
G02*
X47350000Y-79478262I0J271738D01*
G01*
X47350000Y-78521738D01*
G75*
G02*
X47621738Y-78250000I271738J0D01*
G01*
X48328262Y-78250000D01*
G75*
G02*
X48600000Y-78521738I0J-271738D01*
G01*
G37*
G36*
G01*
X50650000Y-78521738D02*
X50650000Y-79478262D01*
G75*
G02*
X50378262Y-79750000I-271738J0D01*
G01*
X49671738Y-79750000D01*
G75*
G02*
X49400000Y-79478262I0J271738D01*
G01*
X49400000Y-78521738D01*
G75*
G02*
X49671738Y-78250000I271738J0D01*
G01*
X50378262Y-78250000D01*
G75*
G02*
X50650000Y-78521738I0J-271738D01*
G01*
G37*
%TD*%
D23*
%TO.C,Jack0*%
X110800000Y-78300000D03*
D24*
X115400000Y-76000000D03*
X108400000Y-76000000D03*
D23*
X113800000Y-78300000D03*
X106800000Y-78300000D03*
X105700000Y-73700000D03*
%TD*%
M02*
