%TF.GenerationSoftware,KiCad,Pcbnew,5.1.6*%
%TF.CreationDate,2020-08-13T18:56:40+01:00*%
%TF.ProjectId,ferris,66657272-6973-42e6-9b69-6361645f7063,rev?*%
%TF.SameCoordinates,Original*%
%TF.FileFunction,Paste,Top*%
%TF.FilePolarity,Positive*%
%FSLAX46Y46*%
G04 Gerber Fmt 4.6, Leading zero omitted, Abs format (unit mm)*
G04 Created by KiCad (PCBNEW 5.1.6) date 2020-08-13 18:56:40*
%MOMM*%
%LPD*%
G01*
G04 APERTURE LIST*
%ADD10R,1.800000X2.100000*%
%ADD11R,0.600000X1.450000*%
%ADD12R,0.300000X1.450000*%
%ADD13R,1.500000X0.550000*%
%ADD14R,0.550000X1.500000*%
%ADD15R,0.900000X1.200000*%
%ADD16C,0.100000*%
%ADD17R,1.700000X0.900000*%
G04 APERTURE END LIST*
D10*
%TO.C,Y1*%
X47350000Y-76450000D03*
X47350000Y-73550000D03*
X49650000Y-73550000D03*
X49650000Y-76450000D03*
%TD*%
D11*
%TO.C,J1*%
X108390000Y-60055000D03*
X109190000Y-60055000D03*
X114090000Y-60055000D03*
X114890000Y-60055000D03*
X114890000Y-60055000D03*
X114090000Y-60055000D03*
X109190000Y-60055000D03*
X108390000Y-60055000D03*
D12*
X113390000Y-60055000D03*
X112890000Y-60055000D03*
X112390000Y-60055000D03*
X111390000Y-60055000D03*
X110890000Y-60055000D03*
X110390000Y-60055000D03*
X109890000Y-60055000D03*
X111890000Y-60055000D03*
%TD*%
%TO.C,F1*%
G36*
G01*
X114775000Y-66625000D02*
X114775000Y-65375000D01*
G75*
G02*
X115025000Y-65125000I250000J0D01*
G01*
X115775000Y-65125000D01*
G75*
G02*
X116025000Y-65375000I0J-250000D01*
G01*
X116025000Y-66625000D01*
G75*
G02*
X115775000Y-66875000I-250000J0D01*
G01*
X115025000Y-66875000D01*
G75*
G02*
X114775000Y-66625000I0J250000D01*
G01*
G37*
G36*
G01*
X111975000Y-66625000D02*
X111975000Y-65375000D01*
G75*
G02*
X112225000Y-65125000I250000J0D01*
G01*
X112975000Y-65125000D01*
G75*
G02*
X113225000Y-65375000I0J-250000D01*
G01*
X113225000Y-66625000D01*
G75*
G02*
X112975000Y-66875000I-250000J0D01*
G01*
X112225000Y-66875000D01*
G75*
G02*
X111975000Y-66625000I0J250000D01*
G01*
G37*
%TD*%
%TO.C,R9*%
G36*
G01*
X126450000Y-71950001D02*
X126450000Y-71049999D01*
G75*
G02*
X126699999Y-70800000I249999J0D01*
G01*
X127350001Y-70800000D01*
G75*
G02*
X127600000Y-71049999I0J-249999D01*
G01*
X127600000Y-71950001D01*
G75*
G02*
X127350001Y-72200000I-249999J0D01*
G01*
X126699999Y-72200000D01*
G75*
G02*
X126450000Y-71950001I0J249999D01*
G01*
G37*
G36*
G01*
X124400000Y-71950001D02*
X124400000Y-71049999D01*
G75*
G02*
X124649999Y-70800000I249999J0D01*
G01*
X125300001Y-70800000D01*
G75*
G02*
X125550000Y-71049999I0J-249999D01*
G01*
X125550000Y-71950001D01*
G75*
G02*
X125300001Y-72200000I-249999J0D01*
G01*
X124649999Y-72200000D01*
G75*
G02*
X124400000Y-71950001I0J249999D01*
G01*
G37*
%TD*%
%TO.C,C10*%
G36*
G01*
X122450000Y-71950001D02*
X122450000Y-71049999D01*
G75*
G02*
X122699999Y-70800000I249999J0D01*
G01*
X123350001Y-70800000D01*
G75*
G02*
X123600000Y-71049999I0J-249999D01*
G01*
X123600000Y-71950001D01*
G75*
G02*
X123350001Y-72200000I-249999J0D01*
G01*
X122699999Y-72200000D01*
G75*
G02*
X122450000Y-71950001I0J249999D01*
G01*
G37*
G36*
G01*
X120400000Y-71950001D02*
X120400000Y-71049999D01*
G75*
G02*
X120649999Y-70800000I249999J0D01*
G01*
X121300001Y-70800000D01*
G75*
G02*
X121550000Y-71049999I0J-249999D01*
G01*
X121550000Y-71950001D01*
G75*
G02*
X121300001Y-72200000I-249999J0D01*
G01*
X120649999Y-72200000D01*
G75*
G02*
X120400000Y-71950001I0J249999D01*
G01*
G37*
%TD*%
D13*
%TO.C,U1*%
X65200000Y-71000000D03*
X65200000Y-71800000D03*
X65200000Y-72600000D03*
X65200000Y-73400000D03*
X65200000Y-74200000D03*
X65200000Y-75000000D03*
X65200000Y-75800000D03*
X65200000Y-76600000D03*
X65200000Y-77400000D03*
X65200000Y-78200000D03*
X65200000Y-79000000D03*
D14*
X63500000Y-80700000D03*
X62700000Y-80700000D03*
X61900000Y-80700000D03*
X61100000Y-80700000D03*
X60300000Y-80700000D03*
X59500000Y-80700000D03*
X58700000Y-80700000D03*
X57900000Y-80700000D03*
X57100000Y-80700000D03*
X56300000Y-80700000D03*
X55500000Y-80700000D03*
D13*
X53800000Y-79000000D03*
X53800000Y-78200000D03*
X53800000Y-77400000D03*
X53800000Y-76600000D03*
X53800000Y-75800000D03*
X53800000Y-75000000D03*
X53800000Y-74200000D03*
X53800000Y-73400000D03*
X53800000Y-72600000D03*
X53800000Y-71800000D03*
X53800000Y-71000000D03*
D14*
X55500000Y-69300000D03*
X56300000Y-69300000D03*
X57100000Y-69300000D03*
X57900000Y-69300000D03*
X58700000Y-69300000D03*
X59500000Y-69300000D03*
X60300000Y-69300000D03*
X61100000Y-69300000D03*
X61900000Y-69300000D03*
X62700000Y-69300000D03*
X63500000Y-69300000D03*
%TD*%
D15*
%TO.C,D1_6*%
X158350000Y-39800000D03*
X161650000Y-39800000D03*
%TD*%
%TO.C,D0_7*%
X176350000Y-17300000D03*
X179650000Y-17300000D03*
%TD*%
%TO.C,D2_5*%
X140350000Y-59300000D03*
X143650000Y-59300000D03*
%TD*%
%TO.C,D0_5*%
X140350000Y-25300000D03*
X143650000Y-25300000D03*
%TD*%
D16*
%TO.C,D3_5*%
G36*
X127760769Y-85480385D02*
G01*
X128360769Y-86519615D01*
X127581347Y-86969615D01*
X126981347Y-85930385D01*
X127760769Y-85480385D01*
G37*
G36*
X130618653Y-83830385D02*
G01*
X131218653Y-84869615D01*
X130439231Y-85319615D01*
X129839231Y-84280385D01*
X130618653Y-83830385D01*
G37*
%TD*%
D15*
%TO.C,D1_9*%
X212350000Y-52300000D03*
X215650000Y-52300000D03*
%TD*%
%TO.C,C9*%
G36*
G01*
X129550000Y-71049999D02*
X129550000Y-71950001D01*
G75*
G02*
X129300001Y-72200000I-249999J0D01*
G01*
X128649999Y-72200000D01*
G75*
G02*
X128400000Y-71950001I0J249999D01*
G01*
X128400000Y-71049999D01*
G75*
G02*
X128649999Y-70800000I249999J0D01*
G01*
X129300001Y-70800000D01*
G75*
G02*
X129550000Y-71049999I0J-249999D01*
G01*
G37*
G36*
G01*
X131600000Y-71049999D02*
X131600000Y-71950001D01*
G75*
G02*
X131350001Y-72200000I-249999J0D01*
G01*
X130699999Y-72200000D01*
G75*
G02*
X130450000Y-71950001I0J249999D01*
G01*
X130450000Y-71049999D01*
G75*
G02*
X130699999Y-70800000I249999J0D01*
G01*
X131350001Y-70800000D01*
G75*
G02*
X131600000Y-71049999I0J-249999D01*
G01*
G37*
%TD*%
%TO.C,D0_6*%
X158350000Y-22800000D03*
X161650000Y-22800000D03*
%TD*%
D16*
%TO.C,D3_6*%
G36*
X147585597Y-76831027D02*
G01*
X147896180Y-77990138D01*
X147026847Y-78223075D01*
X146716264Y-77063964D01*
X147585597Y-76831027D01*
G37*
G36*
X150773153Y-75976925D02*
G01*
X151083736Y-77136036D01*
X150214403Y-77368973D01*
X149903820Y-76209862D01*
X150773153Y-75976925D01*
G37*
%TD*%
D15*
%TO.C,D2_8*%
X194350000Y-57300000D03*
X197650000Y-57300000D03*
%TD*%
%TO.C,D0_8*%
X194350000Y-23300000D03*
X197650000Y-23300000D03*
%TD*%
%TO.C,D0_9*%
X212350000Y-35200000D03*
X215650000Y-35200000D03*
%TD*%
%TO.C,D2_6*%
X158350000Y-56700000D03*
X161650000Y-56700000D03*
%TD*%
%TO.C,D1_7*%
X176350000Y-34300000D03*
X179650000Y-34300000D03*
%TD*%
%TO.C,U2*%
G36*
G01*
X129625000Y-52935000D02*
X129625000Y-52635000D01*
G75*
G02*
X129775000Y-52485000I150000J0D01*
G01*
X131525000Y-52485000D01*
G75*
G02*
X131675000Y-52635000I0J-150000D01*
G01*
X131675000Y-52935000D01*
G75*
G02*
X131525000Y-53085000I-150000J0D01*
G01*
X129775000Y-53085000D01*
G75*
G02*
X129625000Y-52935000I0J150000D01*
G01*
G37*
G36*
G01*
X129625000Y-54205000D02*
X129625000Y-53905000D01*
G75*
G02*
X129775000Y-53755000I150000J0D01*
G01*
X131525000Y-53755000D01*
G75*
G02*
X131675000Y-53905000I0J-150000D01*
G01*
X131675000Y-54205000D01*
G75*
G02*
X131525000Y-54355000I-150000J0D01*
G01*
X129775000Y-54355000D01*
G75*
G02*
X129625000Y-54205000I0J150000D01*
G01*
G37*
G36*
G01*
X129625000Y-55475000D02*
X129625000Y-55175000D01*
G75*
G02*
X129775000Y-55025000I150000J0D01*
G01*
X131525000Y-55025000D01*
G75*
G02*
X131675000Y-55175000I0J-150000D01*
G01*
X131675000Y-55475000D01*
G75*
G02*
X131525000Y-55625000I-150000J0D01*
G01*
X129775000Y-55625000D01*
G75*
G02*
X129625000Y-55475000I0J150000D01*
G01*
G37*
G36*
G01*
X129625000Y-56745000D02*
X129625000Y-56445000D01*
G75*
G02*
X129775000Y-56295000I150000J0D01*
G01*
X131525000Y-56295000D01*
G75*
G02*
X131675000Y-56445000I0J-150000D01*
G01*
X131675000Y-56745000D01*
G75*
G02*
X131525000Y-56895000I-150000J0D01*
G01*
X129775000Y-56895000D01*
G75*
G02*
X129625000Y-56745000I0J150000D01*
G01*
G37*
G36*
G01*
X129625000Y-58015000D02*
X129625000Y-57715000D01*
G75*
G02*
X129775000Y-57565000I150000J0D01*
G01*
X131525000Y-57565000D01*
G75*
G02*
X131675000Y-57715000I0J-150000D01*
G01*
X131675000Y-58015000D01*
G75*
G02*
X131525000Y-58165000I-150000J0D01*
G01*
X129775000Y-58165000D01*
G75*
G02*
X129625000Y-58015000I0J150000D01*
G01*
G37*
G36*
G01*
X129625000Y-59285000D02*
X129625000Y-58985000D01*
G75*
G02*
X129775000Y-58835000I150000J0D01*
G01*
X131525000Y-58835000D01*
G75*
G02*
X131675000Y-58985000I0J-150000D01*
G01*
X131675000Y-59285000D01*
G75*
G02*
X131525000Y-59435000I-150000J0D01*
G01*
X129775000Y-59435000D01*
G75*
G02*
X129625000Y-59285000I0J150000D01*
G01*
G37*
G36*
G01*
X129625000Y-60555000D02*
X129625000Y-60255000D01*
G75*
G02*
X129775000Y-60105000I150000J0D01*
G01*
X131525000Y-60105000D01*
G75*
G02*
X131675000Y-60255000I0J-150000D01*
G01*
X131675000Y-60555000D01*
G75*
G02*
X131525000Y-60705000I-150000J0D01*
G01*
X129775000Y-60705000D01*
G75*
G02*
X129625000Y-60555000I0J150000D01*
G01*
G37*
G36*
G01*
X129625000Y-61825000D02*
X129625000Y-61525000D01*
G75*
G02*
X129775000Y-61375000I150000J0D01*
G01*
X131525000Y-61375000D01*
G75*
G02*
X131675000Y-61525000I0J-150000D01*
G01*
X131675000Y-61825000D01*
G75*
G02*
X131525000Y-61975000I-150000J0D01*
G01*
X129775000Y-61975000D01*
G75*
G02*
X129625000Y-61825000I0J150000D01*
G01*
G37*
G36*
G01*
X129625000Y-63095000D02*
X129625000Y-62795000D01*
G75*
G02*
X129775000Y-62645000I150000J0D01*
G01*
X131525000Y-62645000D01*
G75*
G02*
X131675000Y-62795000I0J-150000D01*
G01*
X131675000Y-63095000D01*
G75*
G02*
X131525000Y-63245000I-150000J0D01*
G01*
X129775000Y-63245000D01*
G75*
G02*
X129625000Y-63095000I0J150000D01*
G01*
G37*
G36*
G01*
X129625000Y-64365000D02*
X129625000Y-64065000D01*
G75*
G02*
X129775000Y-63915000I150000J0D01*
G01*
X131525000Y-63915000D01*
G75*
G02*
X131675000Y-64065000I0J-150000D01*
G01*
X131675000Y-64365000D01*
G75*
G02*
X131525000Y-64515000I-150000J0D01*
G01*
X129775000Y-64515000D01*
G75*
G02*
X129625000Y-64365000I0J150000D01*
G01*
G37*
G36*
G01*
X129625000Y-65635000D02*
X129625000Y-65335000D01*
G75*
G02*
X129775000Y-65185000I150000J0D01*
G01*
X131525000Y-65185000D01*
G75*
G02*
X131675000Y-65335000I0J-150000D01*
G01*
X131675000Y-65635000D01*
G75*
G02*
X131525000Y-65785000I-150000J0D01*
G01*
X129775000Y-65785000D01*
G75*
G02*
X129625000Y-65635000I0J150000D01*
G01*
G37*
G36*
G01*
X129625000Y-66905000D02*
X129625000Y-66605000D01*
G75*
G02*
X129775000Y-66455000I150000J0D01*
G01*
X131525000Y-66455000D01*
G75*
G02*
X131675000Y-66605000I0J-150000D01*
G01*
X131675000Y-66905000D01*
G75*
G02*
X131525000Y-67055000I-150000J0D01*
G01*
X129775000Y-67055000D01*
G75*
G02*
X129625000Y-66905000I0J150000D01*
G01*
G37*
G36*
G01*
X129625000Y-68175000D02*
X129625000Y-67875000D01*
G75*
G02*
X129775000Y-67725000I150000J0D01*
G01*
X131525000Y-67725000D01*
G75*
G02*
X131675000Y-67875000I0J-150000D01*
G01*
X131675000Y-68175000D01*
G75*
G02*
X131525000Y-68325000I-150000J0D01*
G01*
X129775000Y-68325000D01*
G75*
G02*
X129625000Y-68175000I0J150000D01*
G01*
G37*
G36*
G01*
X129625000Y-69445000D02*
X129625000Y-69145000D01*
G75*
G02*
X129775000Y-68995000I150000J0D01*
G01*
X131525000Y-68995000D01*
G75*
G02*
X131675000Y-69145000I0J-150000D01*
G01*
X131675000Y-69445000D01*
G75*
G02*
X131525000Y-69595000I-150000J0D01*
G01*
X129775000Y-69595000D01*
G75*
G02*
X129625000Y-69445000I0J150000D01*
G01*
G37*
G36*
G01*
X120325000Y-69445000D02*
X120325000Y-69145000D01*
G75*
G02*
X120475000Y-68995000I150000J0D01*
G01*
X122225000Y-68995000D01*
G75*
G02*
X122375000Y-69145000I0J-150000D01*
G01*
X122375000Y-69445000D01*
G75*
G02*
X122225000Y-69595000I-150000J0D01*
G01*
X120475000Y-69595000D01*
G75*
G02*
X120325000Y-69445000I0J150000D01*
G01*
G37*
G36*
G01*
X120325000Y-68175000D02*
X120325000Y-67875000D01*
G75*
G02*
X120475000Y-67725000I150000J0D01*
G01*
X122225000Y-67725000D01*
G75*
G02*
X122375000Y-67875000I0J-150000D01*
G01*
X122375000Y-68175000D01*
G75*
G02*
X122225000Y-68325000I-150000J0D01*
G01*
X120475000Y-68325000D01*
G75*
G02*
X120325000Y-68175000I0J150000D01*
G01*
G37*
G36*
G01*
X120325000Y-66905000D02*
X120325000Y-66605000D01*
G75*
G02*
X120475000Y-66455000I150000J0D01*
G01*
X122225000Y-66455000D01*
G75*
G02*
X122375000Y-66605000I0J-150000D01*
G01*
X122375000Y-66905000D01*
G75*
G02*
X122225000Y-67055000I-150000J0D01*
G01*
X120475000Y-67055000D01*
G75*
G02*
X120325000Y-66905000I0J150000D01*
G01*
G37*
G36*
G01*
X120325000Y-65635000D02*
X120325000Y-65335000D01*
G75*
G02*
X120475000Y-65185000I150000J0D01*
G01*
X122225000Y-65185000D01*
G75*
G02*
X122375000Y-65335000I0J-150000D01*
G01*
X122375000Y-65635000D01*
G75*
G02*
X122225000Y-65785000I-150000J0D01*
G01*
X120475000Y-65785000D01*
G75*
G02*
X120325000Y-65635000I0J150000D01*
G01*
G37*
G36*
G01*
X120325000Y-64365000D02*
X120325000Y-64065000D01*
G75*
G02*
X120475000Y-63915000I150000J0D01*
G01*
X122225000Y-63915000D01*
G75*
G02*
X122375000Y-64065000I0J-150000D01*
G01*
X122375000Y-64365000D01*
G75*
G02*
X122225000Y-64515000I-150000J0D01*
G01*
X120475000Y-64515000D01*
G75*
G02*
X120325000Y-64365000I0J150000D01*
G01*
G37*
G36*
G01*
X120325000Y-63095000D02*
X120325000Y-62795000D01*
G75*
G02*
X120475000Y-62645000I150000J0D01*
G01*
X122225000Y-62645000D01*
G75*
G02*
X122375000Y-62795000I0J-150000D01*
G01*
X122375000Y-63095000D01*
G75*
G02*
X122225000Y-63245000I-150000J0D01*
G01*
X120475000Y-63245000D01*
G75*
G02*
X120325000Y-63095000I0J150000D01*
G01*
G37*
G36*
G01*
X120325000Y-61825000D02*
X120325000Y-61525000D01*
G75*
G02*
X120475000Y-61375000I150000J0D01*
G01*
X122225000Y-61375000D01*
G75*
G02*
X122375000Y-61525000I0J-150000D01*
G01*
X122375000Y-61825000D01*
G75*
G02*
X122225000Y-61975000I-150000J0D01*
G01*
X120475000Y-61975000D01*
G75*
G02*
X120325000Y-61825000I0J150000D01*
G01*
G37*
G36*
G01*
X120325000Y-60555000D02*
X120325000Y-60255000D01*
G75*
G02*
X120475000Y-60105000I150000J0D01*
G01*
X122225000Y-60105000D01*
G75*
G02*
X122375000Y-60255000I0J-150000D01*
G01*
X122375000Y-60555000D01*
G75*
G02*
X122225000Y-60705000I-150000J0D01*
G01*
X120475000Y-60705000D01*
G75*
G02*
X120325000Y-60555000I0J150000D01*
G01*
G37*
G36*
G01*
X120325000Y-59285000D02*
X120325000Y-58985000D01*
G75*
G02*
X120475000Y-58835000I150000J0D01*
G01*
X122225000Y-58835000D01*
G75*
G02*
X122375000Y-58985000I0J-150000D01*
G01*
X122375000Y-59285000D01*
G75*
G02*
X122225000Y-59435000I-150000J0D01*
G01*
X120475000Y-59435000D01*
G75*
G02*
X120325000Y-59285000I0J150000D01*
G01*
G37*
G36*
G01*
X120325000Y-58015000D02*
X120325000Y-57715000D01*
G75*
G02*
X120475000Y-57565000I150000J0D01*
G01*
X122225000Y-57565000D01*
G75*
G02*
X122375000Y-57715000I0J-150000D01*
G01*
X122375000Y-58015000D01*
G75*
G02*
X122225000Y-58165000I-150000J0D01*
G01*
X120475000Y-58165000D01*
G75*
G02*
X120325000Y-58015000I0J150000D01*
G01*
G37*
G36*
G01*
X120325000Y-56745000D02*
X120325000Y-56445000D01*
G75*
G02*
X120475000Y-56295000I150000J0D01*
G01*
X122225000Y-56295000D01*
G75*
G02*
X122375000Y-56445000I0J-150000D01*
G01*
X122375000Y-56745000D01*
G75*
G02*
X122225000Y-56895000I-150000J0D01*
G01*
X120475000Y-56895000D01*
G75*
G02*
X120325000Y-56745000I0J150000D01*
G01*
G37*
G36*
G01*
X120325000Y-55475000D02*
X120325000Y-55175000D01*
G75*
G02*
X120475000Y-55025000I150000J0D01*
G01*
X122225000Y-55025000D01*
G75*
G02*
X122375000Y-55175000I0J-150000D01*
G01*
X122375000Y-55475000D01*
G75*
G02*
X122225000Y-55625000I-150000J0D01*
G01*
X120475000Y-55625000D01*
G75*
G02*
X120325000Y-55475000I0J150000D01*
G01*
G37*
G36*
G01*
X120325000Y-54205000D02*
X120325000Y-53905000D01*
G75*
G02*
X120475000Y-53755000I150000J0D01*
G01*
X122225000Y-53755000D01*
G75*
G02*
X122375000Y-53905000I0J-150000D01*
G01*
X122375000Y-54205000D01*
G75*
G02*
X122225000Y-54355000I-150000J0D01*
G01*
X120475000Y-54355000D01*
G75*
G02*
X120325000Y-54205000I0J150000D01*
G01*
G37*
G36*
G01*
X120325000Y-52935000D02*
X120325000Y-52635000D01*
G75*
G02*
X120475000Y-52485000I150000J0D01*
G01*
X122225000Y-52485000D01*
G75*
G02*
X122375000Y-52635000I0J-150000D01*
G01*
X122375000Y-52935000D01*
G75*
G02*
X122225000Y-53085000I-150000J0D01*
G01*
X120475000Y-53085000D01*
G75*
G02*
X120325000Y-52935000I0J150000D01*
G01*
G37*
%TD*%
%TO.C,D1_8*%
X194350000Y-40200000D03*
X197650000Y-40200000D03*
%TD*%
%TO.C,D2_7*%
X176350000Y-51300000D03*
X179650000Y-51300000D03*
%TD*%
%TO.C,D2_9*%
X212350000Y-69200000D03*
X215650000Y-69200000D03*
%TD*%
%TO.C,D1_5*%
X140350000Y-42300000D03*
X143650000Y-42300000D03*
%TD*%
D17*
%TO.C,SW1*%
X40000000Y-78700000D03*
X40000000Y-75300000D03*
%TD*%
D16*
%TO.C,D3_4*%
G36*
X106100769Y-84160385D02*
G01*
X105500769Y-85199615D01*
X104721347Y-84749615D01*
X105321347Y-83710385D01*
X106100769Y-84160385D01*
G37*
G36*
X108958653Y-85810385D02*
G01*
X108358653Y-86849615D01*
X107579231Y-86399615D01*
X108179231Y-85360385D01*
X108958653Y-85810385D01*
G37*
%TD*%
%TO.C,D3_3*%
G36*
X86176180Y-76319862D02*
G01*
X85865597Y-77478973D01*
X84996264Y-77246036D01*
X85306847Y-76086925D01*
X86176180Y-76319862D01*
G37*
G36*
X89363736Y-77173964D02*
G01*
X89053153Y-78333075D01*
X88183820Y-78100138D01*
X88494403Y-76941027D01*
X89363736Y-77173964D01*
G37*
%TD*%
D15*
%TO.C,D2_4*%
X92350000Y-59250000D03*
X95650000Y-59250000D03*
%TD*%
%TO.C,D2_3*%
X74350000Y-56750000D03*
X77650000Y-56750000D03*
%TD*%
%TO.C,D2_2*%
X56350000Y-51000000D03*
X59650000Y-51000000D03*
%TD*%
%TO.C,D2_1*%
X38350000Y-57250000D03*
X41650000Y-57250000D03*
%TD*%
%TO.C,D2_0*%
X20350000Y-69250000D03*
X23650000Y-69250000D03*
%TD*%
%TO.C,D1_4*%
X92350000Y-42250000D03*
X95650000Y-42250000D03*
%TD*%
%TO.C,D1_3*%
X74350000Y-39500000D03*
X77650000Y-39500000D03*
%TD*%
%TO.C,D1_2*%
X56350000Y-34250000D03*
X59650000Y-34250000D03*
%TD*%
%TO.C,D1_1*%
X38350000Y-40250000D03*
X41650000Y-40250000D03*
%TD*%
%TO.C,D1_0*%
X20350000Y-52000000D03*
X23650000Y-52000000D03*
%TD*%
%TO.C,D0_4*%
X92350000Y-25250000D03*
X95650000Y-25250000D03*
%TD*%
%TO.C,D0_3*%
X74350000Y-22750000D03*
X77650000Y-22750000D03*
%TD*%
%TO.C,D0_2*%
X56350000Y-17250000D03*
X59650000Y-17250000D03*
%TD*%
%TO.C,D0_1*%
X38350000Y-23250000D03*
X41650000Y-23250000D03*
%TD*%
%TO.C,D0_0*%
X20350000Y-35000000D03*
X23650000Y-35000000D03*
%TD*%
%TO.C,C3*%
G36*
G01*
X49550000Y-81549999D02*
X49550000Y-82450001D01*
G75*
G02*
X49300001Y-82700000I-249999J0D01*
G01*
X48649999Y-82700000D01*
G75*
G02*
X48400000Y-82450001I0J249999D01*
G01*
X48400000Y-81549999D01*
G75*
G02*
X48649999Y-81300000I249999J0D01*
G01*
X49300001Y-81300000D01*
G75*
G02*
X49550000Y-81549999I0J-249999D01*
G01*
G37*
G36*
G01*
X51600000Y-81549999D02*
X51600000Y-82450001D01*
G75*
G02*
X51350001Y-82700000I-249999J0D01*
G01*
X50699999Y-82700000D01*
G75*
G02*
X50450000Y-82450001I0J249999D01*
G01*
X50450000Y-81549999D01*
G75*
G02*
X50699999Y-81300000I249999J0D01*
G01*
X51350001Y-81300000D01*
G75*
G02*
X51600000Y-81549999I0J-249999D01*
G01*
G37*
%TD*%
%TO.C,R8*%
G36*
G01*
X114949999Y-70450000D02*
X115850001Y-70450000D01*
G75*
G02*
X116100000Y-70699999I0J-249999D01*
G01*
X116100000Y-71350001D01*
G75*
G02*
X115850001Y-71600000I-249999J0D01*
G01*
X114949999Y-71600000D01*
G75*
G02*
X114700000Y-71350001I0J249999D01*
G01*
X114700000Y-70699999D01*
G75*
G02*
X114949999Y-70450000I249999J0D01*
G01*
G37*
G36*
G01*
X114949999Y-68400000D02*
X115850001Y-68400000D01*
G75*
G02*
X116100000Y-68649999I0J-249999D01*
G01*
X116100000Y-69300001D01*
G75*
G02*
X115850001Y-69550000I-249999J0D01*
G01*
X114949999Y-69550000D01*
G75*
G02*
X114700000Y-69300001I0J249999D01*
G01*
X114700000Y-68649999D01*
G75*
G02*
X114949999Y-68400000I249999J0D01*
G01*
G37*
%TD*%
%TO.C,R7*%
G36*
G01*
X113420001Y-69550000D02*
X112519999Y-69550000D01*
G75*
G02*
X112270000Y-69300001I0J249999D01*
G01*
X112270000Y-68649999D01*
G75*
G02*
X112519999Y-68400000I249999J0D01*
G01*
X113420001Y-68400000D01*
G75*
G02*
X113670000Y-68649999I0J-249999D01*
G01*
X113670000Y-69300001D01*
G75*
G02*
X113420001Y-69550000I-249999J0D01*
G01*
G37*
G36*
G01*
X113420001Y-71600000D02*
X112519999Y-71600000D01*
G75*
G02*
X112270000Y-71350001I0J249999D01*
G01*
X112270000Y-70699999D01*
G75*
G02*
X112519999Y-70450000I249999J0D01*
G01*
X113420001Y-70450000D01*
G75*
G02*
X113670000Y-70699999I0J-249999D01*
G01*
X113670000Y-71350001D01*
G75*
G02*
X113420001Y-71600000I-249999J0D01*
G01*
G37*
%TD*%
%TO.C,R6*%
G36*
G01*
X109450000Y-63450001D02*
X109450000Y-62549999D01*
G75*
G02*
X109699999Y-62300000I249999J0D01*
G01*
X110350001Y-62300000D01*
G75*
G02*
X110600000Y-62549999I0J-249999D01*
G01*
X110600000Y-63450001D01*
G75*
G02*
X110350001Y-63700000I-249999J0D01*
G01*
X109699999Y-63700000D01*
G75*
G02*
X109450000Y-63450001I0J249999D01*
G01*
G37*
G36*
G01*
X107400000Y-63450001D02*
X107400000Y-62549999D01*
G75*
G02*
X107649999Y-62300000I249999J0D01*
G01*
X108300001Y-62300000D01*
G75*
G02*
X108550000Y-62549999I0J-249999D01*
G01*
X108550000Y-63450001D01*
G75*
G02*
X108300001Y-63700000I-249999J0D01*
G01*
X107649999Y-63700000D01*
G75*
G02*
X107400000Y-63450001I0J249999D01*
G01*
G37*
%TD*%
%TO.C,R5*%
G36*
G01*
X114050000Y-62549999D02*
X114050000Y-63450001D01*
G75*
G02*
X113800001Y-63700000I-249999J0D01*
G01*
X113149999Y-63700000D01*
G75*
G02*
X112900000Y-63450001I0J249999D01*
G01*
X112900000Y-62549999D01*
G75*
G02*
X113149999Y-62300000I249999J0D01*
G01*
X113800001Y-62300000D01*
G75*
G02*
X114050000Y-62549999I0J-249999D01*
G01*
G37*
G36*
G01*
X116100000Y-62549999D02*
X116100000Y-63450001D01*
G75*
G02*
X115850001Y-63700000I-249999J0D01*
G01*
X115199999Y-63700000D01*
G75*
G02*
X114950000Y-63450001I0J249999D01*
G01*
X114950000Y-62549999D01*
G75*
G02*
X115199999Y-62300000I249999J0D01*
G01*
X115850001Y-62300000D01*
G75*
G02*
X116100000Y-62549999I0J-249999D01*
G01*
G37*
%TD*%
%TO.C,R4*%
G36*
G01*
X108450001Y-69550000D02*
X107549999Y-69550000D01*
G75*
G02*
X107300000Y-69300001I0J249999D01*
G01*
X107300000Y-68649999D01*
G75*
G02*
X107549999Y-68400000I249999J0D01*
G01*
X108450001Y-68400000D01*
G75*
G02*
X108700000Y-68649999I0J-249999D01*
G01*
X108700000Y-69300001D01*
G75*
G02*
X108450001Y-69550000I-249999J0D01*
G01*
G37*
G36*
G01*
X108450001Y-71600000D02*
X107549999Y-71600000D01*
G75*
G02*
X107300000Y-71350001I0J249999D01*
G01*
X107300000Y-70699999D01*
G75*
G02*
X107549999Y-70450000I249999J0D01*
G01*
X108450001Y-70450000D01*
G75*
G02*
X108700000Y-70699999I0J-249999D01*
G01*
X108700000Y-71350001D01*
G75*
G02*
X108450001Y-71600000I-249999J0D01*
G01*
G37*
%TD*%
%TO.C,R3*%
G36*
G01*
X110980001Y-69550000D02*
X110079999Y-69550000D01*
G75*
G02*
X109830000Y-69300001I0J249999D01*
G01*
X109830000Y-68649999D01*
G75*
G02*
X110079999Y-68400000I249999J0D01*
G01*
X110980001Y-68400000D01*
G75*
G02*
X111230000Y-68649999I0J-249999D01*
G01*
X111230000Y-69300001D01*
G75*
G02*
X110980001Y-69550000I-249999J0D01*
G01*
G37*
G36*
G01*
X110980001Y-71600000D02*
X110079999Y-71600000D01*
G75*
G02*
X109830000Y-71350001I0J249999D01*
G01*
X109830000Y-70699999D01*
G75*
G02*
X110079999Y-70450000I249999J0D01*
G01*
X110980001Y-70450000D01*
G75*
G02*
X111230000Y-70699999I0J-249999D01*
G01*
X111230000Y-71350001D01*
G75*
G02*
X110980001Y-71600000I-249999J0D01*
G01*
G37*
%TD*%
%TO.C,R2*%
G36*
G01*
X68710000Y-80549999D02*
X68710000Y-81450001D01*
G75*
G02*
X68460001Y-81700000I-249999J0D01*
G01*
X67809999Y-81700000D01*
G75*
G02*
X67560000Y-81450001I0J249999D01*
G01*
X67560000Y-80549999D01*
G75*
G02*
X67809999Y-80300000I249999J0D01*
G01*
X68460001Y-80300000D01*
G75*
G02*
X68710000Y-80549999I0J-249999D01*
G01*
G37*
G36*
G01*
X70760000Y-80549999D02*
X70760000Y-81450001D01*
G75*
G02*
X70510001Y-81700000I-249999J0D01*
G01*
X69859999Y-81700000D01*
G75*
G02*
X69610000Y-81450001I0J249999D01*
G01*
X69610000Y-80549999D01*
G75*
G02*
X69859999Y-80300000I249999J0D01*
G01*
X70510001Y-80300000D01*
G75*
G02*
X70760000Y-80549999I0J-249999D01*
G01*
G37*
%TD*%
%TO.C,R1*%
G36*
G01*
X40425000Y-72450001D02*
X40425000Y-71549999D01*
G75*
G02*
X40674999Y-71300000I249999J0D01*
G01*
X41325001Y-71300000D01*
G75*
G02*
X41575000Y-71549999I0J-249999D01*
G01*
X41575000Y-72450001D01*
G75*
G02*
X41325001Y-72700000I-249999J0D01*
G01*
X40674999Y-72700000D01*
G75*
G02*
X40425000Y-72450001I0J249999D01*
G01*
G37*
G36*
G01*
X38375000Y-72450001D02*
X38375000Y-71549999D01*
G75*
G02*
X38624999Y-71300000I249999J0D01*
G01*
X39275001Y-71300000D01*
G75*
G02*
X39525000Y-71549999I0J-249999D01*
G01*
X39525000Y-72450001D01*
G75*
G02*
X39275001Y-72700000I-249999J0D01*
G01*
X38624999Y-72700000D01*
G75*
G02*
X38375000Y-72450001I0J249999D01*
G01*
G37*
%TD*%
%TO.C,C8*%
G36*
G01*
X59950001Y-65550000D02*
X59049999Y-65550000D01*
G75*
G02*
X58800000Y-65300001I0J249999D01*
G01*
X58800000Y-64649999D01*
G75*
G02*
X59049999Y-64400000I249999J0D01*
G01*
X59950001Y-64400000D01*
G75*
G02*
X60200000Y-64649999I0J-249999D01*
G01*
X60200000Y-65300001D01*
G75*
G02*
X59950001Y-65550000I-249999J0D01*
G01*
G37*
G36*
G01*
X59950001Y-67600000D02*
X59049999Y-67600000D01*
G75*
G02*
X58800000Y-67350001I0J249999D01*
G01*
X58800000Y-66699999D01*
G75*
G02*
X59049999Y-66450000I249999J0D01*
G01*
X59950001Y-66450000D01*
G75*
G02*
X60200000Y-66699999I0J-249999D01*
G01*
X60200000Y-67350001D01*
G75*
G02*
X59950001Y-67600000I-249999J0D01*
G01*
G37*
%TD*%
%TO.C,C7*%
G36*
G01*
X68760000Y-73549999D02*
X68760000Y-74450001D01*
G75*
G02*
X68510001Y-74700000I-249999J0D01*
G01*
X67859999Y-74700000D01*
G75*
G02*
X67610000Y-74450001I0J249999D01*
G01*
X67610000Y-73549999D01*
G75*
G02*
X67859999Y-73300000I249999J0D01*
G01*
X68510001Y-73300000D01*
G75*
G02*
X68760000Y-73549999I0J-249999D01*
G01*
G37*
G36*
G01*
X70810000Y-73549999D02*
X70810000Y-74450001D01*
G75*
G02*
X70560001Y-74700000I-249999J0D01*
G01*
X69909999Y-74700000D01*
G75*
G02*
X69660000Y-74450001I0J249999D01*
G01*
X69660000Y-73549999D01*
G75*
G02*
X69909999Y-73300000I249999J0D01*
G01*
X70560001Y-73300000D01*
G75*
G02*
X70810000Y-73549999I0J-249999D01*
G01*
G37*
%TD*%
%TO.C,C6*%
G36*
G01*
X68730000Y-77049999D02*
X68730000Y-77950001D01*
G75*
G02*
X68480001Y-78200000I-249999J0D01*
G01*
X67829999Y-78200000D01*
G75*
G02*
X67580000Y-77950001I0J249999D01*
G01*
X67580000Y-77049999D01*
G75*
G02*
X67829999Y-76800000I249999J0D01*
G01*
X68480001Y-76800000D01*
G75*
G02*
X68730000Y-77049999I0J-249999D01*
G01*
G37*
G36*
G01*
X70780000Y-77049999D02*
X70780000Y-77950001D01*
G75*
G02*
X70530001Y-78200000I-249999J0D01*
G01*
X69879999Y-78200000D01*
G75*
G02*
X69630000Y-77950001I0J249999D01*
G01*
X69630000Y-77049999D01*
G75*
G02*
X69879999Y-76800000I249999J0D01*
G01*
X70530001Y-76800000D01*
G75*
G02*
X70780000Y-77049999I0J-249999D01*
G01*
G37*
%TD*%
%TO.C,C5*%
G36*
G01*
X49550000Y-67549999D02*
X49550000Y-68450001D01*
G75*
G02*
X49300001Y-68700000I-249999J0D01*
G01*
X48649999Y-68700000D01*
G75*
G02*
X48400000Y-68450001I0J249999D01*
G01*
X48400000Y-67549999D01*
G75*
G02*
X48649999Y-67300000I249999J0D01*
G01*
X49300001Y-67300000D01*
G75*
G02*
X49550000Y-67549999I0J-249999D01*
G01*
G37*
G36*
G01*
X51600000Y-67549999D02*
X51600000Y-68450001D01*
G75*
G02*
X51350001Y-68700000I-249999J0D01*
G01*
X50699999Y-68700000D01*
G75*
G02*
X50450000Y-68450001I0J249999D01*
G01*
X50450000Y-67549999D01*
G75*
G02*
X50699999Y-67300000I249999J0D01*
G01*
X51350001Y-67300000D01*
G75*
G02*
X51600000Y-67549999I0J-249999D01*
G01*
G37*
%TD*%
%TO.C,C4*%
G36*
G01*
X57450001Y-65575000D02*
X56549999Y-65575000D01*
G75*
G02*
X56300000Y-65325001I0J249999D01*
G01*
X56300000Y-64674999D01*
G75*
G02*
X56549999Y-64425000I249999J0D01*
G01*
X57450001Y-64425000D01*
G75*
G02*
X57700000Y-64674999I0J-249999D01*
G01*
X57700000Y-65325001D01*
G75*
G02*
X57450001Y-65575000I-249999J0D01*
G01*
G37*
G36*
G01*
X57450001Y-67625000D02*
X56549999Y-67625000D01*
G75*
G02*
X56300000Y-67375001I0J249999D01*
G01*
X56300000Y-66724999D01*
G75*
G02*
X56549999Y-66475000I249999J0D01*
G01*
X57450001Y-66475000D01*
G75*
G02*
X57700000Y-66724999I0J-249999D01*
G01*
X57700000Y-67375001D01*
G75*
G02*
X57450001Y-67625000I-249999J0D01*
G01*
G37*
%TD*%
%TO.C,C2*%
G36*
G01*
X48550000Y-70549999D02*
X48550000Y-71450001D01*
G75*
G02*
X48300001Y-71700000I-249999J0D01*
G01*
X47649999Y-71700000D01*
G75*
G02*
X47400000Y-71450001I0J249999D01*
G01*
X47400000Y-70549999D01*
G75*
G02*
X47649999Y-70300000I249999J0D01*
G01*
X48300001Y-70300000D01*
G75*
G02*
X48550000Y-70549999I0J-249999D01*
G01*
G37*
G36*
G01*
X50600000Y-70549999D02*
X50600000Y-71450001D01*
G75*
G02*
X50350001Y-71700000I-249999J0D01*
G01*
X49699999Y-71700000D01*
G75*
G02*
X49450000Y-71450001I0J249999D01*
G01*
X49450000Y-70549999D01*
G75*
G02*
X49699999Y-70300000I249999J0D01*
G01*
X50350001Y-70300000D01*
G75*
G02*
X50600000Y-70549999I0J-249999D01*
G01*
G37*
%TD*%
%TO.C,C1*%
G36*
G01*
X48550000Y-78549999D02*
X48550000Y-79450001D01*
G75*
G02*
X48300001Y-79700000I-249999J0D01*
G01*
X47649999Y-79700000D01*
G75*
G02*
X47400000Y-79450001I0J249999D01*
G01*
X47400000Y-78549999D01*
G75*
G02*
X47649999Y-78300000I249999J0D01*
G01*
X48300001Y-78300000D01*
G75*
G02*
X48550000Y-78549999I0J-249999D01*
G01*
G37*
G36*
G01*
X50600000Y-78549999D02*
X50600000Y-79450001D01*
G75*
G02*
X50350001Y-79700000I-249999J0D01*
G01*
X49699999Y-79700000D01*
G75*
G02*
X49450000Y-79450001I0J249999D01*
G01*
X49450000Y-78549999D01*
G75*
G02*
X49699999Y-78300000I249999J0D01*
G01*
X50350001Y-78300000D01*
G75*
G02*
X50600000Y-78549999I0J-249999D01*
G01*
G37*
%TD*%
M02*
