M48
; DRILL file {KiCad 5.1.6} date Thu Aug 13 12:20:09 2020
; FORMAT={-:-/ absolute / inch / decimal}
; #@! TF.CreationDate,2020-08-13T12:20:09+01:00
; #@! TF.GenerationSoftware,Kicad,Pcbnew,5.1.6
; #@! TF.FileFunction,Plated,1,2,PTH
FMAT,2
INCH
T1C0.0157
T2C0.0236
T3C0.0354
T4C0.0500
%
G90
G05
T1
X1.8841Y-0.6711
X1.9125Y-1.3119
X1.9411Y-1.9714
X2.0134Y-2.7268
X2.0242Y-2.8024
X2.0362Y-2.9378
X2.0831Y-2.6343
X2.113Y-2.7236
X2.1472Y-2.757
X2.1871Y-2.7994
X2.2817Y-3.1206
X2.2933Y-2.6705
X2.2979Y-3.0821
X2.3445Y-3.0882
X2.378Y-2.8327
X2.3949Y-3.074
X2.4055Y-3.1197
X2.4127Y-2.8512
X2.54Y-2.7104
X2.5669Y-2.7421
X2.8248Y-2.9091
X2.8264Y-3.0488
X4.3386Y-2.537
X4.4141Y-2.537
X4.8378Y-2.6799
X4.8441Y-2.6315
X4.9204Y-2.6446
X5.0321Y-2.7121
T4
X8.2283Y-1.7244
X8.4252Y-1.8071
X5.7592Y-3.412
X5.9707Y-3.4409
X7.5197Y-1.252
X7.7165Y-1.3346
X5.3937Y-2.0
X5.5906Y-2.0827
X5.3937Y-2.6693
X5.5906Y-2.752
X6.811Y-1.0157
X7.0079Y-1.0984
X6.1024Y-1.9016
X6.2992Y-1.9843
X3.1558Y-3.3101
X3.3245Y-3.4409
X6.1024Y-1.2323
X6.2992Y-1.315
X8.2283Y-2.3937
X8.4252Y-2.4764
X3.5039Y-2.0
X3.7008Y-2.0827
X0.6693Y-3.063
X0.8661Y-3.1457
X2.0866Y-2.3543
X2.2835Y-2.437
X2.7953Y-1.9016
X2.9921Y-1.9843
X2.7953Y-2.5709
X2.9921Y-2.6535
X2.7953Y-1.2323
X2.9921Y-1.315
X3.5039Y-1.3307
X3.7008Y-1.4134
X6.1024Y-2.5709
X6.2992Y-2.6535
X1.378Y-1.252
X1.5748Y-1.3346
X5.0803Y-3.7481
X5.2921Y-3.7212
X7.5197Y-2.5906
X7.7165Y-2.6732
X8.2283Y-3.063
X8.4252Y-3.1457
X7.5197Y-1.9213
X7.7165Y-2.0039
X3.5039Y-2.6693
X3.7008Y-2.752
X1.378Y-2.5906
X1.5748Y-2.6732
X0.6693Y-2.3937
X0.8661Y-2.4764
X0.6693Y-1.7244
X0.8661Y-1.8071
X2.0866Y-1.0157
X2.2835Y-1.0984
X3.8701Y-3.5512
X3.9992Y-3.7212
X6.811Y-2.3543
X7.0079Y-2.437
X1.378Y-1.9213
X1.5748Y-2.0039
X6.811Y-1.685
X7.0079Y-1.7677
X2.0866Y-1.685
X2.2835Y-1.7677
X5.3937Y-1.3307
X5.5906Y-1.4134
T2
G00X4.2252Y-2.1756
M15
G01X4.2252Y-2.152
M16
G05
G00X4.2252Y-2.35
M15
G01X4.2252Y-2.3067
M16
G05
G00X4.5654Y-2.1756
M15
G01X4.5654Y-2.152
M16
G05
G00X4.5654Y-2.35
M15
G01X4.5654Y-2.3067
M16
G05
T3
G00X4.8031Y-2.9016
M15
G01X4.8189Y-2.9016
M16
G05
G00X4.9213Y-2.9016
M15
G01X4.937Y-2.9016
M16
G05
G00X5.0787Y-2.9016
M15
G01X5.0945Y-2.9016
M16
G05
G00X5.122Y-3.0827
M15
G01X5.1378Y-3.0827
M16
G05
G00X4.1693Y-2.9016
M15
G01X4.1535Y-2.9016
M16
G05
G00X4.2126Y-3.0827
M15
G01X4.1969Y-3.0827
M16
G05
G00X4.3701Y-3.0827
M15
G01X4.3543Y-3.0827
M16
G05
G00X4.4882Y-3.0827
M15
G01X4.4724Y-3.0827
M16
G05
T0
M30
