M48
; DRILL file {KiCad 5.1.6} date Mon Jun  1 16:52:48 2020
; FORMAT={-:-/ absolute / inch / decimal}
; #@! TF.CreationDate,2020-06-01T16:52:48+01:00
; #@! TF.GenerationSoftware,Kicad,Pcbnew,5.1.6
; #@! TF.FileFunction,NonPlated,1,2,NPTH
FMAT,2
INCH
T1C0.0256
T2C0.0315
T3C0.0390
T4C0.0670
T5C0.1350
%
G90
G05
T1
X4.4433Y-2.4646
X4.6709Y-2.4646
T2
X6.9528Y-3.1102
X7.2283Y-3.1102
X4.4646Y-3.1102
X4.7402Y-3.1102
T3
X9.4969Y-2.6299
X8.0008Y-1.4488
X2.6071Y-2.6299
X10.9929Y-1.8425
X1.111Y-1.8425
X4.1031Y-2.1969
X10.9929Y-2.5906
X8.7488Y-1.3504
X8.7488Y-2.8465
X2.6071Y-1.1339
X8.0008Y-2.9449
X3.3551Y-1.3504
X3.7452Y-3.7517
X2.6071Y-1.8819
X1.111Y-2.5906
X1.8591Y-1.3701
X9.4969Y-1.1339
X7.4575Y-3.8879
X10.2449Y-2.1181
X10.2449Y-1.3701
X10.2449Y-2.8661
X4.1031Y-2.9449
X4.1031Y-1.4488
X3.3551Y-2.8465
X8.7488Y-2.0984
X1.111Y-3.3386
X6.7213Y-4.3834
X1.8591Y-2.1181
X9.4969Y-1.8819
X10.9929Y-3.3386
X8.0008Y-2.1969
X3.3551Y-2.0984
X1.8591Y-2.8661
X5.2622Y-4.6741
X8.3447Y-3.6454
X4.5914Y-4.0934
T4
X9.8228Y-1.5354
X10.2559Y-1.5354
X9.8228Y-3.0315
X10.2559Y-3.0315
X3.6811Y-3.1102
X4.1142Y-3.1102
X3.6811Y-1.6142
X4.1142Y-1.6142
X2.9331Y-3.0118
X3.3661Y-3.0118
X8.3268Y-2.2638
X8.7598Y-2.2638
X0.689Y-3.5039
X1.122Y-3.5039
X6.5398Y-4.7988
X6.846Y-4.4926
X1.437Y-2.2835
X1.8701Y-2.2835
X9.0748Y-2.0472
X9.5079Y-2.0472
X10.5709Y-3.5039
X11.0039Y-3.5039
X7.5787Y-2.3622
X8.0118Y-2.3622
X2.9331Y-2.2638
X3.3661Y-2.2638
X1.437Y-3.0315
X1.8701Y-3.0315
X4.8469Y-4.4926
X5.1531Y-4.7988
X7.9798Y-3.9143
X8.3981Y-3.8022
X4.1432Y-4.0256
X4.5182Y-4.2421
X9.0748Y-2.7953
X9.5079Y-2.7953
X7.5787Y-1.6142
X8.0118Y-1.6142
X2.185Y-2.7953
X2.6181Y-2.7953
X10.5709Y-2.0079
X11.0039Y-2.0079
X0.689Y-2.0079
X1.122Y-2.0079
X3.6811Y-2.3622
X4.1142Y-2.3622
X10.5709Y-2.7559
X11.0039Y-2.7559
X8.3268Y-1.5157
X8.7598Y-1.5157
X8.3268Y-3.0118
X8.7598Y-3.0118
X2.185Y-1.2992
X2.6181Y-1.2992
X7.5787Y-3.1102
X8.0118Y-3.1102
X2.9331Y-1.5157
X3.3661Y-1.5157
X3.2948Y-3.8022
X3.7131Y-3.9143
X2.185Y-2.0472
X2.6181Y-2.0472
X0.689Y-2.7559
X1.122Y-2.7559
X1.437Y-1.5354
X1.8701Y-1.5354
X9.0748Y-1.2992
X9.5079Y-1.2992
X7.1747Y-4.2421
X7.5497Y-4.0256
X9.8228Y-2.2835
X10.2559Y-2.2835
T5
X0.9055Y-2.0079
X3.8976Y-2.3622
X10.7874Y-2.7559
X8.5433Y-1.5157
X8.5433Y-3.0118
X2.4016Y-1.2992
X7.7953Y-3.1102
X3.1496Y-1.5157
X3.5039Y-3.8583
X2.4016Y-2.0472
X0.9055Y-2.7559
X1.6535Y-1.5354
X9.2913Y-1.2992
X7.3622Y-4.1339
X10.0394Y-2.2835
X10.0394Y-1.5354
X10.0394Y-3.0315
X3.8976Y-3.1102
X3.8976Y-1.6142
X3.1496Y-3.0118
X8.5433Y-2.2638
X0.9055Y-3.5039
X6.6929Y-4.6457
X1.6535Y-2.2835
X9.2913Y-2.0472
X10.7874Y-3.5039
X7.7953Y-2.3622
X3.1496Y-2.2638
X1.6535Y-3.0315
X5.0Y-4.6457
X8.189Y-3.8583
X4.3307Y-4.1339
X9.2913Y-2.7953
X7.7953Y-1.6142
X2.4016Y-2.7953
X10.7874Y-2.0079
T0
M30
