M48
; DRILL file {KiCad 5.1.6} date Sun Aug 16 15:01:47 2020
; FORMAT={-:-/ absolute / inch / decimal}
; #@! TF.CreationDate,2020-08-16T15:01:47+01:00
; #@! TF.GenerationSoftware,Kicad,Pcbnew,5.1.6
; #@! TF.FileFunction,Plated,1,2,PTH
FMAT,2
INCH
T1C0.0157
T2C0.0236
T3C0.0354
T4C0.0579
%
G90
G05
T1
X2.2268Y-3.0913
X2.2559Y-3.4055
X2.2576Y-3.3014
X2.2776Y-3.1457
X2.4217Y-3.0328
X2.4961Y-3.5138
X2.5112Y-3.3785
X2.5268Y-3.0327
X2.5269Y-3.477
X2.5433Y-3.4091
X2.5755Y-3.5159
X2.6138Y-3.4736
X2.6437Y-3.5118
X2.7707Y-3.1122
X2.8262Y-3.1261
X3.0496Y-3.2201
X3.0496Y-3.4575
X4.6839Y-3.0799
X4.7787Y-3.0799
X5.0705Y-2.9453
X5.0717Y-2.9059
X5.0728Y-2.3685
X5.0728Y-2.4197
X5.3031Y-2.8055
X5.3283Y-3.3563
X5.4291Y-2.6697
X5.4409Y-2.3882
X5.5098Y-1.6264
X5.624Y-3.0496
X5.626Y-2.9394
X5.7933Y-2.961
X6.5354Y-2.8724
T4
X4.2449Y-3.6671
X4.5114Y-3.7055
X3.039Y-2.5575
X3.289Y-2.4575
X5.6807Y-1.1602
X5.9307Y-1.0602
X1.5429Y-1.0811
X1.7929Y-0.9811
X7.1768Y-1.5933
X7.4268Y-1.4933
X0.7949Y-3.0496
X1.0449Y-2.9496
X3.787Y-1.9079
X4.037Y-1.8079
X8.6728Y-1.5539
X8.9228Y-1.4539
X6.4287Y-1.0618
X6.6787Y-0.9618
X5.265Y-3.8156
X5.4315Y-3.604
X3.787Y-1.1598
X4.037Y-1.0598
X3.787Y-2.6559
X4.037Y-2.5559
X0.7949Y-2.3016
X1.0449Y-2.2016
X3.039Y-1.0614
X3.289Y-0.9614
X7.9248Y-2.5776
X8.1748Y-2.4776
X2.2909Y-1.5929
X2.5409Y-1.4929
X7.1768Y-2.3413
X7.4268Y-2.2413
X0.7949Y-1.5535
X1.0449Y-1.4535
X1.5429Y-2.5772
X1.7929Y-2.4772
X2.2909Y-0.8449
X2.5409Y-0.7449
X8.6728Y-3.05
X8.9228Y-2.95
X8.6728Y-2.302
X8.9228Y-2.202
X1.5429Y-1.8291
X1.7929Y-1.7291
X2.2909Y-2.3409
X2.5409Y-2.2409
X5.6807Y-2.6563
X5.9307Y-2.5563
X7.1768Y-0.8453
X7.4268Y-0.7453
X6.0536Y-3.4466
X6.2692Y-3.2853
X7.9248Y-1.0815
X8.1748Y-0.9815
X3.039Y-1.8094
X3.289Y-1.7094
X6.4287Y-2.5579
X6.6787Y-2.4579
X5.6807Y-1.9083
X5.9307Y-1.8083
X3.4243Y-3.3685
X3.6917Y-3.3366
X7.9248Y-1.8295
X8.1748Y-1.7295
X6.4287Y-1.8098
X6.6787Y-1.7098
T2
G00X4.4636Y-2.412
M15
G01X4.4636Y-2.3884
M16
G05
G00X4.4636Y-2.5864
M15
G01X4.4636Y-2.5431
M16
G05
G00X4.8037Y-2.412
M15
G01X4.8037Y-2.3884
M16
G05
G00X4.8037Y-2.5864
M15
G01X4.8037Y-2.5431
M16
G05
T3
G00X5.0433Y-3.1264
M15
G01X5.0591Y-3.1264
M16
G05
G00X5.1614Y-3.1264
M15
G01X5.1772Y-3.1264
M16
G05
G00X5.3189Y-3.1264
M15
G01X5.3346Y-3.1264
M16
G05
G00X5.3622Y-3.3075
M15
G01X5.378Y-3.3075
M16
G05
G00X4.4055Y-3.126
M15
G01X4.3898Y-3.126
M16
G05
G00X4.4488Y-3.3071
M15
G01X4.4331Y-3.3071
M16
G05
G00X4.6063Y-3.3071
M15
G01X4.5906Y-3.3071
M16
G05
G00X4.7244Y-3.3071
M15
G01X4.7087Y-3.3071
M16
G05
T0
M30
