M48
; DRILL file {KiCad 5.1.6} date Thu Jun  4 22:09:10 2020
; FORMAT={-:-/ absolute / inch / decimal}
; #@! TF.CreationDate,2020-06-04T22:09:10+01:00
; #@! TF.GenerationSoftware,Kicad,Pcbnew,5.1.6
; #@! TF.FileFunction,Plated,1,2,PTH
FMAT,2
INCH
T1C0.0157
T2C0.0236
T3C0.0354
T4C0.0500
%
G90
G05
T1
X2.3583Y-3.3947
X2.4633Y-3.2403
X2.4636Y-0.7185
X2.4638Y-3.2005
X2.4921Y-3.44
X2.4924Y-2.8927
X2.4924Y-3.1293
X2.5281Y-1.4559
X2.5567Y-2.2039
X2.561Y-3.4866
X2.5997Y-3.4786
X2.6389Y-3.4751
X2.6511Y-3.3339
X2.6555Y-3.1197
X2.6772Y-2.8927
X2.6789Y-3.3644
X2.7008Y-3.2244
X2.7008Y-3.2638
X2.7215Y-3.1093
X2.7717Y-3.1112
X2.8839Y-3.247
X4.4577Y-2.936
X4.4984Y-3.2051
X4.5384Y-2.936
X4.6719Y-2.4999
X4.7352Y-2.9356
X5.1697Y-2.6829
T4
X6.5748Y-2.7677
X6.7717Y-2.8504
X6.2659Y-3.66
X6.4774Y-3.6889
X0.7087Y-2.5118
X0.9055Y-2.5945
X6.5748Y-2.0197
X6.7717Y-2.1024
X3.7008Y-2.8661
X3.8976Y-2.9488
X0.7087Y-3.2598
X0.9055Y-3.3425
X3.7008Y-2.1181
X3.8976Y-2.2008
X1.4567Y-1.2913
X1.6535Y-1.374
X5.8268Y-2.1181
X6.0236Y-2.2008
X7.3228Y-1.0551
X7.5197Y-1.1378
X8.8189Y-2.5118
X9.0157Y-2.5945
X3.2751Y-3.5581
X3.4438Y-3.6889
X2.2047Y-2.5512
X2.4016Y-2.6339
X0.7087Y-1.7638
X0.9055Y-1.8465
X4.0854Y-3.7713
X4.2146Y-3.9413
X6.5748Y-1.2717
X6.7717Y-1.3543
X8.0709Y-2.0394
X8.2677Y-2.122
X5.8268Y-2.8661
X6.0236Y-2.9488
X8.8189Y-1.7638
X9.0157Y-1.8465
X1.4567Y-2.7874
X1.6535Y-2.8701
X8.0709Y-2.7874
X8.2677Y-2.8701
X5.4949Y-3.9681
X5.7067Y-3.9413
X8.8189Y-3.2598
X9.0157Y-3.3425
X2.9528Y-2.0197
X3.1496Y-2.1024
X5.8268Y-1.3701
X6.0236Y-1.4528
X8.0709Y-1.2913
X8.2677Y-1.374
X2.2047Y-1.0551
X2.4016Y-1.1378
X2.9528Y-1.2717
X3.1496Y-1.3543
X7.3228Y-2.5512
X7.5197Y-2.6339
X2.9528Y-2.7677
X3.1496Y-2.8504
X1.4567Y-2.0394
X1.6535Y-2.122
X3.7008Y-1.3701
X3.8976Y-1.4528
X2.2047Y-1.8031
X2.4016Y-1.8858
X7.3228Y-1.8031
X7.5197Y-1.8858
T2
G00X4.4242Y-2.3726
M15
G01X4.4242Y-2.349
M16
G05
G00X4.4242Y-2.547
M15
G01X4.4242Y-2.5037
M16
G05
G00X4.7644Y-2.3726
M15
G01X4.7644Y-2.349
M16
G05
G00X4.7644Y-2.547
M15
G01X4.7644Y-2.5037
M16
G05
T3
G00X5.2362Y-3.0591
M15
G01X5.252Y-3.0591
M16
G05
G00X5.3543Y-3.0591
M15
G01X5.3701Y-3.0591
M16
G05
G00X5.5118Y-3.0591
M15
G01X5.5276Y-3.0591
M16
G05
G00X5.5551Y-3.2402
M15
G01X5.5709Y-3.2402
M16
G05
G00X4.3661Y-3.0591
M15
G01X4.3504Y-3.0591
M16
G05
G00X4.4094Y-3.2402
M15
G01X4.3937Y-3.2402
M16
G05
G00X4.5669Y-3.2402
M15
G01X4.5512Y-3.2402
M16
G05
G00X4.685Y-3.2402
M15
G01X4.6693Y-3.2402
M16
G05
T0
M30
