M48
; DRILL file {KiCad 5.1.6} date Thu Jun 11 12:04:42 2020
; FORMAT={-:-/ absolute / inch / decimal}
; #@! TF.CreationDate,2020-06-11T12:04:42+01:00
; #@! TF.GenerationSoftware,Kicad,Pcbnew,5.1.6
; #@! TF.FileFunction,NonPlated,1,2,NPTH
FMAT,2
INCH
T1C0.0256
T2C0.0315
T3C0.0390
T4C0.0670
T5C0.1350
%
G90
G05
T1
X4.4805Y-2.5045
X4.7081Y-2.5045
T2
X5.1811Y-3.1772
X5.4567Y-3.1772
X4.4646Y-3.1772
X4.7402Y-3.1772
T3
X6.2291Y-1.8031
X4.5914Y-3.6997
X2.6071Y-1.4882
X7.7252Y-2.2362
X1.111Y-1.4488
X6.9772Y-2.4528
X9.2213Y-2.1969
X6.573Y-3.2517
X8.4732Y-0.9764
X9.2213Y-2.9449
X3.3551Y-1.7047
X3.3551Y-0.9567
X8.4732Y-1.7244
X5.6859Y-3.4942
X2.6071Y-0.7402
X9.2213Y-1.4488
X2.6071Y-2.2362
X4.1031Y-1.8031
X7.7252Y-0.7402
X6.9772Y-0.9567
X7.7252Y-1.4882
X3.3551Y-2.4528
X4.1031Y-1.0551
X6.9772Y-1.7047
X1.111Y-2.9449
X8.4732Y-2.4724
X1.8591Y-1.7244
X3.7452Y-3.358
X6.2291Y-1.0551
X4.1031Y-2.5512
X1.8591Y-0.9764
X1.111Y-2.1969
X6.2291Y-2.5512
X1.8591Y-2.4724
T4
X0.689Y-3.1102
X1.122Y-3.1102
X8.0512Y-2.6378
X8.4843Y-2.6378
X1.437Y-1.8898
X1.8701Y-1.8898
X3.2948Y-3.4085
X3.7131Y-3.5206
X5.8071Y-1.2205
X6.2402Y-1.2205
X3.6811Y-2.7165
X4.1142Y-2.7165
X1.437Y-1.1417
X1.8701Y-1.1417
X0.689Y-2.3622
X1.122Y-2.3622
X5.8071Y-2.7165
X6.2402Y-2.7165
X1.437Y-2.6378
X1.8701Y-2.6378
X5.8071Y-1.9685
X6.2402Y-1.9685
X4.1432Y-3.6319
X4.5182Y-3.8484
X2.185Y-1.6535
X2.6181Y-1.6535
X7.3031Y-2.4016
X7.7362Y-2.4016
X0.689Y-1.6142
X1.122Y-1.6142
X6.5551Y-2.6181
X6.9882Y-2.6181
X8.7992Y-2.3622
X9.2323Y-2.3622
X6.2082Y-3.5206
X6.6265Y-3.4085
X8.0512Y-1.1417
X8.4843Y-1.1417
X8.7992Y-3.1102
X9.2323Y-3.1102
X2.9331Y-1.8701
X3.3661Y-1.8701
X2.9331Y-1.122
X3.3661Y-1.122
X8.0512Y-1.8898
X8.4843Y-1.8898
X5.403Y-3.8484
X5.7781Y-3.6319
X2.185Y-0.9055
X2.6181Y-0.9055
X8.7992Y-1.6142
X9.2323Y-1.6142
X2.185Y-2.4016
X2.6181Y-2.4016
X3.6811Y-1.9685
X4.1142Y-1.9685
X7.3031Y-0.9055
X7.7362Y-0.9055
X6.5551Y-1.122
X6.9882Y-1.122
X7.3031Y-1.6535
X7.7362Y-1.6535
X2.9331Y-2.6181
X3.3661Y-2.6181
X3.6811Y-1.2205
X4.1142Y-1.2205
X6.5551Y-1.8701
X6.9882Y-1.8701
T5
X0.9055Y-3.1102
X8.2677Y-2.6378
X1.6535Y-1.8898
X3.5039Y-3.4646
X6.0236Y-1.2205
X3.8976Y-2.7165
X1.6535Y-1.1417
X0.9055Y-2.3622
X6.0236Y-2.7165
X1.6535Y-2.6378
X6.0236Y-1.9685
X4.3307Y-3.7402
X2.4016Y-1.6535
X7.5197Y-2.4016
X0.9055Y-1.6142
X6.7717Y-2.6181
X9.0157Y-2.3622
X6.4173Y-3.4646
X8.2677Y-1.1417
X9.0157Y-3.1102
X3.1496Y-1.8701
X3.1496Y-1.122
X8.2677Y-1.8898
X5.5906Y-3.7402
X2.4016Y-0.9055
X9.0157Y-1.6142
X2.4016Y-2.4016
X3.8976Y-1.9685
X7.5197Y-0.9055
X6.7717Y-1.122
X7.5197Y-1.6535
X3.1496Y-2.6181
X3.8976Y-1.2205
X6.7717Y-1.8701
T0
M30
