M48
; DRILL file {KiCad 5.1.6} date Sun Aug 16 15:01:47 2020
; FORMAT={-:-/ absolute / inch / decimal}
; #@! TF.CreationDate,2020-08-16T15:01:47+01:00
; #@! TF.GenerationSoftware,Kicad,Pcbnew,5.1.6
; #@! TF.FileFunction,NonPlated,1,2,NPTH
FMAT,2
INCH
T1C0.0197
T2C0.0256
T3C0.0315
T4C0.0689
T5C0.1570
%
G90
G05
T1
X4.8539Y-3.1862
X4.8539Y-3.2453
X4.913Y-3.1862
X4.3201Y-1.6004
X4.3201Y-1.6299
X4.3201Y-1.6594
X4.3791Y-1.6004
X4.3791Y-1.6299
X4.3791Y-1.6594
X5.387Y-1.6075
X5.387Y-1.637
X5.387Y-1.6665
X5.4461Y-1.6075
X5.4461Y-1.637
X5.4461Y-1.6665
X4.8539Y-3.2157
X4.913Y-3.2157
X4.913Y-3.2453
T2
X4.5199Y-2.5439
X4.7474Y-2.5439
T3
X4.9882Y-3.2169
X5.2638Y-3.2169
X4.5039Y-3.2165
X4.7795Y-3.2165
T4
X6.3787Y-1.9098
X6.7787Y-1.9098
X4.1516Y-3.7287
X4.498Y-3.9287
X2.989Y-2.6575
X3.389Y-2.6575
X5.6307Y-1.2602
X6.0307Y-1.2602
X1.4929Y-1.1811
X1.8929Y-1.1811
X7.1268Y-1.6933
X7.5268Y-1.6933
X0.7449Y-3.1496
X1.1449Y-3.1496
X3.737Y-2.0079
X4.137Y-2.0079
X8.6228Y-1.6539
X9.0228Y-1.6539
X6.3787Y-1.1618
X6.7787Y-1.1618
X5.2717Y-3.9272
X5.6181Y-3.7272
X3.737Y-1.2598
X4.137Y-1.2598
X3.737Y-2.7559
X4.137Y-2.7559
X0.7449Y-2.4016
X1.1449Y-2.4016
X2.989Y-1.1614
X3.389Y-1.1614
X7.8748Y-2.6776
X8.2748Y-2.6776
X2.2409Y-1.6929
X2.6409Y-1.6929
X7.1268Y-2.4413
X7.5268Y-2.4413
X0.7449Y-1.6535
X1.1449Y-1.6535
X1.4929Y-2.6772
X1.8929Y-2.6772
X2.2409Y-0.9449
X2.6409Y-0.9449
X8.6228Y-3.15
X9.0228Y-3.15
X8.6228Y-2.402
X9.0228Y-2.402
X1.4929Y-1.9291
X1.8929Y-1.9291
X2.2409Y-2.4409
X2.6409Y-2.4409
X5.6307Y-2.7563
X6.0307Y-2.7563
X7.1268Y-0.9453
X7.5268Y-0.9453
X6.0312Y-3.5561
X6.4176Y-3.4526
X7.8748Y-1.1815
X8.2748Y-1.1815
X2.989Y-1.9094
X3.389Y-1.9094
X6.3787Y-2.6579
X6.7787Y-2.6579
X5.6307Y-2.0083
X6.0307Y-2.0083
X3.3501Y-3.4522
X3.7365Y-3.5557
X7.8748Y-1.9295
X8.2748Y-1.9295
T5
X3.937Y-2.7559
X0.9449Y-2.4016
X3.189Y-1.1614
X8.0748Y-2.6776
X2.4409Y-1.6929
X7.3268Y-2.4413
X0.9449Y-1.6535
X1.6929Y-2.6772
X2.4409Y-0.9449
X8.8228Y-3.15
X8.8228Y-2.402
X1.6929Y-1.9291
X2.4409Y-2.4409
X5.8307Y-2.7563
X7.3268Y-0.9453
X6.2244Y-3.5043
X8.0748Y-1.1815
X3.189Y-1.9094
X6.5787Y-2.6579
X5.8307Y-2.0083
X3.5433Y-3.5039
X8.0748Y-1.9295
X6.5787Y-1.9098
X4.3248Y-3.8287
X3.189Y-2.6575
X5.8307Y-1.2602
X1.6929Y-1.1811
X7.3268Y-1.6933
X0.9449Y-3.1496
X3.937Y-2.0079
X8.8228Y-1.6539
X6.5787Y-1.1618
X5.4449Y-3.8272
X3.937Y-1.2598
T0
M30
